<svg width="22" height="25" viewBox="0 0 22 25" fill="none"
    xmlns="http://www.w3.org/2000/svg">
    <path d="M19.0772 10.01C18.8906 10.0218 18.7365 10.0815 18.6978 10.1967C18.6648 10.2948 18.5685 11.2359 18.4838 12.2884C18.3596 13.8326 18.3653 14.2249 18.513 14.3196C18.7829 14.4926 19.2438 14.4661 19.5201 14.2619C19.8363 14.0283 20.1491 10.7811 19.9007 10.3121C19.7901 10.1032 19.3883 9.99034 19.0772 10.01Z" fill="#FF0000"/>
    <path d="M1.04187 8.59158C0.324554 8.59158 0.170721 8.94978 0.0551823 10.8906C-0.0417054 12.5181 -0.0373623 12.552 0.286274 12.7811C0.67978 13.0596 1.03131 13.0805 1.22333 12.8362C1.36953 12.6503 1.70246 8.88578 1.58927 8.69859C1.55368 8.63974 1.30729 8.59158 1.04187 8.59158Z" fill="#FF0000"/>
    <path d="M5.18769 4.02646C4.63272 4.02549 4.04752 4.6024 3.46277 5.72689C2.45175 7.6711 1.95954 10.5101 1.3948 17.6516C0.933178 23.4891 0.895381 24.5751 1.14579 24.8281C1.2531 24.9366 1.7933 24.9995 2.61893 24.9995C4.06929 24.9995 3.98854 25.0594 4.1566 23.8528L4.24678 23.2057L3.24409 22.9427C1.99677 22.6158 1.76515 22.3588 2.82713 22.4801C3.24579 22.5279 6.19352 22.7637 9.3774 23.004C15.1405 23.4388 16.1653 23.538 16.0545 23.6499C16.0225 23.6823 15.5334 23.775 14.9675 23.8561C14.1888 23.9677 13.8769 24.0802 13.686 24.3184C13.2077 24.9153 14.1204 24.9984 15.4553 24.9995C16.7306 25.0003 17.3715 24.9447 17.4124 24.8777C17.4534 24.8108 17.4147 24.5624 17.3264 24.326C17.2006 23.9893 17.2484 22.8162 17.5464 18.919C17.5903 18.3458 17.6299 17.795 17.6656 17.2659C17.3739 17.2348 17.3635 17.2458 17.3448 17.4108C17.3253 17.5834 17.3173 17.5861 17.0597 17.5067C16.9139 17.4618 16.7799 17.4388 16.7621 17.4557C16.762 17.4558 16.7617 17.4564 16.7616 17.4566C16.7458 17.4782 16.7816 17.6547 16.8424 17.8534L16.9546 18.2204L16.6273 18.0685L16.3002 17.9167L16.3215 18.1109C16.3416 18.2943 16.3336 18.3052 16.1764 18.3029C16.0849 18.3015 16.0078 18.3313 16.0055 18.3689C16.0031 18.4066 15.9572 18.424 15.9034 18.4074C15.8327 18.3856 15.8187 18.4553 15.853 18.6596C15.8961 18.9171 15.8879 18.939 15.76 18.9104C15.64 18.8835 15.6011 18.9099 15.4884 19.0949C15.4152 19.215 15.3392 19.2908 15.3171 19.2654C15.2953 19.2403 15.245 19.2484 15.2055 19.2835C15.166 19.3186 15.1037 19.338 15.067 19.3267C15.0283 19.3148 15.0924 19.2554 15.2203 19.1849C15.4106 19.08 15.4414 19.0343 15.4462 18.8477L15.4517 18.6317L15.5968 18.6969C15.7407 18.7617 15.7413 18.7608 15.6864 18.5715C15.6135 18.3202 15.487 18.2621 15.2129 18.3542C14.9366 18.447 14.6179 18.4189 14.6523 18.3048C14.6656 18.2607 14.7027 18.2544 14.7345 18.2909C14.7662 18.3274 14.8664 18.345 14.957 18.3299C15.0938 18.3072 15.1189 18.2851 15.1045 18.1995C15.0917 18.1229 15.1788 18.1096 15.4429 18.1477C15.9152 18.2157 16.1041 18.1029 16.0705 17.7729L16.0452 17.5237L16.2994 17.6483L16.5537 17.7731L16.4569 17.5237C16.3774 17.3189 16.3833 17.2639 16.4894 17.215C16.5605 17.1822 16.7067 17.1571 16.8143 17.1592C17.0098 17.1631 17.01 17.163 16.9836 17.0009C16.9573 16.8394 16.9581 16.8389 17.2122 16.8499L17.467 16.8608L17.3611 16.7373C17.1462 16.4871 17.209 16.4115 17.5613 16.4966C17.618 16.5103 17.6685 16.5225 17.7133 16.5336C18.1402 9.69531 17.8177 6.68933 16.5942 5.35433L16.1546 4.87444L10.8599 4.45087C7.94783 4.21782 5.39529 4.02682 5.18769 4.02646ZM4.25946 7.79125C4.48135 7.58028 16.02 8.46979 16.2644 8.71671C16.3655 8.81893 16.423 9.78397 16.4285 11.4791L16.4367 14.0844L15.3778 14.1053C13.7112 14.1379 3.55587 13.2547 3.36487 13.0606C3.23904 12.9326 3.24003 12.6113 3.36872 11.7051C3.6249 9.90149 4.06244 7.97858 4.25946 7.79125ZM5.89889 16.0108C6.54737 16.0108 13.6112 16.6055 13.6714 16.6651C13.7034 16.6969 13.6571 16.8836 13.5685 17.0801C13.4799 17.2766 13.3584 17.4294 13.2985 17.4195C13.2386 17.4096 11.5059 17.256 9.448 17.0781C7.39012 16.9002 5.69773 16.7477 5.68738 16.7393C5.67701 16.7309 5.63815 16.5637 5.60106 16.3675C5.54315 16.0614 5.5854 16.0108 5.89889 16.0108ZM5.95432 17.4616C6.0074 17.4623 6.07632 17.4736 6.16528 17.4911C6.37883 17.533 8.04666 17.6759 9.87157 17.8085C11.6965 17.9411 13.2086 18.0647 13.2318 18.0833C13.255 18.1018 13.2321 18.2852 13.181 18.4907C13.0727 18.9271 13.4262 18.9196 9.3774 18.5723C7.74663 18.4325 6.2694 18.3123 6.09468 18.3056C5.83662 18.2957 5.777 18.2111 5.777 17.8542C5.777 17.5522 5.79507 17.4595 5.95432 17.4616ZM6.2265 19.0137C7.14112 19.0325 12.7088 19.5439 12.7798 19.6157C12.8251 19.6614 12.8205 19.8321 12.7693 19.9949C12.6571 20.3523 12.5158 20.3533 8.67144 20.0225L5.98879 19.7918L5.94411 19.3994C5.90659 19.0698 5.95177 19.0081 6.2265 19.0137ZM2.82741 19.5245C3.00973 19.5112 3.24702 19.521 3.5546 19.5415C4.86945 19.6294 5.01046 19.761 4.84519 20.7457C4.70138 21.6025 4.65227 21.6222 3.09435 21.4479L2.31779 21.3612L2.27477 20.6005C2.23014 19.8124 2.28043 19.5645 2.82741 19.5245Z" fill="#FF0000"/>
    <path d="M18.6428 7.95982C18.5016 7.588 18.5586 7.49056 18.9171 7.49056C19.3837 7.49056 19.3639 7.35239 18.8341 6.91222L18.3955 6.5479L19.2106 5.91347L20.0257 5.27905L19.1625 5.23683L18.2994 5.1946L18.7082 4.27377C18.9331 3.76731 19.0858 3.35294 19.0477 3.35294C19.0095 3.35294 18.6648 3.51345 18.2817 3.70963C17.8986 3.90582 17.5563 4.06633 17.5211 4.06633C17.4859 4.06633 17.4129 3.64978 17.3589 3.14066C17.305 2.63154 17.2075 2.24828 17.1424 2.28898C17.0772 2.3297 16.852 2.68203 16.642 3.07198C16.432 3.46192 16.2154 3.78098 16.1606 3.78098C16.1058 3.78098 15.8789 3.51531 15.6562 3.19061C15.2648 2.61987 15.2482 2.61158 15.1569 2.94093C15.105 3.1283 15.0561 3.46125 15.0484 3.68082L15.0343 4.08004L14.4342 3.66943C13.4572 3.00091 13.4741 3.0044 13.6471 3.50605C13.7697 3.86135 13.7612 3.98023 13.6061 4.07933C13.4986 4.1481 13.3586 4.18793 13.2952 4.16783C13.1734 4.12928 12.055 1.35544 12.1613 1.35544C12.1953 1.35544 12.702 1.68195 13.2872 2.08101C13.8724 2.48007 14.3769 2.78069 14.4082 2.74905C14.4395 2.71739 14.5144 2.24644 14.5747 1.70245L14.6843 0.713388L15.3031 1.56946C15.6435 2.0403 15.9668 2.47677 16.0214 2.53939C16.0761 2.60201 16.462 2.05627 16.8789 1.32662L17.6369 0L17.7379 0.570711C17.7935 0.884602 17.8799 1.57305 17.9299 2.1006L18.0209 3.05977L19.1543 2.48394C19.7776 2.16724 20.3143 1.93508 20.3469 1.96804C20.3795 2.00099 20.1823 2.55648 19.9087 3.20246C19.6351 3.84844 19.4112 4.40097 19.4112 4.43032C19.4112 4.45965 19.9937 4.50212 20.7056 4.52468L22 4.56572L20.8521 5.46241C20.2208 5.9556 19.6707 6.41388 19.6298 6.48081C19.5888 6.54774 19.92 6.88078 20.3657 7.2209L21.1761 7.83929L20.6114 7.93223C19.2057 8.16353 18.7227 8.17024 18.6428 7.95982Z" fill="#FFFF00"/>
    <path d="M13.7544 20.5049V21.361V22.217L14.2486 22.3084C14.5204 22.3587 15.06 22.3908 15.4479 22.3798L16.153 22.3597L16.273 21.5956C16.3545 21.0752 16.3427 20.7807 16.2363 20.6732C16.1483 20.5843 15.5722 20.5131 14.9173 20.5102L13.7544 20.5049Z" fill="#FFDD55"/>
    <path d="M13.7544 20.5049L14.9173 20.5102C15.5722 20.5131 16.1483 20.5843 16.2363 20.6732C16.3427 20.7807 16.3545 21.0752 16.273 21.5956L16.153 22.3597L15.4479 22.3798C15.06 22.3908 14.5204 22.3587 14.2486 22.3084L13.7544 22.217V21.3609V20.5049Z" fill="#FFFF00"/>
    <path d="M2.8274 19.5245C2.28042 19.5645 2.23014 19.8124 2.27477 20.6005L2.31779 21.3612L3.09434 21.4479C4.65226 21.6222 4.70138 21.6025 4.84518 20.7457C5.01046 19.761 4.86945 19.6294 3.5546 19.5415C3.24701 19.521 3.00973 19.5112 2.8274 19.5245Z" fill="#FFFF00"/>
    <path d="M6.25486 19.0216C5.98014 19.016 5.93495 19.0777 5.97248 19.4073L6.01716 19.7997L8.69981 20.0304C12.5441 20.3612 12.6854 20.3602 12.7977 20.0028C12.8489 19.84 12.8535 19.6693 12.8082 19.6236C12.7371 19.5518 7.16948 19.0404 6.25486 19.0216Z" fill="#1E1E1E"/>
    <path d="M5.98384 17.4729C5.82459 17.4708 5.80652 17.5635 5.80652 17.8655C5.80652 18.2224 5.86614 18.3071 6.1242 18.317C6.29893 18.3237 7.77616 18.4438 9.40692 18.5837C13.4557 18.9309 13.1022 18.9384 13.2106 18.502C13.2616 18.2966 13.2845 18.1132 13.2613 18.0946C13.2381 18.076 11.726 17.9525 9.9011 17.8198C8.07619 17.6872 6.40835 17.5444 6.1948 17.5024C6.10584 17.485 6.03692 17.4736 5.98384 17.4729Z" fill="#1E1E1E"/>
    <path d="M5.89895 16.0108C5.58546 16.0108 5.54321 16.0614 5.60112 16.3675C5.63821 16.5637 5.67708 16.7309 5.68744 16.7393C5.69779 16.7477 7.39018 16.9002 9.44806 17.0781C11.5059 17.256 13.2387 17.4096 13.2986 17.4195C13.3585 17.4293 13.48 17.2766 13.5686 17.0801C13.6572 16.8835 13.7034 16.6969 13.6714 16.6651C13.6112 16.6055 6.54744 16.0108 5.89895 16.0108Z" fill="#1E1E1E"/>
    <path d="M9.91355 8.05629L10.0134 8.16497L10.4088 8.59468L10.1934 8.9157C9.94477 9.2864 9.85025 9.66614 10.0205 9.61042C10.1083 9.58171 10.1244 9.58945 10.2445 9.71687L10.3738 9.85397L10.6816 9.86512C10.8873 9.87244 11.1479 9.83357 11.468 9.74808C11.9312 9.62438 11.9499 9.6141 12.0458 9.42956L12.1448 9.23868L12.7043 9.13055C12.9829 9.07673 13.1297 9.05439 13.1436 9.06367L13.1439 9.06423L13.1441 9.06479V9.06534C13.1399 9.08006 12.9799 9.13285 12.6638 9.22363L12.2727 9.33593L12.2396 9.56862L12.2063 9.80158L11.7926 9.96711C11.5651 10.0582 11.3765 10.1414 11.3735 10.1521V10.1527L11.3737 10.1533C11.3785 10.1695 11.5007 10.2757 11.652 10.3943C11.8935 10.5838 11.9816 10.6312 12.244 10.7137C12.411 10.7661 12.5603 10.7993 12.5791 10.7886L12.5796 10.7883C12.5945 10.7761 12.7683 10.7225 12.966 10.6694L13.3253 10.5727L13.0548 10.7248C12.747 10.898 12.7405 10.9052 12.8598 10.9427C12.9079 10.9578 13.1253 11.1057 13.343 11.2713L13.7387 11.5722L13.9654 11.5438C14.1643 11.5189 14.2695 11.5113 14.2803 11.5207L14.2808 11.5212V11.5218L14.2811 11.5224L14.2808 11.5229V11.5235C14.275 11.5344 14.1964 11.5586 14.0451 11.5954L13.7169 11.6751L13.2933 11.417C13.0066 11.2426 12.7834 11.1324 12.6036 11.0759C12.3508 10.9965 11.5974 10.8785 11.4876 10.9012C11.4592 10.9071 11.4476 11.0216 11.4617 11.1556C11.4859 11.3858 11.5287 11.4537 12.2369 12.3834C12.6492 12.9248 12.9842 13.3753 12.9814 13.3844C12.9786 13.3935 12.5679 12.9947 12.0686 12.498C11.1972 11.631 11.149 11.5894 10.8589 11.4627C10.6926 11.3901 10.5507 11.3317 10.5437 11.3329L10.5431 11.3331L10.5428 11.3337C10.5369 11.3448 10.5397 11.4556 10.5492 11.5884L10.5671 11.8414L10.8635 11.757L11.16 11.6726L10.8635 11.8464L10.5668 12.0203L10.5856 12.8271C10.5958 13.2708 10.5944 13.6434 10.5825 13.6547C10.5706 13.666 10.4437 13.1374 10.3001 12.4801C10.1566 11.8228 10.0289 11.2472 10.0164 11.2008C9.99407 11.1179 9.9876 11.1154 9.66091 11.0653C9.35645 11.0187 9.32382 11.008 9.27787 10.9397C9.23551 10.8767 9.14846 10.9297 8.72138 11.2777C8.44289 11.5046 8.20649 11.681 8.19632 11.6698L8.19604 11.6692L8.19577 11.6683C8.19209 11.6491 8.28278 11.5007 8.40232 11.3312C8.5257 11.1561 8.63228 10.9944 8.6392 10.972C8.64871 10.9411 8.55207 10.9048 8.24568 10.8243L7.83975 10.7175L8.28622 10.7696C8.76358 10.8252 8.77478 10.8225 8.902 10.6144L8.98529 10.4779L8.80493 10.3987C8.65147 10.3313 8.44341 10.3134 7.40294 10.2767C6.73094 10.253 6.16901 10.2298 6.154 10.2251C6.13898 10.2204 6.67297 10.1723 7.34062 10.1184C8.63252 10.0141 8.59174 10.0255 8.75612 9.72186L8.84685 9.55438L8.45361 9.24172C8.11813 8.97515 7.97989 8.89196 7.51573 8.67658L6.97137 8.42383L7.64947 8.63339L8.32786 8.84294L8.83582 9.1832C9.41402 9.57062 9.43016 9.57304 9.52 9.28575C9.55335 9.17906 9.68843 8.99012 9.84954 8.82427L10.1223 8.5431L9.87022 8.13931L9.81369 8.04874C7.02434 7.83911 4.3649 7.69103 4.25948 7.79125C4.06246 7.97858 3.62494 9.90149 3.36876 11.7051C3.24006 12.6113 3.23904 12.9326 3.36492 13.0606C3.55591 13.2547 13.7112 14.1379 15.3778 14.1053L16.4368 14.0844L16.4285 11.4791C16.423 9.78397 16.3656 8.81893 16.2644 8.71671C16.1375 8.58849 12.9653 8.28699 9.91355 8.05629Z" fill="white" fill-opacity="0.7"/>
</svg>
