<svg width="18" height="22" viewBox="0 0 18 22" fill="none"
    xmlns="http://www.w3.org/2000/svg">
    <path d="M0.153579 5.64953C0.583334 3.81603 1.98588 2.18945 4.03617 1.14676C5.94506 0.175986 8.16099 -0.187354 10.4761 0.0908135C13.2509 0.424199 15.7377 1.82957 17.0337 3.79663C17.5207 4.5358 17.8238 5.32986 17.9428 6.137C17.976 6.36203 17.9948 6.58807 17.9994 6.81422C18.0015 6.9154 17.9975 7.01657 17.997 7.11775C17.9702 12.0806 11.4585 18.4539 8.90928 22C6.38507 18.4717 -0.064174 12.0806 0.00345216 7.11775C0.00436934 7.05092 -0.000181781 6.98366 5.64141e-06 6.91589C0.0011222 6.51234 0.0499963 6.09145 0.153579 5.64953ZM10.3246 12.6801C10.489 12.5962 10.4937 12.5649 10.4937 11.5698C10.4937 10.5589 10.4891 10.5312 10.3087 10.4569C10.181 10.4044 7.82005 10.4032 7.69263 10.4556C7.50775 10.5317 7.50515 10.545 7.49327 11.4751C7.48718 11.9512 7.4919 12.3913 7.50374 12.4533C7.52716 12.5756 7.65272 12.6946 7.77959 12.7147C7.82162 12.7214 8.39411 12.7252 9.05178 12.7231C10.0327 12.7201 10.271 12.7212 10.3246 12.6801ZM10.301 9.79774C10.4263 9.74791 10.4674 9.69211 10.512 9.51137C10.5975 9.16434 10.949 8.86319 11.6321 8.55172C12.185 8.29961 12.7078 7.97438 12.9302 7.74421C13.4086 7.24929 13.6064 6.53765 13.4386 5.91613C13.3046 5.42018 13.0319 5.0347 12.5137 4.60902C11.5343 3.80445 10.1854 3.41293 8.72597 3.5096C7.90267 3.56413 7.15491 3.75588 6.49897 4.08066C6.06155 4.29725 5.40923 4.80088 5.08404 5.17305C4.81131 5.48518 4.76986 5.59558 4.8836 5.70679C4.99586 5.81656 6.53126 6.70331 6.65713 6.73107C6.83494 6.7703 6.96794 6.71681 7.1553 6.53072C7.40668 6.28106 7.97335 5.84299 8.14502 5.76561C8.33409 5.68039 8.7779 5.5918 9.01578 5.5918C9.59324 5.5918 10.1698 5.8031 10.3935 6.09673C10.4743 6.20278 10.488 6.2502 10.4841 6.41094C10.4747 6.80006 10.2481 7.00172 9.46503 7.31779C8.8777 7.55485 8.60703 7.70787 8.22114 8.02099C7.7212 8.42666 7.53394 8.73974 7.49801 9.22998C7.47292 9.57228 7.5171 9.71244 7.67317 9.78563C7.77895 9.83523 7.85788 9.8384 8.99198 9.83849C9.99932 9.83857 10.2152 9.83186 10.301 9.79774Z" fill="#FF0000"/>
</svg>
