<svg width="145" height="101" viewBox="0 0 145 101" fill="none"
    xmlns="http://www.w3.org/2000/svg">
    <path d="M0 95.1026L0.0679205 68.8981L0.135689 42.6936L1.52851 42.5257C2.29455 42.4332 5.7895 42.1562 9.29505 41.9097C12.8006 41.6632 16.5352 41.3791 17.5942 41.2784L19.5196 41.0953V37.4331V33.771L20.6483 33.6101C21.2691 33.5215 23.9068 33.3028 26.51 33.1239C30.8215 32.8276 31.3597 32.8455 32.5518 33.3253L33.8605 33.8519V36.9141V39.9762H34.8414C35.3809 39.9762 37.4673 39.8315 39.4779 39.6547L43.1335 39.3333L46.7343 40.8436C49.0987 41.8353 50.7438 42.354 51.5256 42.354H52.7161L52.7359 39.0102C52.7784 31.8205 53.3991 5.52677 53.5299 5.38047C53.7563 5.127 56.7067 6.08692 58.0598 6.85425C59.2775 7.54488 59.3201 7.61448 59.4551 9.13327C59.5317 9.99491 59.7317 18.7249 59.8997 28.5332C60.0676 38.3415 60.223 46.387 60.245 46.4122C60.5572 46.7693 72.1864 51.2706 72.797 51.2706H73.6412L73.7958 47.0352C73.8808 44.7057 74.0731 36.3234 74.2231 28.4077C74.3732 20.4921 74.5348 13.9723 74.5822 13.9192C74.7306 13.7531 77.4797 14.73 79.0322 15.5005L80.5173 16.2375L80.6908 24.4659C80.7862 28.9915 80.9436 37.4424 81.0405 43.2456C81.1375 49.0489 81.2936 54.1213 81.3876 54.5178C81.5362 55.145 82.2818 55.5404 87.1216 57.5591C92.538 59.8183 94.5693 60.3368 94.7964 59.5185C94.8531 59.3141 95.0401 50.9882 95.2119 41.0164C95.3838 31.0447 95.5732 22.8297 95.6328 22.7609C95.8352 22.5271 98.4823 23.3425 100.007 24.1082L101.525 24.8708L101.692 30.5659C101.783 33.6981 101.977 42.4086 102.122 49.9225C102.267 57.4364 102.474 63.6796 102.581 63.7962C102.689 63.913 104.306 64.6533 106.176 65.4415L109.575 66.8747L109.628 78.7635L109.681 90.6524C110.17 90.4455 53.9113 98.2394 53.9113 98.2394L41.4294 99.1265L7.99442 99.1191L0 95.1026ZM57.2256 90.195C59.6386 90.0251 62.1207 89.8163 62.7415 89.7309L63.8702 89.5757V81.426V73.2763L63.2726 73.1349C62.6621 72.9902 50.8468 71.1845 50.5111 71.1845C50.4093 71.1845 50.326 75.5314 50.326 80.8442V90.5039H51.5822C52.2732 90.5039 54.8127 90.3648 57.2256 90.195ZM77.3691 88.7164C79.6082 88.5552 81.8514 88.4232 82.354 88.4232H83.2677L83.1959 82.2559L83.1242 76.0886L77.016 75.1463C73.6565 74.6281 70.639 74.1934 70.3103 74.1803L69.7128 74.1566V81.7537V89.3508L71.5054 89.1802C72.4913 89.0862 75.13 88.8777 77.3691 88.7164ZM96.4028 87.3812C99.4701 87.1419 102.129 86.9441 102.312 86.9417C102.561 86.9389 102.644 85.9455 102.644 82.9816V79.026L96.2036 78.072C92.6615 77.5473 89.5842 77.1205 89.3651 77.1236C89.0266 77.1282 88.9641 77.933 88.9491 82.479L88.9314 87.8288L89.8786 87.8223C90.3995 87.8195 93.3354 87.6205 96.4028 87.3812ZM102.588 75.1594L102.511 72.5955L95.88 69.6834C92.233 68.0818 89.1556 66.836 89.0415 66.9149C88.7748 67.0994 88.7767 74.4873 89.0435 74.9571C89.2297 75.2848 100.249 77.6257 101.924 77.6934L102.664 77.7232L102.588 75.1594ZM83.197 69.2008L83.1242 64.245L78.875 62.4859C76.538 61.5184 73.5181 60.2759 72.1642 59.7247L69.7025 58.7227L69.7741 65.1608L69.8456 71.5989L76.2194 72.8475C79.7249 73.5342 82.7454 74.1096 82.9315 74.1263C83.1958 74.1501 83.2538 73.0724 83.197 69.2008ZM13.0743 73.1057C16.1753 72.8664 19.0734 72.6706 19.5144 72.6706H20.3163V69.451V66.2314L18.922 66.3543C18.1552 66.4218 14.4206 66.7004 10.6229 66.9732L3.71801 67.4693L3.64262 70.6778L3.56721 73.8862L5.50172 73.7136C6.5657 73.6187 9.97325 73.345 13.0743 73.1057ZM31.072 71.7789C35.1618 71.4585 38.7769 71.1936 39.1055 71.1904C39.6869 71.1857 39.7031 71.1 39.7031 68.0636V64.9428H38.7561C37.4027 64.9428 25.4482 65.8086 24.1007 66.0042L22.972 66.1682V69.2708C22.972 71.5578 23.0592 72.3718 23.304 72.3674C23.4866 72.3646 26.9822 72.0993 31.072 71.7789ZM63.8086 63.2618L63.7374 56.2308L57.0981 53.4847L50.4588 50.7387L50.3882 59.2232C50.3495 63.8896 50.3507 67.7445 50.3912 67.7897C50.5177 67.9313 62.3719 70.2289 63.1449 70.2616L63.88 70.2926L63.8086 63.2618ZM13.4114 63.8011L20.1835 63.3081L20.2592 60.0774L20.3349 56.8467L18.9313 57.0204C18.1593 57.116 14.3907 57.4222 10.5565 57.7008L3.58518 58.2074V61.3712V64.5349L5.11223 64.4146C5.9521 64.3482 9.68676 64.0722 13.4114 63.8011ZM32.0015 62.4074C35.8722 62.1466 39.1885 61.879 39.3711 61.8127C39.6091 61.7261 39.7031 60.7983 39.7031 58.5357V55.3795L38.7072 55.5434C38.1594 55.6335 34.3949 55.9371 30.3416 56.218L22.972 56.7288V59.9703V63.2118L23.9679 63.0467C24.5157 62.9559 28.1308 62.6681 32.0015 62.4074ZM12.7475 54.5427C16.8373 54.2189 20.2134 53.952 20.2499 53.9497C20.2864 53.9488 20.3163 52.5413 20.3163 50.8248C20.3163 47.7851 20.3007 47.7041 19.7187 47.7088C19.3901 47.7097 15.6555 47.9779 11.4196 48.301C7.18371 48.624 3.68811 48.8893 3.65159 48.8906C3.61508 48.8915 3.58517 50.2972 3.58517 52.0137V55.1345L4.44828 55.1336C4.92299 55.1328 8.65766 54.8665 12.7475 54.5427ZM32.6654 53.0596C36.4631 52.7532 39.6002 52.4928 39.6367 52.481C39.6732 52.4686 39.703 51.0551 39.703 49.3387C39.703 47.0372 39.6159 46.2193 39.3711 46.2234C39.1885 46.2262 35.6331 46.4926 31.4703 46.8149C27.3074 47.1372 23.6923 47.4022 23.4367 47.4038C23.0238 47.4047 22.972 47.7546 22.972 50.5276V53.6484L24.3662 53.6332C25.1331 53.6257 28.8677 53.366 32.6654 53.0596ZM94.5055 21.1029C94.5299 20.6295 94.702 20.36 94.9801 20.3599C95.5081 20.3596 95.7388 19.7617 95.7388 18.3933V17.3673L98.5937 17.4517L101.449 17.536L101.53 18.9478C101.597 20.1171 101.699 20.3596 102.127 20.3596C102.501 20.3596 102.644 20.5647 102.644 21.1026V21.8457H98.5555H94.4672L94.5055 21.1029ZM73.4308 12.4632C73.4308 11.9345 73.6013 11.6347 73.9619 11.5291C74.3912 11.4035 74.4931 11.1237 74.4931 10.0708V8.768H77.4143H80.3356V10.0848C80.3356 11.2241 80.4161 11.4145 80.9332 11.4966C81.3709 11.5661 81.5307 11.7904 81.5307 12.3347V13.0777L77.4807 13.1598L73.4308 13.242V12.4632ZM52.4506 3.71526C52.4506 3.03011 52.5702 2.82359 52.9671 2.82359C53.395 2.82359 53.4976 2.58115 53.5647 1.4118L53.6456 0H56.4341H59.2226L59.3035 1.4118C59.3706 2.58115 59.4732 2.82359 59.9011 2.82359C60.298 2.82359 60.4176 3.03011 60.4176 3.71526V4.60692H56.4341H52.4505L52.4506 3.71526Z" fill="black"/>
    <path d="M50.3135 100.8C49.9909 100.691 49.5118 100.461 49.2488 100.289C48.1522 99.5743 46.765 97.8886 46.5189 96.9719C46.4174 96.594 46.437 96.5836 47.4239 96.4891C47.9788 96.436 49.2572 96.3926 50.2648 96.3926C54.5135 96.3926 66.9326 95.8012 67.1657 95.5879C67.2175 95.5404 67.2454 94.8162 67.2277 93.9786C67.1579 90.6873 67.6839 88.3414 68.8502 86.7421C70.13 84.9874 72.0618 84.0622 74.446 84.0622C77.8279 84.0622 80.6487 86.1974 81.8058 89.6332C82.0298 90.2983 82.1992 91.3293 82.2758 92.4942C82.4001 94.3833 82.5621 94.8135 83.0188 94.4665C83.2052 94.3249 83.2678 93.9873 83.264 93.1432C83.2529 90.6297 82.7083 88.4606 81.7054 86.9357C81.4053 86.4794 81.1598 86.0473 81.1598 85.9755C81.1598 85.9037 81.6344 85.8449 82.2144 85.8449H83.269V78.658C83.269 73.0847 83.3147 71.4365 83.4721 71.3168C83.5838 71.232 84.5371 71.0087 85.5906 70.8207C87.254 70.5239 87.5258 70.5076 87.6566 70.6969C87.8227 70.9373 87.8338 79.4967 87.6702 81.1537C87.5559 82.3118 87.7213 82.1918 85.6246 82.6379C84.4167 82.895 83.6509 83.3226 84.4106 83.3159C84.6305 83.3139 85.1025 83.2472 85.4594 83.1676C86.3088 82.9781 89.6474 82.9748 91.4772 83.1617C92.2724 83.2429 95.0768 83.4791 97.7093 83.6867C100.342 83.8942 104.613 84.2632 107.201 84.5066C109.789 84.75 114.462 85.1533 117.585 85.4028C120.708 85.6523 124.505 85.9853 126.022 86.1426C127.539 86.3 130.533 86.567 132.674 86.7358C136.426 87.0316 141.589 87.5473 142.547 87.722C142.801 87.7683 142.947 87.8594 142.872 87.9244C142.699 88.0722 140.266 88.3705 139.233 88.3705C138.099 88.3705 137.948 88.4602 137.948 89.1324C137.948 89.9063 138.162 89.9785 140.868 90.1161L143.058 90.2275L143.109 90.7848C143.153 91.2696 143.104 91.3615 142.733 91.4905C142.499 91.572 141.892 91.6398 141.385 91.6411C140.878 91.6424 140.382 91.6924 140.284 91.7525C140.012 91.9195 139.856 93.6779 140.101 93.8231C140.21 93.8882 140.957 93.9748 141.761 94.0157L143.221 94.09V94.587C143.221 94.8603 143.184 95.136 143.14 95.1997C142.997 95.4026 138.755 95.6833 138.521 95.5052C138.406 95.4183 138.268 95.0944 138.215 94.7854C138.046 93.821 137.181 92.4487 136.251 91.6701C135.182 90.7762 134.405 90.4256 133.491 90.4256C132.657 90.4256 132.043 90.6956 131.354 91.3661C130.691 92.0109 130.376 92.6004 130.081 93.7484C129.449 96.2032 130.098 98.7572 131.743 100.292L132.5 100.998H130.594C128.408 100.998 127.889 100.856 127.115 100.049C126.498 99.4064 126.494 99.3759 126.909 98.6313C127.084 98.3166 127.351 97.4834 127.502 96.7797C127.753 95.6098 127.755 95.4016 127.529 94.3494C127.058 92.1692 125.994 90.7962 124.188 90.0392C123.015 89.5474 121.986 89.543 120.963 90.0254C119.508 90.7109 118.694 92.1773 118.501 94.4614C118.261 97.2992 119.044 99.3085 120.823 100.418C121.138 100.614 121.396 100.825 121.397 100.887C121.398 100.948 120.482 100.998 119.362 100.998C116.675 100.998 116.159 100.738 115.122 98.8655L114.705 98.1123L114.334 98.7817C113.852 99.6491 112.676 100.636 111.883 100.837C111.539 100.925 110.433 100.997 109.426 100.997C107.393 100.998 106.633 100.778 106.023 100.011L105.702 99.6076L105.505 99.9453C105.119 100.606 104.015 100.888 101.51 100.966C98.782 101.051 98.349 100.95 97.2191 99.9688L96.4021 99.2591L96.8143 98.5315C97.0762 98.069 97.3443 97.1623 97.5501 96.0426C97.7282 95.0739 97.9167 94.2177 97.9691 94.1401C98.1943 93.8065 98.3093 92.2385 98.1685 91.422C97.871 89.6963 96.2219 87.4719 94.4824 86.4499C93.7232 86.0038 91.7313 85.5487 90.5359 85.5481C88.8939 85.5476 86.6289 87.1826 85.6646 89.065C85.2124 89.9478 85.1371 90.2712 85.0831 91.5645C85.0125 93.2558 85.2154 93.3285 85.5241 91.7224C85.8027 90.2724 86.4142 89.1795 87.4827 88.222C88.7948 87.0461 89.706 86.6662 91.2194 86.6639C92.2475 86.662 92.5872 86.731 93.4098 87.1061C95.2536 87.9471 96.8893 89.7671 97.35 91.4902C97.6257 92.5213 97.7352 93.4536 97.5696 93.3599C97.4885 93.3141 97.1105 92.6001 96.7295 91.7735C95.9021 89.9782 95.1433 89.0594 93.9477 88.4053C92.0784 87.3826 90.1619 87.4196 88.6587 88.5075C86.9045 89.7771 85.7257 93.275 86.1934 95.823C86.5638 97.8406 87.6157 99.4329 89.158 100.311C89.72 100.631 89.8772 100.785 89.6983 100.843C89.5596 100.887 88.5126 100.921 87.3717 100.918C85.771 100.915 85.1846 100.858 84.804 100.671C83.9742 100.263 83.0545 99.2732 82.4524 98.1401C82.0208 97.3279 81.7877 97.0491 81.5094 97.0125C81.1565 96.9661 81.1455 96.9253 81.2669 96.1211C81.4783 94.7216 81.3914 92.5279 81.0863 91.5603C80.4408 89.5134 78.9852 87.8524 77.1446 87.0626C76.3259 86.7113 76.0118 86.6621 74.5887 86.6621C72.6512 86.6621 71.8495 86.9583 70.6745 88.1085C68.4886 90.2482 68.0701 94.5398 69.7394 97.6952C70.2557 98.6709 71.4208 99.7803 72.549 100.37L73.4105 100.821L72.1599 100.928C70.1251 101.103 68.656 100.959 67.8049 100.502C66.9668 100.053 66.0313 99.1175 65.5513 98.2496C64.8783 97.0328 64.7755 96.9869 62.7244 96.9869H60.8951L60.3991 97.9384C59.8043 99.0795 58.54 100.199 57.3774 100.615C56.3341 100.988 51.2578 101.121 50.3135 100.8ZM103.469 95.6476V94.9813L105.254 94.938C107.658 94.8798 107.769 94.9118 107.769 95.6629C107.769 96.2019 107.807 96.2597 108.134 96.2171C108.441 96.1772 108.499 96.078 108.499 95.5906V95.0116L109.875 95.0439C110.632 95.0616 111.344 95.1466 111.457 95.2326C111.57 95.3186 111.663 95.5774 111.663 95.8077C111.663 96.28 111.837 96.4359 112.216 96.3028C112.381 96.2449 112.474 96.0323 112.474 95.7143V95.2165L113.732 95.1731C114.985 95.1298 114.989 95.1283 115.043 94.7001C115.113 94.136 114.876 94.0205 113.645 94.0178C112.974 94.0158 112.604 93.9521 112.562 93.8298C112.527 93.7277 112.467 93.1178 112.428 92.4746L112.358 91.3051L113.554 91.3754C114.947 91.4572 115.311 91.3083 115.15 90.7224C115.051 90.3612 114.967 90.3317 113.76 90.2352L112.474 90.1326V89.2811C112.474 88.4437 112.29 88.0732 111.874 88.0732C111.724 88.0732 111.663 88.333 111.663 88.9692C111.663 89.6248 111.598 89.8879 111.422 89.9499C111.289 89.9965 110.577 89.9777 109.84 89.9081L108.499 89.7816L108.451 88.7788C108.409 87.8979 108.365 87.776 108.086 87.776C107.803 87.776 107.769 87.8828 107.769 88.7643V89.7527L105.819 89.6629C104.747 89.6135 103.798 89.5325 103.71 89.4829C103.622 89.4332 103.55 88.9908 103.55 88.4997C103.55 87.6587 103.529 87.6096 103.185 87.6543C102.869 87.6954 102.809 87.8115 102.739 88.5188L102.658 89.3359H101.198H99.7375L99.6848 89.8403C99.6186 90.4761 99.8188 90.5935 100.975 90.5964C101.477 90.5977 102.097 90.6371 102.354 90.684L102.82 90.7694L102.763 92.0582C102.731 92.767 102.67 93.3804 102.627 93.4212C102.584 93.4621 101.916 93.4955 101.143 93.4955H99.7374L99.6848 93.9999C99.6174 94.6465 99.8152 94.7532 101.087 94.756C102.444 94.7593 102.739 94.9149 102.739 95.6301C102.739 96.2592 102.847 96.4238 103.218 96.3582C103.4 96.326 103.469 96.1311 103.469 95.6476ZM109.838 93.9052L108.58 93.8546V92.9137C108.58 92.3963 108.532 91.754 108.474 91.4864L108.368 90.9999L109.812 91.1061C110.607 91.1645 111.31 91.2596 111.374 91.3173C111.613 91.5312 111.719 93.5522 111.504 93.7894C111.391 93.9138 111.253 94.0022 111.197 93.9857C111.141 93.9692 110.529 93.9331 109.838 93.9052ZM104.825 93.7492C103.558 93.698 103.556 93.6946 103.553 91.8945L103.55 90.739L105.537 90.8362C106.63 90.8896 107.587 90.985 107.663 91.0481C107.865 91.2168 107.606 93.7152 107.384 93.7342C106.829 93.7814 105.776 93.7877 104.825 93.7492ZM117.542 93.6332C118.392 88.873 122.233 87.3238 125.723 90.3335C126.472 90.9797 126.612 91.053 126.509 90.7474C126.243 89.9568 125.28 89.1631 123.832 88.5412C123.111 88.2316 122.69 88.157 121.641 88.1528C120.462 88.1482 120.276 88.1887 119.613 88.5956C118.125 89.5089 116.932 91.7435 116.739 93.9785C116.652 94.9813 116.668 95.0555 116.967 95.0555C117.247 95.0555 117.321 94.8731 117.542 93.6332ZM129.02 93.9042C129.295 92.6061 129.641 91.8504 130.324 91.0593C131.017 90.2569 132.343 89.5589 133.174 89.5589C134.585 89.5589 136.578 90.6739 137.257 91.8437C137.683 92.5783 137.721 91.9179 137.298 91.1185C136.571 89.7423 134.737 88.6675 133.116 88.6675C132.125 88.6675 131.432 89.0086 130.474 89.9684C129.218 91.2265 128.537 92.7311 128.537 94.2458C128.537 95.0475 128.82 94.8475 129.02 93.9042ZM121.641 100.203C120.688 99.7955 119.714 98.8603 119.237 97.8963C118.732 96.874 118.661 94.425 119.1 93.1519C119.738 91.3017 120.638 90.5624 122.354 90.4809C123.333 90.4345 123.503 90.473 124.306 90.9229C126.023 91.8847 126.824 93.514 126.725 95.8472C126.658 97.4378 126.164 98.6115 125.162 99.5606C124.066 100.598 123.016 100.79 121.641 100.203ZM123.578 97.947C124.409 97.5857 124.882 96.675 124.884 95.4269C124.887 94.1803 124.506 93.3663 123.686 92.8663C122.629 92.2217 121.65 92.4892 120.988 93.6037C120.59 94.2727 120.554 94.4566 120.621 95.4804C120.706 96.7964 121.028 97.4694 121.771 97.8842C122.398 98.234 122.879 98.2507 123.578 97.947ZM121.825 96.2332C120.899 95.5657 121.511 94.0156 122.701 94.0156C123.3 94.0156 124.156 94.7124 124.156 95.2001C124.156 95.6305 123.74 96.3361 123.419 96.4488C122.91 96.6274 122.248 96.5379 121.825 96.2332ZM132.767 100.303C129.86 98.9478 129.131 94.0885 131.51 91.9111C134.075 89.5616 137.751 92.3845 137.413 96.4452C137.364 97.0291 137.243 97.7557 137.143 98.0601C136.934 98.6959 136.122 99.7188 135.48 100.154C134.871 100.567 133.496 100.643 132.767 100.303ZM134.781 98.0018C135.41 97.5491 135.676 96.8609 135.675 95.6917C135.675 94.9035 135.593 94.5611 135.301 94.119C134.877 93.478 134.141 92.9782 133.62 92.9767C133.024 92.9747 132.297 93.6701 132.028 94.4994C131.719 95.4517 131.721 95.7034 132.04 96.6872C132.523 98.1763 133.733 98.7567 134.781 98.0018ZM132.835 96.3906C132.15 95.6978 132.716 94.5603 133.745 94.5603C134.728 94.5603 135.243 95.7489 134.54 96.3926C134.11 96.7862 133.225 96.7852 132.835 96.3906ZM90.5984 100.183C89.5681 99.8887 88.6551 99.2524 87.8771 98.2864C86.9296 97.11 86.5984 96.1577 86.5982 94.6099C86.5978 92.0622 87.533 90.0108 89.0808 89.1639C92.318 87.3927 95.9984 89.814 96.4927 94.0403C96.8092 96.7464 95.1262 99.5459 92.8032 100.178C91.8133 100.447 91.5233 100.448 90.5984 100.183ZM93.1465 97.2084C93.493 96.9217 93.94 96.3393 94.1398 95.9141C94.8811 94.3363 94.285 92.2727 92.8341 91.3935C92.3027 91.0716 92.0621 91.0182 91.4035 91.0761C89.7513 91.2215 88.866 92.3563 88.8786 94.3128C88.8866 95.5432 89.1975 96.2827 90.0267 97.0438C90.6064 97.5759 90.9588 97.7083 91.8273 97.7202C92.395 97.7279 92.6274 97.6378 93.1465 97.2084ZM92.5173 96.5765C92.5173 96.2501 93.1085 95.6959 93.2847 95.8572C93.4299 95.9902 92.9946 96.7184 92.7201 96.8016C92.6048 96.8365 92.5173 96.7394 92.5173 96.5765ZM90.9795 95.4641C90.2507 94.8843 90.2233 93.5804 90.9274 92.9798C92.0886 91.9893 93.6487 93.5601 92.9132 94.9792C92.4781 95.8186 91.6776 96.0194 90.9795 95.4641ZM89.5157 92.9757C89.3799 92.7745 89.5631 92.53 89.8498 92.53C89.9784 92.53 90.0836 92.6637 90.0836 92.8272C90.0836 93.1347 89.6921 93.2371 89.5157 92.9757ZM90.9069 92.0912C90.6507 91.9463 90.8145 91.6387 91.1478 91.6387C91.3944 91.6387 91.4728 92.0152 91.2521 92.1401C91.181 92.1803 91.0256 92.1584 90.9069 92.0912ZM73.4146 99.987C71.7788 99.3875 70.432 98.019 69.6194 96.1304C69.3079 95.4065 69.2528 94.9991 69.2528 93.4214C69.2528 91.8422 69.3078 91.4366 69.6204 90.7099C70.4364 88.8132 72.0419 87.6673 74.0945 87.5164C75.407 87.42 76.4774 87.7393 77.7286 88.6005C79.4498 89.7851 80.1802 91.1549 80.3092 93.4403C80.4997 96.8136 79.0112 99.3233 76.3985 100.034C75.3467 100.32 74.2766 100.303 73.4146 99.987ZM76.5954 97.0224C77.8005 96.1357 78.2883 94.6976 77.926 93.0997C77.3091 90.3789 74.6802 89.3213 72.7396 91.0133C71.1936 92.3612 71.3879 95.429 73.1044 96.7743C74.2829 97.6979 75.5545 97.7883 76.5954 97.0224ZM74.0752 96.4569C73.9581 96.1775 74.2453 95.8728 74.4934 96.0132C74.7608 96.1645 74.7049 96.6897 74.4213 96.6897C74.2846 96.6897 74.1289 96.5849 74.0752 96.4569ZM75.8552 96.2968C75.7133 95.9582 76.2633 95.5914 76.567 95.8221C76.7506 95.9617 76.7419 96.0353 76.5146 96.2653C76.1782 96.6057 75.9884 96.6147 75.8552 96.2968ZM72.6329 95.3397C72.5729 95.2509 72.5988 95.1096 72.6903 95.0258C72.895 94.8384 73.2095 94.9967 73.2095 95.2871C73.2095 95.5373 72.7919 95.5753 72.6329 95.3397ZM74.2641 95.1732C73.2464 94.6388 73.1479 93.31 74.0598 92.4186C74.5219 91.967 75.3272 91.9775 75.9182 92.4429C76.323 92.7617 76.3734 92.9002 76.3734 93.6936C76.3734 94.4335 76.3062 94.6514 75.98 94.9692C75.5527 95.3858 74.8321 95.4715 74.2641 95.1732ZM77.0528 94.6625C76.8141 94.4439 76.9397 93.9936 77.2252 94.0439C77.3814 94.0714 77.5091 94.2212 77.5091 94.3767C77.5091 94.6722 77.2445 94.838 77.0528 94.6625ZM72.3584 92.4929C72.2376 92.1921 72.4035 91.9358 72.7189 91.9358C73.0344 91.9358 73.2056 92.1921 73.091 92.4929C73.052 92.595 72.8881 92.6786 72.7266 92.6786C72.5651 92.6786 72.3994 92.595 72.3584 92.4929ZM73.9682 91.2818C73.8588 91.0208 73.9895 90.8959 74.3723 90.8959C74.5616 90.8959 74.6698 91.0039 74.6698 91.193C74.6698 91.5391 74.1059 91.6105 73.9682 91.2818ZM37.0352 95.3657C36.8451 95.0404 36.8794 91.7244 37.0748 91.5457C37.1454 91.4812 37.8391 91.358 38.6162 91.272L40.0292 91.1157L39.9711 89.8545C39.9391 89.1608 39.878 88.5401 39.8353 88.4751C39.7926 88.4102 39.1434 88.4027 38.3926 88.4584L37.0276 88.5598V87.8743C37.0276 86.7691 37.5515 86.5956 42.0467 86.2116C44.3466 86.0151 50.5195 85.2214 55.2808 84.51C58.4263 84.0399 59.4686 83.9826 59.7251 84.2657C59.9029 84.4618 59.9207 85.4421 59.8226 89.6346C59.7422 93.0715 59.6441 94.7967 59.5253 94.8639C59.3331 94.9727 57.1521 95.0668 46.6523 95.4197C37.5542 95.7255 37.2445 95.7238 37.0352 95.3657ZM39.4362 94.2527C39.5393 94.1944 39.6236 93.9166 39.6236 93.6355C39.6236 93.1322 39.6128 93.1243 38.9259 93.1243C38.5422 93.1243 38.1406 93.2045 38.0335 93.3025C37.7832 93.5318 37.7833 94.0539 38.0338 94.2832C38.2319 94.4646 39.0949 94.4459 39.4362 94.2527ZM48.3211 94.0633C48.4984 94.0011 48.5504 93.7937 48.5149 93.2912L48.4663 92.6043L47.655 92.6149C47.2088 92.6208 46.0538 92.6776 45.0883 92.7413C43.1536 92.869 43.0122 92.9544 43.1644 93.9039L43.2367 94.3549L45.6577 94.2517C46.9893 94.1949 48.1878 94.1102 48.3211 94.0633ZM57.025 93.3194C57.0919 93.2842 57.1467 92.9568 57.1467 92.5921V91.9289L55.8081 92.0189C55.0719 92.0684 54.3783 92.1347 54.2667 92.1662C54.0508 92.2274 53.9803 93.2953 54.1802 93.4783C54.2948 93.5833 56.7885 93.444 57.025 93.3194ZM46.0325 91.1265C51.6238 90.7032 51.3057 90.7495 51.3057 90.3592C51.3057 90.0615 51.242 90.0225 50.8595 90.086C50.6141 90.1266 48.5891 90.2899 46.3596 90.4486C42.4671 90.7257 41.7131 90.7012 42.1466 90.3118C42.2844 90.188 45.5671 89.8683 49.1153 89.6331C51.3827 89.4829 51.4679 89.4583 51.4679 88.9551C51.4679 88.5734 51.4182 88.5237 51.1028 88.5895C50.6154 88.6913 42.9594 89.4103 42.3635 89.4103C41.7543 89.4103 41.7371 89.0181 42.3413 88.9039C43.2809 88.7263 46.624 88.3748 49.0622 88.1973C51.5202 88.0183 51.6075 88.0006 51.677 87.6678C51.7166 87.4784 51.6848 87.2872 51.6065 87.2429C51.5282 87.1986 49.6579 87.3622 47.4503 87.6066C41.3071 88.2867 41.5706 88.2713 41.5706 87.9504C41.5706 87.7023 41.9975 87.63 46.0731 87.1881C48.5494 86.9196 50.8243 86.6563 51.1283 86.6029C51.6424 86.5127 52.1325 86.1068 51.94 85.9306C51.8211 85.8217 47.8887 86.2199 44.2478 86.7096C41.4167 87.0903 41.1686 87.1478 41.2087 87.413C41.4261 88.8512 41.7437 90.736 41.8143 91.0073C41.9206 91.4157 42.1336 91.4218 46.0325 91.1265ZM55.9055 89.8673C56.8176 89.7873 57.4314 89.659 57.5881 89.5155C57.9135 89.2176 58.0965 86.6837 57.8045 86.5184C57.6356 86.4228 53.7722 86.8466 53.593 86.9804C53.4855 87.0606 53.1156 89.921 53.197 90.042C53.2384 90.1035 53.5416 90.1177 53.8709 90.0735C54.2002 90.0293 55.1157 89.9366 55.9055 89.8673ZM62.1765 94.6272L60.9596 94.5356L60.917 89.393C60.8805 84.9999 60.9094 84.2237 61.1145 84.0678C61.3011 83.926 61.7195 83.9216 62.9889 84.048C65.0271 84.2511 67.2062 84.2599 67.2062 84.065C67.2062 83.8493 66.7469 83.7957 63.799 83.6677C58.4251 83.4344 58.3859 83.4373 49.6832 84.7361C47.8538 85.0091 45.5539 85.3095 44.5723 85.4036C43.5907 85.4977 41.7193 85.7033 40.4136 85.8605C39.108 86.0177 37.9195 86.104 37.7725 86.0524C37.6256 86.0007 37.4282 85.8265 37.3338 85.6651C37.0624 85.2007 36.8784 81.148 37.0339 79.0577C37.2054 76.7527 37.403 75.7049 38.5686 70.9211C39.6333 66.5509 39.8992 65.6571 40.2397 65.3026C40.5104 65.0207 46.5246 63.1915 53.7394 61.1966C56.1042 60.5428 58.7864 59.7759 59.6997 59.4924C60.6131 59.2089 61.3961 59.0299 61.4397 59.0946C61.5136 59.204 60.3102 65.773 59.6009 69.1321C59.0583 71.7015 58.9124 73.8273 58.9636 78.4135L59.0126 82.7924L59.4683 82.9391C59.8205 83.0525 59.9613 83.0364 60.0878 82.8684C60.1953 82.7256 60.2129 81.1194 60.139 78.1942C59.9545 70.8883 59.9778 70.5977 61.2936 63.8014C62.2558 58.8312 62.1361 59.253 62.5845 59.253C62.9368 59.253 66.4825 59.8648 76.9968 61.7397C79.7616 62.2328 81.0699 62.528 81.1626 62.6797C81.4577 63.1625 81.6305 67.2571 81.6576 74.4059C81.6731 78.5321 81.6771 82.0021 81.6663 82.117C81.6498 82.2918 81.2293 82.3087 79.0911 82.2201C76.1079 82.0966 75.016 81.9559 74.8179 81.6694C74.7392 81.5556 74.6727 77.1505 74.6701 71.8804C74.6676 66.6103 74.6213 62.148 74.5675 61.9642C74.5138 61.7803 74.4052 61.6299 74.3264 61.6299C74.2449 61.6299 74.1831 65.9542 74.1831 71.6576C74.1831 79.5737 74.1404 81.6881 73.9802 81.6985C73.5263 81.728 72.0955 81.6748 71.1718 81.5941L70.1886 81.5082L69.4214 82.191C68.5428 82.9727 68.5823 83.0342 69.609 82.4833C70.5129 81.9983 70.5838 81.9992 76.7682 82.5744C79.9772 82.8729 81.5865 83.0801 81.6738 83.2062C81.8889 83.5164 81.835 84.8025 81.606 84.8242C80.5654 84.9225 79.7241 84.7498 78.9695 84.2828C75.574 82.1815 71.3834 82.5408 68.7046 85.1627C66.9283 86.9015 66.4378 88.2872 66.3131 91.9201C66.2657 93.3009 66.1554 94.443 66.0613 94.5292C65.8652 94.7087 63.9124 94.758 62.1765 94.6272ZM64.9109 94.3659C65.7223 94.2882 65.9082 94.2208 65.9082 94.0045C65.9082 93.6426 65.6438 93.594 63.3933 93.5423C61.4502 93.4978 61.4462 93.4984 61.3916 93.8513C61.3615 94.0457 61.4345 94.2615 61.5538 94.3308C61.8127 94.481 63.5211 94.4989 64.9109 94.3659ZM65.6823 88.8795C65.74 88.6692 65.7186 88.4345 65.6349 88.3579C65.5512 88.2812 64.5676 88.1761 63.4491 88.1242C61.4962 88.0335 61.412 88.0418 61.3291 88.3322C61.2816 88.4986 61.2899 88.7046 61.3476 88.7901C61.4053 88.8755 62.1813 89.0074 63.0719 89.0831C65.6603 89.303 65.5642 89.3106 65.6823 88.8795ZM45.9514 84.4363C49.7043 83.94 51.343 83.6922 51.9952 83.522C52.3202 83.4373 52.3862 82.8738 52.0711 82.8738C51.9567 82.8738 49.4729 83.208 46.5515 83.6166C43.6301 84.0251 41.2047 84.3593 41.1618 84.3593C40.9582 84.3593 41.1156 83.9343 41.3497 83.8521C41.6782 83.7366 47.6098 82.8262 50.251 82.4858C51.3219 82.3477 52.2517 82.1613 52.3172 82.0715C52.3828 81.9816 52.4376 81.7499 52.4389 81.5566C52.4408 81.2638 52.3803 81.2201 52.0763 81.2954C51.6609 81.3983 42.8668 82.8052 41.6923 82.9567C41.0584 83.0384 40.9216 83.0153 40.9216 82.8264C40.9216 82.7 41.0494 82.5612 41.2055 82.5179C41.5618 82.419 48.1856 81.3332 50.5755 80.982C52.3315 80.7239 52.3611 80.713 52.4125 80.3024C52.4623 79.9051 52.439 79.8892 51.9258 79.9711C49.5737 80.3465 40.9245 81.6853 40.8515 81.6853C40.8008 81.6853 40.7594 81.5542 40.7594 81.3939C40.7594 81.182 40.9253 81.063 41.3678 80.9576C41.8842 80.8347 46.7456 80.0582 51.1558 79.3943C51.8319 79.2925 52.4708 79.1607 52.5755 79.1015C52.7467 79.0046 52.8581 78.2685 52.7016 78.2685C52.6662 78.2685 50.7131 78.5973 48.3614 78.9992C46.0096 79.4011 43.3919 79.8441 42.5441 79.9837C40.4091 80.3352 40.4503 80.3056 40.5394 81.4231C40.6491 82.7985 40.9296 84.8453 41.0285 84.9918C41.0759 85.062 41.3086 85.0841 41.5455 85.0407C41.7824 84.9973 43.7651 84.7254 45.9514 84.4363ZM73.0206 78.6472C73.0925 78.0684 72.7079 77.8228 71.7298 77.8228C70.8312 77.8228 70.381 78.126 70.5487 78.6184C70.71 79.0921 70.9218 79.1662 71.9926 79.1239C72.939 79.0866 72.9676 79.0733 73.0206 78.6472ZM43.0847 75.1556C44.4082 74.825 45.5217 74.5545 45.559 74.5545C45.5963 74.5545 45.6269 74.4589 45.6269 74.3421C45.6269 74.1713 45.2848 74.2138 43.8827 74.5586C41.05 75.2552 40.2209 75.5136 40.1443 75.724C40.095 75.8593 40.1687 75.8962 40.3751 75.8397C40.5418 75.7941 41.7611 75.4862 43.0847 75.1556ZM41.3476 74.176C43.7059 73.7091 52.3238 71.8873 54.9336 71.304C56.1051 71.0421 56.9789 70.7631 57.1672 70.5907C57.3868 70.3896 57.6158 69.6426 57.958 68.0115C58.2229 66.7486 58.6694 64.7915 58.9502 63.6624C59.2416 62.4909 59.3994 61.5567 59.3178 61.4866C59.2392 61.4189 58.1161 61.65 56.8222 62.0001C43.6592 65.5615 41.1899 66.2372 41.1271 66.2947C41.048 66.3671 39.2529 73.0943 39.0717 73.9974C38.9352 74.6774 38.8489 74.6706 41.3476 74.176ZM51.9141 73.1879C53.7199 72.7812 54.7129 72.4902 54.7129 72.3676C54.7129 72.2631 54.6821 72.1776 54.6444 72.1776C54.1692 72.1776 49.0526 73.435 48.8777 73.5947C48.5122 73.9286 48.7926 73.891 51.9141 73.1879ZM72.5189 67.2752C72.5406 64.9465 72.4949 62.9504 72.4173 62.8394C72.3034 62.6765 66.0728 61.3589 65.3171 61.338C65.0793 61.3314 64.9027 61.7493 65.0112 62.0623C65.0774 62.2531 65.315 62.3036 66.1367 62.3013C66.7096 62.2994 67.2394 62.3541 67.314 62.4219C67.3886 62.4898 67.472 63.9066 67.4994 65.5704C67.5468 68.4571 67.5339 68.6093 67.2154 68.9009C67.027 69.0734 66.6699 69.2064 66.395 69.2064C65.7505 69.2064 65.7114 69.2129 65.3809 69.3748C65.0199 69.5517 65.0073 70.2892 65.3607 70.5624C65.6591 70.7931 70.8364 71.5699 71.8304 71.5331L72.4794 71.5091L72.5189 67.2752ZM63.7272 71.3211C64.2811 70.9689 64.7309 69.6521 64.2973 69.6521C64.2144 69.6521 64.0319 69.547 63.8917 69.4186C63.6755 69.2208 63.6376 68.7059 63.6425 66.0389C63.6467 63.7265 63.7047 62.7994 63.8614 62.5406C63.9868 62.3335 64.0331 62.0031 63.9738 61.7377C63.8623 61.2385 63.4061 60.8772 63.1853 61.1133C62.9805 61.3322 61.6424 70.3508 61.7542 70.7587C61.892 71.2611 63.2243 71.6409 63.7272 71.3211ZM141.03 86.7294C139.558 86.5588 129.91 85.6485 122.939 85.0226C119.727 84.7341 114.178 84.2305 110.608 83.9034C107.039 83.5763 102.183 83.145 99.8186 82.9449C97.4538 82.7448 94.3873 82.48 93.0041 82.3565C91.6209 82.2329 90.1971 82.1306 89.8402 82.1291C88.9611 82.1252 88.7767 81.9851 88.6844 81.2496C88.5888 80.4878 88.8155 80.1856 89.4082 80.2842C89.6458 80.3239 91.5925 80.5194 93.7342 80.7189C99.0982 81.2185 106.197 81.9148 110.365 82.3502C112.284 82.5506 115.058 82.8181 116.53 82.9448C119.126 83.1679 125.789 83.8159 136.325 84.8697C143.501 85.5874 143.166 85.5714 143.107 85.1943C143.061 84.8994 142.741 84.8459 137.055 84.1835C133.753 83.7988 128.387 83.2101 125.13 82.8753C121.873 82.5405 117.711 82.1044 115.881 81.9063C114.052 81.7081 110.657 81.3752 108.337 81.1664C106.017 80.9576 102.768 80.6238 101.117 80.4245C96.3528 79.8497 94.8967 79.7325 91.8098 79.6756C90.216 79.6462 88.8893 79.6014 88.8615 79.5759C88.8337 79.5505 88.7803 77.5741 88.7428 75.1838C88.6952 72.1507 88.7281 70.7988 88.8518 70.7083C89.0448 70.567 91.8685 70.9522 99.4941 72.1601C102.127 72.5771 107.457 73.3868 111.338 73.9595C115.22 74.5321 122.595 75.6746 127.726 76.4984C137.125 78.0073 141.923 78.7552 143.342 78.9329C143.844 78.9958 144.167 79.1236 144.27 79.2999C144.364 79.4596 144.414 81.0552 144.393 83.1905L144.356 86.8106L143.221 86.8311C142.596 86.8424 141.61 86.7966 141.03 86.7294ZM40.688 64.1055C40.8325 63.6585 41.8704 61.9126 42.1951 61.5704C42.3424 61.415 42.9039 61.1032 43.4427 60.8775C44.8982 60.2677 51.4272 58.1319 56.4977 56.6068C58.9517 55.8686 61.2881 55.1274 61.6897 54.9595C62.7185 54.5293 63.6757 54.5677 66.9997 55.172C70.2827 55.7688 78.1346 57.4989 79.1766 57.855C79.9847 58.1312 80.373 58.7034 80.7525 60.1768C81.0813 61.4537 81.0677 61.6299 80.6407 61.6299C80.4444 61.6299 77.1406 61.0673 73.2989 60.3797C69.4571 59.692 65.5107 59.0208 64.5291 58.8882C63.5475 58.7555 62.5382 58.5868 62.2863 58.5131C61.9249 58.4075 61.1717 58.5472 58.7168 59.1751C54.8023 60.1762 49.7819 61.6064 45.3835 62.9734C40.2918 64.556 40.5636 64.4904 40.688 64.1055ZM80.0263 59.5156C79.8429 59.0666 79.5538 58.5841 79.3841 58.4434C79.0061 58.1302 77.5142 57.7734 70.938 56.4231C68.127 55.846 65.2673 55.2438 64.5832 55.085C63.899 54.9262 63.2979 54.7963 63.2473 54.7963C62.9424 54.7963 61.8501 57.5182 62.0732 57.7224C62.1117 57.7576 62.3366 57.3996 62.573 56.9267C63.0911 55.8906 63.416 55.539 63.8553 55.539C64.0371 55.539 66.4534 56.0101 69.225 56.5857C78.0385 58.4164 78.9501 58.6963 79.8322 59.843C80.0716 60.1541 80.2882 60.3914 80.3137 60.3703C80.3391 60.3493 80.2098 59.9646 80.0263 59.5156Z" fill="white"/>
    <path d="M100.564 16.8475C101.634 11.3798 105.126 6.52918 110.231 3.41978C114.984 0.524811 120.502 -0.558711 126.266 0.270816C133.175 1.26501 139.367 5.45599 142.594 11.322C143.807 13.5263 144.561 15.8943 144.858 18.3012C144.94 18.9723 144.987 19.6464 144.999 20.3208C145.004 20.6225 144.994 20.9242 144.992 21.226C144.926 36.0257 128.712 55.0317 122.365 65.6065C116.08 55.0846 100.022 36.0257 100.19 21.226C100.193 21.0266 100.181 20.8261 100.182 20.624C100.185 19.4205 100.306 18.1654 100.564 16.8475ZM125.889 37.8134C126.298 37.5632 126.31 37.4701 126.31 34.5024C126.31 31.4878 126.299 31.4053 125.849 31.1838C125.531 31.027 119.653 31.0234 119.336 31.1798C118.875 31.4067 118.869 31.4465 118.839 34.22C118.824 35.6397 118.836 36.9524 118.865 37.137C118.924 37.502 119.236 37.8569 119.552 37.9168C119.657 37.9366 121.082 37.9479 122.72 37.9418C125.162 37.9326 125.756 37.9362 125.889 37.8134ZM125.83 29.218C126.142 29.0694 126.245 28.903 126.356 28.364C126.569 27.3291 127.444 26.431 129.145 25.5022C130.521 24.7504 131.823 23.7805 132.377 23.0941C133.568 21.6182 134.06 19.496 133.643 17.6426C133.309 16.1636 132.63 15.0141 131.34 13.7446C128.901 11.3453 125.542 10.1778 121.909 10.466C119.859 10.6286 117.997 11.2004 116.364 12.169C115.274 12.8149 113.65 14.3168 112.841 15.4266C112.162 16.3574 112.058 16.6866 112.341 17.0183C112.621 17.3456 116.444 19.99 116.757 20.0728C117.2 20.1898 117.531 20.0303 117.998 19.4754C118.624 18.7308 120.035 17.4245 120.462 17.1937C120.933 16.9396 122.038 16.6754 122.63 16.6754C124.068 16.6754 125.504 17.3055 126.061 18.1811C126.262 18.4974 126.296 18.6388 126.286 19.1182C126.263 20.2785 125.699 20.8799 123.749 21.8225C122.286 22.5294 121.612 22.9857 120.652 23.9195C119.407 25.1293 118.941 26.0629 118.851 27.5248C118.789 28.5456 118.899 28.9636 119.287 29.1819C119.551 29.3298 119.747 29.3392 122.571 29.3395C125.079 29.3398 125.617 29.3197 125.83 29.218Z" fill="#FF0000"/>
</svg>
