<svg width="14" height="22" viewBox="0 0 14 22" fill="none"
    xmlns="http://www.w3.org/2000/svg">
    <path fill-rule="evenodd" clip-rule="evenodd" d="M5.50947 5.17699C2.44079 5.21946 -0.0382851 8.00706 0.000447768 11.3717C0.053266 15.9598 4.29066 20.4899 5.70312 22C6.22246 21.416 7.13349 20.3916 8.06411 19.096C6.67168 18.7169 5.34962 17.7038 4.4546 16.0532L3.18972 17.0163L3.82026 13.6637C3.20163 13.1099 2.80099 12.2718 2.79019 11.333C2.77082 9.65071 4.01033 8.25693 5.54467 8.2357C7.07901 8.21447 8.3502 9.57351 8.36957 11.2558C8.37507 11.7337 8.279 12.1883 8.10345 12.5947C7.83815 13.1479 7.51962 13.4799 7.00087 13.9241C7.33384 14.982 7.98315 15.5614 8.66753 15.7404C9.1845 15.8756 9.72371 15.7899 10.1875 15.4556C10.7805 14.102 11.1759 12.6568 11.1593 11.2172C11.1556 10.8991 11.1296 10.5868 11.0829 10.282C10.941 9.69249 10.7407 9.05262 10.4731 8.36261C9.51008 6.44398 7.63615 5.14756 5.50947 5.17699Z" fill="#FFD600"/>
    <path d="M8.22047 0.00173569C7.54136 0.0376886 6.9777 0.630403 7.20198 1.6123C17.4076 15.8325 7.7668 19.4388 6.4502 13.7258L7.16444 13.0643L4.44 12.9261L3.88922 15.8548L4.60999 15.306C8.16843 23.1949 20.8417 17.3849 9.15491 0.313533C8.86167 0.0840812 8.52916 -0.0146065 8.22047 0.00173569Z" fill="#00FF00"/>
</svg>
