<svg width="74" height="37" viewBox="0 0 74 37" fill="none" xmlns="http://www.w3.org/2000/svg">
<path d="M9.22821 36.8405C9.00613 36.753 8.67628 36.5694 8.49522 36.4324C7.74026 35.8614 6.78525 34.5151 6.61581 33.783C6.54595 33.4812 6.55941 33.4728 7.23891 33.3974C7.62088 33.355 8.50099 33.3203 9.1947 33.3203C12.1197 33.3203 20.6696 32.848 20.8301 32.6776C20.8657 32.6397 20.8849 32.0614 20.8727 31.3924C20.8247 28.7638 21.1868 26.8902 21.9898 25.6129C22.8708 24.2115 24.2008 23.4726 25.8421 23.4726C28.1704 23.4726 30.1124 25.1779 30.909 27.9219C31.0632 28.4531 31.1798 29.2765 31.2326 30.2068C31.3181 31.7156 31.4297 32.0592 31.7441 31.7821C31.8724 31.6689 31.9155 31.3993 31.9129 30.7252C31.9053 28.7178 31.5303 26.9854 30.8399 25.7675C30.6333 25.4031 30.4643 25.058 30.4643 25.0006C30.4643 24.9433 30.791 24.8964 31.1903 24.8964H31.9164V19.1565C31.9164 14.7054 31.9478 13.389 32.0562 13.2934C32.1331 13.2256 32.7894 13.0473 33.5146 12.8972C34.6598 12.6602 34.8469 12.6471 34.9369 12.7983C35.0513 12.9903 35.059 19.8263 34.9464 21.1497C34.8676 22.0746 34.9815 21.9788 33.5381 22.3351C32.7065 22.5404 32.1793 22.8819 32.7023 22.8765C32.8537 22.8752 33.1786 22.8217 33.4243 22.7581C34.0091 22.6068 36.3076 22.6041 37.5673 22.7533C38.1147 22.8182 40.0454 23.0069 41.8578 23.1726C43.6701 23.3384 46.6107 23.6331 48.3923 23.8275C50.1739 24.0219 53.3909 24.344 55.5412 24.5432C57.6914 24.7425 60.3052 25.0084 61.3496 25.1341C62.394 25.2598 64.4549 25.473 65.9294 25.6078C68.512 25.844 72.0663 26.2559 72.7262 26.3955C72.9013 26.4325 73.0018 26.5052 72.9496 26.5571C72.8309 26.6751 71.1559 26.9134 70.4446 26.9134C69.6638 26.9134 69.5596 26.985 69.5596 27.5218C69.5596 28.1399 69.7072 28.1976 71.5703 28.3075L73.0782 28.3965L73.1129 28.8416C73.1431 29.2288 73.1096 29.3022 72.8543 29.4052C72.693 29.4703 72.2753 29.5244 71.926 29.5254C71.5768 29.5263 71.2359 29.5665 71.1684 29.6144C70.9808 29.7479 70.8734 31.1522 71.042 31.2681C71.1175 31.3201 71.6317 31.3893 72.1846 31.422L73.1899 31.4813V31.8782C73.1899 32.0965 73.1648 32.3167 73.1341 32.3675C73.0361 32.5296 70.1155 32.7538 69.9542 32.6116C69.8754 32.5421 69.7805 32.2834 69.7434 32.0367C69.6274 31.2664 69.0319 30.1705 68.3913 29.5486C67.6559 28.8347 67.1207 28.5547 66.4918 28.5547C65.9172 28.5547 65.4947 28.7703 65.0203 29.3059C64.5642 29.8208 64.3473 30.2916 64.1438 31.2084C63.7086 33.169 64.1554 35.2088 65.2884 36.4348L65.8093 36.9984H64.4974C62.9923 36.9984 62.6347 36.8853 62.1019 36.2407C61.6775 35.7273 61.6744 35.7029 61.9601 35.1082C62.0808 34.8569 62.2646 34.1914 62.3685 33.6294C62.5414 32.6951 62.5429 32.5288 62.3867 31.6885C62.0629 29.9473 61.3304 28.8507 60.0871 28.2461C59.2794 27.8533 58.5713 27.8498 57.8665 28.2351C56.8649 28.7826 56.3046 29.9537 56.1715 31.7779C56.0062 34.0443 56.5454 35.6491 57.77 36.5349C57.987 36.692 58.1649 36.8604 58.1654 36.9094C58.1658 36.9583 57.5353 36.9984 56.7643 36.9984C54.9147 36.9984 54.5591 36.7909 53.8456 35.2952L53.5586 34.6937L53.3028 35.2283C52.9714 35.9211 52.1615 36.709 51.6154 36.8701C51.3786 36.9399 50.6173 36.9974 49.9237 36.9977C48.5245 36.9986 48.0015 36.8226 47.5814 36.21L47.3605 35.8879L47.2245 36.1577C46.9585 36.6856 46.1989 36.9108 44.4742 36.973C42.5962 37.0407 42.2981 36.9604 41.5202 36.1764L40.9578 35.6096L41.2415 35.0285C41.4219 34.6591 41.6064 33.935 41.7481 33.0407C41.8707 32.267 42.0005 31.5833 42.0366 31.5213C42.1916 31.2549 42.2708 30.0026 42.1738 29.3505C41.969 27.9723 40.8337 26.1957 39.6362 25.3795C39.1135 25.0232 37.7422 24.6597 36.9192 24.6593C35.7887 24.6588 34.2294 25.9646 33.5655 27.468C33.2542 28.1731 33.2024 28.4313 33.1652 29.4643C33.1166 30.8151 33.2563 30.8731 33.4688 29.5904C33.6606 28.4324 34.0816 27.5595 34.8172 26.7947C35.7205 25.8556 36.3478 25.5522 37.3897 25.5504C38.0976 25.5491 38.3314 25.604 38.8977 25.9036C40.1671 26.5752 41.2932 28.0288 41.6103 29.405C41.8001 30.2284 41.8755 30.973 41.7615 30.8982C41.7057 30.8616 41.4454 30.2914 41.1832 29.6312C40.6135 28.1974 40.0911 27.4635 39.268 26.9411C37.9811 26.1243 36.6617 26.1539 35.6269 27.0228C34.4191 28.0368 33.6076 30.8304 33.9296 32.8653C34.1846 34.4767 34.9088 35.7484 35.9706 36.4496C36.3575 36.705 36.4657 36.8286 36.3426 36.8744C36.247 36.91 35.5262 36.9372 34.7408 36.9349C33.6388 36.9318 33.2351 36.8865 32.9731 36.7371C32.4018 36.4113 31.7686 35.6209 31.3541 34.7159C31.057 34.0673 30.8965 33.8446 30.7049 33.8154C30.462 33.7783 30.4544 33.7457 30.538 33.1035C30.6835 31.9857 30.6237 30.2337 30.4136 29.4609C29.9693 27.8261 28.9671 26.4996 27.7 25.8688C27.1363 25.5883 26.9201 25.549 25.9404 25.549C24.6065 25.549 24.0546 25.7855 23.2457 26.7041C21.7408 28.413 21.4526 31.8405 22.6019 34.3606C22.9573 35.1399 23.7594 36.0258 24.5361 36.497L25.1292 36.8568L24.2683 36.9425C22.8674 37.082 21.856 36.9673 21.2701 36.6026C20.6931 36.2434 20.049 35.4965 19.7186 34.8034C19.2553 33.8316 19.1845 33.7949 17.7724 33.7949H16.513L16.1716 34.5548C15.7621 35.4662 14.8917 36.3606 14.0913 36.6924C13.3731 36.9902 9.87834 37.0966 9.22821 36.8405ZM45.8232 32.7253V32.1932L47.0519 32.1586C48.7067 32.1121 48.7832 32.1377 48.7832 32.7376C48.7832 33.1681 48.8094 33.2142 49.0346 33.1802C49.2461 33.1483 49.2859 33.0691 49.2859 32.6799V32.2174L50.2333 32.2432C50.7543 32.2573 51.2444 32.3252 51.3224 32.3939C51.4003 32.4626 51.4641 32.6693 51.4641 32.8532C51.4641 33.2304 51.5841 33.355 51.8449 33.2486C51.9584 33.2024 52.0226 33.0326 52.0226 32.7787V32.3811L52.8883 32.3464C53.7512 32.3119 53.7541 32.3107 53.7908 31.9687C53.8392 31.5182 53.6764 31.4259 52.8289 31.4237C52.3669 31.4224 52.1122 31.3713 52.0831 31.2736C52.0589 31.192 52.0173 30.705 51.9908 30.1913L51.9427 29.2572L52.766 29.3134C53.7249 29.3787 53.9756 29.2598 53.865 28.7919C53.7968 28.5034 53.7388 28.4798 52.9075 28.4028L52.0226 28.3208V27.6408C52.0226 26.9719 51.8958 26.676 51.6093 26.676C51.5062 26.676 51.4641 26.8836 51.4641 27.3916C51.4641 27.9152 51.4195 28.1254 51.2981 28.1749C51.2068 28.2121 50.7167 28.1971 50.209 28.1415L49.2859 28.0405L49.2529 27.2396C49.2239 26.536 49.1933 26.4387 49.0015 26.4387C48.8068 26.4387 48.7833 26.524 48.7833 27.228V28.0174L47.4409 27.9457C46.7027 27.9062 46.0492 27.8415 45.9888 27.8019C45.9284 27.7623 45.879 27.4089 45.879 27.0167C45.879 26.345 45.8644 26.3058 45.6277 26.3415C45.4101 26.3743 45.3689 26.4671 45.3205 27.032L45.2647 27.6845H44.2594H43.254L43.2178 28.0873C43.1722 28.5951 43.31 28.6889 44.1058 28.6912C44.4513 28.6921 44.8786 28.7237 45.0552 28.7612L45.3764 28.8294L45.3369 29.8587C45.3152 30.4248 45.2732 30.9147 45.2434 30.9473C45.2136 30.98 44.7539 31.0066 44.2217 31.0066H43.254L43.2178 31.4094C43.1714 31.9258 43.3076 32.0111 44.1829 32.0133C45.1176 32.0156 45.3205 32.1402 45.3205 32.7114C45.3205 33.2138 45.395 33.3453 45.6502 33.293C45.7757 33.2672 45.8232 33.1115 45.8232 32.7253ZM50.2074 31.3338L49.3417 31.2933V30.5419C49.3417 30.1287 49.3088 29.6157 49.2686 29.402L49.1954 29.0134L50.1901 29.0982C50.7372 29.1449 51.2211 29.2208 51.2654 29.2669C51.4297 29.4378 51.5025 31.0518 51.3545 31.2412C51.2768 31.3406 51.1818 31.4112 51.1432 31.3981C51.1047 31.3849 50.6836 31.356 50.2074 31.3338ZM46.7565 31.2092C45.8845 31.1683 45.8829 31.1656 45.8805 29.7279L45.8788 28.805L47.2472 28.8827C47.9998 28.9254 48.6582 29.0015 48.7103 29.0519C48.8496 29.1866 48.6713 31.1821 48.5185 31.1972C48.1364 31.2349 47.4111 31.2399 46.7565 31.2092ZM55.5114 31.1165C56.0964 27.3148 58.7408 26.0774 61.1437 28.4812C61.6596 28.9973 61.7554 29.0558 61.6847 28.8117C61.5018 28.1804 60.8387 27.5464 59.8416 27.0498C59.3454 26.8025 59.0555 26.7429 58.3337 26.7396C57.522 26.736 57.394 26.7682 56.9374 27.0932C55.9128 27.8226 55.0913 29.6073 54.9585 31.3923C54.899 32.1932 54.9098 32.2525 55.1156 32.2525C55.3083 32.2525 55.3591 32.1068 55.5114 31.1165ZM63.4132 31.333C63.6026 30.2962 63.8412 29.6927 64.3114 29.0609C64.7883 28.42 65.7011 27.8625 66.2736 27.8625C67.245 27.8625 68.6165 28.7531 69.0839 29.6873C69.3775 30.274 69.4037 29.7466 69.1128 29.1082C68.6119 28.0091 67.3492 27.1507 66.2335 27.1507C65.5511 27.1507 65.0742 27.4231 64.4146 28.1896C63.5501 29.1944 63.081 30.396 63.081 31.6058C63.081 32.2461 63.2756 32.0863 63.4132 31.333ZM58.3337 36.3633C57.6776 36.0381 57.0066 35.2912 56.6787 34.5213C56.3309 33.7048 56.2822 31.7489 56.5842 30.7321C57.0232 29.2544 57.6432 28.664 58.8241 28.599C59.498 28.5618 59.6153 28.5926 60.1683 28.952C61.3505 29.7201 61.9015 31.0213 61.8336 32.8847C61.7873 34.1551 61.4471 35.0925 60.7573 35.8505C60.003 36.6794 59.28 36.8324 58.3337 36.3633ZM59.6668 34.5618C60.2394 34.2732 60.5644 33.5459 60.5662 32.5491C60.5679 31.5534 60.3058 30.9033 59.7413 30.504C59.0137 29.9892 58.34 30.2028 57.8839 31.0929C57.6101 31.6272 57.5853 31.7741 57.631 32.5918C57.6897 33.6429 57.9114 34.1803 58.4229 34.5116C58.8543 34.791 59.1856 34.8043 59.6668 34.5618ZM58.4604 33.193C57.8224 32.6599 58.2437 31.4219 59.0633 31.4219C59.4757 31.4219 60.065 31.9784 60.065 32.3679C60.065 32.7117 59.7782 33.2752 59.5574 33.3652C59.2074 33.5079 58.7517 33.4363 58.4604 33.193ZM65.9933 36.4435C63.9915 35.3611 63.4901 31.4802 65.1274 29.7411C66.8939 27.8647 69.4242 30.1192 69.1916 33.3624C69.1582 33.8286 69.0745 34.409 69.0056 34.6521C68.8618 35.1599 68.3027 35.9768 67.8608 36.3246C67.4419 36.6544 66.4949 36.7147 65.9933 36.4435ZM67.3799 34.6055C67.8126 34.244 67.9959 33.6943 67.9953 32.7605C67.9948 32.1311 67.9387 31.8576 67.7375 31.5045C67.4457 30.9925 66.9393 30.5934 66.5802 30.5922C66.1697 30.5909 65.6696 31.146 65.4844 31.8083C65.2718 32.5689 65.2727 32.7699 65.4923 33.5556C65.8248 34.7449 66.6583 35.2084 67.3799 34.6055ZM66.0397 33.3188C65.5683 32.7655 65.9579 31.857 66.6666 31.857C67.3429 31.857 67.6979 32.8062 67.2139 33.3203C66.918 33.6347 66.3082 33.6337 66.0397 33.3188ZM36.9623 36.3477C36.2529 36.1126 35.6244 35.6043 35.0888 34.8329C34.4365 33.8933 34.2084 33.1328 34.2083 31.8965C34.2081 29.8619 34.8519 28.2235 35.9175 27.5471C38.1461 26.1325 40.6798 28.0663 41.0201 31.4416C41.238 33.6029 40.0794 35.8387 38.4801 36.3432C37.7987 36.5582 37.599 36.5588 36.9623 36.3477ZM38.7165 33.9719C38.955 33.7429 39.2628 33.2778 39.4003 32.9382C39.9106 31.6781 39.5003 30.0299 38.5014 29.3278C38.1356 29.0706 37.9699 29.028 37.5165 29.0743C36.3791 29.1904 35.7696 30.0968 35.7783 31.6592C35.7838 32.6419 35.9978 33.2325 36.5687 33.8404C36.9678 34.2654 37.2104 34.3711 37.8083 34.3806C38.1991 34.3868 38.3591 34.3148 38.7165 33.9719ZM38.2833 33.4672C38.2833 33.2065 38.6903 32.7639 38.8116 32.8927C38.9116 32.9989 38.6119 33.5806 38.423 33.647C38.3436 33.6748 38.2833 33.5973 38.2833 33.4672ZM37.2246 32.5788C36.7229 32.1157 36.704 31.0744 37.1887 30.5947C37.9881 29.8036 39.0622 31.0581 38.5559 32.1915C38.2563 32.8619 37.7052 33.0223 37.2246 32.5788ZM36.2169 30.5914C36.1234 30.4307 36.2495 30.2355 36.4469 30.2355C36.5354 30.2355 36.6078 30.3423 36.6078 30.4728C36.6078 30.7184 36.3383 30.8002 36.2169 30.5914ZM37.1746 29.885C36.9983 29.7692 37.111 29.5236 37.3405 29.5236C37.5103 29.5236 37.5642 29.8243 37.4123 29.924C37.3633 29.9562 37.2563 29.9386 37.1746 29.885ZM25.1321 36.191C24.0059 35.7122 23.0788 34.6193 22.5193 33.111C22.3049 32.5328 22.2669 32.2074 22.2669 30.9474C22.2669 29.6862 22.3048 29.3622 22.52 28.7818C23.0818 27.267 24.1871 26.3518 25.6002 26.2313C26.5038 26.1543 27.2407 26.4093 28.1021 27.0971C29.287 28.0432 29.7898 29.1372 29.8787 30.9624C30.0098 33.6566 28.9851 35.661 27.1864 36.2283C26.4622 36.4567 25.7256 36.4433 25.1321 36.191ZM27.3219 33.8234C28.1515 33.1152 28.4874 31.9666 28.238 30.6905C27.8133 28.5174 26.0034 27.6728 24.6674 29.0241C23.6031 30.1006 23.7368 32.5507 24.9185 33.6252C25.7299 34.3628 26.6053 34.435 27.3219 33.8234ZM25.5869 33.3716C25.5063 33.1485 25.704 32.9052 25.8748 33.0173C26.0589 33.1382 26.0204 33.5576 25.8252 33.5576C25.7311 33.5576 25.6239 33.4739 25.5869 33.3716ZM26.8123 33.2438C26.7146 32.9734 27.0933 32.6805 27.3024 32.8647C27.4288 32.9762 27.4228 33.035 27.2663 33.2187C27.0347 33.4905 26.904 33.4977 26.8123 33.2438ZM24.5939 32.4794C24.5527 32.4085 24.5704 32.2957 24.6335 32.2288C24.7744 32.0791 24.9909 32.2055 24.9909 32.4374C24.9909 32.6372 24.7034 32.6676 24.5939 32.4794ZM25.717 32.3465C25.0163 31.9197 24.9485 30.8584 25.5763 30.1465C25.8944 29.7858 26.4488 29.7942 26.8557 30.1659C27.1344 30.4205 27.1691 30.5311 27.1691 31.1648C27.1691 31.7557 27.1228 31.9297 26.8983 32.1836C26.6041 32.5162 26.108 32.5847 25.717 32.3465ZM27.6368 31.9386C27.4725 31.764 27.5589 31.4043 27.7555 31.4445C27.863 31.4665 27.951 31.5861 27.951 31.7103C27.951 31.9464 27.7688 32.0787 27.6368 31.9386ZM24.405 30.2058C24.3218 29.9656 24.436 29.7609 24.6532 29.7609C24.8704 29.7609 24.9882 29.9656 24.9093 30.2058C24.8825 30.2874 24.7696 30.3541 24.6584 30.3541C24.5473 30.3541 24.4332 30.2874 24.405 30.2058ZM25.5132 29.2386C25.4379 29.0301 25.5279 28.9304 25.7914 28.9304C25.9217 28.9304 25.9962 29.0167 25.9962 29.1677C25.9962 29.444 25.608 29.501 25.5132 29.2386ZM0.0868285 32.5002C-0.0441052 32.2404 -0.0204384 29.592 0.114093 29.4493C0.162703 29.3978 0.640225 29.2994 1.17525 29.2307L2.14803 29.1059L2.10801 28.0986C2.086 27.5446 2.04394 27.0489 2.01453 26.997C1.98513 26.9451 1.53818 26.9391 1.02131 26.9836L0.0815588 27.0646V26.5171C0.0815588 25.6345 0.442272 25.4959 3.53693 25.1892C5.12031 25.0323 9.37007 24.3984 12.6479 23.8302C14.8135 23.4548 15.531 23.409 15.7076 23.6351C15.83 23.7918 15.8423 24.5747 15.7747 27.923C15.7194 30.6679 15.6518 32.0457 15.57 32.0994C15.4377 32.1863 13.9362 32.2615 6.70767 32.5433C0.444095 32.7876 0.230912 32.7862 0.0868285 32.5002ZM1.73974 31.6113C1.81071 31.5647 1.86878 31.3429 1.86878 31.1183C1.86878 30.7164 1.86136 30.7101 1.38846 30.7101C1.12429 30.7101 0.84783 30.7741 0.774107 30.8524C0.601747 31.0355 0.601828 31.4525 0.774259 31.6357C0.910647 31.7806 1.50478 31.7655 1.73974 31.6113ZM7.85656 31.4601C7.97862 31.4103 8.01444 31.2447 7.98996 30.8434L7.95649 30.2948L7.39798 30.3033C7.0908 30.3079 6.29562 30.3534 5.63092 30.4042C4.29902 30.5062 4.20166 30.5744 4.30644 31.3327L4.35622 31.693L6.02295 31.6105C6.93966 31.5652 7.76478 31.4975 7.85656 31.4601ZM13.8487 30.8659C13.8948 30.8377 13.9325 30.5764 13.9325 30.285V29.7553L13.011 29.8272C12.5041 29.8668 12.0266 29.9197 11.9498 29.9449C11.8011 29.9937 11.7526 30.8467 11.8902 30.9928C11.9691 31.0766 13.6859 30.9654 13.8487 30.8659ZM6.28097 29.1146C10.1303 28.7764 9.91126 28.8134 9.91126 28.5017C9.91126 28.264 9.86743 28.2328 9.60408 28.2835C9.43513 28.316 8.04105 28.4463 6.50613 28.5731C3.82635 28.7944 3.30726 28.7749 3.60573 28.4638C3.70062 28.365 5.96058 28.1097 8.40329 27.9219C9.96432 27.8018 10.023 27.7822 10.023 27.3803C10.023 27.0755 9.98877 27.0358 9.77163 27.0884C9.43607 27.1696 4.16532 27.7439 3.75504 27.7439C3.33566 27.7439 3.32384 27.4307 3.73977 27.3395C4.38663 27.1976 6.68816 26.9169 8.36674 26.7751C10.0589 26.6321 10.1191 26.618 10.1669 26.3522C10.1941 26.2009 10.1723 26.0482 10.1184 26.0128C10.0645 25.9775 8.77688 26.1082 7.25706 26.3034C3.02778 26.8465 3.20919 26.8342 3.20919 26.5779C3.20919 26.3797 3.50308 26.322 6.30889 25.9691C8.01373 25.7547 9.57986 25.5443 9.78917 25.5017C10.1431 25.4297 10.4805 25.1055 10.348 24.9648C10.2661 24.8778 7.55884 25.1959 5.05226 25.5869C3.10325 25.891 2.93239 25.9369 2.96001 26.1488C3.10972 27.2973 3.32837 28.8027 3.37697 29.0194C3.45013 29.3455 3.59675 29.3504 6.28097 29.1146ZM13.078 28.1089C13.7059 28.045 14.1285 27.9425 14.2364 27.8279C14.4604 27.59 14.5864 25.5662 14.3854 25.4343C14.2691 25.3579 11.6093 25.6963 11.486 25.8032C11.412 25.8673 11.1573 28.1518 11.2134 28.2484C11.2418 28.2975 11.4506 28.3088 11.6773 28.2736C11.904 28.2383 12.5343 28.1642 13.078 28.1089ZM17.3952 31.9104L16.5575 31.8372L16.5281 27.73C16.503 24.2215 16.5229 23.6016 16.6641 23.477C16.7926 23.3638 17.0806 23.3603 17.9545 23.4613C19.3577 23.6234 20.858 23.6304 20.858 23.4749C20.858 23.3026 20.5417 23.2598 18.5122 23.1575C14.8126 22.9712 14.7856 22.9735 8.79425 24.0108C7.53482 24.2288 5.95145 24.4687 5.27566 24.5439C4.59987 24.6191 3.31151 24.7833 2.41264 24.9088C1.51377 25.0343 0.695555 25.1033 0.594392 25.0621C0.493229 25.0208 0.357324 24.8816 0.292382 24.7527C0.10551 24.3818 -0.0211305 21.1451 0.0859105 19.4757C0.203945 17.6348 0.339992 16.798 1.14242 12.9773C1.87546 9.48707 2.05849 8.77321 2.29291 8.49009C2.47928 8.265 6.61974 6.80409 11.5868 5.21085C13.2148 4.68864 15.0613 4.07616 15.6901 3.84977C16.3189 3.62339 16.858 3.48042 16.888 3.53205C16.9389 3.61946 16.1104 8.8658 15.6221 11.5486C15.2485 13.6006 15.1481 15.2984 15.1834 18.9612L15.2171 22.4585L15.5308 22.5756C15.7733 22.6662 15.8702 22.6533 15.9573 22.5191C16.0313 22.4051 16.0434 21.1223 15.9926 18.786C15.8655 12.9511 15.8815 12.7191 16.7874 7.2912C17.4499 3.32168 17.3674 3.65856 17.6762 3.65856C17.9187 3.65856 20.3597 4.14717 27.5982 5.64462C29.5017 6.03839 30.4023 6.27414 30.4662 6.39531C30.6693 6.7809 30.7883 10.0511 30.8069 15.7605C30.8177 19.056 30.8204 21.8273 30.8129 21.9191C30.8016 22.0587 30.5121 22.0721 29.0401 22.0014C26.9862 21.9027 26.2346 21.7903 26.0982 21.5615C26.044 21.4706 25.9982 17.9525 25.9964 13.7435C25.9946 9.53455 25.9629 5.97069 25.9258 5.82387C25.8888 5.67704 25.8141 5.55691 25.7598 5.55691C25.7037 5.55691 25.6611 9.01049 25.6611 13.5656C25.6611 19.8878 25.6317 21.5765 25.5215 21.5848C25.2089 21.6084 24.224 21.5659 23.588 21.5014L22.9112 21.4328L22.3829 21.9781C21.7781 22.6025 21.8053 22.6516 22.5121 22.2116C23.1344 21.8242 23.1832 21.825 27.4409 22.2844C29.6501 22.5227 30.758 22.6882 30.8181 22.7889C30.9662 23.0366 30.9291 24.0639 30.7714 24.0811C30.055 24.1597 29.4758 24.0217 28.9563 23.6487C26.6187 21.9706 23.7337 22.2575 21.8895 24.3515C20.6666 25.7402 20.3289 26.8469 20.243 29.7484C20.2104 30.8511 20.1345 31.7632 20.0697 31.8321C19.9347 31.9755 18.5903 32.0148 17.3952 31.9104ZM19.2778 31.7017C19.8363 31.6397 19.9644 31.5858 19.9644 31.413C19.9644 31.124 19.7823 31.0852 18.233 31.044C16.8952 31.0084 16.8925 31.0088 16.8549 31.2907C16.8341 31.446 16.8844 31.6183 16.9666 31.6737C17.1448 31.7936 18.3209 31.8079 19.2778 31.7017ZM19.8088 27.3199C19.8485 27.152 19.8338 26.9646 19.7762 26.9033C19.7186 26.8421 19.0414 26.7581 18.2714 26.7167C16.9269 26.6443 16.869 26.6509 16.8119 26.8829C16.7792 27.0157 16.7849 27.1802 16.8246 27.2485C16.8644 27.3168 17.3985 27.4221 18.0117 27.4826C19.7937 27.6582 19.7275 27.6642 19.8088 27.3199ZM6.22512 23.7714C8.80884 23.375 9.93698 23.177 10.386 23.0412C10.6097 22.9735 10.6551 22.5234 10.4383 22.5234C10.3595 22.5234 8.6495 22.7904 6.63826 23.1167C4.62702 23.4429 2.95731 23.7099 2.92778 23.7099C2.78759 23.7099 2.89594 23.3704 3.05709 23.3048C3.28329 23.2126 7.36686 22.4854 9.1852 22.2135C9.92243 22.1033 10.5625 21.9544 10.6077 21.8827C10.6528 21.8109 10.6905 21.6259 10.6915 21.4714C10.6929 21.2377 10.6511 21.2027 10.4418 21.2629C10.1558 21.3451 4.10156 22.4687 3.29297 22.5897C2.85655 22.6549 2.76239 22.6365 2.76239 22.4856C2.76239 22.3847 2.85035 22.2738 2.95786 22.2392C3.20309 22.1602 7.76328 21.2931 9.4086 21.0125C10.6175 20.8064 10.6379 20.7977 10.6733 20.4698C10.7075 20.1525 10.6915 20.1398 10.3382 20.2052C8.7189 20.505 2.76438 21.5743 2.71412 21.5743C2.67923 21.5743 2.65069 21.4695 2.65069 21.3415C2.65069 21.1723 2.76492 21.0773 3.06956 20.9931C3.42511 20.8949 6.77189 20.2748 9.80808 19.7445C10.2735 19.6632 10.7134 19.558 10.7855 19.5107C10.9033 19.4333 10.98 18.8454 10.8723 18.8454C10.8479 18.8454 9.50332 19.108 7.88427 19.429C6.26523 19.75 4.46304 20.1038 3.8794 20.2153C2.40957 20.496 2.43791 20.4724 2.49927 21.3649C2.57479 22.4633 2.76791 24.098 2.83598 24.215C2.86864 24.2711 3.0288 24.2887 3.1919 24.2541C3.355 24.2195 4.71995 24.0023 6.22512 23.7714ZM24.8609 19.1478C24.9104 18.6856 24.6456 18.4894 23.9722 18.4894C23.3535 18.4894 23.0437 18.7316 23.1591 19.1248C23.2702 19.5032 23.4159 19.5624 24.1531 19.5286C24.8047 19.4988 24.8244 19.4882 24.8609 19.1478ZM4.25154 16.3593C5.16273 16.0952 5.92928 15.8792 5.95498 15.8792C5.98069 15.8792 6.00172 15.8029 6.00172 15.7096C6.00172 15.5732 5.76623 15.6071 4.80093 15.8825C2.85075 16.4388 2.27998 16.6452 2.22725 16.8132C2.19334 16.9213 2.24402 16.9508 2.38614 16.9057C2.50092 16.8692 3.34035 16.6233 4.25154 16.3593ZM3.05568 15.5769C4.67924 15.204 10.6122 13.7491 12.4089 13.2831C13.2154 13.074 13.817 12.8511 13.9466 12.7135C14.0978 12.5529 14.2555 11.9563 14.4911 10.6536C14.6734 9.64495 14.9808 8.08192 15.1742 7.18017C15.3747 6.24452 15.4834 5.49847 15.4272 5.44243C15.3731 5.38841 14.5999 5.57298 13.7091 5.85258C4.64711 8.6969 2.9471 9.23653 2.90387 9.28245C2.84939 9.34032 1.61354 14.713 1.4888 15.4343C1.39488 15.9773 1.33543 15.9719 3.05568 15.5769ZM10.3301 14.7878C11.5733 14.463 12.257 14.2305 12.257 14.1326C12.257 14.0491 12.2357 13.9809 12.2098 13.9809C11.8826 13.9809 8.36017 14.9851 8.23973 15.1127C7.98808 15.3793 8.18116 15.3493 10.3301 14.7878ZM24.5154 10.0655C24.5304 8.20572 24.4989 6.61153 24.4455 6.52287C24.3671 6.39276 20.0776 5.34048 19.5574 5.32374C19.3937 5.3185 19.2721 5.65226 19.3468 5.90221C19.3924 6.05463 19.5559 6.09493 20.1217 6.09313C20.5161 6.09178 20.8808 6.13523 20.9322 6.18944C20.9835 6.24368 21.0409 7.37521 21.0598 8.70397C21.0925 11.0095 21.0835 11.131 20.8643 11.3639C20.7346 11.5017 20.4887 11.6079 20.2995 11.6079C19.8558 11.6079 19.8288 11.6131 19.6013 11.7424C19.3528 11.8837 19.3441 12.4727 19.5874 12.6909C19.7928 12.8751 23.3572 13.4956 24.0414 13.4661L24.4882 13.447L24.5154 10.0655ZM18.4629 13.2968C18.8442 13.0156 19.1538 11.9639 18.8553 11.9639C18.7983 11.9639 18.6726 11.88 18.5761 11.7774C18.4273 11.6194 18.4011 11.2082 18.4045 9.0782C18.4074 7.23135 18.4473 6.49091 18.5552 6.28427C18.6416 6.1188 18.6734 5.85496 18.6326 5.64304C18.5558 5.24427 18.2418 4.95579 18.0897 5.14433C17.9488 5.3191 17.0276 12.5219 17.1046 12.8476C17.1994 13.2489 18.1166 13.5522 18.4629 13.2968ZM71.682 25.6027C70.6681 25.4665 64.0259 24.7395 59.2273 24.2396C57.0156 24.0092 53.1954 23.607 50.738 23.3458C48.2806 23.0846 44.9379 22.7401 43.3099 22.5802C41.6818 22.4204 39.5707 22.2089 38.6184 22.1103C37.6662 22.0116 36.686 21.9299 36.4403 21.9287C35.8351 21.9256 35.7081 21.8137 35.6446 21.2263C35.5788 20.6179 35.7348 20.3765 36.1428 20.4553C36.3064 20.4869 37.6466 20.6431 39.1211 20.8024C42.8139 21.2014 47.701 21.7576 50.5705 22.1053C51.8913 22.2653 53.8014 22.479 54.8151 22.5801C56.6019 22.7584 61.1892 23.2759 68.4426 24.1175C73.3827 24.6907 73.1526 24.678 73.1118 24.3767C73.08 24.1412 72.8597 24.0985 68.9453 23.5695C66.6722 23.2622 62.9777 22.7921 60.7353 22.5247C58.4929 22.2572 55.6277 21.909 54.3683 21.7507C53.1089 21.5925 50.7715 21.3266 49.1742 21.1598C47.5769 20.9931 45.3401 20.7264 44.2035 20.5673C40.9238 20.1082 39.9214 20.0146 37.7963 19.9692C36.699 19.9457 35.7856 19.9099 35.7665 19.8896C35.7473 19.8693 35.7106 18.2908 35.6847 16.3818C35.652 13.9594 35.6746 12.8797 35.7598 12.8074C35.8927 12.6946 37.8366 13.0022 43.0865 13.9669C44.8988 14.3 48.5682 14.9466 51.2407 15.404C53.9131 15.8613 58.9899 16.7738 62.5225 17.4317C68.9935 18.6368 72.2963 19.2341 73.2734 19.376C73.6191 19.4262 73.8416 19.5283 73.9126 19.6692C73.9768 19.7967 74.0113 21.071 73.9967 22.7764L73.9718 25.6676L73.1899 25.6839C72.7599 25.693 72.0813 25.6564 71.682 25.6027ZM2.60157 7.53409C2.70105 7.17709 3.41558 5.7827 3.6391 5.50934C3.74055 5.38529 4.12706 5.13627 4.49803 4.95598C5.50006 4.46897 9.9949 2.76317 13.4857 1.54514C15.1752 0.95563 16.7837 0.363606 17.0601 0.229521C17.7684 -0.113994 18.4274 -0.0834024 20.7158 0.399229C22.976 0.875927 28.3816 2.25765 29.099 2.54207C29.6553 2.76264 29.9226 3.2196 30.1838 4.39639C30.4102 5.41621 30.4009 5.55693 30.1069 5.55693C29.9718 5.55693 27.6973 5.10758 25.0524 4.55839C22.4076 4.00919 19.6907 3.47316 19.0149 3.36722C18.3391 3.26127 17.6443 3.12648 17.4709 3.06768C17.2221 2.98334 16.7035 3.0949 15.0134 3.59633C12.3185 4.3959 8.86221 5.53815 5.83417 6.62994C2.32878 7.89382 2.51591 7.84148 2.60157 7.53409ZM29.6839 3.86829C29.5576 3.50968 29.3587 3.12435 29.2418 3.01202C28.9815 2.76185 27.9545 2.47685 23.4271 1.39848C21.4919 0.937533 19.5231 0.456619 19.0521 0.329781C18.5811 0.202947 18.1673 0.0991718 18.1325 0.0991718C17.9225 0.0991718 17.1706 2.27305 17.3241 2.43613C17.3506 2.46429 17.5055 2.17833 17.6682 1.8007C18.0249 0.973194 18.2486 0.692405 18.551 0.692405C18.6762 0.692405 20.3397 1.06858 22.2478 1.52836C28.3154 2.99044 28.943 3.214 29.5503 4.12978C29.7151 4.37825 29.8642 4.56776 29.8818 4.55092C29.8993 4.53411 29.8103 4.2269 29.6839 3.86829Z" fill="white"/>
</svg>
