<svg width="145" height="101" viewBox="0 0 145 101" fill="none"
    xmlns="http://www.w3.org/2000/svg">
    <path d="M135.301 98.6725C135.535 98.5886 135.881 98.4125 136.072 98.2812C136.865 97.7336 137.869 96.4424 138.047 95.7403C138.12 95.4508 138.106 95.4428 137.392 95.3704C136.991 95.3297 136.066 95.2965 135.337 95.2965C132.262 95.2965 123.277 94.8436 123.108 94.6801C123.07 94.6438 123.05 94.0891 123.063 93.4475C123.114 90.9265 122.733 89.1296 121.889 87.9047C120.963 86.5606 119.565 85.852 117.84 85.852C115.393 85.852 113.352 87.4874 112.515 90.1191C112.353 90.6286 112.231 91.4183 112.175 92.3105C112.085 93.7575 111.968 94.087 111.638 93.8212C111.503 93.7127 111.457 93.4542 111.46 92.8076C111.468 90.8824 111.862 89.2209 112.588 88.0529C112.805 87.7034 112.983 87.3725 112.983 87.3175C112.983 87.2624 112.639 87.2175 112.22 87.2175H111.456V81.7126C111.456 77.4437 111.423 76.1812 111.31 76.0896C111.229 76.0245 110.539 75.8535 109.777 75.7096C108.573 75.4822 108.376 75.4697 108.282 75.6147C108.162 75.7989 108.154 82.355 108.272 83.6242C108.355 84.5112 108.235 84.4193 109.752 84.761C110.626 84.9579 111.18 85.2855 110.63 85.2803C110.471 85.2788 110.13 85.2277 109.872 85.1667C109.257 85.0216 106.841 85.0191 105.517 85.1622C104.942 85.2244 102.913 85.4053 101.008 85.5643C99.1035 85.7233 96.013 86.0059 94.1406 86.1924C92.2681 86.3788 88.8871 86.6877 86.6272 86.8788C84.3673 87.0699 81.6203 87.3249 80.5226 87.4455C79.425 87.566 77.259 87.7705 75.7094 87.8998C72.9951 88.1264 69.2595 88.5214 68.566 88.6552C68.382 88.6907 68.2764 88.7605 68.3312 88.8102C68.4559 88.9234 70.2164 89.1519 70.9639 89.1519C71.7845 89.1519 71.894 89.2206 71.894 89.7355C71.894 90.3283 71.7389 90.3836 69.7809 90.489L68.1961 90.5743L68.1595 91.0012C68.1279 91.3725 68.1631 91.4429 68.4313 91.5417C68.6009 91.6042 69.0399 91.6561 69.4069 91.657C69.774 91.658 70.1323 91.6964 70.2031 91.7424C70.4004 91.8704 70.5133 93.2172 70.3361 93.3284C70.2567 93.3782 69.7163 93.4446 69.1352 93.4759L68.0786 93.5328V93.9135C68.0786 94.1229 68.105 94.3341 68.1373 94.3828C68.2403 94.5382 71.3098 94.7532 71.4793 94.6168C71.5621 94.5502 71.6618 94.3021 71.7009 94.0655C71.8227 93.3268 72.4487 92.2757 73.1219 91.6793C73.8948 90.9946 74.4573 90.726 75.1183 90.726C75.7222 90.726 76.1662 90.9329 76.6647 91.4465C77.1441 91.9403 77.3721 92.3919 77.5859 93.2712C78.0433 95.1515 77.5738 97.1077 76.383 98.2835L75.8356 98.824H77.2143C78.7962 98.824 79.172 98.7156 79.732 98.0974C80.178 97.605 80.1812 97.5816 79.881 97.0113C79.7542 96.7702 79.561 96.132 79.4517 95.593C79.2701 94.6969 79.2684 94.5374 79.4327 93.7315C79.7729 92.0616 80.5428 91.0099 81.8494 90.4301C82.6983 90.0534 83.4426 90.05 84.1833 90.4195C85.236 90.9446 85.8248 92.0678 85.9647 93.8173C86.1384 95.9909 85.5717 97.53 84.2847 98.3796C84.0566 98.5302 83.8696 98.6918 83.8692 98.7387C83.8687 98.7857 84.5313 98.824 85.3416 98.824C87.2855 98.824 87.6593 98.625 88.4092 97.1906L88.7108 96.6138L88.9796 97.1265C89.328 97.7909 90.1791 98.5465 90.7531 98.701C91.002 98.768 91.802 98.8231 92.531 98.8234C94.0016 98.8244 94.5512 98.6554 94.9927 98.068L95.2249 97.759L95.3678 98.0178C95.6473 98.5241 96.4457 98.7401 98.2583 98.7997C100.232 98.8647 100.545 98.7875 101.363 98.0357L101.954 97.4921L101.656 96.9348C101.466 96.5806 101.272 95.8861 101.123 95.0285C100.995 94.2864 100.858 93.6307 100.82 93.5712C100.657 93.3157 100.574 92.1147 100.676 91.4892C100.891 90.1675 102.084 88.4636 103.343 87.6808C103.892 87.3392 105.334 86.9905 106.199 86.9901C107.387 86.9897 109.025 88.2421 109.723 89.6839C110.05 90.36 110.105 90.6078 110.144 91.5984C110.195 92.8939 110.048 92.9495 109.825 91.7193C109.623 90.6087 109.181 89.7716 108.408 89.0382C107.458 88.1375 106.799 87.8465 105.704 87.8448C104.96 87.8433 104.714 87.8961 104.119 88.1835C102.785 88.8276 101.602 90.2217 101.268 91.5415C101.069 92.3312 100.99 93.0454 101.109 92.9736C101.168 92.9385 101.442 92.3917 101.717 91.7585C102.316 90.3833 102.865 89.6796 103.73 89.1786C105.082 88.3952 106.469 88.4236 107.557 89.2569C108.826 90.2294 109.679 92.9086 109.341 94.8602C109.073 96.4056 108.311 97.6253 107.195 98.2977C106.789 98.5427 106.675 98.6612 106.805 98.7052C106.905 98.7393 107.662 98.7654 108.488 98.7632C109.646 98.7602 110.07 98.7168 110.346 98.5735C110.946 98.261 111.612 97.503 112.047 96.6351C112.36 96.0129 112.528 95.7994 112.73 95.7713C112.985 95.7358 112.993 95.7046 112.905 95.0886C112.752 94.0166 112.815 92.3363 113.036 91.5952C113.503 90.0273 114.556 88.7551 115.888 88.1501C116.48 87.8811 116.707 87.8434 117.737 87.8434C119.139 87.8434 119.719 88.0703 120.569 88.9513C122.151 90.5901 122.454 93.8774 121.246 96.2943C120.872 97.0416 120.029 97.8913 119.213 98.3432L118.59 98.6883L119.494 98.7705C120.967 98.9042 122.03 98.7942 122.645 98.4444C123.252 98.1 123.929 97.3837 124.276 96.7189C124.763 95.7869 124.837 95.7517 126.321 95.7517H127.645L128.004 96.4805C128.434 97.3546 129.349 98.2124 130.19 98.5306C130.945 98.8162 134.618 98.9182 135.301 98.6725ZM96.8406 94.7259V94.2155L95.5493 94.1824C93.8101 94.1378 93.7297 94.1623 93.7297 94.7376C93.7297 95.1505 93.7021 95.1947 93.4655 95.1621C93.2432 95.1315 93.2014 95.0556 93.2014 94.6822V94.2387L92.2057 94.2634C91.6581 94.2771 91.143 94.3421 91.0611 94.408C90.9792 94.4739 90.9121 94.6721 90.9121 94.8485C90.9121 95.2102 90.786 95.3297 90.5119 95.2277C90.3926 95.1834 90.3252 95.0206 90.3252 94.777V94.3957L89.4154 94.3624C88.5085 94.3293 88.5054 94.3281 88.4668 94.0002C88.4159 93.5681 88.587 93.4796 89.4777 93.4775C89.9633 93.476 90.231 93.4272 90.2615 93.3335C90.2871 93.2553 90.3307 92.7882 90.3585 92.2955L90.4092 91.3997L89.5439 91.4535C88.5361 91.5162 88.2726 91.4022 88.3888 90.9534C88.4605 90.6767 88.5214 90.6541 89.3951 90.5802L90.3252 90.5016V89.8494C90.3252 89.208 90.4584 88.9242 90.7595 88.9242C90.8679 88.9242 90.9122 89.1232 90.9122 89.6105C90.9122 90.1127 90.959 90.3142 91.0866 90.3617C91.1825 90.3974 91.6976 90.383 92.2312 90.3296L93.2014 90.2328L93.2361 89.4647C93.2665 88.7899 93.2987 88.6966 93.5002 88.6966C93.7049 88.6966 93.7297 88.7784 93.7297 89.4536V90.2106L95.1404 90.1418C95.9163 90.1041 96.6031 90.042 96.6666 90.004C96.73 89.9659 96.782 89.6271 96.782 89.2509C96.782 88.6067 96.7973 88.5691 97.0461 88.6033C97.2747 88.6348 97.3181 88.7238 97.3689 89.2655L97.4276 89.8914H98.4842H99.5408L99.5789 90.2777C99.6268 90.7647 99.4819 90.8546 98.6457 90.8568C98.2825 90.8578 97.8334 90.888 97.6478 90.924L97.3103 90.9894L97.3517 91.9765C97.3745 92.5195 97.4187 92.9893 97.45 93.0206C97.4813 93.0519 97.9645 93.0775 98.5238 93.0775H99.5408L99.5789 93.4638C99.6277 93.9591 99.4845 94.0408 98.5646 94.043C97.5823 94.0455 97.369 94.1647 97.369 94.7125C97.369 95.1943 97.2907 95.3204 97.0225 95.2702C96.8906 95.2455 96.8406 95.0962 96.8406 94.7259ZM92.2329 93.3913L93.1427 93.3525V92.6319C93.1427 92.2355 93.1773 91.7435 93.2196 91.5386L93.2965 91.1659L92.2511 91.2473C91.6761 91.292 91.1675 91.3648 91.1209 91.4091C90.9483 91.5729 90.8718 93.1209 91.0273 93.3026C91.1089 93.3979 91.2088 93.4655 91.2494 93.4529C91.2899 93.4403 91.7325 93.4126 92.2329 93.3913ZM95.8598 93.2718C96.7761 93.2326 96.7778 93.23 96.7803 91.8512L96.7824 90.9661L95.3443 91.0405C94.5533 91.0814 93.8614 91.1545 93.8066 91.2028C93.6602 91.3321 93.8476 93.2458 94.0081 93.2603C94.4097 93.2965 95.1717 93.3012 95.8598 93.2718ZM86.6584 93.1829C86.0437 89.5368 83.2644 88.3502 80.739 90.6555C80.1968 91.1505 80.0961 91.2066 80.1704 90.9725C80.3627 90.367 81.0595 89.759 82.1075 89.2827C82.629 89.0456 82.9336 88.9884 83.6923 88.9852C84.5454 88.9817 84.6799 89.0127 85.1598 89.3244C86.2366 90.0239 87.1 91.7355 87.2395 93.4474C87.3021 94.2156 87.2908 94.2724 87.0744 94.2724C86.8719 94.2724 86.8186 94.1327 86.6584 93.1829ZM78.3538 93.3905C78.1547 92.3962 77.904 91.8174 77.4098 91.2114C76.9086 90.5968 75.9493 90.0622 75.3476 90.0622C74.3267 90.0622 72.8853 90.9162 72.394 91.8123C72.0855 92.3749 72.0579 91.8691 72.3637 91.2568C72.8901 90.2027 74.2171 89.3794 75.3897 89.3794C76.1069 89.3794 76.6081 89.6407 77.3013 90.3759C78.2099 91.3395 78.703 92.4919 78.703 93.6522C78.703 94.2662 78.4985 94.113 78.3538 93.3905ZM83.6923 98.2149C84.3818 97.903 85.0871 97.1867 85.4317 96.4483C85.7972 95.6652 85.8484 93.7894 85.531 92.8143C85.0696 91.3971 84.418 90.8308 83.1769 90.7684C82.4687 90.7329 82.3454 90.7624 81.7642 91.107C80.5217 91.8437 79.9426 93.0916 80.014 94.8787C80.0626 96.0971 80.4201 96.9961 81.1451 97.7231C81.9379 98.5181 82.6977 98.6648 83.6923 98.2149ZM82.2912 96.4872C81.6894 96.2104 81.3479 95.5128 81.346 94.5569C81.3439 93.602 81.6196 92.9785 82.2129 92.5955C82.9776 92.1018 83.6857 92.3067 84.1651 93.1603C84.4528 93.6727 84.4788 93.8136 84.4308 94.5978C84.3691 95.6059 84.1361 96.1213 83.5986 96.439C83.1452 96.7069 82.7969 96.7198 82.2912 96.4872ZM83.5591 95.1744C84.2297 94.6632 83.7869 93.4759 82.9255 93.4759C82.4921 93.4759 81.8727 94.0096 81.8727 94.3831C81.8727 94.7128 82.1741 95.2533 82.4062 95.3396C82.774 95.4764 83.253 95.4078 83.5591 95.1744ZM75.6422 98.2918C77.746 97.2537 78.2729 93.5317 76.5522 91.8638C74.6956 90.0643 72.0363 92.2265 72.2808 95.3368C72.3159 95.784 72.4039 96.3406 72.4763 96.5737C72.6274 97.0608 73.2151 97.8442 73.6794 98.1778C74.1198 98.4941 75.115 98.5519 75.6422 98.2918ZM74.1848 96.5291C73.7301 96.1824 73.5375 95.6552 73.5382 94.7597C73.5386 94.156 73.5976 93.8937 73.8091 93.5551C74.1158 93.064 74.6479 92.6812 75.0254 92.6801C75.4567 92.6786 75.9824 93.2112 76.177 93.8464C76.4005 94.5758 76.3995 94.7686 76.1687 95.5221C75.8192 96.6627 74.9433 97.1073 74.1848 96.5291ZM75.5934 95.295C76.0888 94.7644 75.6794 93.8931 74.9345 93.8931C74.2238 93.8931 73.8507 94.8035 74.3593 95.2965C74.6704 95.598 75.3112 95.5972 75.5934 95.295ZM106.153 98.1999C106.899 97.9744 107.559 97.487 108.122 96.7471C108.808 95.846 109.048 95.1166 109.048 93.931C109.048 91.9797 108.371 90.4083 107.251 89.7597C104.909 88.403 102.246 90.2576 101.889 93.4948C101.66 95.5675 102.877 97.7118 104.558 98.1956C105.274 98.4018 105.484 98.4027 106.153 98.1999ZM104.31 95.9214C104.059 95.7018 103.736 95.2557 103.591 94.93C103.055 93.7215 103.486 92.1408 104.536 91.4674C104.92 91.2208 105.094 91.1799 105.571 91.2243C106.766 91.3356 107.407 92.2049 107.398 93.7034C107.392 94.6459 107.167 95.2123 106.567 95.7953C106.148 96.2029 105.893 96.3043 105.264 96.3134C104.853 96.3193 104.685 96.2503 104.31 95.9214ZM104.765 95.4374C104.765 95.1874 104.337 94.7629 104.21 94.8864C104.105 94.9883 104.42 95.5461 104.618 95.6098C104.702 95.6366 104.765 95.5622 104.765 95.4374ZM105.878 94.5853C106.405 94.1412 106.425 93.1425 105.915 92.6825C105.075 91.9238 103.946 93.1269 104.478 94.2139C104.793 94.8569 105.372 95.0107 105.878 94.5853ZM106.937 92.6793C107.035 92.5252 106.902 92.338 106.695 92.338C106.602 92.338 106.526 92.4404 106.526 92.5655C106.526 92.8011 106.809 92.8796 106.937 92.6793ZM105.93 92.0018C106.115 91.8908 105.997 91.6552 105.756 91.6552C105.577 91.6552 105.521 91.9436 105.68 92.0393C105.732 92.0701 105.844 92.0533 105.93 92.0018ZM118.587 98.0497C119.77 97.5905 120.745 96.5423 121.333 95.0957C121.558 94.5412 121.598 94.2292 121.598 93.0207C121.598 91.8111 121.558 91.5004 121.332 90.9438C120.741 89.4911 119.58 88.6133 118.095 88.4978C117.145 88.4239 116.371 88.6684 115.465 89.3281C114.22 90.2355 113.691 91.2847 113.598 93.0351C113.46 95.619 114.537 97.5413 116.428 98.0855C117.189 98.3045 117.963 98.2917 118.587 98.0497ZM116.285 95.779C115.413 95.0998 115.06 93.9982 115.322 92.7743C115.769 90.6903 117.671 89.8802 119.075 91.1762C120.194 92.2086 120.053 94.5584 118.811 95.5889C117.958 96.2964 117.038 96.3656 116.285 95.779ZM118.109 95.3457C118.193 95.1317 117.986 94.8984 117.806 95.0059C117.613 95.1218 117.653 95.5241 117.858 95.5241C117.957 95.5241 118.07 95.4438 118.109 95.3457ZM116.821 95.2231C116.923 94.9638 116.525 94.6828 116.306 94.8596C116.173 94.9665 116.179 95.0229 116.344 95.199C116.587 95.4597 116.724 95.4666 116.821 95.2231ZM119.152 94.4901C119.196 94.422 119.177 94.3138 119.111 94.2496C118.963 94.1061 118.735 94.2273 118.735 94.4498C118.735 94.6414 119.037 94.6705 119.152 94.4901ZM117.972 94.3625C118.708 93.9532 118.78 92.9354 118.12 92.2526C117.785 91.9067 117.203 91.9147 116.775 92.2712C116.482 92.5154 116.446 92.6215 116.446 93.2292C116.446 93.7959 116.494 93.9628 116.73 94.2063C117.04 94.5253 117.561 94.591 117.972 94.3625ZM115.954 93.9713C116.127 93.8039 116.036 93.459 115.829 93.4975C115.716 93.5186 115.624 93.6333 115.624 93.7524C115.624 93.9788 115.815 94.1058 115.954 93.9713ZM119.351 92.3095C119.438 92.0791 119.318 91.8828 119.09 91.8828C118.862 91.8828 118.738 92.0791 118.821 92.3095C118.849 92.3878 118.968 92.4518 119.084 92.4518C119.201 92.4518 119.321 92.3878 119.351 92.3095ZM118.186 91.3819C118.265 91.1819 118.171 91.0863 117.894 91.0863C117.757 91.0863 117.678 91.169 117.678 91.3139C117.678 91.5789 118.086 91.6336 118.186 91.3819ZM144.909 94.51C145.046 94.2608 145.021 91.7208 144.88 91.584C144.829 91.5346 144.327 91.4402 143.765 91.3744L142.742 91.2546L142.785 90.2886C142.808 89.7573 142.852 89.2818 142.883 89.2321C142.914 89.1823 143.383 89.1766 143.927 89.2193L144.914 89.2969V88.7719C144.914 87.9254 144.535 87.7924 141.283 87.4983C139.619 87.3478 135.152 86.7399 131.707 86.1949C129.431 85.8349 128.677 85.791 128.492 86.0078C128.363 86.1581 128.35 86.9089 128.421 90.1202C128.479 92.7527 128.55 94.0741 128.636 94.1256C128.775 94.2089 130.353 94.281 137.95 94.5514C144.533 94.7856 144.757 94.7843 144.909 94.51ZM143.172 93.6575C143.097 93.6128 143.036 93.4 143.036 93.1847C143.036 92.7992 143.044 92.7931 143.541 92.7931C143.818 92.7931 144.109 92.8546 144.186 92.9297C144.368 93.1053 144.367 93.5052 144.186 93.6808C144.043 93.8198 143.419 93.8054 143.172 93.6575ZM136.743 93.5124C136.615 93.4647 136.577 93.3059 136.603 92.921L136.638 92.3949L137.225 92.403C137.548 92.4075 138.383 92.451 139.082 92.4998C140.482 92.5976 140.584 92.663 140.474 93.3903L140.422 93.7358L138.67 93.6567C137.707 93.6132 136.839 93.5483 136.743 93.5124ZM130.445 92.9426C130.397 92.9156 130.357 92.6649 130.357 92.3855V91.8775L131.326 91.9464C131.858 91.9844 132.36 92.0352 132.441 92.0593C132.597 92.1061 132.648 92.9242 132.504 93.0643C132.421 93.1447 130.616 93.038 130.445 92.9426ZM138.399 91.2629C134.353 90.9387 134.583 90.9741 134.583 90.6752C134.583 90.4472 134.629 90.4173 134.906 90.4659C135.084 90.4971 136.549 90.6221 138.162 90.7437C140.979 90.9559 141.524 90.9372 141.21 90.6389C141.111 90.544 138.736 90.2992 136.168 90.1191C134.528 90.004 134.466 89.9852 134.466 89.5997C134.466 89.3074 134.502 89.2693 134.73 89.3197C135.083 89.3976 140.622 89.9484 141.054 89.9484C141.494 89.9484 141.507 89.648 141.07 89.5605C140.39 89.4245 137.971 89.1552 136.207 89.0192C134.428 88.8821 134.365 88.8686 134.315 88.6137C134.286 88.4686 134.309 88.3221 134.366 88.2882C134.422 88.2543 135.776 88.3796 137.373 88.5668C141.818 89.0877 141.627 89.0759 141.627 88.8301C141.627 88.6401 141.318 88.5847 138.369 88.2463C136.578 88.0406 134.932 87.8389 134.712 87.798C134.34 87.7289 133.985 87.418 134.124 87.2831C134.21 87.1997 137.056 87.5047 139.69 87.8797C141.739 88.1714 141.918 88.2154 141.889 88.4186C141.732 89.5201 141.502 90.9638 141.451 91.1716C141.374 91.4845 141.22 91.4891 138.399 91.2629ZM131.255 90.2984C130.595 90.2371 130.151 90.1388 130.038 90.029C129.802 89.8008 129.67 87.8599 129.881 87.7333C130.003 87.6601 132.799 87.9847 132.928 88.0871C133.006 88.1486 133.274 90.3396 133.215 90.4322C133.185 90.4793 132.966 90.4902 132.727 90.4564C132.489 90.4225 131.827 90.3515 131.255 90.2984ZM126.718 93.9443L127.598 93.8741L127.629 89.9351C127.656 86.5702 127.635 85.9757 127.486 85.8562C127.351 85.7476 127.049 85.7442 126.13 85.8411C124.655 85.9966 123.079 86.0034 123.079 85.8541C123.079 85.6889 123.411 85.6479 125.544 85.5498C129.432 85.3711 129.461 85.3733 135.757 86.3681C137.081 86.5772 138.745 86.8073 139.455 86.8794C140.166 86.9515 141.52 87.109 142.464 87.2294C143.409 87.3498 144.269 87.4159 144.375 87.3763C144.482 87.3368 144.624 87.2033 144.693 87.0797C144.889 86.724 145.022 83.6198 144.91 82.0187C144.786 80.2532 144.643 79.4506 143.799 75.7864C143.029 72.439 142.837 71.7544 142.59 71.4829C142.394 71.267 138.043 69.8659 132.822 68.3379C131.111 67.8371 129.171 67.2496 128.51 67.0325C127.849 66.8154 127.283 66.6783 127.251 66.7278C127.198 66.8116 128.068 71.8432 128.581 74.4161C128.974 76.3842 129.08 78.0124 129.043 81.5253L129.007 84.8794L128.677 84.9917C128.423 85.0786 128.321 85.0663 128.229 84.9375C128.151 84.8282 128.139 83.5979 128.192 81.3573C128.326 75.7613 128.309 75.5387 127.357 70.3331C126.66 66.5261 126.747 66.8491 126.423 66.8491C126.168 66.8491 123.602 67.3177 115.995 68.7539C113.994 69.1315 113.048 69.3576 112.981 69.4739C112.767 69.8437 112.642 72.9799 112.622 78.4557C112.611 81.6162 112.608 84.274 112.616 84.362C112.628 84.4959 112.932 84.5088 114.479 84.441C116.638 84.3464 117.428 84.2386 117.571 84.0192C117.628 83.932 117.676 80.5579 117.678 76.5212C117.68 72.4846 117.713 69.0666 117.752 68.9258C117.791 68.785 117.87 68.6698 117.927 68.6698C117.986 68.6698 118.031 71.982 118.031 76.3506C118.031 82.4139 118.061 84.0335 118.177 84.0414C118.506 84.0641 119.541 84.0233 120.209 83.9615L120.921 83.8957L121.476 84.4187C122.112 85.0175 122.083 85.0646 121.34 84.6426C120.686 84.2711 120.635 84.2718 116.16 84.7124C113.838 84.941 112.674 85.0997 112.611 85.1963C112.455 85.4339 112.494 86.419 112.66 86.4356C113.413 86.5109 114.021 86.3786 114.567 86.0209C117.024 84.4114 120.056 84.6866 121.994 86.6949C123.28 88.0267 123.635 89.0881 123.725 91.8708C123.759 92.9284 123.839 93.8032 123.907 93.8692C124.049 94.0067 125.462 94.0445 126.718 93.9443ZM124.739 93.7441C124.152 93.6847 124.018 93.633 124.018 93.4673C124.018 93.1901 124.209 93.1529 125.837 93.1133C127.243 93.0792 127.246 93.0797 127.286 93.35C127.308 93.4989 127.255 93.6642 127.168 93.7173C126.981 93.8323 125.745 93.846 124.739 93.7441ZM124.181 89.5418C124.14 89.3808 124.155 89.201 124.216 89.1423C124.276 89.0836 124.988 89.003 125.797 88.9632C127.21 88.8938 127.271 88.9001 127.331 89.1226C127.365 89.25 127.359 89.4078 127.318 89.4733C127.276 89.5388 126.714 89.6398 126.07 89.6977C124.197 89.8662 124.267 89.872 124.181 89.5418ZM138.458 86.1385C135.742 85.7584 134.556 85.5685 134.085 85.4382C133.849 85.3733 133.802 84.9417 134.03 84.9417C134.112 84.9417 135.91 85.1977 138.023 85.5106C140.137 85.8235 141.892 86.0796 141.923 86.0796C142.07 86.0796 141.956 85.754 141.787 85.691C141.549 85.6026 137.258 84.9052 135.347 84.6445C134.572 84.5388 133.899 84.396 133.852 84.3271C133.804 84.2583 133.764 84.0808 133.763 83.9327C133.762 83.7085 133.806 83.675 134.026 83.7327C134.326 83.8115 140.689 84.8892 141.539 85.0052C141.998 85.0678 142.097 85.0501 142.097 84.9054C142.097 84.8086 142.004 84.7023 141.891 84.6691C141.634 84.5933 136.841 83.7617 135.112 83.4926C133.841 83.295 133.82 83.2866 133.783 82.9721C133.747 82.6678 133.763 82.6556 134.135 82.7184C135.837 83.0059 142.095 84.0313 142.148 84.0313C142.184 84.0313 142.214 83.9309 142.214 83.8082C142.214 83.6458 142.094 83.5547 141.774 83.474C141.4 83.3798 137.883 82.7851 134.692 82.2765C134.203 82.1986 133.74 82.0976 133.665 82.0522C133.541 81.9781 133.46 81.4142 133.573 81.4142C133.599 81.4142 135.012 81.6661 136.714 81.9739C138.415 82.2818 140.309 82.6211 140.923 82.728C142.468 82.9972 142.438 82.9746 142.373 83.8305C142.294 84.884 142.091 86.4518 142.019 86.564C141.985 86.6178 141.817 86.6347 141.645 86.6015C141.474 86.5682 140.039 86.36 138.458 86.1385ZM118.872 81.7043C118.82 81.261 119.098 81.0728 119.806 81.0728C120.456 81.0728 120.782 81.3051 120.66 81.6822C120.543 82.045 120.39 82.1018 119.615 82.0695C118.931 82.0409 118.91 82.0307 118.872 81.7043ZM140.532 79.0299C139.574 78.7767 138.768 78.5695 138.741 78.5695C138.714 78.5695 138.692 78.4962 138.692 78.4068C138.692 78.276 138.94 78.3085 139.954 78.5726C142.004 79.1061 142.604 79.3041 142.659 79.4653C142.695 79.5689 142.642 79.5972 142.492 79.5539C142.372 79.5189 141.489 79.2831 140.532 79.0299ZM141.789 78.2795C140.082 77.9219 133.847 76.5265 131.958 76.0797C131.111 75.8791 130.479 75.6654 130.342 75.5334C130.183 75.3793 130.018 74.8071 129.77 73.5578C129.578 72.5904 129.255 71.0914 129.052 70.2266C128.841 69.3292 128.727 68.6137 128.786 68.56C128.843 68.5082 129.656 68.6852 130.592 68.9533C140.116 71.6812 141.903 72.1987 141.948 72.2428C142.005 72.2983 143.304 77.451 143.435 78.1428C143.534 78.6636 143.596 78.6584 141.789 78.2795ZM134.143 77.5227C132.837 77.2112 132.118 76.9883 132.118 76.8944C132.118 76.8143 132.14 76.7488 132.168 76.7488C132.512 76.7488 136.214 77.7119 136.34 77.8343C136.605 78.09 136.402 78.0612 134.143 77.5227ZM119.235 72.9938C119.219 71.2101 119.252 69.6812 119.308 69.5962C119.391 69.4714 123.899 68.4622 124.445 68.4461C124.618 68.4411 124.745 68.7612 124.667 69.0009C124.619 69.1471 124.447 69.1858 123.852 69.184C123.438 69.1825 123.055 69.2244 123.001 69.2764C122.947 69.3284 122.886 70.4136 122.867 71.688C122.832 73.8991 122.842 74.0157 123.072 74.239C123.208 74.3712 123.467 74.473 123.666 74.473C124.132 74.473 124.16 74.478 124.399 74.6021C124.661 74.7376 124.67 75.3024 124.414 75.5117C124.198 75.6884 120.452 76.2834 119.733 76.2552L119.263 76.2368L119.235 72.9938ZM125.596 76.0928C125.195 75.8231 124.87 74.8144 125.183 74.8144C125.243 74.8144 125.375 74.7339 125.477 74.6356C125.633 74.484 125.661 74.0897 125.657 72.0469C125.654 70.2757 125.612 69.5655 125.499 69.3674C125.408 69.2087 125.375 68.9556 125.417 68.7524C125.498 68.3699 125.828 68.0933 125.988 68.2741C126.136 68.4417 127.104 75.3496 127.023 75.662C126.924 76.0468 125.96 76.3378 125.596 76.0928ZM69.6635 87.8949C70.729 87.7642 77.7099 87.067 82.7531 86.5876C85.0776 86.3666 89.0925 85.9809 91.6752 85.7303C94.2579 85.4798 97.771 85.1494 99.4821 84.9962C101.193 84.8429 103.412 84.64 104.413 84.5454C105.413 84.4508 106.444 84.3725 106.702 84.3713C107.338 84.3683 107.471 84.261 107.538 83.6976C107.607 83.1142 107.443 82.8826 107.015 82.9582C106.843 82.9885 105.434 83.1383 103.884 83.2911C100.003 83.6738 94.8671 84.2071 91.8513 84.5406C90.4631 84.6941 88.4556 84.8991 87.3903 84.996C85.5124 85.167 80.6912 85.6633 73.068 86.4705C67.876 87.0202 68.1179 87.008 68.1607 86.7191C68.1942 86.4932 68.4257 86.4523 72.5397 85.9449C74.9287 85.6502 78.8116 85.1993 81.1683 84.9428C83.525 84.6864 86.5362 84.3524 87.8599 84.2006C89.1835 84.0488 91.64 83.7938 93.3188 83.6339C94.9975 83.4739 97.3484 83.2183 98.5429 83.0657C101.99 82.6253 103.043 82.5356 105.277 82.492C106.43 82.4695 107.39 82.4352 107.41 82.4157C107.43 82.3962 107.469 80.8823 107.496 79.0515C107.53 76.7282 107.507 75.6928 107.417 75.6234C107.277 75.5152 105.234 75.8103 99.7168 76.7355C97.8121 77.0549 93.9556 77.6751 91.1469 78.1137C88.3382 78.5523 83.0026 79.4274 79.29 80.0584C72.489 81.2142 69.0178 81.787 67.9909 81.9231C67.6276 81.9713 67.3937 82.0692 67.3191 82.2043C67.2516 82.3265 67.2154 83.5487 67.2308 85.1843L67.2569 87.9571L68.0786 87.9728C68.5306 87.9815 69.2438 87.9464 69.6635 87.8949ZM142.266 70.566C142.161 70.2236 141.41 68.8863 141.175 68.6242C141.069 68.5052 140.663 68.2664 140.273 68.0934C139.22 67.6264 134.496 65.9904 130.827 64.8222C129.051 64.2569 127.361 63.6891 127.07 63.5605C126.326 63.231 125.633 63.2604 123.228 63.7232C120.853 64.1804 115.171 65.5056 114.417 65.7784C113.833 65.9899 113.552 66.4282 113.277 67.5568C113.039 68.5348 113.049 68.6698 113.358 68.6698C113.5 68.6698 115.891 68.2388 118.67 67.7121C121.45 67.1854 124.305 66.6713 125.016 66.5697C125.726 66.4681 126.456 66.3388 126.638 66.2825C126.9 66.2016 127.445 66.3086 129.221 66.7895C132.053 67.5563 135.686 68.6518 138.868 69.6989C142.552 70.911 142.356 70.8608 142.266 70.566ZM113.803 67.0503C113.935 66.7063 114.145 66.3368 114.267 66.2291C114.541 65.9891 115.62 65.7158 120.379 64.6816C122.412 64.2395 124.482 63.7783 124.977 63.6566C125.472 63.535 125.906 63.4355 125.943 63.4355C126.164 63.4355 126.954 65.5203 126.793 65.6768C126.765 65.7038 126.602 65.4295 126.431 65.0673C126.056 64.2737 125.821 64.0044 125.503 64.0044C125.372 64.0044 123.623 64.3652 121.618 64.8061C115.241 66.2084 114.581 66.4228 113.943 67.3011C113.77 67.5394 113.613 67.7211 113.595 67.705C113.576 67.6888 113.67 67.3942 113.803 67.0503Z" fill="white"/>
    <path d="M109.685 96.5672L109.617 70.2947L109.549 44.0223L108.156 43.854C107.39 43.7613 103.895 43.4835 100.39 43.2364C96.884 42.9892 93.1494 42.7044 92.0904 42.6034L90.165 42.4199V38.7482V35.0766L89.0364 34.9153C88.4156 34.8265 85.7778 34.6072 83.1746 34.4278C78.8631 34.1308 78.325 34.1487 77.1328 34.6297L75.8241 35.1578V38.2278V41.2979H74.8433C74.3038 41.2979 72.2173 41.1529 70.2068 40.9756L66.5511 40.6533L62.9504 42.1676C60.586 43.1619 58.9408 43.6818 58.159 43.6818H56.9685L56.9487 40.3294C56.9063 33.121 56.2855 6.75918 56.1548 6.61249C55.9283 6.35837 52.9779 7.32078 51.6249 8.0901C50.4071 8.78252 50.3645 8.8523 50.2296 10.375C50.153 11.2389 49.9529 19.9915 49.785 29.8252C49.617 39.6589 49.4616 47.7253 49.4396 47.7506C49.1275 48.1086 37.4982 52.6215 36.8877 52.6215H36.0435L35.8889 48.3752C35.8039 46.0397 35.6115 37.6356 35.4615 29.6994C35.3114 21.7633 35.1499 15.2266 35.1025 15.1734C34.9541 15.0068 32.205 15.9862 30.6524 16.7587L29.1674 17.4977L28.9939 25.7474C28.8984 30.2847 28.741 38.7575 28.6441 44.5758C28.5471 50.3941 28.391 55.4797 28.297 55.8772C28.1485 56.506 27.4028 56.9025 22.563 58.9264C17.1466 61.1914 15.1153 61.7113 14.8883 60.8908C14.8315 60.6859 14.6446 52.3385 14.4727 42.3408C14.3008 32.3432 14.1114 24.1069 14.0519 24.038C13.8494 23.8036 11.2023 24.6211 9.67782 25.3888L8.15938 26.1534L7.99281 31.8632C7.90116 35.0036 7.70753 43.7366 7.56247 51.27C7.41742 58.8034 7.21082 65.0627 7.10339 65.1797C6.99594 65.2967 5.37851 66.0389 3.50906 66.8292L0.110056 68.2661L0.056663 80.1858L0.00315419 92.1054C-0.484983 91.8981 55.7734 99.7121 55.7734 99.7121L68.2553 100.602L101.69 100.594L109.685 96.5672ZM52.459 91.6468C50.0461 91.4765 47.5639 91.2671 46.9432 91.1816L45.8145 91.0259V82.8551V74.6843L46.412 74.5425C47.0225 74.3975 58.8378 72.5871 59.1736 72.5871C59.2754 72.5871 59.3587 76.9452 59.3587 82.2718V91.9566H58.1024C57.4115 91.9566 54.8719 91.8171 52.459 91.6468ZM32.3156 90.1645C30.0764 90.0028 27.8333 89.8705 27.3307 89.8705H26.4169L26.4887 83.6872L26.5604 77.5039L32.6686 76.5592C36.0281 76.0396 39.0457 75.6038 39.3743 75.5907L39.9718 75.5668V83.1837V90.8005L38.1792 90.6294C37.1933 90.5352 34.5547 90.3261 32.3156 90.1645ZM13.2819 88.8258C10.2145 88.5859 7.55545 88.3876 7.37287 88.3851C7.12412 88.3823 7.04091 87.3863 7.04091 84.4147V80.4489L13.481 79.4924C17.0231 78.9664 20.1004 78.5385 20.3195 78.5415C20.658 78.5462 20.7205 79.3531 20.7355 83.9108L20.7532 89.2746L19.8061 89.268C19.2851 89.2652 16.3492 89.0657 13.2819 88.8258ZM7.09695 76.5723L7.17363 74.0017L13.8046 71.0821C17.4517 69.4763 20.529 68.2273 20.6431 68.3064C20.9098 68.4914 20.9079 75.8985 20.6411 76.3695C20.455 76.6981 9.43578 79.045 7.76092 79.1129L7.02026 79.1427L7.09695 76.5723ZM26.4877 70.5983L26.5604 65.6296L30.8096 63.866C33.1466 62.896 36.1665 61.6502 37.5204 61.0976L39.9821 60.0929L39.9106 66.5478L39.839 73.0026L33.4653 74.2544C29.9597 74.9429 26.9393 75.5198 26.7532 75.5365C26.4888 75.5604 26.4308 74.4799 26.4877 70.5983ZM96.6103 74.5132C93.5093 74.2733 90.6112 74.077 90.1702 74.077H89.3683V70.8491V67.6211L90.7626 67.7444C91.5294 67.8121 95.2641 68.0913 99.0617 68.3649L105.967 68.8623L106.042 72.0791L106.117 75.2958L104.183 75.1227C103.119 75.0276 99.7114 74.7531 96.6103 74.5132ZM78.6127 73.183C74.5228 72.8618 70.9077 72.5962 70.5791 72.593C69.9977 72.5883 69.9816 72.5024 69.9816 69.4581V66.3292H70.9285C72.2819 66.3292 84.2365 67.1973 85.5839 67.3934L86.7126 67.5578V70.6684C86.7126 72.9614 86.6254 73.7775 86.3806 73.7731C86.1981 73.7703 82.7025 73.5043 78.6127 73.183ZM45.8761 64.6438L45.9472 57.5946L52.5865 54.8414L59.2259 52.0883L59.2964 60.5947C59.3352 65.2733 59.334 69.1382 59.2934 69.1834C59.1669 69.3254 47.3128 71.629 46.5398 71.6618L45.8046 71.6929L45.8761 64.6438ZM96.2732 65.1845L89.5011 64.6903L89.4254 61.4512L89.3498 58.2122L90.7533 58.3863C91.5253 58.4822 95.294 58.7891 99.1282 59.0684L106.099 59.5764V62.7483V65.9203L104.572 65.7996C103.733 65.733 99.9979 65.4563 96.2732 65.1845ZM77.6832 63.7872C73.8124 63.5258 70.4961 63.2575 70.3135 63.191C70.0756 63.1042 69.9816 62.1739 69.9816 59.9055V56.7411L70.9775 56.9054C71.5252 56.9957 75.2897 57.3002 79.343 57.5818L86.7126 58.0939V61.3438V64.5937L85.7167 64.4282C85.169 64.3371 81.5539 64.0486 77.6832 63.7872ZM96.9372 55.9022C92.8473 55.5775 89.4712 55.3099 89.4347 55.3077C89.3982 55.3067 89.3684 53.8955 89.3684 52.1746C89.3684 49.127 89.3839 49.0458 89.9659 49.0505C90.2946 49.0515 94.0292 49.3204 98.265 49.6443C102.501 49.9681 105.997 50.2341 106.033 50.2354C106.07 50.2363 106.099 51.6457 106.099 53.3666V56.4955L105.236 56.4946C104.762 56.4937 101.027 56.2268 96.9372 55.9022ZM77.0192 54.4152C73.2215 54.108 70.0845 53.8469 70.048 53.8351C70.0114 53.8227 69.9816 52.4056 69.9816 50.6847C69.9816 48.3772 70.0687 47.5572 70.3136 47.5613C70.4961 47.5641 74.0515 47.8312 78.2143 48.1543C82.3772 48.4774 85.9923 48.7431 86.2479 48.7447C86.6609 48.7457 86.7127 49.0965 86.7127 51.8766V55.0055L85.3184 54.9903C84.5516 54.9828 80.8169 54.7224 77.0192 54.4152ZM15.1792 22.3757C15.1548 21.901 14.9826 21.6309 14.7045 21.6307C14.1765 21.6304 13.9458 21.031 13.9458 19.6591V18.6304L11.0909 18.715L8.23598 18.7995L8.15499 20.215C8.08793 21.3873 7.98533 21.6304 7.55746 21.6304C7.18348 21.6304 7.04086 21.8361 7.04086 22.3754V23.1204H11.1291H15.2174L15.1792 22.3757ZM36.2539 13.7136C36.2539 13.1835 36.0834 12.8829 35.7227 12.7771C35.2935 12.6512 35.1916 12.3706 35.1916 11.315V10.0088H32.2703H29.349V11.3291C29.349 12.4713 29.2685 12.6621 28.7514 12.7445C28.3137 12.8142 28.1539 13.039 28.1539 13.5847V14.3297L32.2039 14.412L36.2539 14.4944V13.7136ZM57.2341 4.94297C57.2341 4.25605 57.1144 4.04899 56.7175 4.04899C56.2896 4.04899 56.187 3.80592 56.12 2.63354L56.039 1.21808H53.2505H50.462L50.3811 2.63354C50.3141 3.80592 50.2115 4.04899 49.7836 4.04899C49.3866 4.04899 49.267 4.25605 49.267 4.94297V5.83694H53.2506H57.2342L57.2341 4.94297Z" fill="black"/>
    <path d="M120.001 42.5957C119.497 42.5527 118.721 42.4573 118.242 42.3794C118.166 42.367 117.949 42.3363 117.759 42.3111C117.57 42.2859 117.38 42.2399 117.339 42.2088C117.298 42.1777 117.248 42.167 117.228 42.1851C117.146 42.2609 115.043 41.7386 114.957 41.6209C114.932 41.5879 114.884 41.5776 114.848 41.5979C114.813 41.6181 114.701 41.5948 114.599 41.546C114.498 41.4974 114.414 41.4694 114.414 41.484C114.414 41.5278 113.325 41.1423 113.151 41.0371C113.062 40.9834 112.969 40.9587 112.943 40.9822C112.918 41.0058 112.897 40.9914 112.897 40.9506C112.897 40.9097 112.874 40.8823 112.846 40.8897C112.817 40.8968 112.724 40.8675 112.639 40.8237C112.553 40.78 112.483 40.7598 112.483 40.779C112.483 40.8312 111.349 40.2957 111.323 40.2309C111.31 40.2001 111.242 40.1749 111.172 40.1749C111.102 40.1749 110.996 40.1299 110.937 40.0747C110.877 40.0197 110.828 39.9982 110.827 40.027C110.827 40.0558 110.803 40.0506 110.776 40.0156C110.748 39.9805 110.543 39.8658 110.321 39.7606C110.098 39.6555 109.901 39.5337 109.882 39.4901C109.864 39.4465 109.825 39.4239 109.797 39.4401C109.769 39.4562 109.679 39.4119 109.597 39.3416C109.516 39.2713 109.449 39.2304 109.449 39.2507C109.449 39.2879 108.548 38.7252 108.484 38.6478C108.465 38.6251 108.333 38.5411 108.19 38.4612C108.048 38.3813 107.932 38.2896 107.932 38.2574C107.932 38.2252 107.901 38.1989 107.864 38.1989C107.787 38.1989 107.586 38.0586 107.293 37.8004C107.183 37.704 107.068 37.6251 107.036 37.6251C107.005 37.6251 106.904 37.5433 106.813 37.4432C106.722 37.3431 106.564 37.2109 106.463 37.1493C106.361 37.0878 106.295 37.0119 106.316 36.9807C106.337 36.9495 106.321 36.9239 106.281 36.9239C106.146 36.9239 104.013 34.8822 103.941 34.6836C103.926 34.6448 103.871 34.5664 103.818 34.5095C103.4 34.0631 103.311 33.9539 103.311 33.8885C103.311 33.8475 103.265 33.7975 103.208 33.7772C103.151 33.7571 103.104 33.7035 103.104 33.6582C103.104 33.6129 103.026 33.4973 102.929 33.4012C102.833 33.3052 102.777 33.2266 102.804 33.2266C102.832 33.2266 102.807 33.1907 102.747 33.1468C102.688 33.103 102.582 32.9668 102.51 32.844C102.439 32.7213 102.349 32.5998 102.311 32.5741C102.273 32.5483 102.271 32.5268 102.306 32.5263C102.341 32.5258 102.307 32.4608 102.23 32.3819C102.152 32.303 102 32.0807 101.89 31.8879C101.78 31.695 101.668 31.5219 101.642 31.5032C101.598 31.4731 101.293 30.8878 101.276 30.8042C101.273 30.7866 101.203 30.6739 101.122 30.5537C101.04 30.4335 100.989 30.3115 101.009 30.2828C101.028 30.254 101.011 30.2304 100.97 30.2304C100.93 30.2304 100.904 30.2089 100.912 30.1826C100.92 30.1563 100.888 30.0702 100.841 29.9913C100.793 29.9124 100.774 29.8479 100.797 29.8479C100.82 29.8479 100.789 29.8026 100.729 29.7471C100.669 29.6917 100.637 29.6219 100.657 29.5921C100.677 29.5623 100.661 29.5196 100.622 29.4972C100.582 29.4748 100.568 29.4298 100.59 29.3972C100.612 29.3645 100.594 29.3379 100.549 29.3379C100.505 29.3379 100.487 29.2949 100.509 29.2422C100.53 29.1896 100.521 29.1466 100.487 29.1466C100.453 29.1466 100.404 29.0534 100.378 28.9394C100.351 28.8255 100.307 28.7036 100.28 28.6685C100.215 28.5851 99.9393 27.8763 99.9082 27.7123C99.8949 27.6422 99.8474 27.5019 99.8026 27.4006C99.7578 27.2993 99.7373 27.2016 99.757 27.1834C99.7767 27.1651 99.765 27.119 99.7309 27.0807C99.6969 27.0424 99.6536 26.9196 99.6348 26.8078C99.6159 26.696 99.5806 26.5747 99.5562 26.5384C99.5319 26.502 99.4994 26.3927 99.4839 26.2954C99.4685 26.1981 99.4399 26.0612 99.4205 25.9911C99.2828 25.4951 99.1829 24.9766 99.2154 24.9279C99.2367 24.8961 99.2239 24.8353 99.187 24.793C99.1266 24.724 99.0691 24.3859 98.9896 23.6325C98.8533 22.3401 98.8263 21.0164 98.915 19.967C98.9432 19.6339 98.9819 19.1606 99.001 18.9152C99.0202 18.6697 99.0663 18.3972 99.1035 18.3096C99.1408 18.2219 99.1696 18.0928 99.1677 18.0227C99.1656 17.9526 99.1832 17.8092 99.2066 17.704C99.23 17.5988 99.2591 17.441 99.2713 17.3534C99.2835 17.2657 99.299 17.194 99.3058 17.194C99.3126 17.194 99.3297 17.0706 99.3438 16.9197C99.3579 16.7688 99.3987 16.611 99.4344 16.5691C99.4701 16.5271 99.4984 16.4434 99.4973 16.3831C99.4933 16.1785 99.6777 15.5684 99.7434 15.5684C99.7794 15.5684 99.7908 15.5251 99.7689 15.4723C99.7469 15.4195 99.7554 15.3118 99.7877 15.2332C99.82 15.1546 99.8424 15.0733 99.8375 15.0524C99.8326 15.0315 99.8714 14.9666 99.9239 14.9081C99.9763 14.8497 100.029 14.7211 100.042 14.6222C100.054 14.5233 100.102 14.3587 100.147 14.2564C100.193 14.1541 100.225 14.0489 100.219 14.0226C100.213 13.9963 100.244 13.9748 100.288 13.9748C100.333 13.9748 100.351 13.9585 100.329 13.9384C100.308 13.9184 100.332 13.8273 100.383 13.7358C100.435 13.6444 100.461 13.546 100.442 13.5172C100.422 13.4884 100.441 13.4649 100.484 13.4649C100.526 13.4649 100.544 13.4394 100.523 13.4084C100.502 13.3773 100.529 13.318 100.583 13.2766C100.637 13.2353 100.677 13.1513 100.672 13.0901C100.661 12.9472 100.827 12.5724 100.903 12.5724C100.934 12.5724 100.98 12.4723 101.005 12.3499C101.03 12.2275 101.078 12.1429 101.111 12.162C101.144 12.181 101.155 12.1559 101.134 12.1059C101.113 12.056 101.143 11.9718 101.201 11.9189C101.258 11.866 101.285 11.8049 101.262 11.7832C101.238 11.7615 101.256 11.7437 101.3 11.7437C101.344 11.7437 101.38 11.6863 101.38 11.6163C101.38 11.5462 101.405 11.4888 101.434 11.4888C101.464 11.4888 101.543 11.4028 101.611 11.2975C101.678 11.1923 101.714 11.1063 101.692 11.1063C101.669 11.1063 101.73 10.9992 101.826 10.8683C101.922 10.7375 102.001 10.6054 102.001 10.5747C102.001 10.5441 102.093 10.4113 102.206 10.2797C102.319 10.1481 102.397 10.0272 102.379 10.0111C102.362 9.99499 102.451 9.87722 102.578 9.7494C102.705 9.62156 102.779 9.50811 102.744 9.49728C102.709 9.48643 102.759 9.39941 102.855 9.30384C102.95 9.20831 103.016 9.13011 103.001 9.13011C102.986 9.13011 103.049 9.05416 103.142 8.96143C103.235 8.86863 103.311 8.75554 103.311 8.71005C103.311 8.66462 103.373 8.5873 103.449 8.53834C103.524 8.48936 103.568 8.43271 103.546 8.41239C103.524 8.39211 103.571 8.34343 103.65 8.30432C103.729 8.26517 103.794 8.19215 103.794 8.14202C103.794 8.09192 103.856 8.02019 103.932 7.98266C104.008 7.94513 104.07 7.88581 104.07 7.85078C104.07 7.81579 104.155 7.7067 104.259 7.60841C104.715 7.17958 105.063 6.82024 104.984 6.86114C104.824 6.94471 106.127 5.77463 106.439 5.5558C106.61 5.43554 106.765 5.28406 106.784 5.21918C106.804 5.15428 106.848 5.11753 106.883 5.13745C106.917 5.15742 107.036 5.07415 107.145 4.95261C107.255 4.83101 107.376 4.73154 107.415 4.73154C107.453 4.73154 107.525 4.672 107.574 4.5992C107.648 4.49042 107.682 4.48098 107.767 4.54626C107.824 4.58987 107.865 4.5993 107.859 4.56705C107.83 4.43002 107.869 4.34909 107.964 4.34909C108.019 4.34909 108.1 4.28925 108.142 4.21613C108.184 4.14301 108.235 4.09825 108.255 4.11664C108.294 4.15254 108.325 4.13287 108.679 3.84821C108.806 3.74642 108.992 3.62388 109.093 3.5759C109.194 3.52793 109.292 3.47369 109.311 3.4554C109.33 3.43714 109.431 3.38744 109.535 3.34509C109.64 3.3027 109.725 3.23968 109.725 3.20496C109.725 3.17028 109.777 3.16014 109.84 3.18256C109.923 3.21207 109.939 3.2001 109.898 3.13884C109.861 3.08367 109.868 3.06968 109.919 3.09848C109.961 3.12272 110.059 3.08409 110.136 3.01269C110.213 2.94129 110.323 2.88285 110.38 2.88285C110.437 2.88285 110.483 2.85993 110.483 2.83194C110.483 2.77961 110.901 2.61985 110.971 2.64547C110.992 2.65358 111.088 2.58138 111.185 2.4855C111.281 2.38966 111.379 2.3299 111.404 2.3527C111.429 2.37552 111.449 2.35573 111.449 2.30918C111.449 2.26243 111.468 2.24195 111.492 2.26365C111.515 2.28536 111.58 2.26162 111.635 2.20989C111.691 2.15868 111.764 2.13302 111.799 2.1529C111.834 2.17278 111.863 2.15391 111.863 2.11101C111.863 2.06801 111.882 2.05068 111.905 2.07238C111.929 2.09409 111.993 2.07034 112.048 2.01923C112.103 1.96832 112.224 1.92664 112.316 1.92664C112.408 1.92664 112.483 1.89621 112.483 1.85909C112.483 1.82197 112.514 1.8093 112.552 1.83101C112.59 1.85271 112.621 1.84014 112.621 1.80292C112.621 1.7658 112.645 1.73993 112.673 1.74551C112.738 1.75828 112.924 1.69389 113.277 1.53669C113.428 1.46894 113.645 1.39816 113.758 1.37934C113.871 1.36047 113.98 1.32042 114 1.2903C114.02 1.26017 114.129 1.21646 114.243 1.19324C114.356 1.17001 114.496 1.13462 114.552 1.11464C114.609 1.09466 114.733 1.06646 114.827 1.05206C114.921 1.03766 115.016 0.999735 115.037 0.96789C115.058 0.936045 115.136 0.901149 115.211 0.8905C115.285 0.879851 115.384 0.848725 115.432 0.821342C115.479 0.79396 115.547 0.788084 115.582 0.808266C115.617 0.828448 115.667 0.813324 115.693 0.775799C115.718 0.737768 115.782 0.722055 115.835 0.740919C115.888 0.759782 115.932 0.749023 115.932 0.717381C115.932 0.685638 115.986 0.657546 116.052 0.654909C116.367 0.642739 116.483 0.619935 116.483 0.569936C116.483 0.540018 116.543 0.533009 116.616 0.554306C116.688 0.575604 116.768 0.562422 116.793 0.525709C116.817 0.488692 116.868 0.475614 116.905 0.496709C116.942 0.517803 117.01 0.508059 117.055 0.474997C117.139 0.414249 117.938 0.25481 118.046 0.277243C118.078 0.284342 118.151 0.27217 118.208 0.251988C118.303 0.217506 118.728 0.167911 119.414 0.11132C119.566 0.0988462 119.907 0.0692353 120.173 0.0457066C121.449 -0.067596 125.133 0.0467264 125.242 0.203304C125.261 0.230787 125.419 0.255723 125.593 0.258766C125.868 0.263837 126.095 0.299343 126.725 0.437594C127.027 0.504124 127.069 0.514864 127.069 0.525817C127.069 0.531902 127.188 0.547119 127.334 0.559289C127.479 0.571459 127.641 0.614062 127.693 0.653919C127.745 0.693775 127.818 0.709191 127.855 0.687995C127.892 0.6669 127.941 0.677447 127.963 0.711625C127.986 0.745701 128.05 0.757461 128.106 0.737685C128.162 0.717908 128.207 0.727331 128.207 0.758669C128.207 0.790006 128.262 0.819523 128.328 0.824391C128.605 0.844573 129.104 0.985275 129.104 1.04308C129.104 1.07736 129.133 1.08892 129.168 1.06874C129.203 1.04856 129.252 1.06165 129.276 1.09684C129.299 1.13244 129.403 1.16175 129.505 1.16185C129.607 1.16198 129.795 1.22087 129.922 1.29277C130.05 1.36468 130.169 1.41002 130.186 1.39359C130.232 1.35171 130.701 1.53707 130.841 1.6523C130.905 1.70483 130.99 1.72897 131.031 1.70595C131.071 1.68293 131.104 1.69449 131.104 1.73161C131.104 1.76873 131.178 1.79914 131.268 1.79914C131.358 1.79914 131.47 1.84185 131.517 1.89408C131.564 1.94631 131.627 1.97471 131.658 1.95727C131.688 1.93982 131.763 1.97085 131.822 2.02622C131.882 2.0816 131.932 2.10613 131.932 2.08068C131.932 2.05522 131.994 2.08676 132.069 2.14974C132.145 2.21323 132.207 2.24193 132.207 2.21353C132.207 2.18513 132.264 2.20948 132.334 2.26749C132.403 2.3256 132.481 2.354 132.506 2.33048C132.531 2.30705 132.552 2.32641 132.552 2.37286C132.552 2.41961 132.571 2.44011 132.595 2.4184C132.618 2.3967 132.683 2.42043 132.738 2.47215C132.794 2.52336 132.868 2.54902 132.903 2.52914C132.937 2.50926 132.966 2.52509 132.966 2.56424C132.966 2.60339 132.994 2.6192 133.029 2.59932C133.064 2.57944 133.14 2.60643 133.197 2.65927C133.254 2.71221 133.334 2.75551 133.375 2.75551C133.415 2.75551 133.449 2.78898 133.449 2.82985C133.449 2.87072 133.468 2.88673 133.491 2.86534C133.537 2.82264 134.074 3.11508 134.154 3.22717C134.184 3.26804 134.206 3.27069 134.207 3.23327C134.208 3.19818 134.239 3.21257 134.275 3.2651C134.311 3.31774 134.365 3.36125 134.394 3.36196C134.487 3.36399 134.897 3.60846 134.897 3.66134C134.897 3.68882 134.94 3.71134 134.993 3.71134C135.046 3.71134 135.108 3.75616 135.13 3.81103C135.153 3.86579 135.196 3.89661 135.226 3.87947C135.256 3.86233 135.385 3.93222 135.512 4.03481C135.639 4.13739 135.762 4.22146 135.786 4.22162C135.809 4.2218 135.941 4.31502 136.08 4.4288C136.219 4.54258 136.414 4.69304 136.515 4.76317C136.967 5.07807 138.433 6.38354 139.414 7.34516C139.871 7.79291 140.546 8.64086 140.502 8.71233C140.479 8.74914 140.486 8.75868 140.516 8.73353C140.575 8.68363 140.828 8.94778 140.828 9.06016C140.828 9.0985 140.861 9.12984 140.901 9.12984C140.941 9.12984 140.956 9.15671 140.934 9.18967C140.912 9.22253 140.936 9.27273 140.987 9.30123C141.124 9.37739 141.656 10.1276 141.606 10.1739C141.583 10.1957 141.602 10.2136 141.648 10.2136C141.695 10.2136 141.713 10.2423 141.69 10.2773C141.666 10.3124 141.677 10.3411 141.712 10.3411C141.748 10.3411 141.796 10.3913 141.818 10.4526C141.87 10.5957 142.015 10.8058 142.104 10.866C142.142 10.8918 142.147 10.9133 142.116 10.9138C142.085 10.9143 142.124 10.9904 142.202 11.0827C142.281 11.1751 142.345 11.2742 142.345 11.303C142.345 11.3318 142.422 11.4604 142.517 11.5888C142.611 11.7173 142.671 11.8476 142.65 11.8785C142.63 11.9095 142.639 11.9347 142.673 11.9347C142.737 11.9347 143.035 12.5521 143.035 12.685C143.035 12.7281 143.059 12.7635 143.088 12.7635C143.117 12.7635 143.214 12.9427 143.304 13.1619C143.393 13.381 143.51 13.6529 143.563 13.766C143.852 14.3785 144.447 16.2964 144.379 16.3972C144.356 16.4322 144.366 16.4608 144.402 16.4608C144.438 16.4608 144.483 16.5397 144.502 16.6361C144.956 18.9327 145 19.3576 145 21.3693C145 22.897 144.928 24.002 144.828 24.0349C144.794 24.046 144.783 24.0953 144.804 24.1445C144.84 24.2328 144.718 25.0712 144.642 25.2579C144.62 25.3106 144.59 25.4539 144.574 25.5767C144.499 26.1737 143.701 28.7098 143.522 28.9227C143.492 28.9581 143.447 29.0683 143.421 29.1676C143.395 29.2669 143.267 29.563 143.135 29.8257C143.004 30.0883 142.897 30.3298 142.897 30.3623C142.897 30.3948 142.861 30.4215 142.816 30.4215C142.772 30.4215 142.755 30.4393 142.779 30.461C142.815 30.4944 142.57 30.9812 142.35 31.3139C142.315 31.3666 142.168 31.6063 142.023 31.8468C141.878 32.0873 141.728 32.3311 141.689 32.3887C141.651 32.4462 141.531 32.6295 141.424 32.7961C141.317 32.9626 141.195 33.0989 141.155 33.0989C141.114 33.0989 141.101 33.1171 141.125 33.1393C141.17 33.1811 140.634 33.9275 140.559 33.9275C140.536 33.9275 140.479 34.0064 140.432 34.1028C140.386 34.1993 140.228 34.3929 140.082 34.5331C139.936 34.6734 139.785 34.8411 139.747 34.906C139.679 35.02 138.776 35.9328 138.136 36.5341C137.689 36.9532 136.779 37.7036 136.582 37.8149C136.49 37.8669 136.414 37.9314 136.414 37.9584C136.414 37.9854 136.375 38.0077 136.328 38.0081C136.281 38.0085 136.137 38.1089 136.008 38.2312C135.879 38.3535 135.749 38.4536 135.718 38.4536C135.688 38.4536 135.579 38.5253 135.477 38.613C135.374 38.7006 135.249 38.7723 135.197 38.7723C135.146 38.7723 135.104 38.8011 135.104 38.836C135.104 38.8711 135.057 38.8998 135 38.8998C134.944 38.8998 134.897 38.9252 134.897 38.9562C134.897 39.0264 134.572 39.2271 134.426 39.2469C134.367 39.255 134.306 39.2949 134.292 39.3356C134.277 39.3764 134.221 39.4098 134.167 39.4098C134.113 39.4098 134.069 39.4314 134.069 39.4577C134.069 39.4841 133.922 39.5766 133.742 39.6634C133.562 39.7501 133.399 39.8396 133.38 39.8622C133.311 39.9446 132.154 40.4946 131.38 40.8129C130.511 41.1702 129.019 41.685 128.754 41.7186C128.662 41.7303 128.546 41.7635 128.496 41.7924C128.446 41.8213 128.387 41.828 128.364 41.8073C128.342 41.7865 128.289 41.7958 128.248 41.8278C128.061 41.9712 126.191 42.3398 124.802 42.5071C123.86 42.6206 120.927 42.6747 120.001 42.5957ZM117.585 30.6395C118.089 30.501 118.363 30.3267 118.966 29.7593C119.25 29.4918 119.538 29.2568 119.605 29.2371C119.672 29.2175 119.714 29.1819 119.698 29.1581C119.656 29.0933 119.84 28.9564 119.901 29.0072C119.93 29.0314 119.935 29.021 119.913 28.9841C119.864 28.9045 123.659 25.3857 123.793 25.3857C123.844 25.3857 123.864 25.3662 123.839 25.3423C123.775 25.283 124.139 24.9394 124.266 24.9394C124.322 24.9394 124.349 24.9213 124.325 24.8992C124.265 24.8439 125.04 24.1062 125.114 24.1482C125.146 24.1668 125.173 24.1477 125.173 24.1061C125.173 24.0046 130.776 18.8218 130.844 18.8606C130.873 18.8773 130.897 18.8514 130.897 18.8031C130.897 18.703 131.247 18.3987 131.333 18.4238C131.364 18.4329 131.373 18.4157 131.353 18.3852C131.305 18.3132 133.106 16.6775 133.203 16.7054C133.243 16.7171 133.255 16.7064 133.229 16.6829C133.203 16.6589 133.458 16.3811 133.796 16.0657C134.53 15.3807 134.759 14.9961 134.827 14.3367C134.864 13.981 134.847 13.806 134.753 13.5499C134.687 13.3688 134.651 13.2039 134.673 13.1834C134.695 13.1629 134.672 13.1462 134.621 13.1462C134.571 13.1462 134.548 13.1289 134.571 13.1079C134.611 13.0707 134.35 12.7755 134 12.463C133.906 12.3783 133.704 12.2495 133.552 12.1771C133.4 12.1047 133.261 12.0277 133.242 12.0061C133.193 11.9509 133.008 11.9291 132.421 11.9099C131.484 11.879 131.222 12.0329 129.516 13.6169C128.74 14.3385 128.065 14.9293 128.018 14.93C127.97 14.9307 127.939 14.967 127.949 15.0108C127.959 15.0546 127.927 15.0833 127.88 15.0746C127.832 15.0655 127.801 15.0847 127.811 15.1163C127.833 15.1892 126.314 16.5886 126.213 16.5886C126.172 16.5886 126.146 16.6244 126.156 16.6683C126.166 16.7121 126.134 16.7408 126.087 16.732C126.039 16.7229 126 16.749 126 16.7893C126 16.8828 123.557 19.1385 123.455 19.1385C123.414 19.1385 123.38 19.1749 123.38 19.2194C123.38 19.3183 121.09 21.4334 120.983 21.4334C120.941 21.4334 120.887 21.4908 120.863 21.5609C120.838 21.631 120.774 21.6884 120.72 21.6884C120.666 21.6884 120.621 21.7193 120.621 21.7569C120.621 21.8536 118.674 23.663 118.569 23.6638C118.522 23.6643 118.483 23.6981 118.483 23.7392C118.483 23.7802 118.136 24.1369 117.712 24.5317L116.94 25.2495L115.005 23.453C113.94 22.4649 113.001 21.6229 112.917 21.5818C112.833 21.5407 112.678 21.4641 112.572 21.4115C112.014 21.1337 111.29 21.0917 110.725 21.3044C110.539 21.3743 110.392 21.4143 110.268 21.4285C110.207 21.4356 109.44 22.1345 109.494 22.1345C109.519 22.1345 109.493 22.1847 109.436 22.2461C109.222 22.4769 109.084 22.9322 109.064 23.4722C109.054 23.7696 109.073 24.0446 109.108 24.0833C109.143 24.1219 109.216 24.2711 109.271 24.4147C109.381 24.7043 109.501 24.8413 110.328 25.6239C110.641 25.92 110.897 26.1884 110.897 26.2202C110.897 26.2521 110.93 26.2781 110.97 26.2781C111.01 26.2781 112.011 27.171 113.194 28.2623C115.361 30.2609 115.818 30.6131 116.311 30.6654C116.425 30.6775 116.531 30.6993 116.546 30.7139C116.615 30.7774 117.248 30.7319 117.585 30.6395Z" fill="#FFD600"/>
</svg>
