<svg width="146" height="101" viewBox="0 0 146 101" fill="none" xmlns="http://www.w3.org/2000/svg">
	<path d="M0 96.2629L0.0646638 69.7387L0.129183 43.2145L1.45522 43.0446C2.18452 42.9509 5.5119 42.6705 8.84937 42.421C12.1868 42.1715 15.7424 41.8839 16.7506 41.782L18.5836 41.5966V37.8898V34.183L19.6582 34.0201C20.2492 33.9305 22.7605 33.7091 25.2389 33.528C29.3437 33.2281 29.856 33.2462 30.991 33.7319L32.2369 34.2649V37.3644V40.4639H33.1708C33.6844 40.4639 35.6708 40.3175 37.585 40.1385L41.0653 39.8132L44.4934 41.3419C46.7444 42.3458 48.3107 42.8707 49.055 42.8707H50.1885L50.2073 39.4861C50.2477 32.2087 50.8387 5.5942 50.9632 5.44611C51.1788 5.18955 53.9877 6.16118 55.2759 6.93788C56.4352 7.63693 56.4758 7.70738 56.6043 9.2447C56.6772 10.1169 56.8676 18.9533 57.0275 28.8813C57.1874 38.8092 57.3354 46.953 57.3563 46.9784C57.6535 47.3399 68.7252 51.8961 69.3065 51.8961H70.1102L70.2573 47.609C70.3383 45.2511 70.5214 36.7665 70.6642 28.7543C70.8071 20.7421 70.9609 14.1427 71.006 14.089C71.1473 13.9209 73.7646 14.9097 75.2427 15.6896L76.6566 16.4356L76.8217 24.7644C76.9126 29.3452 77.0624 37.8992 77.1547 43.7732C77.247 49.6473 77.3957 54.7816 77.4852 55.183C77.6266 55.8178 78.3365 56.218 82.9442 58.2613C88.1009 60.5481 90.0348 61.073 90.251 60.2446C90.305 60.0378 90.483 51.6103 90.6466 41.5169C90.8103 31.4234 90.9906 23.1082 91.0473 23.0386C91.24 22.802 93.7602 23.6273 95.2116 24.4023L96.6572 25.1743L96.8158 30.9388C96.9031 34.1093 97.0874 42.926 97.2255 50.5316C97.3636 58.1372 97.5603 64.4565 97.6626 64.5746C97.7649 64.6928 99.3048 65.4421 101.085 66.2399L104.321 67.6906L104.371 79.7245L104.422 91.7584C104.887 91.549 51.3263 99.438 51.3263 99.438L39.4429 100.336L7.6111 100.328L0 96.2629ZM54.4817 91.2954C56.779 91.1234 59.1421 90.9121 59.7331 90.8257L60.8077 90.6685V82.4194V74.1703L60.2388 74.0271C59.6576 73.8807 48.4088 72.053 48.0891 72.053C47.9922 72.053 47.9129 76.4529 47.9129 81.8305V91.6081H49.1089C49.7667 91.6081 52.1845 91.4673 54.4817 91.2954ZM73.6593 89.7988C75.7911 89.6356 77.9267 89.502 78.4052 89.502H79.2751L79.2068 83.2595L79.1385 77.0169L73.3232 76.0631C70.1248 75.5386 67.2519 75.0986 66.939 75.0854L66.3701 75.0613V82.7511V90.4409L68.0768 90.2682C69.0155 90.1731 71.5276 89.962 73.6593 89.7988ZM91.7804 88.4473C94.7007 88.2051 97.2322 88.0049 97.406 88.0024C97.6428 87.9996 97.7221 86.9941 97.7221 83.994V79.9901L91.5907 79.0245C88.2185 78.4934 85.2887 78.0614 85.0801 78.0645C84.7579 78.0692 84.6984 78.8838 84.6841 83.4852L84.6673 88.9004L85.569 88.8938C86.065 88.8909 88.8601 88.6895 91.7804 88.4473ZM97.6687 76.0764L97.5957 73.4812L91.2827 70.5336C87.8105 68.9124 84.8807 67.6514 84.7721 67.7313C84.5182 67.918 84.52 75.3961 84.774 75.8716C84.9512 76.2033 95.442 78.5728 97.0366 78.6413L97.7417 78.6714L97.6687 76.0764ZM79.2078 70.0451L79.1385 65.0288L75.0931 63.2483C72.8681 62.269 69.993 61.0113 68.704 60.4534L66.3603 59.4391L66.4285 65.9558L66.4966 72.4725L72.5647 73.7362C75.9022 74.4313 78.7778 75.0138 78.955 75.0307C79.2067 75.0548 79.2619 73.9639 79.2078 70.0451ZM12.4474 73.9976C15.3998 73.7553 18.1589 73.5572 18.5787 73.5572H19.3421V70.2983V67.0394L18.0147 67.1639C17.2847 67.2322 13.7291 67.5142 10.1135 67.7903L3.53973 68.2925L3.46796 71.5401L3.39617 74.7877L5.23791 74.6129C6.25088 74.5169 9.49504 74.2398 12.4474 73.9976ZM29.5821 72.6546C33.4758 72.3303 36.9176 72.0622 37.2305 72.0589C37.784 72.0542 37.7994 71.9675 37.7994 68.894V65.7351H36.8978C35.6093 65.7351 24.228 66.6115 22.9451 66.8095L21.8705 66.9754V70.1159C21.8705 72.4309 21.9536 73.2548 22.1866 73.2504C22.3604 73.2475 25.6884 72.9789 29.5821 72.6546ZM60.749 64.0336L60.6813 56.9168L54.3603 54.1373L48.0393 51.3578L47.9722 59.9457C47.9353 64.6691 47.9364 68.571 47.975 68.6167C48.0955 68.76 59.3812 71.0857 60.1171 71.1188L60.817 71.1502L60.749 64.0336ZM12.7684 64.5795L19.2157 64.0805L19.2878 60.8104L19.3598 57.5403L18.0236 57.7161C17.2886 57.8129 13.7006 58.1227 10.0503 58.4048L3.41328 58.9176V62.1199V65.3223L4.8671 65.2004C5.6667 65.1332 9.22229 64.8539 12.7684 64.5795ZM30.467 63.1687C34.1522 62.9048 37.3095 62.6339 37.4833 62.5668C37.7099 62.4792 37.7994 61.54 37.7994 59.2499V56.0551L36.8512 56.221C36.3297 56.3122 32.7457 56.6195 28.8868 56.9039L21.8705 57.4209V60.702V63.983L22.8187 63.8159C23.3402 63.724 26.7819 63.4326 30.467 63.1687ZM12.1363 55.2081C16.03 54.8804 19.2442 54.6103 19.2789 54.6079C19.3137 54.607 19.3421 53.1823 19.3421 51.4449C19.3421 48.3681 19.3273 48.2861 18.7732 48.2909C18.4603 48.2918 14.9048 48.5633 10.872 48.8903C6.83926 49.2172 3.51127 49.4858 3.4765 49.4871C3.44174 49.488 3.41326 50.9109 3.41326 52.6483V55.8072L4.23499 55.8062C4.68694 55.8054 8.24253 55.5359 12.1363 55.2081ZM31.0991 53.7069C34.7147 53.3968 37.7014 53.1332 37.7361 53.1213C37.7709 53.1087 37.7993 51.678 37.7993 49.9407C37.7993 47.6111 37.7164 46.7832 37.4833 46.7874C37.3094 46.7902 33.9246 47.0599 29.9613 47.3861C25.9981 47.7123 22.5563 47.9805 22.313 47.9821C21.9198 47.9831 21.8705 48.3372 21.8705 51.144V54.3029L23.1979 54.2875C23.928 54.28 27.4836 54.0171 31.0991 53.7069ZM89.974 21.3604C89.9973 20.8812 90.1612 20.6084 90.4259 20.6083C90.9286 20.608 91.1483 20.0028 91.1483 18.6178V17.5792L93.8663 17.6646L96.5843 17.7499L96.6614 19.1789C96.7253 20.3625 96.8229 20.608 97.2303 20.608C97.5863 20.608 97.7221 20.8156 97.7221 21.3601V22.1122H93.8299H89.9376L89.974 21.3604ZM69.9098 12.6152C69.9098 12.0801 70.0722 11.7766 70.4155 11.6698C70.8242 11.5427 70.9212 11.2594 70.9212 10.1937V8.87497H73.7024H76.4836V10.2079C76.4836 11.3611 76.5603 11.5537 77.0525 11.6369C77.4692 11.7072 77.6214 11.9342 77.6214 12.4852V13.2373L73.7656 13.3204L69.9098 13.4035V12.6152ZM49.9356 3.76059C49.9356 3.06708 50.0495 2.85803 50.4274 2.85803C50.8348 2.85803 50.9325 2.61264 50.9963 1.42902L51.0733 0H53.7282H56.383L56.46 1.42902C56.5238 2.61264 56.6215 2.85803 57.0289 2.85803C57.4068 2.85803 57.5207 3.06708 57.5207 3.76059V4.66313H53.7281H49.9355L49.9356 3.76059Z" fill="black" />
	<path d="M91.076 70.6107C91.076 70.6107 88.5727 71.6204 87.853 71.4396C87.1333 71.2588 87.0769 70.6915 87.0769 70.6915L87.0501 61.9167C87.0033 61.3086 86.6604 59.0968 87.539 58.131L91.076 56.637C91.1166 61.2703 91.2552 65.844 91.076 70.6107ZM92.4416 56.637C112.244 50.1737 128.229 56.8153 143.597 68.5144C145.046 69.0405 145.001 77.8255 145 77.996C144.996 78.5547 144.852 79.2222 144.199 79.0435C125.877 76.0794 95.801 71.3523 92.5393 70.8403C91.9746 64.7816 92.4416 56.637 92.4416 56.637Z" fill="#40E83A" />
	<path d="M55.4289 100.811C55.1218 100.707 54.6658 100.49 54.4154 100.327C53.3715 99.6508 52.0511 98.0555 51.8168 97.188C51.7202 96.8303 51.7388 96.8205 52.6783 96.7311C53.2065 96.6808 54.4234 96.6397 55.3826 96.6397C59.4269 96.6397 71.2487 96.0801 71.4706 95.8781C71.5199 95.8332 71.5465 95.1479 71.5296 94.3552C71.4631 91.2404 71.9638 89.0203 73.0741 87.5068C74.2923 85.8462 76.1312 84.9706 78.4007 84.9706C81.62 84.9706 84.3052 86.9912 85.4066 90.2428C85.6198 90.8723 85.7811 91.848 85.854 92.9504C85.9723 94.7382 86.1266 95.1454 86.5612 94.817C86.7387 94.6829 86.7982 94.3634 86.7947 93.5646C86.7841 91.1859 86.2657 89.1331 85.311 87.6899C85.0254 87.2581 84.7916 86.8492 84.7916 86.7812C84.7916 86.7133 85.2434 86.6577 85.7956 86.6577H86.7995V79.8562C86.7995 74.5818 86.8429 73.0219 86.9928 72.9087C87.0991 72.8283 88.0066 72.6171 89.0094 72.4392C90.5927 72.1583 90.8515 72.1428 90.976 72.322C91.1341 72.5495 91.1447 80.6499 90.989 82.218C90.8801 83.314 91.0376 83.2004 89.0418 83.6227C87.8919 83.8659 87.1629 84.2706 87.8861 84.2643C88.0954 84.2627 88.5447 84.1993 88.8845 84.1239C89.6931 83.9446 92.8711 83.9415 94.6129 84.1183C95.3698 84.1951 98.0394 84.4187 100.545 84.6151C103.051 84.8115 107.117 85.1607 109.58 85.3911C112.044 85.6214 116.492 86.0031 119.465 86.2392C122.438 86.4754 126.052 86.7904 127.496 86.9394C128.94 87.0883 131.79 87.3409 133.829 87.5007C137.4 87.7806 142.314 88.2687 143.227 88.4341C143.469 88.4779 143.608 88.5641 143.536 88.6256C143.371 88.7654 141.055 89.0478 140.072 89.0478C138.992 89.0478 138.848 89.1326 138.848 89.7688C138.848 90.5012 139.052 90.5695 141.628 90.6998L143.713 90.8052L143.761 91.3326C143.803 91.7914 143.757 91.8784 143.404 92.0004C143.181 92.0776 142.603 92.1417 142.12 92.1429C141.637 92.144 141.166 92.1916 141.073 92.2484C140.813 92.4065 140.665 94.0705 140.898 94.208C141.002 94.2696 141.713 94.3516 142.478 94.3902L143.868 94.4605V94.9309C143.868 95.1896 143.833 95.4505 143.791 95.5107C143.655 95.7028 139.617 95.9684 139.394 95.7999C139.285 95.7176 139.154 95.411 139.102 95.1187C138.942 94.2059 138.118 92.9073 137.233 92.1704C136.216 91.3245 135.476 90.9926 134.606 90.9926C133.812 90.9926 133.228 91.2482 132.572 91.8827C131.941 92.493 131.641 93.0509 131.36 94.1372C130.758 96.4604 131.376 98.8775 132.942 100.33L133.663 100.998H131.849C129.768 100.998 129.273 100.864 128.536 100.1C127.95 99.4919 127.945 99.463 128.34 98.7583C128.507 98.4605 128.761 97.672 128.905 97.006C129.144 95.8989 129.146 95.7018 128.93 94.706C128.483 92.6428 127.47 91.3434 125.751 90.627C124.634 90.1616 123.655 90.1574 122.68 90.6139C121.295 91.2627 120.521 92.6504 120.337 94.812C120.108 97.4976 120.854 99.3992 122.547 100.449C122.847 100.635 123.093 100.835 123.094 100.893C123.094 100.951 122.222 100.998 121.156 100.998C118.599 100.998 118.107 100.752 117.121 98.9799L116.724 98.2672L116.37 98.9007C115.912 99.7215 114.792 100.655 114.037 100.846C113.71 100.929 112.657 100.997 111.698 100.997C109.763 100.998 109.04 100.79 108.459 100.064L108.154 99.6822L107.966 100.002C107.598 100.627 106.548 100.894 104.163 100.968C101.566 101.048 101.154 100.953 100.079 100.024L99.3009 99.3524L99.6932 98.6639C99.9426 98.2262 100.198 97.3681 100.394 96.3084C100.563 95.3916 100.743 94.5814 100.792 94.508C101.007 94.1922 101.116 92.7083 100.982 91.9356C100.699 90.3025 99.1293 88.1973 97.4735 87.2301C96.7508 86.808 94.8547 86.3772 93.7168 86.3767C92.1537 86.3762 89.9976 87.9235 89.0797 89.705C88.6493 90.5404 88.5777 90.8465 88.5263 92.0705C88.4591 93.6711 88.6522 93.7398 88.946 92.2199C89.2112 90.8477 89.7934 89.8134 90.8104 88.9072C92.0594 87.7944 92.9268 87.4348 94.3674 87.4327C95.3461 87.4311 95.6695 87.4961 96.4524 87.8512C98.2075 88.647 99.7646 90.3695 100.203 92.0002C100.466 92.9759 100.57 93.8583 100.412 93.7696C100.335 93.7262 99.9752 93.0506 99.6125 92.2682C98.8249 90.5692 98.1026 89.6997 96.9645 89.0807C95.1851 88.1128 93.3607 88.1478 91.9299 89.1774C90.26 90.379 89.1379 93.6892 89.5832 96.1006C89.9357 98.01 90.937 99.517 92.4052 100.348C92.9401 100.65 93.0897 100.797 92.9195 100.851C92.7874 100.893 91.7908 100.926 90.7047 100.923C89.181 100.919 88.6228 100.866 88.2605 100.688C87.4706 100.302 86.5952 99.3658 86.022 98.2935C85.6112 97.5248 85.3893 97.261 85.1244 97.2263C84.7885 97.1824 84.778 97.1438 84.8936 96.3828C85.0948 95.0583 85.0121 92.9822 84.7216 92.0665C84.1072 90.1294 82.7216 88.5574 80.9695 87.81C80.1902 87.4775 79.8912 87.431 78.5365 87.431C76.6922 87.431 75.9291 87.7113 74.8106 88.7998C72.7299 90.8247 72.3314 94.8862 73.9205 97.8724C74.4119 98.7958 75.521 99.8457 76.5949 100.404L77.415 100.83L76.2245 100.932C74.2876 101.097 72.8891 100.961 72.079 100.529C71.2812 100.103 70.3907 99.2184 69.9338 98.3971C69.2932 97.2456 69.1953 97.2021 67.2428 97.2021H65.5015L65.0294 98.1026C64.4632 99.1825 63.2597 100.242 62.1531 100.636C61.1599 100.988 56.3278 101.114 55.4289 100.811ZM106.028 95.9347V95.3041L107.727 95.2632C110.015 95.2081 110.121 95.2384 110.121 95.9492C110.121 96.4593 110.157 96.514 110.469 96.4737C110.761 96.4359 110.816 96.342 110.816 95.8808V95.3328L112.126 95.3634C112.846 95.3801 113.524 95.4605 113.632 95.5419C113.74 95.6233 113.828 95.8683 113.828 96.0862C113.828 96.5332 113.994 96.6808 114.354 96.5548C114.511 96.5 114.6 96.2988 114.6 95.9979V95.5268L115.797 95.4857C116.99 95.4448 116.994 95.4433 117.045 95.0381C117.112 94.5042 116.887 94.3949 115.715 94.3923C115.076 94.3907 114.724 94.3302 114.684 94.2144C114.65 94.1178 114.593 93.5407 114.556 92.9319L114.49 91.8251L115.628 91.8916C116.954 91.9691 117.3 91.8282 117.147 91.2737C117.053 90.9318 116.973 90.9039 115.824 90.8126L114.6 90.7155V89.9097C114.6 89.1172 114.425 88.7665 114.029 88.7665C113.886 88.7665 113.828 89.0124 113.828 89.6145C113.828 90.2349 113.766 90.4839 113.598 90.5426C113.472 90.5867 112.794 90.5689 112.092 90.503L110.816 90.3833L110.77 89.4343C110.73 88.6006 110.688 88.4853 110.423 88.4853C110.154 88.4853 110.121 88.5863 110.121 89.4206V90.3559L108.265 90.271C107.244 90.2243 106.341 90.1476 106.257 90.1006C106.174 90.0537 106.105 89.635 106.105 89.1702C106.105 88.3743 106.085 88.3278 105.758 88.3701C105.457 88.409 105.4 88.5189 105.333 89.1883L105.256 89.9615H103.866H102.476L102.426 90.4388C102.363 91.0406 102.553 91.1517 103.654 91.1544C104.131 91.1555 104.722 91.1929 104.966 91.2374L105.41 91.3182L105.356 92.5378C105.326 93.2086 105.268 93.7891 105.227 93.8278C105.185 93.8665 104.55 93.8981 103.814 93.8981H102.476L102.426 94.3754C102.362 94.9873 102.55 95.0883 103.76 95.091C105.053 95.0936 105.333 95.2414 105.333 95.9182C105.333 96.5136 105.436 96.6693 105.789 96.6073C105.963 96.5768 106.028 96.3923 106.028 95.9347ZM112.09 94.2857L110.893 94.2378V93.3474C110.893 92.8577 110.848 92.2499 110.792 91.9966L110.691 91.5362L112.066 91.6367C112.823 91.692 113.492 91.782 113.553 91.8366C113.78 92.0391 113.881 93.9516 113.676 94.1761C113.569 94.2939 113.437 94.3775 113.384 94.3619C113.331 94.3464 112.749 94.3121 112.09 94.2857ZM107.319 94.1381C106.113 94.0897 106.111 94.0864 106.107 92.3828L106.105 91.2893L107.997 91.3813C109.038 91.4319 109.948 91.5221 110.02 91.5818C110.213 91.7415 109.966 94.106 109.755 94.1239C109.227 94.1686 108.224 94.1745 107.319 94.1381ZM119.424 94.0283C120.233 89.5234 123.889 88.0572 127.212 90.9056C127.925 91.5171 128.057 91.5865 127.96 91.2972C127.707 90.5491 126.79 89.7979 125.411 89.2094C124.725 88.9164 124.324 88.8458 123.326 88.8418C122.204 88.8375 122.027 88.8757 121.396 89.2609C119.979 90.1252 118.843 92.24 118.66 94.3551C118.577 95.3042 118.592 95.3744 118.877 95.3744C119.143 95.3744 119.213 95.2018 119.424 94.0283ZM130.35 94.2848C130.612 93.0563 130.941 92.3411 131.592 91.5924C132.251 90.833 133.513 90.1725 134.305 90.1725C135.648 90.1725 137.544 91.2277 138.19 92.3348C138.596 93.0299 138.633 92.405 138.23 91.6485C137.538 90.3461 135.792 89.3289 134.249 89.3289C133.306 89.3289 132.646 89.6517 131.734 90.56C130.539 91.7506 129.89 93.1745 129.89 94.608C129.89 95.3668 130.159 95.1774 130.35 94.2848ZM123.326 100.245C122.419 99.8601 121.491 98.9752 121.038 98.0628C120.557 97.0953 120.49 94.7776 120.907 93.5728C121.514 91.8218 122.371 91.1222 124.004 91.0451C124.936 91.0011 125.098 91.0376 125.863 91.4634C127.498 92.3736 128.259 93.9155 128.166 96.1236C128.102 97.6289 127.631 98.7397 126.677 99.6379C125.634 100.62 124.635 100.801 123.326 100.245ZM125.17 98.1108C125.961 97.7689 126.411 96.907 126.413 95.7259C126.415 94.546 126.053 93.7757 125.273 93.3025C124.267 92.6925 123.335 92.9456 122.704 94.0004C122.326 94.6335 122.291 94.8076 122.355 95.7764C122.436 97.0219 122.742 97.6588 123.45 98.0513C124.046 98.3824 124.504 98.3982 125.17 98.1108ZM123.502 96.4889C122.619 95.8572 123.202 94.3902 124.335 94.3902C124.905 94.3902 125.72 95.0496 125.72 95.5111C125.72 95.9185 125.324 96.5863 125.018 96.693C124.534 96.862 123.904 96.7772 123.502 96.4889ZM133.917 100.341C131.149 99.0579 130.456 94.4592 132.72 92.3985C135.162 90.1751 138.661 92.8466 138.339 96.6895C138.293 97.2421 138.177 97.9298 138.082 98.2178C137.883 98.8196 137.11 99.7875 136.499 100.2C135.92 100.59 134.611 100.662 133.917 100.341ZM135.834 98.1626C136.433 97.7343 136.686 97.0829 136.685 95.9764C136.685 95.2305 136.607 94.9064 136.329 94.4881C135.925 93.8814 135.225 93.4084 134.729 93.407C134.161 93.4054 133.469 94.0632 133.213 94.8481C132.919 95.7493 132.921 95.9875 133.224 96.9185C133.684 98.3278 134.837 98.8771 135.834 98.1626ZM133.981 96.6379C133.329 95.9822 133.868 94.9057 134.848 94.9057C135.783 94.9057 136.274 96.0306 135.605 96.6397C135.196 97.0122 134.353 97.011 133.981 96.6379ZM93.7764 100.227C92.7955 99.9484 91.9265 99.3462 91.1859 98.432C90.284 97.3187 89.9687 96.4175 89.9685 94.9526C89.9682 92.5416 90.8584 90.6001 92.3317 89.7987C95.4133 88.1225 98.9166 90.414 99.3871 94.4136C99.6884 96.9746 98.0864 99.6239 95.8751 100.222C94.9328 100.476 94.6567 100.477 93.7764 100.227ZM96.2018 97.4118C96.5317 97.1405 96.9572 96.5893 97.1474 96.1869C97.853 94.6937 97.2856 92.7408 95.9045 91.9087C95.3986 91.604 95.1696 91.5535 94.5427 91.6083C92.9699 91.7459 92.1272 92.8199 92.1393 94.6714C92.1469 95.8359 92.4428 96.5357 93.2321 97.256C93.784 97.7596 94.1194 97.8849 94.9461 97.8961C95.4865 97.9035 95.7077 97.8181 96.2018 97.4118ZM95.603 96.8138C95.603 96.5049 96.1657 95.9804 96.3334 96.133C96.4717 96.2589 96.0573 96.9481 95.796 97.0268C95.6862 97.0598 95.603 96.968 95.603 96.8138ZM94.1391 95.761C93.4453 95.2123 93.4193 93.9783 94.0895 93.41C95.1948 92.4726 96.6799 93.9591 95.9798 95.3021C95.5656 96.0966 94.8036 96.2866 94.1391 95.761ZM92.7457 93.4061C92.6164 93.2157 92.7909 92.9843 93.0637 92.9843C93.1861 92.9843 93.2863 93.1108 93.2863 93.2655C93.2863 93.5566 92.9136 93.6535 92.7457 93.4061ZM94.0699 92.569C93.8261 92.4318 93.982 92.1408 94.2993 92.1408C94.534 92.1408 94.6086 92.4971 94.3986 92.6153C94.3309 92.6534 94.1829 92.6325 94.0699 92.569ZM77.4189 100.041C75.8618 99.474 74.5799 98.1789 73.8063 96.3916C73.5098 95.7065 73.4573 95.321 73.4573 93.8279C73.4573 92.3334 73.5096 91.9495 73.8073 91.2618C74.584 89.4668 76.1123 88.3823 78.0662 88.2396C79.3155 88.1483 80.3345 88.4504 81.5255 89.2655C83.1639 90.3866 83.8591 91.6829 83.982 93.8457C84.1633 97.0382 82.7464 99.4133 80.2594 100.086C79.2581 100.356 78.2395 100.34 77.4189 100.041ZM80.4467 97.2358C81.5939 96.3966 82.0583 95.0356 81.7134 93.5234C81.1262 90.9485 78.6237 89.9476 76.7764 91.5489C75.3048 92.8245 75.4897 95.7278 77.1237 97.0009C78.2455 97.8751 79.4559 97.9606 80.4467 97.2358ZM78.0478 96.7005C77.9364 96.4361 78.2097 96.1478 78.4458 96.2807C78.7004 96.4239 78.6472 96.9209 78.3772 96.9209C78.2472 96.9209 78.0989 96.8217 78.0478 96.7005ZM79.7422 96.5491C79.6071 96.2286 80.1307 95.8815 80.4197 96.0999C80.5945 96.2319 80.5863 96.3016 80.3699 96.5193C80.0496 96.8414 79.869 96.8499 79.7422 96.5491ZM76.6748 95.6433C76.6178 95.5592 76.6424 95.4256 76.7295 95.3463C76.9244 95.1689 77.2237 95.3187 77.2237 95.5936C77.2237 95.8303 76.8262 95.8663 76.6748 95.6433ZM78.2276 95.4858C77.2589 94.98 77.1651 93.7224 78.0332 92.8789C78.473 92.4514 79.2396 92.4614 79.8021 92.9018C80.1875 93.2036 80.2355 93.3346 80.2355 94.0855C80.2355 94.7857 80.1715 94.9919 79.861 95.2927C79.4542 95.6869 78.7683 95.768 78.2276 95.4858ZM80.8822 95.0024C80.655 94.7956 80.7745 94.3693 81.0463 94.417C81.195 94.443 81.3166 94.5848 81.3166 94.7319C81.3166 95.0116 81.0647 95.1685 80.8822 95.0024ZM76.4135 92.9492C76.2985 92.6645 76.4564 92.4219 76.7567 92.4219C77.057 92.4219 77.22 92.6645 77.1109 92.9492C77.0738 93.0458 76.9178 93.1249 76.764 93.1249C76.6103 93.1249 76.4526 93.0458 76.4135 92.9492ZM77.9459 91.803C77.8418 91.556 77.9662 91.4378 78.3306 91.4378C78.5108 91.4378 78.6138 91.5401 78.6138 91.719C78.6138 92.0465 78.077 92.114 77.9459 91.803ZM42.7893 95.6679C42.6082 95.36 42.6409 92.2218 42.827 92.0528C42.8942 91.9917 43.5544 91.8751 44.2942 91.7937L45.6393 91.6458L45.5839 90.4522C45.5535 89.7957 45.4953 89.2083 45.4547 89.1468C45.414 89.0854 44.796 89.0783 44.0814 89.131L42.782 89.227V88.5782C42.782 87.5323 43.2807 87.3681 47.5597 87.0047C49.749 86.8188 55.625 86.0676 60.1573 85.3943C63.1515 84.9495 64.1437 84.8953 64.3879 85.1631C64.5571 85.3488 64.5741 86.2765 64.4807 90.2441C64.4041 93.4967 64.3107 95.1294 64.1977 95.193C64.0147 95.2959 61.9386 95.3851 51.9438 95.719C43.2832 96.0084 42.9885 96.0068 42.7893 95.6679ZM45.0747 94.6146C45.1728 94.5594 45.2531 94.2965 45.2531 94.0305C45.2531 93.5542 45.2429 93.5467 44.589 93.5467C44.2237 93.5467 43.8415 93.6226 43.7396 93.7154C43.5012 93.9323 43.5013 94.4265 43.7398 94.6435C43.9283 94.8152 44.7498 94.7974 45.0747 94.6146ZM53.5323 94.4354C53.7011 94.3764 53.7506 94.1802 53.7168 93.7047L53.6705 93.0546L52.8983 93.0647C52.4735 93.0702 51.3741 93.124 50.455 93.1843C48.6134 93.3051 48.4788 93.386 48.6237 94.2845L48.6925 94.7114L50.997 94.6137C52.2646 94.56 53.4054 94.4797 53.5323 94.4354ZM61.8176 93.7313C61.8813 93.698 61.9334 93.3882 61.9334 93.043V92.4154L60.6593 92.5006C59.9584 92.5474 59.2982 92.6102 59.192 92.64C58.9864 92.6978 58.9194 93.7086 59.1096 93.8817C59.2187 93.9811 61.5925 93.8492 61.8176 93.7313ZM51.3538 91.6561C56.6762 91.2554 56.3733 91.2992 56.3733 90.9299C56.3733 90.6482 56.3127 90.6113 55.9486 90.6713C55.715 90.7098 53.7874 90.8643 51.6651 91.0145C47.9598 91.2767 47.2421 91.2536 47.6548 90.885C47.786 90.7678 50.9108 90.4653 54.2883 90.2428C56.4467 90.1005 56.5278 90.0773 56.5278 89.6011C56.5278 89.2399 56.4805 89.1928 56.1803 89.2551C55.7163 89.3514 48.4285 90.0319 47.8612 90.0319C47.2814 90.0319 47.265 89.6607 47.8401 89.5526C48.7345 89.3846 51.9168 89.0519 54.2378 88.8839C56.5775 88.7145 56.6607 88.6977 56.7268 88.3828C56.7645 88.2035 56.7343 88.0226 56.6597 87.9807C56.5852 87.9387 54.8049 88.0936 52.7034 88.3249C46.8557 88.9685 47.1065 88.9539 47.1065 88.6502C47.1065 88.4154 47.5129 88.347 51.3924 87.9288C53.7497 87.6747 55.9151 87.4255 56.2045 87.375C56.6939 87.2896 57.1604 86.9055 56.9772 86.7387C56.864 86.6357 53.1207 87.0126 49.6549 87.476C46.96 87.8363 46.7238 87.8906 46.762 88.1417C46.969 89.5027 47.2713 91.2865 47.3385 91.5433C47.4397 91.9298 47.6424 91.9355 51.3538 91.6561ZM60.7519 90.4644C61.6202 90.3887 62.2045 90.2672 62.3536 90.1315C62.6634 89.8495 62.8376 87.4515 62.5597 87.2951C62.3988 87.2046 58.7212 87.6056 58.5507 87.7322C58.4484 87.8082 58.0962 90.5152 58.1737 90.6297C58.2131 90.6879 58.5018 90.7013 58.8152 90.6595C59.1286 90.6178 60.0002 90.5299 60.7519 90.4644ZM66.7213 94.969L65.563 94.8823L65.5224 90.0154C65.4877 85.858 65.5151 85.1234 65.7104 84.9758C65.8881 84.8417 66.2863 84.8375 67.4946 84.9571C69.4348 85.1493 71.5092 85.1576 71.5092 84.9732C71.5092 84.7691 71.0719 84.7184 68.2658 84.5972C63.1503 84.3764 63.1131 84.3792 54.8289 85.6083C53.0875 85.8667 50.8982 86.1509 49.9638 86.24C49.0294 86.3291 47.248 86.5237 46.0051 86.6724C44.7623 86.8212 43.6309 86.9029 43.4911 86.854C43.3512 86.8051 43.1633 86.6402 43.0735 86.4875C42.8151 86.048 42.64 82.2126 42.788 80.2344C42.9512 78.053 43.1393 77.0614 44.2488 72.5341C45.2624 68.3983 45.5154 67.5524 45.8396 67.2169C46.0973 66.9502 51.8222 65.2191 58.6901 63.3311C60.9411 62.7123 63.4943 61.9866 64.3637 61.7183C65.2331 61.4501 65.9784 61.2806 66.02 61.3418C66.0903 61.4454 64.9448 67.6621 64.2696 70.8411C63.7531 73.2727 63.6142 75.2845 63.663 79.6247L63.7096 83.7689L64.1434 83.9077C64.4787 84.015 64.6126 83.9998 64.7331 83.8407C64.8354 83.7057 64.8522 82.1856 64.7818 79.4172C64.6062 72.5031 64.6284 72.2281 65.8809 65.7963C66.7969 61.0925 66.6829 61.4917 67.1098 61.4917C67.445 61.4917 70.8202 62.0707 80.8288 63.8451C83.4607 64.3117 84.706 64.5911 84.7943 64.7347C85.0752 65.1916 85.2397 69.0666 85.2655 75.8321C85.2803 79.737 85.284 83.021 85.2737 83.1297C85.2581 83.2951 84.8577 83.3111 82.8224 83.2273C79.9827 83.1103 78.9433 82.9772 78.7547 82.706C78.6798 82.5983 78.6165 78.4295 78.614 73.442C78.6116 68.4545 78.5676 64.2315 78.5164 64.0575C78.4652 63.8835 78.3619 63.7412 78.2868 63.7412C78.2092 63.7412 78.1504 67.8335 78.1504 73.2311C78.1504 80.7227 78.1098 82.7237 77.9574 82.7336C77.5252 82.7615 76.1633 82.7112 75.284 82.6348L74.3481 82.5535L73.6177 83.1997C72.7815 83.9395 72.819 83.9977 73.7964 83.4763C74.6568 83.0173 74.7243 83.0182 80.6113 83.5626C83.6659 83.845 85.1978 84.0411 85.2809 84.1604C85.4857 84.454 85.4343 85.6712 85.2164 85.6917C84.2258 85.7848 83.425 85.6212 82.7066 85.1793C79.4744 83.1907 75.4854 83.5307 72.9355 86.0121C71.2445 87.6576 70.7777 88.969 70.6589 92.4071C70.6138 93.7138 70.5089 94.7946 70.4192 94.8762C70.2326 95.0461 68.3737 95.0928 66.7213 94.969ZM69.3243 94.7217C70.0966 94.6482 70.2736 94.5844 70.2736 94.3797C70.2736 94.0372 70.0219 93.9912 67.8797 93.9423C66.03 93.9001 66.0262 93.9007 65.9742 94.2347C65.9455 94.4187 66.015 94.623 66.1286 94.6885C66.375 94.8307 68.0013 94.8476 69.3243 94.7217ZM70.0586 89.5295C70.1134 89.3306 70.0931 89.1084 70.0134 89.0359C69.9338 88.9633 68.9975 88.8638 67.9328 88.8147C66.0738 88.7289 65.9937 88.7367 65.9147 89.0116C65.8695 89.169 65.8774 89.364 65.9324 89.4449C65.9873 89.5258 66.7259 89.6506 67.5737 89.7222C70.0377 89.9304 69.9461 89.9375 70.0586 89.5295ZM51.2766 85.3246C54.849 84.8549 56.4089 84.6203 57.0297 84.4594C57.3391 84.3791 57.4019 83.8458 57.102 83.8458C56.9931 83.8458 54.6287 84.1622 51.8478 84.5488C49.0669 84.9354 46.7582 85.2518 46.7174 85.2518C46.5236 85.2518 46.6734 84.8495 46.8962 84.7717C47.209 84.6624 52.8552 83.8008 55.3694 83.4786C56.3888 83.348 57.2739 83.1716 57.3363 83.0866C57.3987 83.0016 57.4508 82.7823 57.4521 82.5993C57.4541 82.3222 57.3963 82.2809 57.107 82.3521C56.7115 82.4495 48.3404 83.781 47.2223 83.9243C46.6189 84.0017 46.4887 83.9798 46.4887 83.801C46.4887 83.6814 46.6103 83.5501 46.759 83.509C47.0981 83.4155 53.4034 82.3879 55.6783 82.0555C57.3499 81.8113 57.378 81.8009 57.427 81.4124C57.4744 81.0364 57.4522 81.0214 56.9637 81.0989C54.7247 81.4541 46.4915 82.7211 46.422 82.7211C46.3737 82.7211 46.3343 82.597 46.3343 82.4454C46.3343 82.2448 46.4922 82.1322 46.9134 82.0325C47.4051 81.9161 52.0326 81.1813 56.2307 80.553C56.8743 80.4566 57.4824 80.3319 57.5821 80.2758C57.745 80.1842 57.8511 79.4875 57.7021 79.4875C57.6684 79.4875 55.8093 79.7987 53.5707 80.1791C51.332 80.5594 48.8402 80.9787 48.0332 81.1108C46.0009 81.4434 46.0401 81.4154 46.1249 82.473C46.2293 83.7746 46.4964 85.7116 46.5905 85.8503C46.6356 85.9168 46.8571 85.9376 47.0826 85.8966C47.3081 85.8556 49.1954 85.5982 51.2766 85.3246ZM77.0439 79.8459C77.1124 79.2982 76.7463 79.0657 75.8152 79.0657C74.9598 79.0657 74.5313 79.3527 74.6909 79.8186C74.8445 80.2669 75.046 80.3371 76.0654 80.2971C76.9662 80.2618 76.9935 80.2492 77.0439 79.8459ZM48.5477 76.5416C49.8076 76.2287 50.8675 75.9727 50.9031 75.9727C50.9386 75.9727 50.9677 75.8822 50.9677 75.7717C50.9677 75.6101 50.6421 75.6503 49.3074 75.9766C46.6109 76.6358 45.8217 76.8804 45.7488 77.0795C45.7019 77.2076 45.772 77.2425 45.9685 77.189C46.1272 77.1458 47.2879 76.8545 48.5477 76.5416ZM46.8942 75.6145C49.1391 75.1726 57.3425 73.4486 59.8268 72.8965C60.942 72.6487 61.7738 72.3846 61.9529 72.2215C62.162 72.0312 62.38 71.3242 62.7058 69.7805C62.9579 68.5854 63.383 66.7332 63.6503 65.6647C63.9276 64.556 64.0778 63.672 64.0002 63.6055C63.9253 63.5415 62.8563 63.7602 61.6245 64.0916C49.0947 67.462 46.7441 68.1014 46.6843 68.1558C46.609 68.2244 44.9002 74.5908 44.7277 75.4455C44.5979 76.089 44.5157 76.0826 46.8942 75.6145ZM56.9525 74.6794C58.6715 74.2945 59.6167 74.0191 59.6167 73.903C59.6167 73.8041 59.5874 73.7232 59.5515 73.7232C59.0991 73.7232 54.2287 74.9132 54.0621 75.0644C53.7142 75.3803 53.9812 75.3448 56.9525 74.6794ZM76.5663 69.0837C76.587 66.8799 76.5435 64.9909 76.4696 64.8858C76.3612 64.7316 70.4302 63.4847 69.7109 63.4649C69.4845 63.4587 69.3165 63.8542 69.4197 64.1504C69.4827 64.331 69.7089 64.3787 70.4911 64.3766C71.0365 64.375 71.5408 64.4265 71.6118 64.4907C71.6828 64.555 71.7622 65.8958 71.7882 67.4703C71.8334 70.2023 71.8211 70.3463 71.5179 70.6223C71.3385 70.7855 70.9986 70.9114 70.7369 70.9114C70.1234 70.9114 70.0862 70.9176 69.7716 71.0708C69.428 71.2382 69.416 71.9361 69.7524 72.1947C70.0364 72.413 74.9648 73.1482 75.9109 73.1133L76.5287 73.0906L76.5663 69.0837ZM68.1975 72.9127C68.7247 72.5794 69.1529 71.3332 68.7402 71.3332C68.6613 71.3332 68.4875 71.2338 68.354 71.1122C68.1483 70.925 68.1122 70.4377 68.1168 67.9138C68.1208 65.7253 68.1761 64.848 68.3252 64.6031C68.4446 64.407 68.4887 64.0944 68.4322 63.8433C68.3261 63.3707 67.8919 63.0289 67.6816 63.2523C67.4867 63.4594 66.213 71.9945 66.3194 72.3804C66.4505 72.8559 67.7188 73.2153 68.1975 72.9127ZM141.783 87.4947C140.381 87.3332 131.197 86.4718 124.562 85.8795C121.504 85.6065 116.222 85.1298 112.824 84.8203C109.426 84.5108 104.804 84.1026 102.553 83.9132C100.302 83.7238 97.383 83.4732 96.0663 83.3563C94.7496 83.2394 93.3944 83.1426 93.0546 83.1412C92.2178 83.1374 92.0422 83.0048 91.9544 82.3088C91.8634 81.5879 92.0791 81.3018 92.6433 81.3952C92.8695 81.4327 94.7226 81.6177 96.7613 81.8065C101.867 82.2793 108.625 82.9383 112.592 83.3503C114.419 83.54 117.06 83.7932 118.461 83.913C120.932 84.1242 127.274 84.7374 137.304 85.7348C144.134 86.414 143.816 86.3989 143.76 86.0419C143.716 85.7629 143.411 85.7123 137.999 85.0854C134.856 84.7213 129.747 84.1642 126.647 83.8473C123.546 83.5304 119.585 83.1177 117.843 82.9302C116.102 82.7427 112.87 82.4276 110.662 82.23C108.453 82.0324 105.36 81.7165 103.789 81.528C99.254 80.9839 97.8679 80.873 94.9295 80.8192C93.4123 80.7914 92.1494 80.7489 92.1229 80.7249C92.0965 80.7008 92.0456 78.8303 92.0099 76.5683C91.9646 73.6978 91.996 72.4184 92.1137 72.3328C92.2974 72.199 94.9853 72.5636 102.244 73.7067C104.75 74.1014 109.824 74.8676 113.519 75.4096C117.214 75.9515 124.234 77.0328 129.118 77.8123C138.065 79.2404 142.632 79.9482 143.983 80.1163C144.461 80.1758 144.769 80.2967 144.867 80.4637C144.956 80.6147 145.003 82.1248 144.983 84.1456L144.949 87.5715L143.868 87.5909C143.273 87.6016 142.335 87.5583 141.783 87.4947ZM46.2663 66.0841C46.4039 65.661 47.3919 64.0088 47.7009 63.6848C47.8412 63.5378 48.3756 63.2428 48.8886 63.0291C50.2741 62.452 56.489 60.4307 61.3157 58.9874C63.6517 58.2889 65.8757 57.5873 66.258 57.4285C67.2373 57.0214 68.1484 57.0577 71.3126 57.6296C74.4377 58.1944 81.9119 59.8317 82.9039 60.1687C83.6731 60.4301 84.0427 60.9716 84.4039 62.366C84.7169 63.5745 84.704 63.7412 84.2975 63.7412C84.1107 63.7412 80.9658 63.2088 77.3088 62.558C73.6518 61.9072 69.8952 61.272 68.9608 61.1465C68.0264 61.021 67.0657 60.8612 66.8259 60.7916C66.4819 60.6916 65.7649 60.8238 63.428 61.418C59.7018 62.3655 54.9228 63.719 50.736 65.0127C45.8892 66.5103 46.1479 66.4483 46.2663 66.0841ZM83.7127 61.7403C83.5381 61.3153 83.2629 60.8587 83.1014 60.7256C82.7415 60.4292 81.3214 60.0915 75.0615 58.8136C72.3857 58.2674 69.6635 57.6976 69.0123 57.5473C68.361 57.397 67.7888 57.274 67.7407 57.274C67.4504 57.274 66.4107 59.85 66.623 60.0432C66.6596 60.0766 66.8737 59.7377 67.0988 59.2902C67.592 58.3097 67.9012 57.977 68.3194 57.977C68.4924 57.977 70.7926 58.4227 73.4308 58.9675C81.8205 60.7 82.6882 60.9649 83.5279 62.0501C83.7558 62.3445 83.962 62.5691 83.9862 62.5491C84.0105 62.5292 83.8874 62.1652 83.7127 61.7403Z" fill="white" />
	<path d="M121.777 43.0039C121.297 42.9605 120.558 42.8641 120.102 42.7855C120.03 42.773 119.823 42.7421 119.643 42.7166C119.462 42.6912 119.282 42.6447 119.243 42.6133C119.203 42.5819 119.156 42.5711 119.137 42.5894C119.059 42.6659 117.057 42.1386 116.974 42.0197C116.951 41.9865 116.905 41.976 116.871 41.9965C116.837 42.017 116.731 41.9934 116.634 41.9442C116.537 41.895 116.458 41.8668 116.458 41.8815C116.458 41.9258 115.421 41.5366 115.255 41.4304C115.171 41.3762 115.082 41.3512 115.058 41.375C115.034 41.3987 115.014 41.3842 115.014 41.343C115.014 41.3018 114.992 41.2741 114.965 41.2816C114.938 41.2888 114.849 41.2592 114.768 41.215C114.686 41.1708 114.62 41.1505 114.62 41.1698C114.62 41.2225 113.54 40.6819 113.515 40.6165C113.503 40.5854 113.438 40.56 113.372 40.56C113.305 40.56 113.204 40.5145 113.147 40.4588C113.091 40.4032 113.044 40.3815 113.043 40.4106C113.043 40.4397 113.02 40.4344 112.994 40.3991C112.967 40.3637 112.772 40.2479 112.561 40.1417C112.349 40.0355 112.161 39.9126 112.143 39.8685C112.126 39.8245 112.089 39.8018 112.062 39.8181C112.035 39.8343 111.95 39.7896 111.872 39.7186C111.795 39.6477 111.731 39.6064 111.731 39.6269C111.731 39.6644 110.873 39.0963 110.812 39.0182C110.794 38.9953 110.668 38.9104 110.533 38.8298C110.397 38.7491 110.287 38.6565 110.287 38.624C110.287 38.5916 110.257 38.5649 110.222 38.5649C110.148 38.5649 109.957 38.4233 109.678 38.1627C109.574 38.0653 109.464 37.9857 109.434 37.9857C109.404 37.9857 109.308 37.9031 109.221 37.802C109.135 37.701 108.984 37.5675 108.888 37.5054C108.791 37.4432 108.728 37.3666 108.748 37.3351C108.768 37.3036 108.753 37.2778 108.715 37.2778C108.587 37.2778 106.556 35.2165 106.487 35.016C106.473 34.9768 106.42 34.8977 106.37 34.8402C105.972 34.3896 105.887 34.2793 105.887 34.2133C105.887 34.1718 105.843 34.1214 105.789 34.1009C105.735 34.0806 105.69 34.0265 105.69 33.9808C105.69 33.935 105.615 33.8183 105.524 33.7213C105.432 33.6243 105.379 33.545 105.405 33.545C105.431 33.545 105.407 33.5087 105.351 33.4645C105.294 33.4203 105.193 33.2827 105.125 33.1588C105.057 33.0349 104.972 32.9123 104.935 32.8863C104.899 32.8603 104.897 32.8386 104.93 32.838C104.964 32.8376 104.931 32.7719 104.858 32.6923C104.784 32.6126 104.639 32.3882 104.534 32.1935C104.43 31.9988 104.323 31.824 104.298 31.8051C104.257 31.7748 103.966 31.1839 103.95 31.0994C103.947 31.0817 103.881 30.9679 103.803 30.8465C103.725 30.7251 103.677 30.602 103.695 30.573C103.713 30.5439 103.697 30.5202 103.659 30.5202C103.621 30.5202 103.596 30.4985 103.603 30.4718C103.611 30.4453 103.58 30.3584 103.535 30.2787C103.49 30.1991 103.471 30.1339 103.493 30.1339C103.515 30.1339 103.486 30.0882 103.429 30.0322C103.372 29.9763 103.341 29.9058 103.36 29.8757C103.379 29.8456 103.364 29.8025 103.327 29.7799C103.289 29.7572 103.276 29.7119 103.297 29.6789C103.318 29.646 103.3 29.619 103.258 29.619C103.216 29.619 103.198 29.5756 103.219 29.5225C103.24 29.4693 103.231 29.4259 103.199 29.4259C103.166 29.4259 103.12 29.3318 103.095 29.2168C103.07 29.1017 103.028 28.9786 103.002 28.9433C102.94 28.8591 102.677 28.1434 102.648 27.9779C102.635 27.9071 102.59 27.7655 102.547 27.6632C102.504 27.561 102.485 27.4623 102.504 27.4439C102.522 27.4255 102.511 27.3789 102.479 27.3402C102.446 27.3016 102.405 27.1776 102.387 27.0647C102.369 26.9518 102.336 26.8294 102.312 26.7927C102.289 26.7559 102.258 26.6456 102.244 26.5474C102.229 26.4492 102.202 26.311 102.183 26.2402C102.052 25.7394 101.957 25.216 101.988 25.1668C102.008 25.1347 101.996 25.0733 101.961 25.0307C101.903 24.9609 101.849 24.6196 101.773 23.8589C101.643 22.5542 101.618 21.2178 101.702 20.1584C101.729 19.8221 101.766 19.3442 101.784 19.0964C101.802 18.8487 101.846 18.5735 101.881 18.485C101.917 18.3966 101.944 18.2662 101.943 18.1954C101.941 18.1247 101.957 17.9798 101.98 17.8736C102.002 17.7674 102.03 17.6082 102.041 17.5197C102.053 17.4312 102.068 17.3588 102.074 17.3588C102.081 17.3588 102.097 17.2341 102.11 17.0818C102.124 16.9295 102.162 16.7702 102.196 16.7279C102.23 16.6855 102.257 16.601 102.256 16.5401C102.253 16.3336 102.428 15.7176 102.491 15.7176C102.525 15.7176 102.536 15.6739 102.515 15.6206C102.494 15.5672 102.502 15.4586 102.533 15.3792C102.564 15.2999 102.585 15.2177 102.58 15.1966C102.576 15.1755 102.613 15.11 102.662 15.051C102.712 14.992 102.763 14.8621 102.775 14.7623C102.787 14.6625 102.832 14.4963 102.875 14.393C102.919 14.2898 102.949 14.1835 102.943 14.157C102.938 14.1305 102.967 14.1088 103.009 14.1088C103.052 14.1088 103.069 14.0923 103.049 14.072C103.028 14.0518 103.051 13.9598 103.1 13.8675C103.149 13.7752 103.174 13.6758 103.155 13.6468C103.137 13.6177 103.155 13.5939 103.195 13.5939C103.236 13.5939 103.253 13.5682 103.233 13.5369C103.213 13.5055 103.239 13.4457 103.29 13.4039C103.342 13.3621 103.38 13.2773 103.375 13.2155C103.364 13.0713 103.523 12.6929 103.594 12.6929C103.624 12.6929 103.668 12.5919 103.692 12.4682C103.716 12.3447 103.761 12.2593 103.793 12.2785C103.825 12.2978 103.834 12.2724 103.815 12.2219C103.795 12.1715 103.823 12.0866 103.878 12.0331C103.932 11.9797 103.959 11.918 103.936 11.8961C103.914 11.8742 103.93 11.8563 103.972 11.8563C104.015 11.8563 104.049 11.7983 104.049 11.7276C104.049 11.6568 104.072 11.5989 104.101 11.5989C104.129 11.5989 104.204 11.512 104.268 11.4058C104.332 11.2996 104.367 11.2127 104.346 11.2127C104.324 11.2127 104.382 11.1046 104.473 10.9725C104.565 10.8404 104.64 10.707 104.64 10.6761C104.64 10.6451 104.728 10.5111 104.835 10.3782C104.943 10.2453 105.017 10.1233 105 10.1071C104.984 10.0908 105.069 9.97188 105.189 9.84283C105.31 9.71377 105.381 9.59923 105.348 9.5883C105.314 9.57734 105.361 9.48949 105.453 9.39301C105.544 9.29656 105.607 9.21761 105.592 9.21761C105.577 9.21761 105.638 9.14093 105.726 9.04731C105.815 8.95363 105.887 8.83945 105.887 8.79353C105.887 8.74766 105.946 8.6696 106.018 8.62017C106.09 8.57072 106.132 8.51352 106.111 8.49302C106.09 8.47254 106.135 8.42339 106.21 8.3839C106.285 8.34438 106.347 8.27066 106.347 8.22005C106.347 8.16947 106.406 8.09705 106.478 8.05916C106.551 8.02127 106.61 7.96138 106.61 7.92602C106.61 7.89069 106.691 7.78056 106.79 7.68132C107.223 7.24838 107.555 6.8856 107.48 6.92689C107.327 7.01126 108.568 5.82997 108.865 5.60904C109.028 5.48763 109.176 5.3347 109.194 5.2692C109.212 5.20367 109.254 5.16657 109.288 5.18668C109.321 5.20685 109.433 5.12278 109.538 5.00008C109.642 4.87731 109.758 4.77688 109.794 4.77688C109.831 4.77688 109.899 4.71678 109.946 4.64327C110.016 4.53345 110.049 4.52393 110.13 4.58983C110.184 4.63385 110.223 4.64338 110.217 4.61082C110.19 4.47248 110.227 4.39077 110.317 4.39077C110.37 4.39077 110.446 4.33036 110.486 4.25653C110.527 4.18271 110.575 4.13753 110.594 4.15609C110.631 4.19234 110.661 4.17248 110.998 3.88509C111.119 3.78232 111.296 3.65861 111.392 3.61017C111.488 3.56174 111.582 3.50698 111.6 3.48851C111.618 3.47008 111.714 3.41991 111.813 3.37715C111.912 3.33435 111.994 3.27073 111.994 3.23568C111.994 3.20066 112.043 3.19043 112.103 3.21306C112.182 3.24285 112.197 3.23076 112.158 3.16892C112.123 3.11322 112.13 3.0991 112.178 3.12818C112.218 3.15265 112.312 3.11364 112.385 3.04156C112.459 2.96948 112.563 2.91048 112.617 2.91048C112.671 2.91048 112.716 2.88734 112.716 2.85908C112.716 2.80625 113.113 2.64496 113.18 2.67082C113.2 2.67901 113.292 2.60612 113.383 2.50932C113.475 2.41257 113.569 2.35223 113.592 2.37524C113.616 2.39828 113.635 2.37831 113.635 2.33131C113.635 2.28411 113.653 2.26344 113.676 2.28535C113.698 2.30726 113.759 2.28329 113.812 2.23107C113.865 2.17937 113.935 2.15346 113.969 2.17353C114.002 2.1936 114.029 2.17455 114.029 2.13124C114.029 2.08783 114.047 2.07033 114.07 2.09224C114.092 2.11416 114.153 2.09018 114.206 2.03858C114.258 1.98718 114.373 1.9451 114.46 1.9451C114.548 1.9451 114.62 1.91438 114.62 1.87691C114.62 1.83944 114.649 1.82664 114.686 1.84855C114.722 1.87046 114.751 1.85777 114.751 1.8202C114.751 1.78272 114.773 1.7566 114.8 1.76223C114.862 1.77514 115.04 1.71013 115.375 1.55141C115.519 1.48302 115.726 1.41156 115.833 1.39256C115.941 1.37351 116.044 1.33307 116.064 1.30266C116.083 1.27225 116.187 1.22812 116.295 1.20467C116.403 1.18122 116.535 1.14549 116.59 1.12532C116.644 1.10515 116.761 1.07668 116.851 1.06214C116.941 1.0476 117.031 1.00932 117.051 0.977166C117.071 0.945016 117.146 0.909785 117.216 0.899034C117.287 0.888283 117.382 0.856859 117.427 0.829214C117.472 0.801569 117.536 0.795637 117.57 0.816012C117.604 0.836387 117.651 0.821118 117.675 0.783234C117.699 0.744839 117.76 0.728975 117.811 0.74802C117.861 0.767064 117.903 0.756202 117.903 0.724257C117.903 0.692209 117.954 0.663848 118.018 0.661186C118.318 0.648899 118.428 0.625876 118.428 0.575398C118.428 0.545194 118.485 0.538117 118.554 0.559619C118.623 0.58112 118.699 0.567812 118.722 0.530747C118.746 0.493375 118.794 0.480172 118.829 0.501469C118.865 0.522766 118.929 0.512928 118.973 0.47955C119.053 0.418219 119.813 0.257252 119.915 0.2799C119.946 0.287067 120.015 0.274778 120.069 0.254403C120.16 0.219591 120.565 0.16952 121.218 0.112387C121.363 0.0997935 121.688 0.0698988 121.941 0.0461447C123.155 -0.0682438 126.663 0.0471742 126.766 0.205252C126.785 0.232999 126.935 0.258174 127.101 0.261246C127.363 0.266365 127.579 0.302212 128.178 0.441788C128.466 0.508955 128.506 0.519798 128.506 0.530856C128.506 0.537 128.62 0.552363 128.758 0.564649C128.897 0.576936 129.051 0.619947 129.1 0.660186C129.15 0.700424 129.219 0.715987 129.254 0.694588C129.289 0.673291 129.336 0.68394 129.358 0.718445C129.379 0.752847 129.44 0.76472 129.493 0.744754C129.546 0.724789 129.59 0.734301 129.59 0.765939C129.59 0.797578 129.642 0.827377 129.705 0.832291C129.968 0.852667 130.443 0.994718 130.443 1.05308C130.443 1.08769 130.471 1.09936 130.505 1.07898C130.538 1.05861 130.584 1.07183 130.607 1.10735C130.63 1.14329 130.728 1.17289 130.825 1.17299C130.922 1.17312 131.101 1.23257 131.222 1.30516C131.344 1.37775 131.457 1.42353 131.474 1.40695C131.517 1.36466 131.964 1.5518 132.097 1.66814C132.158 1.72117 132.239 1.74554 132.278 1.7223C132.316 1.69906 132.347 1.71073 132.347 1.7482C132.347 1.78568 132.418 1.81638 132.504 1.81638C132.589 1.81638 132.696 1.8595 132.741 1.91223C132.785 1.96496 132.846 1.99363 132.875 1.97602C132.904 1.95841 132.975 1.98974 133.032 2.04564C133.089 2.10154 133.135 2.12632 133.135 2.10062C133.135 2.07492 133.195 2.10676 133.267 2.17035C133.339 2.23444 133.398 2.26341 133.398 2.23474C133.398 2.20608 133.452 2.23066 133.518 2.28922C133.584 2.34789 133.658 2.37656 133.682 2.35281C133.707 2.32916 133.726 2.34871 133.726 2.3956C133.726 2.4428 133.745 2.46349 133.767 2.44158C133.789 2.41967 133.851 2.44362 133.904 2.49584C133.956 2.54755 134.027 2.57345 134.06 2.55338C134.093 2.53331 134.12 2.54929 134.12 2.58881C134.12 2.62834 134.147 2.6443 134.181 2.62423C134.214 2.60416 134.286 2.63141 134.34 2.68476C134.395 2.7382 134.471 2.78192 134.51 2.78192C134.548 2.78192 134.58 2.81571 134.58 2.85697C134.58 2.89823 134.598 2.9144 134.62 2.8928C134.664 2.84969 135.175 3.14493 135.252 3.2581C135.28 3.29936 135.301 3.30204 135.302 3.26425C135.303 3.22883 135.332 3.24335 135.366 3.29639C135.401 3.34953 135.452 3.39346 135.48 3.39418C135.568 3.39623 135.959 3.64304 135.959 3.69643C135.959 3.72417 136 3.7469 136.05 3.7469C136.1 3.7469 136.159 3.79216 136.181 3.84755C136.203 3.90284 136.244 3.93395 136.272 3.91665C136.301 3.89935 136.423 3.9699 136.544 4.07348C136.665 4.17704 136.782 4.26192 136.805 4.26208C136.827 4.26226 136.953 4.35638 137.085 4.47125C137.217 4.58611 137.403 4.73802 137.499 4.80882C137.929 5.12673 139.325 6.44472 140.259 7.41556C140.694 7.86759 141.337 8.72367 141.295 8.79583C141.273 8.83299 141.279 8.84262 141.308 8.81723C141.365 8.76685 141.605 9.03353 141.605 9.14699C141.605 9.18569 141.637 9.21734 141.675 9.21734C141.713 9.21734 141.727 9.24446 141.706 9.27774C141.685 9.31091 141.708 9.3616 141.757 9.39037C141.887 9.46726 142.394 10.2247 142.346 10.2714C142.324 10.2935 142.342 10.3115 142.386 10.3115C142.43 10.3115 142.448 10.3404 142.426 10.3758C142.404 10.4112 142.413 10.4402 142.447 10.4402C142.481 10.4402 142.526 10.4909 142.548 10.5528C142.597 10.6973 142.736 10.9094 142.82 10.9701C142.856 10.9962 142.861 11.0179 142.831 11.0184C142.802 11.0189 142.839 11.0957 142.914 11.1889C142.988 11.2822 143.05 11.3823 143.05 11.4113C143.05 11.4404 143.123 11.5702 143.213 11.6999C143.303 11.8295 143.36 11.9612 143.34 11.9924C143.321 12.0236 143.33 12.0491 143.362 12.0491C143.423 12.0491 143.706 12.6724 143.706 12.8065C143.706 12.85 143.729 12.8858 143.757 12.8858C143.784 12.8858 143.877 13.0668 143.962 13.288C144.048 13.5092 144.159 13.7837 144.21 13.898C144.484 14.5163 145.051 16.4526 144.986 16.5544C144.964 16.5897 144.974 16.6186 145.008 16.6186C145.042 16.6186 145.085 16.6982 145.103 16.7955C145.535 19.1142 145.578 19.5431 145.577 21.5741C145.577 23.1164 145.509 24.232 145.413 24.2652C145.381 24.2764 145.371 24.3262 145.39 24.3759C145.425 24.465 145.309 25.3115 145.236 25.5C145.216 25.5531 145.187 25.6979 145.172 25.8218C145.1 26.4245 144.34 28.985 144.17 29.1999C144.142 29.2356 144.098 29.3469 144.074 29.4471C144.049 29.5474 143.927 29.8463 143.802 30.1115C143.677 30.3767 143.575 30.6205 143.575 30.6533C143.575 30.6861 143.54 30.713 143.498 30.713C143.456 30.713 143.44 30.731 143.463 30.753C143.497 30.7866 143.264 31.2781 143.054 31.614C143.021 31.6672 142.881 31.9092 142.743 32.152C142.605 32.3948 142.462 32.641 142.425 32.6991C142.389 32.7571 142.275 32.9422 142.173 33.1104C142.07 33.2785 141.955 33.4161 141.916 33.4161C141.878 33.4161 141.865 33.4345 141.888 33.4569C141.931 33.4991 141.421 34.2527 141.349 34.2527C141.327 34.2527 141.273 34.3323 141.229 34.4297C141.185 34.527 141.034 34.7225 140.895 34.8641C140.756 35.0057 140.612 35.175 140.576 35.2405C140.512 35.3556 139.652 36.2771 139.042 36.8843C138.617 37.3074 137.75 38.065 137.563 38.1773C137.475 38.2298 137.403 38.295 137.403 38.3222C137.403 38.3494 137.366 38.3719 137.321 38.3723C137.276 38.3728 137.139 38.4741 137.016 38.5976C136.894 38.7211 136.77 38.8221 136.741 38.8221C136.712 38.8221 136.608 38.8945 136.511 38.983C136.413 39.0715 136.293 39.1439 136.245 39.1439C136.196 39.1439 136.156 39.1729 136.156 39.2082C136.156 39.2437 136.111 39.2726 136.057 39.2726C136.003 39.2726 135.959 39.2982 135.959 39.3296C135.959 39.4004 135.649 39.603 135.511 39.623C135.454 39.6312 135.396 39.6715 135.382 39.7126C135.368 39.7538 135.315 39.7874 135.264 39.7874C135.213 39.7874 135.171 39.8093 135.171 39.8359C135.171 39.8625 135.03 39.9559 134.859 40.0435C134.687 40.131 134.532 40.2214 134.514 40.2443C134.449 40.3274 133.347 40.8827 132.61 41.204C131.783 41.5648 130.362 42.0845 130.11 42.1184C130.023 42.1302 129.912 42.1638 129.865 42.1929C129.817 42.2221 129.761 42.2289 129.739 42.208C129.718 42.187 129.668 42.1963 129.628 42.2287C129.45 42.3734 127.67 42.7456 126.348 42.9144C125.451 43.029 122.659 43.0837 121.777 43.0039ZM119.477 30.9331C119.957 30.7933 120.217 30.6173 120.791 30.0445C121.062 29.7744 121.336 29.5372 121.4 29.5173C121.464 29.4975 121.504 29.4615 121.489 29.4376C121.449 29.3721 121.623 29.2339 121.682 29.2852C121.709 29.3096 121.714 29.2991 121.693 29.2618C121.646 29.1816 125.259 25.6289 125.387 25.6289C125.436 25.6289 125.455 25.6093 125.431 25.5851C125.37 25.5253 125.717 25.1784 125.838 25.1784C125.891 25.1784 125.916 25.1601 125.893 25.1378C125.837 25.082 126.575 24.3372 126.645 24.3797C126.676 24.3984 126.701 24.3792 126.701 24.3372C126.701 24.2347 132.035 19.0022 132.1 19.0413C132.128 19.0582 132.15 19.0321 132.15 18.9833C132.15 18.8822 132.484 18.575 132.566 18.6004C132.595 18.6096 132.604 18.5922 132.585 18.5613C132.539 18.4888 134.254 16.8374 134.346 16.8655C134.384 16.8773 134.395 16.8665 134.371 16.8428C134.346 16.8185 134.589 16.5381 134.911 16.2196C135.609 15.5281 135.828 15.1398 135.892 14.4741C135.927 14.115 135.911 13.9383 135.822 13.6798C135.759 13.4969 135.724 13.3304 135.745 13.3097C135.766 13.289 135.744 13.2722 135.696 13.2722C135.648 13.2722 135.626 13.2548 135.648 13.2336C135.686 13.196 135.438 12.8979 135.105 12.5825C135.015 12.4969 134.823 12.3669 134.678 12.2938C134.534 12.2207 134.401 12.143 134.383 12.1212C134.337 12.0655 134.16 12.0435 133.601 12.024C132.709 11.9929 132.46 12.1483 130.836 13.7474C130.097 14.4759 129.454 15.0724 129.409 15.073C129.364 15.0738 129.335 15.1104 129.344 15.1546C129.353 15.1989 129.323 15.2279 129.278 15.2191C129.233 15.2098 129.203 15.2293 129.212 15.2611C129.233 15.3348 127.787 16.7476 127.691 16.7476C127.652 16.7476 127.627 16.7837 127.636 16.8281C127.646 16.8723 127.616 16.9013 127.571 16.8924C127.526 16.8831 127.489 16.9095 127.489 16.9502C127.489 17.0446 125.162 19.3219 125.066 19.3219C125.026 19.3219 124.994 19.3586 124.994 19.4036C124.994 19.5034 122.813 21.6388 122.711 21.6388C122.672 21.6388 122.62 21.6968 122.597 21.7675C122.574 21.8383 122.513 21.8962 122.461 21.8962C122.41 21.8962 122.367 21.9274 122.367 21.9654C122.367 22.063 120.514 23.8898 120.414 23.8906C120.369 23.8911 120.332 23.9252 120.332 23.9667C120.332 24.0081 120.001 24.3682 119.597 24.7668L118.863 25.4915L117.02 23.6777C116.007 22.6802 115.112 21.8301 115.033 21.7886C114.953 21.7472 114.805 21.6698 114.704 21.6167C114.173 21.3363 113.483 21.2939 112.945 21.5086C112.769 21.5791 112.628 21.6196 112.511 21.6338C112.452 21.641 111.722 22.3467 111.774 22.3467C111.797 22.3467 111.772 22.3974 111.718 22.4593C111.515 22.6923 111.383 23.1519 111.365 23.6971C111.355 23.9974 111.373 24.2751 111.406 24.3141C111.439 24.3531 111.509 24.5037 111.561 24.6487C111.667 24.9411 111.781 25.0794 112.568 25.8695C112.866 26.1684 113.11 26.4393 113.11 26.4715C113.11 26.5036 113.141 26.53 113.179 26.53C113.217 26.53 114.17 27.4314 115.297 28.5332C117.359 30.5509 117.794 30.9064 118.264 30.9593C118.372 30.9715 118.473 30.9935 118.488 31.0082C118.553 31.0723 119.156 31.0265 119.477 30.9331Z" fill="#40E83A" />
</svg>
