<svg width="30" height="15" viewBox="0 0 30 15" fill="none"
    xmlns="http://www.w3.org/2000/svg">
    <path d="M14.1913 5.27867C14.1913 5.27867 13.4574 5.60168 13.2464 5.54384C13.0354 5.48599 13.0189 5.30453 13.0189 5.30453L13.011 2.49754C12.9973 2.30298 12.8968 1.59546 13.1544 1.28651L14.1913 0.808584C14.2032 2.29073 14.2438 3.75384 14.1913 5.27867ZM14.5916 0.808584C20.397 -1.25898 25.0833 0.865622 29.5888 4.60807C30.0134 4.77636 30.0002 7.58664 29.9999 7.64117C29.9989 7.8199 29.9567 8.03344 29.7652 7.97627C24.3938 7.02807 15.5765 5.51592 14.6203 5.35212C14.4547 3.414 14.5916 0.808584 14.5916 0.808584Z" fill="#40E83A"/>
    <path d="M3.74072 14.9395C3.6507 14.9064 3.51699 14.8368 3.4436 14.7849C3.13757 14.5684 2.75045 14.0581 2.68176 13.7806C2.65345 13.6662 2.6589 13.663 2.93434 13.6344C3.08918 13.6183 3.44594 13.6052 3.72714 13.6052C4.91281 13.6052 8.37857 13.4262 8.44361 13.3616C8.45808 13.3472 8.46586 13.128 8.4609 12.8744C8.44143 11.878 8.58822 11.1678 8.91371 10.6836C9.27085 10.1524 9.80996 9.8723 10.4753 9.8723C11.4191 9.8723 12.2063 10.5187 12.5292 11.5588C12.5917 11.7602 12.639 12.0723 12.6604 12.425C12.695 12.9969 12.7403 13.1271 12.8677 13.0221C12.9197 12.9792 12.9372 12.877 12.9361 12.6215C12.933 11.8605 12.781 11.2038 12.5012 10.7422C12.4174 10.6041 12.3489 10.4733 12.3489 10.4515C12.3489 10.4298 12.4813 10.412 12.6432 10.412H12.9375V8.23624C12.9375 6.54899 12.9503 6.05001 12.9942 6.01378C13.0254 5.98808 13.2914 5.92049 13.5854 5.86358C14.0496 5.77373 14.1255 5.76879 14.1619 5.82609C14.2083 5.89889 14.2114 8.49015 14.1658 8.99177C14.1338 9.34237 14.18 9.30604 13.5949 9.44111C13.2578 9.51892 13.0441 9.64839 13.2561 9.64636C13.3175 9.64585 13.4492 9.62556 13.5488 9.60146C13.7858 9.5441 14.7175 9.5431 15.2282 9.59966C15.4501 9.62423 16.2327 9.69575 16.9673 9.75858C17.702 9.82142 18.894 9.93312 19.6162 10.0068C20.3384 10.0805 21.6424 10.2026 22.514 10.2781C23.3856 10.3537 24.4451 10.4545 24.8685 10.5021C25.2919 10.5498 26.1273 10.6306 26.7249 10.6817C27.7718 10.7712 29.2126 10.9273 29.4801 10.9803C29.551 10.9943 29.5918 11.0218 29.5707 11.0415C29.5225 11.0862 28.8435 11.1766 28.5552 11.1766C28.2387 11.1766 28.1965 11.2037 28.1965 11.4072C28.1965 11.6415 28.2563 11.6634 29.0115 11.705L29.6228 11.7387L29.6368 11.9075C29.6491 12.0542 29.6355 12.0821 29.532 12.1211C29.4666 12.1458 29.2973 12.1663 29.1557 12.1667C29.0142 12.167 28.876 12.1822 28.8486 12.2004C28.7726 12.251 28.729 12.7833 28.7974 12.8273C28.828 12.847 29.0364 12.8732 29.2606 12.8856L29.6681 12.9081V13.0585C29.6681 13.1413 29.6579 13.2248 29.6454 13.244C29.6057 13.3055 28.4218 13.3904 28.3564 13.3365C28.3245 13.3102 28.286 13.2121 28.271 13.1186C28.224 12.8266 27.9826 12.4112 27.7229 12.1755C27.4248 11.9049 27.2079 11.7987 26.9529 11.7987C26.72 11.7987 26.5487 11.8805 26.3565 12.0835C26.1716 12.2787 26.0836 12.4571 26.0012 12.8046C25.8248 13.5478 26.0058 14.321 26.4651 14.7858L26.6763 14.9994H26.1445C25.5344 14.9994 25.3894 14.9565 25.1734 14.7122C25.0014 14.5176 25.0002 14.5083 25.116 14.2829C25.1649 14.1876 25.2394 13.9354 25.2815 13.7223C25.3516 13.3682 25.3522 13.3051 25.2889 12.9866C25.1576 12.3266 24.8607 11.9109 24.3567 11.6818C24.0293 11.5329 23.7423 11.5315 23.4566 11.6776C23.0506 11.8851 22.8235 12.329 22.7695 13.0205C22.7025 13.8796 22.9211 14.4879 23.4175 14.8237C23.5055 14.8832 23.5776 14.9471 23.5777 14.9657C23.5779 14.9842 23.3224 14.9994 23.0098 14.9994C22.2601 14.9994 22.1159 14.9207 21.8267 14.3538L21.7104 14.1258L21.6067 14.3284C21.4723 14.591 21.144 14.8897 20.9227 14.9507C20.8267 14.9772 20.5181 14.999 20.2369 14.9991C19.6697 14.9995 19.4577 14.9327 19.2875 14.7006L19.1979 14.5785L19.1428 14.6807C19.035 14.8808 18.727 14.9662 18.0279 14.9898C17.2667 15.0154 17.1458 14.985 16.8305 14.6878L16.6025 14.4729L16.7175 14.2527C16.7906 14.1127 16.8655 13.8382 16.9229 13.4992C16.9726 13.2059 17.0252 12.9467 17.0398 12.9232C17.1027 12.8222 17.1348 12.3476 17.0955 12.1004C17.0124 11.5779 16.5522 10.9045 16.0668 10.5951C15.8549 10.4601 15.2991 10.3223 14.9655 10.3221C14.5072 10.3219 13.8751 10.8169 13.606 11.3868C13.4798 11.6541 13.4588 11.752 13.4438 12.1435C13.4241 12.6555 13.4807 12.6775 13.5668 12.1913C13.6446 11.7523 13.8152 11.4215 14.1134 11.1316C14.4796 10.7756 14.7339 10.6606 15.1562 10.6599C15.4431 10.6594 15.5379 10.6802 15.7675 10.7938C16.282 11.0484 16.7385 11.5994 16.8671 12.121C16.944 12.4332 16.9745 12.7154 16.9283 12.6871C16.9057 12.6732 16.8002 12.457 16.6939 12.2068C16.463 11.6633 16.2512 11.3851 15.9176 11.1871C15.3959 10.8775 14.8611 10.8887 14.4416 11.218C13.952 11.6024 13.6231 12.6613 13.7536 13.4327C13.857 14.0435 14.1505 14.5256 14.5809 14.7914C14.7378 14.8882 14.7816 14.935 14.7317 14.9524C14.693 14.9659 14.4008 14.9762 14.0824 14.9753C13.6357 14.9741 13.4721 14.957 13.3659 14.9003C13.1343 14.7769 12.8776 14.4772 12.7096 14.1342C12.5892 13.8883 12.5241 13.8039 12.4464 13.7928C12.348 13.7788 12.3449 13.7664 12.3788 13.523C12.4378 13.0993 12.4135 12.4352 12.3284 12.1422C12.1483 11.5226 11.742 11.0197 11.2284 10.7806C10.9999 10.6743 10.9123 10.6594 10.5151 10.6594C9.97442 10.6594 9.7507 10.749 9.42279 11.0972C8.81279 11.745 8.69598 13.0443 9.16185 13.9995C9.30591 14.2949 9.63105 14.6307 9.94589 14.8093L10.1863 14.9457L9.83731 14.9782C9.26947 15.0311 8.85948 14.9876 8.62199 14.8494C8.3881 14.7132 8.12702 14.4301 7.99307 14.1674C7.80527 13.799 7.77657 13.7851 7.20418 13.7851H6.69368L6.55527 14.0731C6.38928 14.4186 6.03646 14.7576 5.71202 14.8834C5.42086 14.9963 4.00425 15.0366 3.74072 14.9395ZM18.5747 13.3796V13.1779L19.0728 13.1648C19.7436 13.1472 19.7746 13.1569 19.7746 13.3843C19.7746 13.5475 19.7852 13.565 19.8765 13.5521C19.9623 13.54 19.9784 13.51 19.9784 13.3624V13.1871L20.3624 13.1969C20.5736 13.2022 20.7723 13.228 20.8039 13.254C20.8355 13.28 20.8613 13.3584 20.8613 13.4281C20.8613 13.5711 20.91 13.6183 21.0157 13.578C21.0617 13.5605 21.0877 13.4961 21.0877 13.3999V13.2492L21.4386 13.236C21.7884 13.2229 21.7896 13.2225 21.8045 13.0928C21.8241 12.9221 21.7581 12.8871 21.4146 12.8863C21.2273 12.8857 21.124 12.8664 21.1123 12.8293C21.1024 12.7984 21.0856 12.6138 21.0749 12.4191L21.0553 12.065L21.3891 12.0863C21.7778 12.1111 21.8794 12.066 21.8346 11.8886C21.8069 11.7793 21.7834 11.7703 21.4464 11.7411L21.0877 11.7101V11.4523C21.0877 11.1988 21.0363 11.0866 20.9202 11.0866C20.8784 11.0866 20.8613 11.1653 20.8613 11.3579C20.8613 11.5563 20.8433 11.636 20.7941 11.6547C20.7571 11.6689 20.5584 11.6632 20.3526 11.6421L19.9784 11.6038L19.965 11.3002C19.9533 11.0335 19.9409 10.9966 19.8631 10.9966C19.7842 10.9966 19.7746 11.029 19.7746 11.2958V11.595L19.2305 11.5679C18.9313 11.5529 18.6664 11.5284 18.6419 11.5134C18.6174 11.4983 18.5974 11.3644 18.5974 11.2157C18.5974 10.9611 18.5915 10.9462 18.4955 10.9598C18.4073 10.9722 18.3906 11.0074 18.371 11.2215L18.3484 11.4689H17.9408H17.5333L17.5187 11.6216C17.5001 11.814 17.556 11.8496 17.8786 11.8505C18.0187 11.8508 18.1919 11.8628 18.2635 11.877L18.3936 11.9028L18.3776 12.293C18.3689 12.5076 18.3518 12.6933 18.3397 12.7057C18.3277 12.718 18.1413 12.7281 17.9256 12.7281H17.5333L17.5187 12.8808C17.4998 13.0766 17.555 13.1089 17.9099 13.1097C18.2887 13.1106 18.371 13.1579 18.371 13.3744C18.371 13.5648 18.4012 13.6146 18.5046 13.5948C18.5555 13.5851 18.5747 13.526 18.5747 13.3796ZM20.3519 12.8522L20.001 12.8368V12.552C20.001 12.3953 19.9877 12.2009 19.9714 12.1199L19.9417 11.9726L20.3449 12.0047C20.5667 12.0224 20.7628 12.0512 20.7808 12.0687C20.8474 12.1335 20.8769 12.7453 20.8169 12.8171C20.7854 12.8548 20.7469 12.8815 20.7313 12.8765C20.7156 12.8715 20.5449 12.8606 20.3519 12.8522ZM18.9531 12.8049C18.5996 12.7894 18.599 12.7884 18.598 12.2434L18.5973 11.8936L19.152 11.923C19.4571 11.9392 19.7239 11.9681 19.7451 11.9872C19.8015 12.0383 19.7292 12.7946 19.6673 12.8004C19.5125 12.8147 19.2184 12.8166 18.9531 12.8049ZM22.502 12.7698C22.7391 11.3287 23.811 10.8597 24.785 11.7709C24.9942 11.9665 25.033 11.9887 25.0043 11.8961C24.9302 11.6568 24.6614 11.4165 24.2572 11.2283C24.0561 11.1345 23.9386 11.1119 23.646 11.1107C23.3169 11.1093 23.2651 11.1215 23.08 11.2447C22.6647 11.5212 22.3317 12.1977 22.2778 12.8743C22.2537 13.1779 22.2581 13.2004 22.3415 13.2004C22.4196 13.2004 22.4402 13.1452 22.502 12.7698ZM25.705 12.8519C25.7818 12.4589 25.8785 12.2301 26.0691 11.9906C26.2624 11.7477 26.6324 11.5364 26.8645 11.5364C27.2582 11.5364 27.8142 11.8739 28.0037 12.2281C28.1227 12.4504 28.1333 12.2505 28.0154 12.0085C27.8123 11.5919 27.3005 11.2665 26.8482 11.2665C26.5716 11.2665 26.3783 11.3698 26.1109 11.6603C25.7605 12.0412 25.5703 12.4967 25.5703 12.9553C25.5703 13.198 25.6492 13.1374 25.705 12.8519ZM23.646 14.7586C23.38 14.6354 23.108 14.3523 22.9751 14.0604C22.8341 13.7509 22.8144 13.0095 22.9368 12.6241C23.1148 12.064 23.3661 11.8402 23.8448 11.8155C24.1179 11.8014 24.1655 11.8131 24.3896 11.9493C24.8689 12.2405 25.0922 12.7337 25.0647 13.4401C25.0459 13.9216 24.908 14.2769 24.6284 14.5643C24.3227 14.8785 24.0296 14.9365 23.646 14.7586ZM24.1864 14.0758C24.4185 13.9664 24.5502 13.6907 24.5509 13.3128C24.5516 12.9354 24.4454 12.689 24.2166 12.5376C23.9216 12.3425 23.6485 12.4235 23.4636 12.7609C23.3527 12.9634 23.3426 13.0191 23.3611 13.329C23.3849 13.7274 23.4748 13.9312 23.6821 14.0567C23.857 14.1626 23.9913 14.1677 24.1864 14.0758ZM23.6974 13.5569C23.4387 13.3548 23.6095 12.8856 23.9417 12.8856C24.1089 12.8856 24.3478 13.0965 24.3478 13.2442C24.3478 13.3745 24.2315 13.5881 24.142 13.6222C24.0001 13.6763 23.8154 13.6492 23.6974 13.5569ZM26.7509 14.789C25.9394 14.3787 25.7362 12.9077 26.3999 12.2484C27.1159 11.5372 28.1416 12.3918 28.0473 13.6211C28.0338 13.7979 27.9998 14.0179 27.9719 14.11C27.9136 14.3025 27.687 14.6121 27.5079 14.744C27.338 14.869 26.9542 14.8918 26.7509 14.789ZM27.3129 14.0923C27.4883 13.9553 27.5626 13.747 27.5624 13.393C27.5622 13.1544 27.5394 13.0507 27.4579 12.9169C27.3396 12.7228 27.1343 12.5715 26.9888 12.5711C26.8224 12.5705 26.6196 12.781 26.5446 13.032C26.4584 13.3203 26.4587 13.3965 26.5478 13.6944C26.6826 14.1452 27.0204 14.3209 27.3129 14.0923ZM26.7697 13.6046C26.5786 13.3949 26.7365 13.0505 27.0238 13.0505C27.2979 13.0505 27.4418 13.4103 27.2456 13.6052C27.1257 13.7243 26.8785 13.724 26.7697 13.6046ZM14.9829 14.7527C14.6954 14.6636 14.4406 14.471 14.2235 14.1785C13.9591 13.8224 13.8666 13.5341 13.8666 13.0655C13.8665 12.2942 14.1275 11.6732 14.5594 11.4168C15.4628 10.8806 16.4899 11.6136 16.6278 12.893C16.7161 13.7123 16.2465 14.5598 15.5982 14.751C15.322 14.8325 15.241 14.8327 14.9829 14.7527ZM15.694 13.8522C15.7907 13.7654 15.9154 13.589 15.9712 13.4603C16.1781 12.9827 16.0117 12.3579 15.6068 12.0918C15.4585 11.9943 15.3914 11.9781 15.2076 11.9957C14.7465 12.0397 14.4995 12.3833 14.503 12.9755C14.5052 13.348 14.592 13.5719 14.8234 13.8023C14.9852 13.9634 15.0835 14.0035 15.3259 14.0071C15.4843 14.0094 15.5491 13.9821 15.694 13.8522ZM15.5184 13.6609C15.5184 13.562 15.6834 13.3943 15.7326 13.4431C15.7731 13.4834 15.6516 13.7038 15.575 13.729C15.5428 13.7396 15.5184 13.7102 15.5184 13.6609ZM15.0893 13.3241C14.8859 13.1485 14.8782 12.7538 15.0747 12.572C15.3988 12.2721 15.8341 12.7477 15.6289 13.1773C15.5075 13.4314 15.2841 13.4922 15.0893 13.3241ZM14.6808 12.5708C14.6429 12.5099 14.694 12.4358 14.774 12.4358C14.8099 12.4358 14.8392 12.4763 14.8392 12.5258C14.8392 12.6189 14.73 12.6499 14.6808 12.5708ZM15.069 12.303C14.9975 12.2591 15.0432 12.166 15.1362 12.166C15.2051 12.166 15.2269 12.28 15.1654 12.3178C15.1455 12.33 15.1021 12.3233 15.069 12.303ZM10.1875 14.6934C9.73097 14.5119 9.35515 14.0976 9.12836 13.5258C9.04143 13.3067 9.02605 13.1833 9.02605 12.7057C9.02605 12.2276 9.04139 12.1048 9.12864 11.8848C9.35637 11.3106 9.80441 10.9637 10.3772 10.918C10.7435 10.8888 11.0422 10.9855 11.3914 11.2462C11.8717 11.6048 12.0755 12.0195 12.1115 12.7114C12.1647 13.7326 11.7493 14.4924 11.0202 14.7075C10.7267 14.7941 10.428 14.789 10.1875 14.6934ZM11.0751 13.7959C11.4114 13.5274 11.5476 13.092 11.4465 12.6083C11.2743 11.7846 10.5407 11.4644 9.9991 11.9767C9.56767 12.3847 9.62188 13.3135 10.1009 13.7207C10.4298 14.0004 10.7846 14.0277 11.0751 13.7959ZM10.3718 13.6246C10.3392 13.5401 10.4193 13.4478 10.4885 13.4903C10.5632 13.5361 10.5475 13.6951 10.4684 13.6951C10.4303 13.6951 10.3868 13.6634 10.3718 13.6246ZM10.8686 13.5762C10.829 13.4737 10.9825 13.3626 11.0672 13.4325C11.1185 13.4747 11.116 13.497 11.0526 13.5666C10.9587 13.6697 10.9057 13.6724 10.8686 13.5762ZM9.96933 13.2864C9.9526 13.2595 9.95981 13.2168 9.98535 13.1914C10.0425 13.1347 10.1302 13.1826 10.1302 13.2705C10.1302 13.3462 10.0137 13.3578 9.96933 13.2864ZM10.4246 13.236C10.1405 13.0742 10.113 12.672 10.3675 12.4021C10.4965 12.2654 10.7212 12.2686 10.8861 12.4095C10.9991 12.506 11.0132 12.5479 11.0132 12.7881C11.0132 13.0121 10.9944 13.0781 10.9034 13.1743C10.7841 13.3004 10.5831 13.3263 10.4246 13.236ZM11.2028 13.0814C11.1362 13.0153 11.1712 12.8789 11.2509 12.8941C11.2945 12.9025 11.3301 12.9478 11.3301 12.9949C11.3301 13.0844 11.2563 13.1345 11.2028 13.0814ZM9.89272 12.4246C9.85901 12.3335 9.90529 12.2559 9.99333 12.2559C10.0814 12.2559 10.1291 12.3335 10.0972 12.4246C10.0863 12.4555 10.0405 12.4808 9.99548 12.4808C9.95041 12.4808 9.90417 12.4555 9.89272 12.4246ZM10.342 12.058C10.3114 11.9789 10.3479 11.9411 10.4547 11.9411C10.5076 11.9411 10.5378 11.9738 10.5378 12.0311C10.5378 12.1358 10.3804 12.1574 10.342 12.058ZM0.0351965 13.2943C-0.0178784 13.1958 -0.00828484 12.1919 0.0462483 12.1378C0.0659528 12.1183 0.25952 12.081 0.476397 12.055L0.87072 12.0077L0.854498 11.6258C0.845577 11.4158 0.828524 11.2279 0.816604 11.2083C0.804685 11.1886 0.62351 11.1863 0.413996 11.2032L0.0330604 11.2339V11.0264C0.0330604 10.6918 0.179278 10.6392 1.43372 10.523C2.07556 10.4635 3.79822 10.2232 5.12693 10.0078C6.00474 9.86555 6.2956 9.8482 6.3672 9.9339C6.41682 9.99328 6.42178 10.2901 6.3944 11.5593C6.37196 12.5998 6.34458 13.122 6.31143 13.1424C6.25779 13.1753 5.64915 13.2038 2.719 13.3107C0.180017 13.4032 0.0936017 13.4027 0.0351965 13.2943ZM0.705214 12.9574C0.733984 12.9397 0.757523 12.8556 0.757523 12.7705C0.757523 12.6181 0.754514 12.6157 0.562823 12.6157C0.455739 12.6157 0.343674 12.64 0.31379 12.6697C0.243922 12.7391 0.243955 12.8972 0.313852 12.9666C0.369137 13.0215 0.609972 13.0158 0.705214 12.9574ZM3.18471 12.9C3.23419 12.8812 3.24871 12.8184 3.23879 12.6663L3.22522 12.4583L2.99882 12.4615C2.87431 12.4633 2.55198 12.4805 2.28253 12.4998C1.74264 12.5385 1.70317 12.5643 1.74565 12.8518L1.76582 12.9883L2.44145 12.9571C2.81304 12.9399 3.14751 12.9142 3.18471 12.9ZM5.61368 12.6748C5.63235 12.6641 5.64764 12.5651 5.64764 12.4546V12.2538L5.27409 12.2811C5.06863 12.2961 4.87507 12.3162 4.84394 12.3257C4.78367 12.3442 4.76401 12.6675 4.81978 12.7229C4.85177 12.7547 5.54769 12.7125 5.61368 12.6748ZM2.54604 12.0109C4.10639 11.8828 4.0176 11.8968 4.0176 11.7786C4.0176 11.6885 3.99983 11.6767 3.89308 11.6959C3.8246 11.7083 3.2595 11.7576 2.63731 11.8057C1.55104 11.8896 1.34062 11.8822 1.46161 11.7643C1.50007 11.7268 2.41616 11.63 3.40633 11.5588C4.03911 11.5133 4.06288 11.5059 4.06288 11.3536C4.06288 11.238 4.04902 11.223 3.961 11.2429C3.82498 11.2737 1.68844 11.4914 1.52213 11.4914C1.35214 11.4914 1.34734 11.3726 1.51594 11.3381C1.77815 11.2843 2.71109 11.1779 3.39152 11.1241C4.07746 11.07 4.10184 11.0646 4.12123 10.9638C4.13226 10.9065 4.12341 10.8486 4.10156 10.8352C4.07971 10.8218 3.55777 10.8713 2.9417 10.9453C1.22733 11.1512 1.30087 11.1465 1.30087 11.0494C1.30087 10.9743 1.42 10.9524 2.55736 10.8186C3.24842 10.7373 3.88326 10.6576 3.96811 10.6415C4.11157 10.6141 4.24833 10.4913 4.19463 10.4379C4.16145 10.405 3.06403 10.5255 2.04797 10.6738C1.25793 10.789 1.18867 10.8064 1.19986 10.8867C1.26055 11.3221 1.34918 11.8927 1.36888 11.9749C1.39854 12.0985 1.45797 12.1003 2.54604 12.0109ZM5.30126 11.6297C5.55579 11.6055 5.72709 11.5667 5.77081 11.5232C5.86163 11.433 5.91271 10.6659 5.83122 10.6159C5.78406 10.5869 4.70592 10.7152 4.65592 10.7557C4.62593 10.78 4.52269 11.646 4.54542 11.6826C4.55696 11.7012 4.64159 11.7055 4.73347 11.6922C4.82536 11.6788 5.08086 11.6507 5.30126 11.6297ZM7.05128 13.0707L6.71169 13.043L6.69979 11.4861C6.68963 10.1562 6.69766 9.92119 6.75493 9.87398C6.807 9.83106 6.92375 9.82972 7.27799 9.868C7.84679 9.92946 8.45493 9.93213 8.45493 9.87315C8.45493 9.80784 8.32673 9.79162 7.50407 9.75287C6.00439 9.68222 5.99346 9.68311 3.56481 10.0763C3.05429 10.159 2.41246 10.2499 2.13853 10.2784C1.86459 10.3069 1.34234 10.3691 0.97798 10.4167C0.613616 10.4643 0.281948 10.4904 0.240941 10.4748C0.199934 10.4592 0.144844 10.4064 0.118519 10.3575C0.0427693 10.217 -0.00856538 8.99005 0.0348244 8.35722C0.0826705 7.65941 0.137818 7.34222 0.463089 5.89396C0.760232 4.57094 0.834424 4.30034 0.929448 4.19302C1.00499 4.1077 2.68336 3.55392 4.69678 2.94999C5.35672 2.75204 6.10521 2.51987 6.3601 2.43406C6.61499 2.34825 6.83349 2.29405 6.84567 2.31362C6.86629 2.34676 6.53046 4.33544 6.33251 5.35237C6.18111 6.13021 6.14038 6.77378 6.15468 8.1622L6.16834 9.48788L6.29553 9.53229C6.39382 9.56661 6.43309 9.56175 6.46841 9.51087C6.49841 9.46766 6.50332 8.9814 6.48269 8.09581C6.43119 5.88402 6.4377 5.79606 6.80489 3.73857C7.07343 2.23388 7.04002 2.36158 7.16516 2.36158C7.26345 2.36158 8.25294 2.54679 11.1871 3.11441C11.9587 3.26368 12.3238 3.35304 12.3497 3.39897C12.432 3.54513 12.4803 4.78473 12.4878 6.94896C12.4922 8.19812 12.4933 9.24863 12.4902 9.28342C12.4856 9.33634 12.3683 9.34143 11.7716 9.31462C10.9391 9.27722 10.6344 9.23462 10.5791 9.14789C10.5571 9.11344 10.5385 7.77986 10.5378 6.1844C10.5371 4.58893 10.5242 3.23802 10.5092 3.18236C10.4942 3.1267 10.4639 3.08117 10.4419 3.08117C10.4192 3.08117 10.4019 4.39028 10.4019 6.11694C10.4019 8.51344 10.39 9.15354 10.3453 9.1567C10.2186 9.16564 9.81935 9.14954 9.56157 9.12511L9.28721 9.09909L9.07308 9.30579C8.82791 9.54247 8.83893 9.56109 9.12545 9.3943C9.3777 9.24747 9.39749 9.24774 11.1234 9.42188C12.0189 9.51224 12.468 9.57498 12.4923 9.61313C12.5524 9.70705 12.5373 10.0964 12.4734 10.103C12.183 10.1327 11.9482 10.0804 11.7376 9.93906C10.7901 9.30293 9.62063 9.41169 8.87307 10.2055C8.37734 10.7318 8.24047 11.1514 8.20566 12.2512C8.19243 12.6692 8.16167 13.015 8.13539 13.0411C8.08068 13.0954 7.53572 13.1103 7.05128 13.0707ZM7.81438 12.9916C8.0408 12.9681 8.09269 12.9477 8.09269 12.8822C8.09269 12.7726 8.01889 12.7579 7.39087 12.7423C6.8486 12.7288 6.8475 12.729 6.83224 12.8358C6.82384 12.8947 6.84421 12.96 6.87752 12.981C6.94976 13.0265 7.42652 13.0319 7.81438 12.9916ZM8.02965 11.3307C8.04574 11.267 8.03978 11.196 8.01642 11.1728C7.99307 11.1496 7.71857 11.1177 7.40644 11.102C6.86145 11.0746 6.83796 11.0771 6.81481 11.165C6.80155 11.2153 6.80388 11.2777 6.81998 11.3036C6.83609 11.3295 7.05262 11.3694 7.30118 11.3923C8.02352 11.4589 7.99668 11.4612 8.02965 11.3307ZM2.5234 9.98555C3.57073 9.83531 4.02803 9.76026 4.21003 9.70876C4.30071 9.6831 4.31913 9.51251 4.23122 9.51251C4.1993 9.51251 3.50613 9.6137 2.69087 9.73738C1.8756 9.86106 1.19877 9.96225 1.1868 9.96225C1.12997 9.96225 1.17389 9.83358 1.23921 9.80868C1.3309 9.77373 2.98621 9.49809 3.72329 9.39504C4.02213 9.35326 4.2816 9.29682 4.2999 9.26962C4.31819 9.24243 4.33348 9.17228 4.33386 9.11374C4.33444 9.02512 4.31749 9.01188 4.23267 9.03468C4.11674 9.06583 1.6626 9.49176 1.33483 9.53761C1.15792 9.56235 1.11975 9.55535 1.11975 9.49816C1.11975 9.45991 1.15541 9.41788 1.19899 9.40476C1.2984 9.37483 3.1469 9.04613 3.81384 8.93979C4.30389 8.86166 4.31215 8.85835 4.3265 8.73405C4.34038 8.61378 4.33387 8.60898 4.19066 8.63377C3.53427 8.74741 1.12056 9.15271 1.10019 9.15271C1.08605 9.15271 1.07447 9.11302 1.07447 9.0645C1.07447 9.00034 1.12078 8.96432 1.24427 8.93242C1.38839 8.89519 2.74503 8.66012 3.97578 8.45913C4.16445 8.42832 4.34274 8.38843 4.37197 8.37049C4.41973 8.34116 4.45083 8.1183 4.40716 8.1183C4.39728 8.1183 3.85224 8.21785 3.19595 8.33953C2.53966 8.4612 1.80912 8.59532 1.57254 8.63757C0.976735 8.74398 0.988224 8.73503 1.0131 9.07334C1.04371 9.48971 1.12199 10.1094 1.14959 10.1537C1.16282 10.175 1.22775 10.1817 1.29386 10.1685C1.35997 10.1554 1.91326 10.0731 2.5234 9.98555ZM10.0775 8.23295C10.0976 8.05775 9.99026 7.98338 9.71731 7.98338C9.46653 7.98338 9.34091 8.07517 9.38771 8.22423C9.43273 8.36764 9.49181 8.39009 9.79065 8.37729C10.0548 8.36599 10.0627 8.36196 10.0775 8.23295ZM1.72339 7.17592C2.09275 7.07583 2.40347 6.99394 2.41389 6.99394C2.42431 6.99394 2.43284 6.965 2.43284 6.92964C2.43284 6.87794 2.33738 6.89079 1.94609 6.99518C1.15557 7.20606 0.924206 7.28431 0.902831 7.348C0.889084 7.38896 0.909629 7.40014 0.96724 7.38303C1.01377 7.36921 1.35404 7.27601 1.72339 7.17592ZM1.23864 6.87934C1.89676 6.73801 4.30172 6.18649 5.03005 6.00988C5.35697 5.9306 5.60082 5.84612 5.65335 5.79395C5.71464 5.73307 5.77856 5.50692 5.87405 5.01311C5.94798 4.63078 6.07259 4.0383 6.15095 3.69648C6.23226 3.34181 6.2763 3.05901 6.25353 3.03777C6.23158 3.01729 5.91818 3.08726 5.55708 3.19325C1.88374 4.27141 1.19463 4.47597 1.1771 4.49337C1.15502 4.51531 0.654061 6.55187 0.603495 6.82529C0.565424 7.03114 0.541324 7.02909 1.23864 6.87934ZM4.18739 6.58023C4.69133 6.4571 4.96845 6.36898 4.96845 6.33187C4.96845 6.30024 4.95985 6.27435 4.94933 6.27435C4.81672 6.27435 3.38885 6.65501 3.34003 6.70338C3.23803 6.80445 3.31629 6.79307 4.18739 6.58023ZM9.9375 4.7902C9.94356 4.08523 9.93081 3.48093 9.90915 3.44732C9.87737 3.398 8.13862 2.99913 7.92774 2.99278C7.86136 2.99079 7.81209 3.11731 7.84237 3.21206C7.86083 3.26983 7.92714 3.28511 8.15646 3.28443C8.31635 3.28392 8.46419 3.30039 8.485 3.32094C8.50581 3.34149 8.52909 3.77041 8.53673 4.27409C8.54998 5.14802 8.54636 5.1941 8.45749 5.28237C8.4049 5.33461 8.30524 5.37487 8.22853 5.37487C8.04867 5.37487 8.03776 5.37684 7.94554 5.42586C7.8448 5.47941 7.84129 5.70266 7.93988 5.78537C8.02315 5.85522 9.46799 6.09039 9.74537 6.07925L9.92649 6.07197L9.9375 4.7902ZM7.48405 6.01506C7.63862 5.90845 7.76414 5.50979 7.64314 5.50979C7.62001 5.50979 7.56908 5.47798 7.52994 5.43911C7.46963 5.37921 7.45903 5.22333 7.46039 4.41595C7.46158 3.71588 7.47776 3.43521 7.52149 3.35688C7.5565 3.29416 7.56941 3.19415 7.55287 3.11381C7.52174 2.96266 7.39445 2.85331 7.3328 2.92478C7.27566 2.99102 6.90226 5.72132 6.93346 5.84479C6.97189 5.9969 7.3437 6.11188 7.48405 6.01506ZM29.0568 10.6798C28.6458 10.6281 25.9534 10.3525 24.0082 10.163C23.1117 10.0757 21.5631 9.92324 20.567 9.82423C19.5709 9.72521 18.2159 9.59463 17.556 9.53404C16.896 9.47346 16.0403 9.39329 15.6543 9.35589C15.2683 9.3185 14.8709 9.28753 14.7713 9.28708C14.526 9.28589 14.4745 9.24347 14.4488 9.0208C14.4221 8.7902 14.4853 8.69869 14.6508 8.72856C14.7171 8.74054 15.2603 8.79975 15.858 8.86014C17.3549 9.01139 19.3359 9.22219 20.4991 9.354C21.0345 9.41467 21.8088 9.49567 22.2197 9.534C22.944 9.60156 24.8035 9.79772 27.7437 10.1168C29.7462 10.334 29.6529 10.3292 29.6364 10.215C29.6235 10.1257 29.5342 10.1096 27.9475 9.90901C27.026 9.79255 25.5284 9.61434 24.6195 9.51297C23.7105 9.4116 22.5491 9.27959 22.0386 9.2196C21.5281 9.15962 20.5806 9.05882 19.9331 8.99561C19.2856 8.9324 18.3789 8.83134 17.9182 8.77103C16.5888 8.59699 16.1824 8.56152 15.321 8.54429C14.8762 8.5354 14.5059 8.52183 14.4982 8.51413C14.4904 8.50643 14.4755 7.90808 14.4651 7.18447C14.4518 6.26622 14.461 5.85695 14.4955 5.82955C14.5494 5.78677 15.3373 5.90339 17.4654 6.26907C18.2001 6.39531 19.6875 6.64044 20.7708 6.81381C21.8541 6.98717 23.912 7.33305 25.3439 7.58242C27.967 8.03924 29.3058 8.26566 29.7019 8.31946C29.842 8.33848 29.9322 8.37717 29.961 8.43057C29.987 8.47889 30.001 8.96195 29.9951 9.60841L29.985 10.7043L29.6681 10.7105C29.4937 10.7139 29.2187 10.7001 29.0568 10.6798ZM1.05456 3.83064C1.09489 3.69531 1.38453 3.16675 1.47514 3.06314C1.51626 3.01611 1.67293 2.92172 1.82331 2.85338C2.22949 2.66877 4.05151 2.02217 5.46652 1.56046C6.15136 1.337 6.80338 1.11259 6.91544 1.06176C7.20255 0.931551 7.46967 0.943147 8.39728 1.12609C9.31348 1.30679 11.5047 1.83055 11.7955 1.93836C12.021 2.02197 12.1294 2.19519 12.2352 2.64126C12.327 3.02783 12.3232 3.08117 12.204 3.08117C12.1493 3.08117 11.2273 2.91084 10.1552 2.70267C9.08307 2.49449 7.98176 2.2913 7.70782 2.25114C7.43389 2.21098 7.15224 2.15989 7.08194 2.1376C6.98109 2.10563 6.7709 2.14792 6.0858 2.33799C4.99341 2.64107 3.59236 3.07406 2.36492 3.48791C0.943986 3.967 1.01984 3.94716 1.05456 3.83064ZM12.0326 2.44108C11.9814 2.30514 11.9007 2.15908 11.8534 2.1165C11.7479 2.02167 11.3315 1.91364 9.49634 1.50487C8.71188 1.33014 7.91384 1.14785 7.72292 1.09977C7.53199 1.05169 7.36424 1.01235 7.35013 1.01235C7.26503 1.01235 6.96022 1.83638 7.02246 1.8982C7.0332 1.90888 7.09597 1.80048 7.16195 1.65734C7.30652 1.34366 7.39718 1.23723 7.51978 1.23723C7.57051 1.23723 8.24484 1.37982 9.01829 1.5541C11.4779 2.10832 11.7322 2.19306 11.9784 2.5402C12.0452 2.63438 12.1057 2.70622 12.1128 2.69984C12.1199 2.69346 12.0838 2.57701 12.0326 2.44108Z" fill="white"/>
</svg>
