<svg width="18" height="24" viewBox="0 0 18 24" fill="none"
    xmlns="http://www.w3.org/2000/svg">
    <path fill-rule="evenodd" clip-rule="evenodd" d="M10.1071 0.00053095C5.82055 0.046459 2.35765 3.06117 2.41176 6.69989C2.41372 6.83157 2.41977 6.96323 2.42978 7.09477C3.58671 6.31757 5.00005 5.77693 6.5471 5.47921C7.1369 4.12282 8.60043 3.32516 10.1563 3.30849C12.2996 3.28553 14.0754 4.75529 14.1024 6.57465C14.1295 8.39401 12.398 9.90134 10.2547 9.9243C9.89852 9.92812 9.55252 9.89074 9.22301 9.81737L7.80092 11.3126L7.64923 9.27814C6.32479 9.03113 4.57625 9.60556 3.80726 11.0883C5.6996 14.3221 9.00022 17.054 10.3777 18.1941C12.3015 16.5193 18.0731 11.4948 17.9993 6.53291C17.9452 2.89419 14.3937 -0.0453971 10.1071 0.00053095Z" fill="#FF0000"/>
    <path d="M8.21305 4.66769L8.23488 5.79783C0.503971 6.41419 -4.4546 12.6951 5.79915 23.8134C7.32263 24.5045 9.22694 23.1727 8.15448 21.5121C-2.00768 12.1818 4.64191 7.62588 8.27658 8.84469L8.35106 9.84474L11.2595 6.78645L8.21305 4.66769Z" fill="#66FF00"/>
</svg>
