<svg width="22" height="22" viewBox="0 0 22 22" fill="none"
    xmlns="http://www.w3.org/2000/svg">
    <path d="M11 20.36C16.1375 20.36 20.3023 16.1694 20.3023 11C20.3023 5.83061 16.1375 1.63998 11 1.63998C5.86247 1.63998 1.69769 5.83061 1.69769 11C1.69769 16.1694 5.86247 20.36 11 20.36Z" fill="white" stroke="white" stroke-width="0.220902" stroke-miterlimit="8"/>
    <path d="M13.9008 6.52802L13.8709 6.57658L13.8408 6.62529L13.9568 6.70022L14.0729 6.77514L14.5052 6.88478L14.9374 6.99427L14.9629 7.02064L14.9882 7.04685L14.5559 7.01184L14.1237 6.97683L13.7766 7.6424L13.4295 8.30796H13.3894H13.3493L13.1135 8.05592L12.8777 7.80372L13.8709 6.57658L12.8777 7.63733L12.3727 7.65477L11.8678 7.67221L11.7243 7.77902L11.5809 7.88582L11.5648 8.075L11.5488 8.26419L11.6039 8.33077L11.6592 8.39721L12.2938 8.51355L12.9285 8.63004V8.76396V8.89802L12.6166 9.26581L12.4308 9.48479L12.9063 9.93644L12.8969 9.85913L13.0154 9.61751L13.1336 9.37604H13.3108H13.488L13.4877 9.33791L13.4876 9.29977L13.3896 9.13904L13.2917 8.97831L13.3194 8.8721L13.3472 8.76574H13.4646H13.5819L13.84 8.82533L14.0983 8.88491V9.09897V9.31303L14.3291 9.37113L14.5599 9.42937L14.3223 9.73817L14.0848 10.047L14.1677 10.4249L14.2508 10.803V10.8448V10.8868L14.0484 11.0213L14.3544 11.312L16.9545 13.7818L17.1378 13.4175L17.3414 13.0122L17.4999 12.5632L17.6584 12.1141V12.0271V11.94L17.4422 11.7313L17.2261 11.5226L17.0052 11.4122L16.7844 11.3018L16.5662 10.8347L16.3479 10.3677L16.4507 10.1812L16.5534 9.99468L16.7573 9.72536L16.9612 9.45589L17.0295 9.19982L17.0977 8.94375L17.0983 8.43162L17.0988 7.91964L17.0241 7.66789L16.9493 7.41629L16.7571 7.23173L16.5648 7.04731L16.3613 6.94721L16.158 6.84711L15.9019 6.76339L15.6458 6.67967L15.2153 6.60385L14.7848 6.52818L14.3427 6.52803L13.9008 6.52802ZM6.64155 9.66635L6.36493 9.7316L6.0883 9.79699L5.75775 9.96353L5.42705 10.1302L5.18797 10.3762L4.94873 10.6219L4.82539 10.9018L4.7022 11.1816L4.63949 11.4835L4.57677 11.7856L4.61089 12.1321L4.645 12.4786L4.76611 12.8345L4.88706 13.1902H4.78503H4.68299L4.58467 13.2429L4.48621 13.2955V13.7674V14.2392L4.63889 14.3853L4.79143 14.5316V14.6013V14.6712L4.97942 14.8961L5.16756 15.1212L5.62801 15.2745L6.08845 15.4279H6.42838H6.76817L7.1656 15.7425L7.56318 16.0571L8.14801 16.5381L8.73284 17.0191L8.94526 17.2222L9.15783 17.4254L9.98786 17.4395L10.818 17.4538L10.9706 17.4309L11.1232 17.4081L11.6826 17.3051L12.2421 17.2022L12.7298 17.0528L13.2177 16.9034L13.7247 16.6816L14.2318 16.4599L14.5361 16.2552L13.0611 14.8542L12.5733 15.3461L11.8365 16.0891H11.8275H11.8185L11.3682 15.9172L10.9178 15.7453L10.0034 15.2871L9.08887 14.8289L8.55484 14.5139L8.02096 14.1988L7.64274 13.915L7.26467 13.6314L7.05791 13.5131L6.85115 13.3949L6.89182 13.3943L6.93248 13.3937L7.08696 13.4737L7.24143 13.5535L7.55783 13.5196L7.87408 13.4858L8.10795 13.5957L8.34167 13.7055L8.65167 14.0284L8.9618 14.3512V14.3964V14.4415L9.20328 14.5589L9.44489 14.6764L10.2424 15.0268L11.0401 15.3771H11.1112H11.1822L11.3367 15.161L11.4912 14.9449L11.6317 14.6664L11.7723 14.388L11.7979 13.8464L11.8066 13.6626L11.1915 13.0784L11.2342 13.2918L11.3142 13.6907L11.2812 13.8671L11.2481 14.0435L11.0331 13.9954L10.8182 13.9471L10.5892 13.8001L10.3603 13.6532L10.1519 13.4344L9.94334 13.2157L9.80852 12.9677L9.67371 12.7198L9.67458 12.5101L9.67544 12.3003L9.71939 12.3697L9.76348 12.4392L10.0922 12.2553L10.2387 12.1734L9.40552 11.3821L9.21545 11.4661L8.91588 11.4323L8.61632 11.3984L8.11521 11.564L7.61395 11.7298L7.33226 11.8706L7.05057 12.0113L6.79823 12.2376L6.54603 12.464L6.31722 12.5686L6.08827 12.6732L6.0193 12.6775L5.95048 12.6818L5.80509 12.5594L5.6597 12.4372L5.59431 12.4153L5.52891 12.3936L5.51104 11.9254L5.49317 11.4574L5.60608 11.1791L5.71899 10.9008L5.99562 10.648L6.27209 10.3954L6.53621 10.3124L6.80032 10.2295L7.2116 10.2037L7.62304 10.1779L7.99828 10.2633L8.29963 10.3317L7.6509 9.71555L7.28028 9.69753L6.64155 9.66635ZM12.3093 14.14L12.2922 14.1787L12.1733 14.4475L12.0425 14.925L11.9116 15.4026V15.4976L11.9114 15.5928L12.1785 15.3667L12.4455 15.1406L12.7507 14.936L12.9832 14.7801L12.6486 14.4623L12.3093 14.14Z" fill="#020202"/>
    <path d="M4.60391 2.05064L3.3194 3.12526C3.72212 2.73249 4.15177 2.37371 4.60391 2.05064ZM2.13976 4.48097C0.812903 6.28456 0.0588876 8.46382 0.00333391 10.7304C-0.145034 16.7833 4.67737 21.8484 10.7303 21.9967H10.7309C13.3805 22.0616 15.9444 21.167 17.966 19.5129L12.6486 14.4623L15.428 17.1024C14.1016 18.065 12.4849 18.5796 10.8153 18.5387C6.63132 18.4362 3.35863 14.9993 3.46119 10.8153C3.49563 9.41004 3.93614 8.06337 4.68954 6.9028L2.13976 4.48097ZM20.2663 16.9272C19.9667 17.3957 19.6304 17.843 19.2593 18.2649L20.2663 16.9272Z" fill="#FF0000"/>
    <path d="M11.2697 0.00330486C8.30815 -0.0692962 5.44022 1.05687 3.31941 3.12526L2.13977 4.48097L17.966 19.5129L19.2593 18.2651C20.9642 16.3269 21.9334 13.8497 21.9967 11.2692C22.145 5.2164 17.3225 0.151669 11.2697 0.00330486ZM11.1847 3.46132C15.3686 3.56387 18.6411 7.00081 18.5387 11.1847C18.5104 12.3389 18.1937 13.4504 17.6695 14.4608L7.19915 4.51523C8.39917 3.81212 9.76989 3.42664 11.1847 3.46132Z" fill="#FF0000"/>
</svg>
