<svg width="22" height="22" viewBox="0 0 22 22" fill="none"
    xmlns="http://www.w3.org/2000/svg">
    <path d="M10.0791 21.9808C9.83884 21.9586 9.46882 21.9093 9.24048 21.8691C9.20433 21.8628 9.10072 21.8469 9.01029 21.8339C8.91985 21.8209 8.82969 21.7972 8.80994 21.7811C8.79022 21.7651 8.76642 21.7596 8.75708 21.7689C8.71795 21.808 7.71519 21.5385 7.67388 21.4777C7.66232 21.4607 7.63909 21.4554 7.62219 21.4659C7.60529 21.4763 7.55186 21.4643 7.50341 21.4391C7.45496 21.414 7.41533 21.3996 7.41533 21.4071C7.41533 21.4297 6.89563 21.2308 6.81279 21.1765C6.77051 21.1488 6.72602 21.136 6.71389 21.1482C6.70176 21.1603 6.69187 21.1529 6.69187 21.1318C6.69187 21.1108 6.68077 21.0966 6.66722 21.1004C6.65367 21.1041 6.60926 21.089 6.56857 21.0664C6.52786 21.0438 6.49457 21.0334 6.49457 21.0433C6.49457 21.0703 5.95369 20.7939 5.941 20.7605C5.93498 20.7446 5.90276 20.7316 5.86936 20.7316C5.83598 20.7316 5.78542 20.7084 5.757 20.6799C5.72859 20.6515 5.7051 20.6404 5.70484 20.6552C5.70457 20.6701 5.69348 20.6674 5.68019 20.6494C5.66691 20.6313 5.56926 20.5721 5.46319 20.5178C5.35711 20.4635 5.26307 20.4007 5.2542 20.3782C5.24536 20.3557 5.22705 20.3441 5.2136 20.3524C5.20016 20.3607 5.15731 20.3378 5.11839 20.3016C5.07948 20.2653 5.04764 20.2442 5.04764 20.2547C5.04764 20.2738 4.618 19.9835 4.58724 19.9435C4.5782 19.9318 4.5153 19.8885 4.44748 19.8472C4.37965 19.806 4.32416 19.7587 4.32416 19.7421C4.32416 19.7255 4.30953 19.7119 4.29165 19.7119C4.25492 19.7119 4.15906 19.6395 4.01935 19.5063C3.96716 19.4565 3.91213 19.4158 3.89704 19.4158C3.88195 19.4158 3.83407 19.3736 3.79063 19.3219C3.74719 19.2703 3.672 19.202 3.62356 19.1703C3.57511 19.1385 3.54362 19.0994 3.55357 19.0833C3.56353 19.0671 3.55609 19.0539 3.53703 19.0539C3.4728 19.0539 2.45561 18.0004 2.42091 17.8979C2.41413 17.8779 2.38779 17.8374 2.36238 17.808C2.16331 17.5777 2.12083 17.5213 2.12083 17.4876C2.12083 17.4664 2.09863 17.4406 2.0715 17.4302C2.04437 17.4197 2.02217 17.3921 2.02217 17.3687C2.02217 17.3453 1.98458 17.2857 1.93863 17.2361C1.89268 17.1866 1.86591 17.146 1.87914 17.146C1.89238 17.146 1.88014 17.1275 1.85197 17.1049C1.82379 17.0823 1.77286 17.0119 1.7388 16.9486C1.70474 16.8853 1.66208 16.8226 1.64399 16.8093C1.6259 16.796 1.62478 16.7849 1.64148 16.7847C1.6582 16.7844 1.64185 16.7508 1.60503 16.7101C1.56826 16.6694 1.49539 16.5547 1.44309 16.4552C1.39079 16.3557 1.33748 16.2663 1.32461 16.2567C1.30405 16.2412 1.15825 15.9391 1.15051 15.896C1.14889 15.8869 1.11574 15.8288 1.07684 15.7667C1.03794 15.7047 1.01362 15.6418 1.02279 15.6269C1.03196 15.612 1.02379 15.5999 1.00464 15.5999C0.985489 15.5999 0.97296 15.5888 0.976805 15.5752C0.980624 15.5616 0.965331 15.5172 0.942761 15.4765C0.920196 15.4358 0.910711 15.4025 0.921682 15.4025C0.932658 15.4025 0.91823 15.3791 0.889653 15.3505C0.861067 15.3219 0.845449 15.2859 0.854955 15.2705C0.864461 15.2551 0.856941 15.2331 0.838274 15.2215C0.819597 15.21 0.812832 15.1868 0.823238 15.1699C0.833644 15.1531 0.824915 15.1393 0.803815 15.1393C0.782726 15.1393 0.773989 15.1171 0.7844 15.09C0.794817 15.0628 0.790164 15.0406 0.774082 15.0406C0.757999 15.0406 0.73456 14.9925 0.721988 14.9337C0.709421 14.8749 0.688456 14.812 0.675403 14.7939C0.644362 14.7509 0.512939 14.3851 0.498113 14.3004C0.491772 14.2643 0.469113 14.1919 0.447752 14.1396C0.426396 14.0874 0.416607 14.0369 0.425998 14.0275C0.435394 14.0181 0.429814 13.9943 0.413564 13.9745C0.397335 13.9548 0.376703 13.8914 0.367709 13.8337C0.358721 13.776 0.341869 13.7134 0.330264 13.6947C0.318665 13.6759 0.303144 13.6195 0.295777 13.5693C0.288406 13.5191 0.274793 13.4484 0.265517 13.4123C0.19989 13.1563 0.152211 12.8888 0.16774 12.8636C0.177905 12.8472 0.171769 12.8158 0.154169 12.794C0.125389 12.7584 0.0979744 12.5839 0.0600678 12.1951C-0.00495271 11.5282 -0.0177951 10.8451 0.024511 10.3036C0.037941 10.1318 0.056388 9.8875 0.0655123 9.76085C0.0746366 9.6342 0.0966321 9.49357 0.114389 9.44834C0.132146 9.40312 0.145905 9.3365 0.144968 9.30031C0.143974 9.26415 0.152379 9.19011 0.163533 9.13583C0.174682 9.08155 0.188566 9.00014 0.194384 8.95491C0.200202 8.90969 0.207609 8.87267 0.210853 8.87267C0.214097 8.87267 0.222238 8.80897 0.228967 8.73111C0.235689 8.65325 0.255119 8.57184 0.272159 8.55019C0.289194 8.52852 0.302689 8.48534 0.30214 8.4542C0.300256 8.34865 0.388192 8.03382 0.419528 8.03382C0.436662 8.03382 0.442115 8.01148 0.431646 7.98422C0.421182 7.95695 0.425222 7.90141 0.440635 7.86085C0.456048 7.8203 0.466731 7.7783 0.464377 7.76751C0.462022 7.75673 0.480554 7.72324 0.505562 7.69309C0.53057 7.66295 0.555886 7.59655 0.561827 7.54553C0.56777 7.4945 0.590392 7.40957 0.612104 7.35678C0.633822 7.30399 0.649191 7.2497 0.646272 7.23613C0.643342 7.22257 0.658226 7.21147 0.679326 7.21147C0.700426 7.21147 0.709247 7.20305 0.698925 7.19268C0.688597 7.18237 0.700182 7.13532 0.724646 7.08814C0.749116 7.04098 0.761617 6.99019 0.752436 6.97532C0.743249 6.96046 0.752313 6.94832 0.772501 6.94832C0.792722 6.94832 0.80116 6.93518 0.791246 6.91917C0.781342 6.9031 0.794281 6.87254 0.819985 6.85118C0.845699 6.82983 0.864796 6.78651 0.862415 6.75491C0.856859 6.68119 0.936433 6.4878 0.972315 6.4878C0.987388 6.4878 1.00941 6.43614 1.02126 6.37295C1.0331 6.30978 1.05581 6.26615 1.0717 6.27597C1.0876 6.28581 1.09252 6.27282 1.08265 6.24702C1.07277 6.22127 1.08705 6.17787 1.11435 6.15055C1.14166 6.12323 1.15484 6.09172 1.14364 6.08052C1.13244 6.06932 1.14056 6.06015 1.16165 6.06015C1.18275 6.06015 1.20001 6.03054 1.20001 5.99437C1.20001 5.9582 1.21162 5.92857 1.22581 5.92857C1.24 5.92857 1.27783 5.8842 1.30988 5.82989C1.34193 5.77561 1.35939 5.7312 1.34867 5.7312C1.33796 5.7312 1.36672 5.67595 1.41259 5.60842C1.45845 5.5409 1.49598 5.47272 1.49598 5.45691C1.49598 5.4411 1.53998 5.37259 1.59376 5.30467C1.64754 5.23675 1.68474 5.17438 1.67643 5.16606C1.66811 5.15774 1.71074 5.09697 1.77114 5.03101C1.83154 4.96504 1.86725 4.9065 1.85048 4.90091C1.83371 4.89531 1.85738 4.8504 1.90306 4.80109C1.94875 4.75179 1.98014 4.71144 1.97282 4.71144C1.9655 4.71144 1.99581 4.67224 2.04016 4.62439C2.08452 4.57651 2.12081 4.51815 2.12081 4.49467C2.12081 4.47123 2.15031 4.43133 2.18637 4.40607C2.22243 4.38079 2.24336 4.35155 2.23288 4.34107C2.2224 4.33061 2.24469 4.30549 2.28242 4.2853C2.32014 4.2651 2.351 4.22742 2.351 4.20155C2.351 4.17569 2.3806 4.13868 2.41678 4.11931C2.45295 4.09995 2.48254 4.06934 2.48254 4.05126C2.48254 4.0332 2.52324 3.97691 2.57298 3.92619C2.78998 3.7049 2.95622 3.51947 2.9187 3.54057C2.842 3.5837 3.46357 2.9799 3.61212 2.86697C3.69375 2.80492 3.76796 2.72675 3.77704 2.69327C3.78611 2.65978 3.80715 2.64081 3.8238 2.65109C3.84044 2.6614 3.89685 2.61843 3.94915 2.55571C4.00145 2.49296 4.05926 2.44163 4.07762 2.44163C4.09598 2.44163 4.13018 2.41091 4.15363 2.37334C4.18868 2.3172 4.20506 2.31234 4.24562 2.34602C4.27275 2.36852 4.29237 2.37339 4.28921 2.35675C4.27577 2.28604 4.29439 2.24427 4.33942 2.24427C4.36592 2.24427 4.40411 2.21339 4.4243 2.17566C4.44449 2.13793 4.46879 2.11483 4.47829 2.12432C4.49682 2.14285 4.51163 2.1327 4.68066 1.9858C4.7411 1.93328 4.82989 1.87004 4.87798 1.84528C4.92606 1.82053 4.9728 1.79254 4.98185 1.7831C4.99089 1.77368 5.03899 1.74803 5.08873 1.72618C5.13846 1.7043 5.17916 1.67178 5.17916 1.65387C5.17916 1.63597 5.2038 1.63074 5.23389 1.6423C5.2736 1.65753 5.28123 1.65135 5.26166 1.61974C5.24409 1.59127 5.24749 1.58406 5.2715 1.59892C5.29175 1.61143 5.3384 1.59149 5.37524 1.55465C5.41207 1.5178 5.46441 1.48765 5.49154 1.48765C5.51869 1.48765 5.54087 1.47582 5.54087 1.46137C5.54087 1.43437 5.73991 1.35193 5.77324 1.36515C5.7835 1.36934 5.82935 1.33208 5.87517 1.2826C5.92101 1.23315 5.96812 1.2023 5.97989 1.21407C5.99166 1.22584 6.00128 1.21564 6.00128 1.19161C6.00128 1.16749 6.01044 1.15692 6.02163 1.16812C6.03283 1.17932 6.06359 1.16707 6.09006 1.14038C6.11648 1.11395 6.15173 1.10071 6.16835 1.11097C6.18499 1.12122 6.19859 1.11149 6.19859 1.08935C6.19859 1.06716 6.20775 1.05822 6.21895 1.06942C6.23014 1.08062 6.2608 1.06836 6.28706 1.04199C6.31333 1.01572 6.37077 0.99421 6.41469 0.99421C6.45864 0.99421 6.49456 0.978507 6.49456 0.959353C6.49456 0.940199 6.50937 0.933659 6.52747 0.944859C6.54557 0.956059 6.56037 0.949572 6.56037 0.930365C6.56037 0.911211 6.57147 0.89786 6.58502 0.900739C6.61609 0.907333 6.70487 0.874105 6.87277 0.792981C6.94512 0.758022 7.04839 0.721497 7.10227 0.711784C7.15614 0.70205 7.20808 0.681378 7.2177 0.665835C7.22732 0.650291 7.27941 0.627734 7.33349 0.615749C7.38757 0.603765 7.45402 0.5855 7.48115 0.57519C7.5083 0.56488 7.5672 0.550328 7.61207 0.542897C7.65696 0.535465 7.70199 0.515896 7.71216 0.499463C7.72231 0.48303 7.75961 0.465022 7.79499 0.459527C7.83036 0.454032 7.87783 0.43797 7.90044 0.42384C7.92305 0.409709 7.95532 0.406677 7.97216 0.417092C7.98901 0.427506 8.01271 0.419702 8.02481 0.400338C8.03695 0.380713 8.06756 0.372604 8.09286 0.382339C8.11818 0.392073 8.13884 0.386521 8.13884 0.370192C8.13884 0.353812 8.16474 0.339315 8.19639 0.337955C8.34664 0.331675 8.40193 0.319907 8.40193 0.294106C8.40193 0.278667 8.43028 0.27505 8.46493 0.28604C8.49957 0.297031 8.53761 0.290228 8.54942 0.271283C8.56124 0.252181 8.58531 0.245432 8.60295 0.256318C8.62059 0.267204 8.65287 0.262175 8.67468 0.245114C8.71475 0.213766 9.09559 0.13149 9.14695 0.143066C9.16223 0.14673 9.19692 0.140449 9.22406 0.130034C9.26953 0.11224 9.47248 0.0866476 9.79956 0.057445C9.87191 0.0510079 10.0347 0.0357277 10.1613 0.0235861C10.7696 -0.0348818 12.5266 0.0241124 12.5783 0.104911C12.5874 0.119094 12.6628 0.131962 12.7458 0.133532C12.877 0.136148 12.9854 0.154471 13.2854 0.225813C13.4298 0.260144 13.4499 0.265687 13.4499 0.271339C13.4499 0.274479 13.5066 0.282332 13.576 0.288612C13.6454 0.294892 13.7224 0.316876 13.7472 0.337444C13.772 0.358011 13.8067 0.365966 13.8243 0.355028C13.842 0.344142 13.8653 0.349585 13.8762 0.367222C13.8871 0.384806 13.9177 0.390875 13.9442 0.38067C13.9707 0.370464 13.9925 0.375327 13.9925 0.391498C13.9925 0.407669 14.0184 0.422901 14.0501 0.425413C14.1819 0.435827 14.42 0.508434 14.42 0.538265C14.42 0.555954 14.4338 0.56192 14.4506 0.551505C14.4675 0.541091 14.4905 0.547847 14.5019 0.566007C14.5132 0.584376 14.5624 0.599502 14.611 0.599554C14.6597 0.599622 14.7493 0.630007 14.8101 0.667112C14.8709 0.704217 14.9276 0.727617 14.9361 0.719139C14.9577 0.697524 15.1814 0.793179 15.2483 0.852642C15.2788 0.879751 15.3195 0.892207 15.3387 0.880328C15.358 0.868448 15.3737 0.874413 15.3737 0.893568C15.3737 0.912722 15.4089 0.928417 15.4519 0.928417C15.4949 0.928417 15.5483 0.950456 15.5707 0.977408C15.593 1.00436 15.6233 1.01901 15.6378 1.01001C15.6524 1.00101 15.6878 1.01702 15.7163 1.0456C15.7449 1.07417 15.7683 1.08683 15.7683 1.0737C15.7683 1.06056 15.7979 1.07684 15.8341 1.10934C15.8703 1.1421 15.8999 1.15691 15.8999 1.14225C15.8999 1.1276 15.927 1.14017 15.9601 1.1701C15.9932 1.20009 16.0302 1.21474 16.0423 1.2026C16.0544 1.19051 16.0643 1.20051 16.0643 1.22447C16.0643 1.2486 16.0734 1.25918 16.0846 1.24798C16.0958 1.23678 16.1266 1.24902 16.1531 1.27571C16.1795 1.30214 16.2147 1.31538 16.2314 1.30512C16.248 1.29486 16.2616 1.30303 16.2616 1.32323C16.2616 1.34343 16.2752 1.35159 16.2918 1.34134C16.3085 1.33108 16.3444 1.34501 16.3717 1.37227C16.399 1.39959 16.4372 1.42193 16.4566 1.42193C16.4759 1.42193 16.4918 1.43921 16.4918 1.4603C16.4918 1.48139 16.5008 1.48965 16.5118 1.47861C16.5338 1.45657 16.7897 1.60748 16.8283 1.66533C16.8424 1.68642 16.8529 1.68778 16.8535 1.66847C16.854 1.65037 16.8686 1.65779 16.8857 1.6849C16.9028 1.71206 16.9285 1.73451 16.9427 1.73488C16.9867 1.73593 17.1823 1.86208 17.1823 1.88937C17.1823 1.90355 17.2029 1.91517 17.2282 1.91517C17.2534 1.91517 17.2829 1.9383 17.2937 1.96661C17.3045 1.99488 17.3251 2.01078 17.3395 2.00193C17.3538 1.99309 17.4151 2.02915 17.4757 2.08209C17.5363 2.13503 17.595 2.17841 17.6061 2.1785C17.6172 2.17859 17.6804 2.22669 17.7465 2.28541C17.8126 2.34412 17.9059 2.42176 17.9539 2.45795C18.1693 2.62045 18.8683 3.29412 19.3364 3.79035C19.5543 4.0214 19.8761 4.45897 19.8551 4.49585C19.8444 4.51485 19.8473 4.51977 19.8616 4.50679C19.8901 4.48104 20.0105 4.61735 20.0105 4.67534C20.0105 4.69512 20.0262 4.7113 20.0454 4.7113C20.0645 4.7113 20.0716 4.72516 20.0611 4.74217C20.0506 4.75913 20.0621 4.78503 20.0864 4.79974C20.1517 4.83904 20.4056 5.2262 20.3817 5.25009C20.3705 5.26134 20.3796 5.27055 20.4016 5.27055C20.4238 5.27055 20.4328 5.28536 20.4216 5.30341C20.4104 5.32152 20.4152 5.33633 20.4323 5.33633C20.4493 5.33633 20.472 5.36224 20.4826 5.3939C20.5074 5.46775 20.5767 5.57616 20.6189 5.60722C20.637 5.62051 20.6396 5.63161 20.6247 5.63187C20.6099 5.63212 20.6284 5.67138 20.6659 5.71905C20.7033 5.76673 20.734 5.81787 20.734 5.83272C20.734 5.84759 20.7708 5.91394 20.8158 5.98022C20.8607 6.04649 20.8894 6.11376 20.8796 6.12971C20.8697 6.14567 20.8744 6.1587 20.8905 6.1587C20.921 6.1587 21.0629 6.47731 21.0629 6.54586C21.0629 6.5681 21.0742 6.58637 21.0881 6.58637C21.102 6.58637 21.1483 6.67888 21.1911 6.79196C21.2338 6.90504 21.2896 7.04534 21.315 7.10373C21.4526 7.41979 21.7362 8.4095 21.7041 8.4615C21.6929 8.47955 21.6978 8.49432 21.7149 8.49432C21.732 8.49432 21.7534 8.53503 21.7625 8.58477C21.9788 9.76991 22.0002 9.98916 22 11.0273C21.9999 11.8156 21.9658 12.3858 21.9179 12.4028C21.9019 12.4085 21.8967 12.4339 21.9064 12.4594C21.9239 12.5049 21.8657 12.9376 21.8291 13.0339C21.8188 13.0611 21.8043 13.1351 21.797 13.1984C21.7609 13.5065 21.3805 14.8152 21.2951 14.9251C21.2809 14.9433 21.2592 15.0002 21.247 15.0514C21.2347 15.1027 21.1735 15.2555 21.1109 15.391C21.0483 15.5266 20.9971 15.6512 20.9971 15.668C20.9971 15.6847 20.9798 15.6985 20.9588 15.6985C20.9377 15.6985 20.9296 15.7077 20.9408 15.7189C20.958 15.7361 20.8413 15.9873 20.7362 16.159C20.7197 16.1862 20.6495 16.3099 20.5803 16.434C20.5111 16.5581 20.4395 16.6839 20.4212 16.7136C20.4029 16.7433 20.346 16.8379 20.2948 16.9238C20.2436 17.0098 20.1858 17.0801 20.1664 17.0801C20.147 17.0801 20.1406 17.0895 20.1521 17.101C20.1736 17.1225 19.9182 17.5077 19.8823 17.5077C19.8713 17.5077 19.8441 17.5484 19.822 17.5982C19.7998 17.648 19.7247 17.7479 19.6549 17.8202C19.5852 17.8926 19.5132 17.9792 19.4949 18.0126C19.4628 18.0715 19.0322 18.5425 18.7268 18.8528C18.514 19.0691 18.0798 19.4563 17.9857 19.5138C17.9418 19.5405 17.9059 19.5739 17.9059 19.5878C17.9059 19.6017 17.8874 19.6132 17.8648 19.6134C17.8422 19.6137 17.7735 19.6654 17.7122 19.7285C17.6509 19.7917 17.5887 19.8433 17.5741 19.8433C17.5595 19.8433 17.5076 19.8803 17.4588 19.9256C17.41 19.9708 17.3501 20.0078 17.3256 20.0078C17.3011 20.0078 17.2811 20.0226 17.2811 20.0407C17.2811 20.0588 17.2589 20.0736 17.2317 20.0736C17.2046 20.0736 17.1824 20.0867 17.1824 20.1027C17.1824 20.1389 17.0275 20.2425 16.958 20.2527C16.9296 20.2569 16.9007 20.2774 16.8937 20.2985C16.8867 20.3195 16.86 20.3367 16.8344 20.3367C16.8087 20.3367 16.7877 20.3479 16.7877 20.3615C16.7877 20.3751 16.7175 20.4228 16.6315 20.4676C16.5456 20.5123 16.4679 20.5585 16.4589 20.5702C16.426 20.6127 15.8743 20.8965 15.5052 21.0608C15.091 21.2452 14.3793 21.5108 14.2531 21.5282C14.2093 21.5342 14.1539 21.5513 14.1301 21.5663C14.1063 21.5812 14.078 21.5846 14.0673 21.574C14.0566 21.5632 14.0316 21.568 14.0117 21.5845C13.9226 21.6585 13.0311 21.8487 12.3688 21.935C11.9195 21.9936 10.5211 22.0216 10.0791 21.9808ZM8.92715 15.811C9.16773 15.7395 9.2981 15.6496 9.58562 15.3568C9.72119 15.2187 9.85829 15.0975 9.89029 15.0873C9.92231 15.0772 9.9424 15.0588 9.93502 15.0466C9.91483 15.0131 10.0024 14.9424 10.0315 14.9687C10.0454 14.9812 10.0479 14.9758 10.0371 14.9567C10.0138 14.9157 11.8235 13.0998 11.8876 13.0998C11.9118 13.0998 11.9216 13.0898 11.9093 13.0774C11.8787 13.0469 12.0526 12.8696 12.1132 12.8696C12.1399 12.8696 12.1525 12.8602 12.1411 12.8488C12.1126 12.8203 12.4822 12.4396 12.5174 12.4613C12.5328 12.4709 12.5455 12.461 12.5455 12.4396C12.5455 12.3872 15.2173 9.71267 15.2497 9.73267C15.2636 9.7413 15.275 9.72796 15.275 9.70299C15.275 9.65134 15.4418 9.49432 15.483 9.50728C15.4979 9.51199 15.5022 9.5031 15.4925 9.48734C15.4696 9.45024 16.3285 8.60615 16.3745 8.62054C16.3938 8.62656 16.3994 8.62106 16.387 8.60892C16.3746 8.59652 16.4963 8.45318 16.6575 8.29041C17.0075 7.93694 17.1168 7.73849 17.1491 7.39819C17.1665 7.21468 17.1587 7.12434 17.1139 6.99221C17.0822 6.89875 17.0649 6.81363 17.0755 6.80306C17.0861 6.79249 17.075 6.78385 17.0509 6.78385C17.0267 6.78385 17.0159 6.77496 17.0267 6.76413C17.0459 6.74492 16.9215 6.59257 16.7549 6.43134C16.7097 6.38759 16.6135 6.32117 16.5411 6.28378C16.4688 6.24641 16.4022 6.20669 16.3931 6.19555C16.37 6.16708 16.2816 6.15582 16.0017 6.14588C15.5548 6.12997 15.4299 6.20939 14.6167 7.02678C14.2463 7.39912 13.9247 7.70403 13.9021 7.70435C13.8795 7.70472 13.8647 7.72345 13.8692 7.74606C13.8739 7.76867 13.8589 7.78349 13.8362 7.77899C13.8136 7.77428 13.7988 7.78422 13.8033 7.80049C13.8137 7.83812 13.0896 8.56026 13.0415 8.56026C13.0219 8.56026 13.0096 8.57874 13.0141 8.6014C13.0188 8.62401 13.0038 8.63882 12.9812 8.63427C12.9586 8.62956 12.9401 8.64305 12.9401 8.66383C12.9401 8.71208 11.7748 9.87608 11.7265 9.87608C11.7067 9.87608 11.6904 9.89486 11.6904 9.91784C11.6904 9.96886 10.5984 11.0603 10.5474 11.0603C10.5274 11.0603 10.5016 11.09 10.4901 11.1261C10.4786 11.1623 10.448 11.1919 10.4221 11.1919C10.3962 11.1919 10.375 11.2079 10.375 11.2273C10.375 11.2772 9.44666 12.2109 9.39665 12.2113C9.37405 12.2116 9.35553 12.229 9.35553 12.2502C9.35553 12.2714 9.18993 12.4554 8.98755 12.6592L8.61957 13.0296L7.6968 12.1025C7.18928 11.5926 6.7413 11.1581 6.7013 11.1369C6.66128 11.1157 6.58729 11.0762 6.53686 11.049C6.27061 10.9057 5.92537 10.884 5.6559 10.9938C5.56736 11.0298 5.49709 11.0505 5.43829 11.0578C5.40889 11.0615 5.04335 11.4222 5.06904 11.4222C5.0809 11.4222 5.06841 11.4481 5.04128 11.4797C4.93924 11.5988 4.87349 11.8338 4.8642 12.1124C4.85907 12.2659 4.86844 12.4078 4.885 12.4278C4.90156 12.4477 4.93649 12.5247 4.96262 12.5988C5.01535 12.7483 5.07246 12.819 5.46681 13.2228C5.61603 13.3756 5.73812 13.5141 5.73812 13.5305C5.73812 13.5469 5.75377 13.5604 5.77291 13.5604C5.79206 13.5604 6.26931 14.0211 6.83347 14.5843C7.86669 15.6156 8.08445 15.7973 8.31962 15.8244C8.37388 15.8306 8.42445 15.8418 8.43198 15.8494C8.46473 15.8821 8.76637 15.8587 8.92715 15.811Z" fill="#FF9500"/>
</svg>
