<svg width="22" height="22" viewBox="0 0 22 22" fill="none"
    xmlns="http://www.w3.org/2000/svg">
    <path d="M9.53115 21.9076C3.74514 21.1758 -0.568765 15.706 0.0611187 9.90008C0.483313 6.00853 2.91363 2.59372 6.38739 1.01112C13.2847 -2.13121 21.1551 2.38515 21.9426 9.93732C22.4874 15.163 19.1022 20.1285 14.009 21.5747C12.5429 21.991 11.0612 22.1011 9.53115 21.9076ZM11.7923 17.8187C12.419 17.4367 12.6329 16.2922 12.1989 15.6428C11.3841 14.4235 9.58013 14.9981 9.58013 16.4768C9.58013 17.4228 10.1194 18.0019 11.0007 18.0024C11.308 18.0026 11.603 17.9341 11.7923 17.8187ZM11.1923 12.7516C11.4482 12.6534 11.5941 12.2691 12.0245 10.5591C12.4613 8.8241 12.8105 6.80223 12.8121 5.99866C12.8151 4.64687 12.0705 3.7037 11.0007 3.7037C10.3255 3.7037 9.82067 4.03837 9.44934 4.73211C9.05727 5.46459 9.2178 7.46477 9.88938 10.2149C10.3204 11.98 10.463 12.4218 10.6676 12.6263C10.8682 12.8269 10.9469 12.8457 11.1923 12.7516Z" fill="#FFFF00"/>
</svg>
