<svg width="22" height="22" viewBox="0 0 22 22" fill="none"
    xmlns="http://www.w3.org/2000/svg">
    <path d="M12.2311 0L12.1113 0.2861C12.0454 0.443439 11.8776 0.847467 11.7384 1.18394L11.4853 1.79567L10.9231 1.80121C10.6139 1.80427 10.3257 1.81447 10.2827 1.82396L10.2044 1.84125L9.80032 0.952919C9.57803 0.464379 9.38645 0.0586967 9.3746 0.0513602C9.32537 0.0208512 8.56591 0.18143 7.86168 0.37129L7.74303 0.403299L7.76021 1.12794C7.76968 1.5265 7.78454 1.96999 7.7932 2.11337L7.80893 2.37399L7.55501 2.47854C7.41537 2.53605 7.14831 2.65942 6.96152 2.75265L6.62195 2.92212L6.42925 2.75521C6.32329 2.66339 5.98915 2.36907 5.68671 2.10121L5.13677 1.6142L4.90125 1.774C4.60385 1.97573 4.078 2.37137 3.92059 2.51188L3.80041 2.61915L4.22299 3.50268L4.64556 4.38621L4.41939 4.6245C4.295 4.75558 4.105 4.97021 3.99714 5.10142C3.88927 5.23264 3.79219 5.35017 3.78146 5.36263C3.77073 5.37508 3.34944 5.2555 2.84525 5.09696C2.34106 4.93841 1.91354 4.80871 1.89516 4.80871C1.84413 4.80871 1.44039 5.47599 1.19561 5.96493C1.08356 6.18875 1.06668 6.24068 1.09809 6.2646C1.32018 6.43375 2.53286 7.4903 2.53286 7.51463C2.53285 7.53235 2.48858 7.66941 2.43445 7.81925C2.38032 7.9691 2.29004 8.25032 2.23385 8.44414C2.1581 8.70544 2.11854 8.8012 2.08092 8.81461C2.05302 8.82456 1.61223 8.88012 1.1014 8.93802L0.172691 9.04323L0.144138 9.20774C0.103193 9.44394 0.0394394 10.0327 0.0182284 10.3703L0 10.6602L0.0913057 10.6893C0.234447 10.7349 1.63688 11.1482 1.76248 11.1817L1.87508 11.2119L1.89323 11.4635C1.91642 11.7842 1.98074 12.3585 2.01196 12.5237L2.036 12.651L1.61197 12.9023C1.37876 13.0405 1.04124 13.2395 0.861923 13.3445C0.682601 13.4495 0.490793 13.5638 0.43572 13.5986L0.335622 13.6618L0.399504 13.9009C0.473055 14.1761 0.616405 14.6119 0.740288 14.937C0.812112 15.1256 0.835706 15.1618 0.886443 15.1618C0.940671 15.1618 2.42832 14.9675 2.67231 14.9286L2.77104 14.9129L2.95019 15.257C3.04869 15.4462 3.21512 15.7331 3.32009 15.8945C3.42505 16.0559 3.51101 16.1969 3.51101 16.2077C3.51101 16.2186 3.27442 16.5609 2.98535 16.9684C2.69628 17.3758 2.44342 17.7356 2.4234 17.768C2.38973 17.8224 2.40215 17.845 2.58867 18.0678C2.6996 18.2002 2.93766 18.4599 3.11771 18.6449L3.44511 18.9814L4.27049 18.471C4.95173 18.0498 5.10414 17.9658 5.14298 17.9901C5.16886 18.0063 5.30447 18.1091 5.44432 18.2185C5.58418 18.328 5.84619 18.514 6.0266 18.6319L6.35464 18.8463L6.16905 19.7753C6.06695 20.2862 5.98345 20.7243 5.98345 20.7489C5.98345 20.8082 6.58811 21.0937 7.21213 21.329L7.39474 21.3978L7.86168 20.7114C8.1185 20.3339 8.36923 19.9686 8.41879 19.8997L8.50888 19.7744L8.74602 19.8379C9.00055 19.906 9.62007 20.0246 9.87549 20.0541C9.95806 20.0636 10.0262 20.0751 10.0314 20.0801C10.0314 20.0848 10.0932 20.3629 10.1682 20.6973C10.2433 21.0318 10.3355 21.4465 10.3733 21.6188C10.4111 21.7912 10.4477 21.9491 10.4547 21.9698C10.4653 22.0009 10.5954 22.0052 11.2146 21.9951C11.6255 21.9883 11.9731 21.9715 11.9869 21.9575C12.0007 21.9436 12.0867 21.5214 12.178 21.0194C12.2693 20.5174 12.3503 20.0853 12.358 20.0591C12.3657 20.0328 12.3971 20.0114 12.4279 20.0114C12.5234 20.0114 13.1424 19.8788 13.4624 19.7897C13.6302 19.743 13.7931 19.6992 13.8243 19.6923C13.872 19.6818 13.9738 19.8048 14.4593 20.4594C14.9638 21.1397 15.0448 21.2369 15.0953 21.2219C15.2272 21.1829 15.9549 20.8465 16.1898 20.716C16.4037 20.5972 16.4408 20.5666 16.43 20.5182C16.423 20.4867 16.3255 20.0808 16.2134 19.6163C16.1013 19.1518 16.0036 18.7461 15.9963 18.7147C15.9854 18.6677 16.0272 18.6268 16.2316 18.485C16.4493 18.334 16.78 18.0752 17.0999 17.8056L17.199 17.7219L18.0468 18.2009C18.8769 18.6698 18.8958 18.6788 18.9497 18.6305C19.0294 18.559 19.6136 17.876 19.7705 17.6709C19.8991 17.5028 19.9026 17.4937 19.8633 17.4257C19.8409 17.3868 19.5884 17.0517 19.302 16.6811C19.0157 16.3105 18.7674 15.9847 18.7502 15.9571C18.7239 15.9149 18.7458 15.8616 18.8877 15.6229C18.9805 15.4667 19.1363 15.1733 19.234 14.971C19.3316 14.7687 19.4132 14.6012 19.4152 14.5987C19.4196 14.5933 21.0121 14.7437 21.2151 14.7686L21.3541 14.7857L21.4257 14.5855C21.5675 14.1895 21.8196 13.2677 21.7929 13.2429C21.7873 13.2377 21.4036 13.0283 20.9404 12.7775C20.4771 12.5267 20.0906 12.314 20.0814 12.3046C20.0723 12.2952 20.0801 12.1465 20.099 11.9741C20.1179 11.8018 20.1421 11.4805 20.1529 11.2602L20.1725 10.8595L20.9232 10.6071C21.3361 10.4684 21.7473 10.3296 21.837 10.2989L22 10.243L21.9927 10.0665C21.9826 9.82559 21.9151 9.29996 21.8467 8.9295L21.79 8.62297L21.7049 8.62099C21.658 8.61981 21.2167 8.58615 20.7241 8.54605L19.8286 8.47318L19.6902 8.0645C19.614 7.83973 19.5057 7.54926 19.4496 7.41902L19.3474 7.18222L19.5462 6.99471C19.6555 6.89156 19.9742 6.59585 20.2544 6.33756C20.5346 6.07927 20.7637 5.85603 20.7637 5.84146C20.7637 5.73557 19.9982 4.49845 19.9131 4.46678C19.8953 4.46015 19.4712 4.60145 18.9706 4.78076L18.0604 5.10681L17.8866 4.91012C17.7911 4.80193 17.5863 4.58875 17.4315 4.43643C17.2768 4.2841 17.1502 4.14819 17.1502 4.13436C17.1502 4.12053 17.3214 3.71244 17.5306 3.22751C17.7398 2.74259 17.9007 2.33553 17.8881 2.32289C17.8137 2.24835 17.2085 1.81892 16.9068 1.62662C16.6713 1.47655 16.5395 1.40792 16.5146 1.42232C16.494 1.43426 16.2342 1.67749 15.9374 1.96285C15.0704 2.79643 15.1061 2.76563 15.0441 2.73066C14.9276 2.66492 14.4067 2.44282 14.1724 2.35895L13.9252 2.27045L13.9075 1.90056C13.8977 1.69714 13.8898 1.25217 13.8898 0.911742V0.292809L13.6113 0.223083C13.2541 0.133661 12.5904 0.016516 12.388 0.00720565L12.2311 0ZM10.7808 3.86356C12.7273 3.79917 14.5396 4.50035 15.9612 5.86775C16.9454 6.81442 17.6694 8.11184 17.9625 9.45397C18.2112 10.5932 18.1722 11.8795 17.8561 12.9549C17.2779 14.9229 15.9569 16.5055 14.1479 17.3976C13.3553 17.7885 12.5348 18.0211 11.6619 18.1023C11.3729 18.1291 10.6797 18.1351 10.4257 18.1128C8.74032 17.9654 7.19898 17.2494 6.00853 16.0612C5.58868 15.6421 5.35744 15.3624 5.06845 14.9237C3.36545 12.3388 3.52735 8.92212 5.46715 6.50869C5.72281 6.1906 6.33852 5.58799 6.6551 5.346C7.88285 4.40754 9.25634 3.91398 10.7808 3.86356Z" fill="#66FF00"/>
    <path d="M11.7924 10.1772L11.4873 9.8704L12.1949 9.16235L12.9025 8.45429L13.2056 7.86714L13.5086 7.27999L14.0459 7.00096L14.5831 6.72192L14.6993 6.82722C14.7631 6.88513 14.8637 6.97453 14.9229 7.0259C14.982 7.07726 15.089 7.17311 15.1607 7.23889L15.291 7.35848L15.0164 7.89276C14.8653 8.18662 14.7216 8.44705 14.697 8.47149C14.6725 8.49593 14.4078 8.64154 14.109 8.79505L13.5656 9.07417L12.859 9.7791C12.4703 10.1668 12.14 10.484 12.1249 10.484C12.1099 10.484 11.9602 10.346 11.7924 10.1772Z" fill="#CCFFAA"/>
    <path d="M13.3136 15.2922C13.0482 15.2344 12.7701 15.0859 12.5581 14.8888C12.2079 14.5632 12.0247 14.1395 12.026 13.6581C12.0264 13.4931 12.0425 13.3373 12.0669 13.263L12.107 13.1404L10.4907 11.5171L8.87446 9.89377L8.73399 9.93273C8.54273 9.98577 8.14439 9.9838 7.93123 9.92877C7.48627 9.81388 7.04775 9.45993 6.85751 9.06211C6.66027 8.64966 6.62938 8.21745 6.76849 7.8167C6.807 7.70577 6.85156 7.60192 6.86752 7.58592C6.88808 7.5653 7.06443 7.72435 7.47332 8.13231C7.79056 8.44883 8.09186 8.72874 8.14287 8.75434C8.35337 8.85999 8.67071 8.74623 8.75942 8.53333C8.82196 8.38323 8.80815 8.19199 8.72595 8.06988C8.68672 8.01159 8.41468 7.72168 8.12143 7.42563C7.82817 7.12958 7.58511 6.87806 7.5813 6.8667C7.57272 6.84113 7.84416 6.73409 8.00937 6.69789C8.07661 6.68316 8.22333 6.67099 8.3354 6.67084C9.17984 6.66967 9.86687 7.28963 9.97222 8.14768C9.99839 8.36081 9.99578 8.42895 9.95342 8.63912L9.90423 8.88313L11.5095 10.491L13.1149 12.099L13.3507 12.0493C14.0457 11.9031 14.7866 12.26 15.1401 12.9112C15.2915 13.1901 15.3592 13.6812 15.29 13.9987C15.254 14.1636 15.1472 14.4365 15.1219 14.4279C15.1107 14.4241 14.8477 14.1684 14.5373 13.8596C14.227 13.5509 13.9313 13.2767 13.8801 13.2503C13.7068 13.1608 13.4488 13.2007 13.3311 13.3352C13.1986 13.4864 13.1617 13.7089 13.2422 13.8706C13.2661 13.9185 13.5483 14.2225 13.8694 14.546L14.4531 15.1343L14.312 15.1952C14.0044 15.3278 13.6399 15.3632 13.3136 15.2922Z" fill="#CCFFAA"/>
    <path d="M7.23944 15.288C7.07107 15.2297 6.85819 15.0375 6.76499 14.8598C6.70159 14.7388 6.69199 14.6885 6.69177 14.4754C6.69161 14.2574 6.69998 14.2149 6.76772 14.0924C6.82074 13.9965 7.26091 13.5365 8.21453 12.5804L9.58513 11.2062L10.1896 11.8123L10.794 12.4184L9.42358 13.7928C8.45622 14.763 8.01307 15.1891 7.91679 15.2416C7.74241 15.3368 7.44001 15.3575 7.23944 15.288Z" fill="#66FF00"/>
</svg>
