<svg width="145" height="101" viewBox="0 0 145 101" fill="none"
    xmlns="http://www.w3.org/2000/svg">
    <path d="M9.36254 71.4379C9.36254 44.5717 9.29683 42.5383 8.42629 42.4851C7.91135 42.4528 5.80477 42.3468 3.74502 42.2484L0 42.069V39.2966V36.5242L26.4827 18.2637C46.8484 4.22093 53.5214 0.00247175 55.3728 1.06517e-06C57.2311 -0.00243382 63.8215 4.16902 84.263 18.2864L110.746 36.5758V39.3224V42.069L107.001 42.2484C104.941 42.3472 102.834 42.4535 102.319 42.4851C101.449 42.5384 101.383 44.5717 101.383 71.4379V100.333H97.3706H93.3581V75.2275V50.1215H76.7729H60.1879V75.2275V100.333H55.3728H50.5578V75.2275V50.1215H33.9727H17.3876V75.2275V100.333H13.3751H9.36254V71.4379ZM18.4576 95.5965V90.8595H33.9727H49.4878V95.5965V100.333H33.9727H18.4576V95.5965ZM18.4576 83.2804V77.5959H33.9727H49.4878V83.2804V88.9647H33.9727H18.4576V83.2804ZM18.4576 70.0168V64.3325H33.9727H49.4878V70.0168V75.7012H33.9727H18.4576V70.0168ZM61.2579 64.8061V58.6481H76.7729H92.288V64.8061V70.9642H76.7729H61.2579V64.8061ZM18.4576 57.7007V52.9637H33.9727H49.4878V57.7007V62.4377H33.9727H18.4576V57.7007ZM61.2579 55.3322V52.9637H76.7729H92.288V55.3322V57.7007H76.7729H61.2579V55.3322Z" fill="black"/>
    <path d="M49.4687 100.798C49.143 100.687 48.6593 100.454 48.3937 100.281C47.2865 99.5569 45.8859 97.8507 45.6374 96.9229C45.535 96.5403 45.5547 96.5298 46.5512 96.4342C47.1114 96.3804 48.4022 96.3365 49.4196 96.3365C53.7093 96.3365 66.2484 95.7379 66.4837 95.522C66.536 95.4739 66.5642 94.741 66.5463 93.8932C66.4758 90.5617 67.0069 88.1873 68.1845 86.5685C69.4767 84.7925 71.4271 83.856 73.8343 83.856C77.249 83.856 80.097 86.0172 81.2653 89.4948C81.4915 90.168 81.6625 91.2116 81.7398 92.3906C81.8653 94.3028 82.0289 94.7382 82.49 94.387C82.6782 94.2436 82.7414 93.9019 82.7376 93.0476C82.7264 90.5035 82.1765 88.3079 81.1639 86.7644C80.8609 86.3026 80.613 85.8652 80.613 85.7926C80.613 85.7199 81.0922 85.6604 81.6778 85.6604H82.7427V78.386C82.7427 72.7449 82.7887 71.0766 82.9477 70.9554C83.0605 70.8695 84.023 70.6436 85.0867 70.4533C86.7661 70.1529 87.0406 70.1364 87.1726 70.3279C87.3403 70.5713 87.3516 79.2349 87.1863 80.912C87.0709 82.0843 87.2379 81.9628 85.121 82.4144C83.9014 82.6745 83.1282 83.1074 83.8952 83.1006C84.1173 83.0986 84.5938 83.0311 84.9542 82.9505C85.8118 82.7587 89.1827 82.7553 91.0301 82.9445C91.833 83.0267 94.6645 83.2658 97.3225 83.4759C99.9804 83.686 104.293 84.0594 106.906 84.3058C109.519 84.5522 114.237 84.9604 117.39 85.2129C120.544 85.4655 124.377 85.8024 125.909 85.9618C127.44 86.1211 130.463 86.3912 132.625 86.5621C136.413 86.8615 141.626 87.3835 142.593 87.5604C142.85 87.6072 142.998 87.6995 142.921 87.7652C142.747 87.9148 140.29 88.2167 139.247 88.2167C138.102 88.2167 137.949 88.3075 137.949 88.9879C137.949 89.7712 138.166 89.8443 140.898 89.9836L143.11 90.0963L143.161 90.6605C143.205 91.1511 143.156 91.2441 142.781 91.3747C142.545 91.4573 141.932 91.5258 141.42 91.5271C140.908 91.5284 140.408 91.5791 140.309 91.6399C140.034 91.809 139.876 93.5887 140.123 93.7357C140.234 93.8016 140.988 93.8893 141.799 93.9307L143.274 94.0059V94.5089C143.274 94.7856 143.237 95.0646 143.192 95.129C143.048 95.3344 138.765 95.6185 138.528 95.4383C138.413 95.3503 138.273 95.0225 138.219 94.7098C138.049 93.7336 137.175 92.3446 136.236 91.5565C135.158 90.6517 134.373 90.2968 133.45 90.2968C132.608 90.2968 131.988 90.5702 131.292 91.2488C130.623 91.9015 130.305 92.4982 130.007 93.6601C129.369 96.1448 130.024 98.7299 131.685 100.284L132.449 100.998H130.525C128.318 100.998 127.793 100.855 127.012 100.038C126.39 99.387 126.385 99.3562 126.804 98.6024C126.981 98.2839 127.251 97.4406 127.403 96.7283C127.657 95.5442 127.659 95.3334 127.43 94.2684C126.955 92.0617 125.881 90.672 124.057 89.9058C122.873 89.408 121.834 89.4035 120.801 89.8918C119.332 90.5857 118.51 92.0699 118.315 94.3818C118.072 97.2541 118.863 99.2879 120.659 100.411C120.977 100.61 121.238 100.823 121.239 100.885C121.24 100.947 120.315 100.998 119.184 100.998C116.472 100.998 115.95 100.735 114.904 98.8395L114.483 98.0772L114.108 98.7547C113.621 99.6326 112.434 100.631 111.633 100.835C111.286 100.924 110.169 100.997 109.152 100.997C107.1 100.998 106.333 100.775 105.717 99.9989L105.393 99.5906L105.193 99.9325C104.803 100.602 103.689 100.887 101.16 100.966C98.4055 101.052 97.9684 100.95 96.8275 99.9562L96.0026 99.2379L96.4187 98.5015C96.6832 98.0333 96.9539 97.1156 97.1617 95.9823C97.3415 95.0017 97.5319 94.1352 97.5848 94.0566C97.8121 93.7189 97.9283 92.1318 97.7861 91.3054C97.4857 89.5587 95.8206 87.3071 94.0644 86.2727C93.2979 85.8212 91.2867 85.3605 90.0797 85.36C88.4218 85.3594 86.1349 87.0144 85.1613 88.9197C84.7048 89.8132 84.6288 90.1405 84.5743 91.4496C84.503 93.1615 84.7078 93.2351 85.0195 91.6094C85.3008 90.1418 85.9182 89.0356 86.997 88.0664C88.3218 86.8762 89.2418 86.4916 90.7698 86.4894C91.8079 86.4874 92.1509 86.5573 92.9814 86.937C94.843 87.7882 96.4945 89.6304 96.9597 91.3745C97.238 92.418 97.3486 93.3617 97.1814 93.2669C97.0995 93.2205 96.7178 92.4979 96.3332 91.6611C95.4978 89.844 94.7316 88.914 93.5245 88.2519C91.6371 87.2168 89.7021 87.2542 88.1844 88.3554C86.4132 89.6405 85.223 93.1809 85.6953 95.76C86.0693 97.8022 87.1313 99.4138 88.6886 100.302C89.256 100.626 89.4146 100.783 89.234 100.841C89.094 100.886 88.0369 100.92 86.8849 100.918C85.2688 100.914 84.6767 100.856 84.2924 100.667C83.4546 100.254 82.526 99.2522 81.9181 98.1053C81.4823 97.2832 81.247 97.001 80.966 96.9639C80.6097 96.917 80.5985 96.8757 80.7212 96.0617C80.9346 94.6452 80.8469 92.4248 80.5388 91.4454C79.8871 89.3735 78.4174 87.6923 76.559 86.8929C75.7324 86.5374 75.4153 86.4875 73.9784 86.4875C72.0222 86.4875 71.2128 86.7874 70.0264 87.9516C67.8195 90.1173 67.3968 94.4612 69.0823 97.655C69.6036 98.6426 70.7799 99.7654 71.919 100.363L72.7889 100.819L71.5261 100.927C69.4717 101.104 67.9884 100.959 67.1291 100.496C66.2829 100.041 65.3383 99.0946 64.8537 98.2162C64.1743 96.9846 64.0704 96.938 61.9995 96.938H60.1525L59.6518 97.9011C59.0512 99.0562 57.7747 100.19 56.6009 100.61C55.5475 100.988 50.4222 101.122 49.4687 100.798ZM103.138 95.5825V94.908L104.94 94.8642C107.367 94.8053 107.479 94.8377 107.479 95.5979C107.479 96.1435 107.518 96.202 107.848 96.1589C108.158 96.1185 108.216 96.0181 108.216 95.5248V94.9387L109.606 94.9713C110.37 94.9893 111.089 95.0753 111.203 95.1624C111.317 95.2494 111.411 95.5114 111.411 95.7445C111.411 96.2225 111.587 96.3804 111.969 96.2456C112.136 96.187 112.23 95.9719 112.23 95.65V95.1461L113.5 95.1021C114.765 95.0583 114.769 95.0568 114.823 94.6234C114.894 94.0525 114.655 93.9355 113.412 93.9328C112.735 93.9308 112.361 93.8663 112.319 93.7425C112.283 93.6391 112.222 93.0219 112.183 92.3708L112.113 91.187L113.32 91.2582C114.727 91.341 115.094 91.1903 114.932 90.5973C114.832 90.2317 114.747 90.2018 113.528 90.1042L112.23 90.0003V89.1385C112.23 88.2908 112.044 87.9158 111.624 87.9158C111.473 87.9158 111.411 88.1788 111.411 88.8227C111.411 89.4863 111.346 89.7526 111.167 89.8153C111.034 89.8625 110.315 89.8435 109.57 89.773L108.216 89.645L108.168 88.63C108.125 87.7383 108.081 87.615 107.799 87.615C107.514 87.615 107.479 87.7231 107.479 88.6154V89.6157L105.511 89.5249C104.428 89.4749 103.47 89.3929 103.381 89.3427C103.292 89.2924 103.22 88.8446 103.22 88.3475C103.22 87.4963 103.199 87.4465 102.851 87.4918C102.532 87.5334 102.472 87.651 102.401 88.3669L102.319 89.1939H100.845H99.3702L99.317 89.7044C99.2501 90.3479 99.4523 90.4668 100.619 90.4697C101.126 90.471 101.753 90.5109 102.012 90.5584L102.483 90.6448L102.425 91.9493C102.393 92.6668 102.331 93.2876 102.288 93.329C102.244 93.3703 101.57 93.4042 100.789 93.4042H99.3702L99.317 93.9147C99.2489 94.5691 99.4487 94.6771 100.732 94.68C102.103 94.6833 102.401 94.8408 102.401 95.5647C102.401 96.2015 102.51 96.3681 102.884 96.3017C103.068 96.2691 103.138 96.0718 103.138 95.5825ZM109.568 93.8188L108.298 93.7676V92.8153C108.298 92.2915 108.25 91.6414 108.191 91.3706L108.084 90.8781L109.543 90.9856C110.345 91.0448 111.055 91.141 111.12 91.1994C111.36 91.416 111.467 93.4615 111.25 93.7016C111.136 93.8275 110.997 93.917 110.94 93.9003C110.884 93.8836 110.266 93.847 109.568 93.8188ZM104.507 93.6609C103.228 93.6091 103.226 93.6057 103.222 91.7836L103.219 90.6141L105.226 90.7124C106.33 90.7665 107.295 90.863 107.372 90.9269C107.576 91.0977 107.315 93.6266 107.091 93.6457C106.53 93.6935 105.467 93.6998 104.507 93.6609ZM117.347 93.5435C118.204 88.7254 122.083 87.1572 125.607 90.2036C126.363 90.8577 126.504 90.9319 126.4 90.6225C126.132 89.8224 125.16 89.019 123.697 88.3895C122.969 88.0762 122.544 88.0006 121.486 87.9964C120.295 87.9917 120.108 88.0327 119.438 88.4446C117.935 89.369 116.731 91.6308 116.536 93.893C116.448 94.9081 116.464 94.9832 116.766 94.9832C117.049 94.9832 117.123 94.7986 117.347 93.5435ZM128.935 93.8178C129.213 92.5039 129.563 91.739 130.253 90.9383C130.952 90.1261 132.291 89.4196 133.13 89.4196C134.555 89.4196 136.566 90.5482 137.252 91.7322C137.682 92.4757 137.721 91.8073 137.294 90.9982C136.559 89.6053 134.708 88.5174 133.071 88.5174C132.071 88.5174 131.371 88.8626 130.404 89.8341C129.136 91.1075 128.448 92.6304 128.448 94.1635C128.448 94.975 128.733 94.7725 128.935 93.8178ZM121.486 100.193C120.524 99.7808 119.539 98.8343 119.058 97.8585C118.548 96.8237 118.477 94.3449 118.92 93.0563C119.564 91.1836 120.473 90.4353 122.205 90.3529C123.193 90.3058 123.365 90.3449 124.176 90.8003C125.91 91.7737 126.718 93.4228 126.619 95.7844C126.551 97.3945 126.052 98.5825 125.04 99.5431C123.934 100.594 122.874 100.787 121.486 100.193ZM123.441 97.9099C124.281 97.5441 124.757 96.6223 124.76 95.3591C124.763 94.0972 124.378 93.2733 123.55 92.7672C122.483 92.1148 121.495 92.3855 120.826 93.5136C120.424 94.1907 120.388 94.3769 120.455 95.4132C120.541 96.7453 120.866 97.4264 121.617 97.8462C122.249 98.2003 122.735 98.2173 123.441 97.9099ZM121.672 96.1752C120.736 95.4995 121.354 93.9306 122.556 93.9306C123.161 93.9306 124.025 94.6359 124.025 95.1294C124.025 95.5652 123.604 96.2794 123.28 96.3934C122.767 96.5742 122.099 96.4835 121.672 96.1752ZM132.719 100.295C129.783 98.9228 129.048 94.0044 131.449 91.8004C134.04 89.4224 137.751 92.2796 137.41 96.3898C137.361 96.9807 137.238 97.7163 137.137 98.0243C136.926 98.6679 136.106 99.7032 135.458 100.144C134.844 100.562 133.455 100.638 132.719 100.295ZM134.753 97.9653C135.387 97.5071 135.656 96.8105 135.655 95.6271C135.655 94.8293 135.572 94.4827 135.277 94.0352C134.849 93.3864 134.107 92.8805 133.58 92.879C132.978 92.877 132.244 93.5808 131.973 94.4203C131.661 95.3841 131.662 95.6389 131.984 96.6347C132.472 98.1419 133.694 98.7294 134.753 97.9653ZM132.787 96.3345C132.096 95.6333 132.667 94.4819 133.707 94.4819C134.698 94.4819 135.219 95.685 134.509 96.3365C134.075 96.7349 133.181 96.7339 132.787 96.3345ZM90.1429 100.173C89.1026 99.8752 88.1807 99.2311 87.3953 98.2534C86.4386 97.0626 86.1042 96.0988 86.104 94.5321C86.1036 91.9534 87.0478 89.877 88.6106 89.0198C91.8791 87.2271 95.5949 89.6778 96.094 93.9556C96.4136 96.6946 94.7144 99.5282 92.3689 100.168C91.3695 100.44 91.0766 100.441 90.1429 100.173ZM92.7155 97.1622C93.0654 96.8721 93.5167 96.2826 93.7184 95.8522C94.4669 94.2552 93.8651 92.1664 92.4001 91.2766C91.8636 90.9507 91.6207 90.8966 90.9557 90.9553C89.2875 91.1024 88.3937 92.2511 88.4065 94.2313C88.4145 95.4767 88.7284 96.2252 89.5656 96.9956C90.1509 97.5342 90.5067 97.6682 91.3836 97.6802C91.9568 97.6881 92.1914 97.5968 92.7155 97.1622ZM92.0803 96.5227C92.0803 96.1923 92.6772 95.6313 92.8551 95.7946C93.0017 95.9292 92.5622 96.6663 92.2851 96.7505C92.1686 96.7858 92.0803 96.6875 92.0803 96.5227ZM90.5276 95.3967C89.7918 94.8098 89.7641 93.4901 90.475 92.8822C91.6474 91.8796 93.2226 93.4695 92.48 94.9058C92.0407 95.7556 91.2324 95.9588 90.5276 95.3967ZM89.0497 92.878C88.9125 92.6744 89.0975 92.4269 89.387 92.4269C89.5168 92.4269 89.623 92.5623 89.623 92.7277C89.623 93.039 89.2278 93.1426 89.0497 92.878ZM90.4543 91.9827C90.1957 91.836 90.361 91.5247 90.6975 91.5247C90.9465 91.5247 91.0257 91.9058 90.8029 92.0322C90.731 92.073 90.5741 92.0507 90.4543 91.9827ZM72.793 99.9747C71.1413 99.3678 69.7816 97.9827 68.9611 96.0711C68.6466 95.3384 68.591 94.926 68.591 93.3291C68.591 91.7307 68.6465 91.3201 68.9622 90.5846C69.786 88.6649 71.4071 87.505 73.4795 87.3523C74.8046 87.2546 75.8854 87.5778 77.1487 88.4495C78.8865 89.6486 79.6239 91.035 79.7542 93.3482C79.9466 96.7626 78.4437 99.3029 75.8057 100.022C74.7438 100.311 73.6633 100.294 72.793 99.9747ZM76.0045 96.974C77.2213 96.0765 77.7138 94.6208 77.348 93.0035C76.7252 90.2496 74.0709 89.1791 72.1115 90.8917C70.5505 92.256 70.7467 95.3612 72.4798 96.7228C73.6697 97.6577 74.9535 97.7492 76.0045 96.974ZM73.46 96.4015C73.3418 96.1187 73.6317 95.8103 73.8822 95.9524C74.1522 96.1056 74.0957 96.6372 73.8094 96.6372C73.6714 96.6372 73.5142 96.5312 73.46 96.4015ZM75.2572 96.2395C75.1139 95.8968 75.6693 95.5256 75.9758 95.7591C76.1613 95.9003 76.1525 95.9749 75.923 96.2077C75.5833 96.5522 75.3917 96.5613 75.2572 96.2395ZM72.0037 95.2708C71.9432 95.1809 71.9693 95.0379 72.0617 94.9531C72.2684 94.7634 72.5859 94.9236 72.5859 95.2176C72.5859 95.4707 72.1643 95.5093 72.0037 95.2708ZM73.6507 95.1023C72.6232 94.5614 72.5237 93.2164 73.4445 92.3141C73.911 91.857 74.7241 91.8677 75.3207 92.3387C75.7295 92.6614 75.7804 92.8016 75.7804 93.6047C75.7804 94.3535 75.7125 94.5741 75.3832 94.8958C74.9517 95.3174 74.2242 95.4041 73.6507 95.1023ZM76.4664 94.5853C76.2254 94.3641 76.3521 93.9083 76.6404 93.9592C76.7981 93.9871 76.9271 94.1387 76.9271 94.296C76.9271 94.5952 76.6599 94.763 76.4664 94.5853ZM71.7266 92.3893C71.6046 92.0849 71.7721 91.8255 72.0906 91.8255C72.4091 91.8255 72.5819 92.0849 72.4662 92.3893C72.4269 92.4927 72.2614 92.5773 72.0983 92.5773C71.9353 92.5773 71.768 92.4927 71.7266 92.3893ZM73.3519 91.1635C73.2415 90.8993 73.3735 90.7729 73.7599 90.7729C73.9511 90.7729 74.0603 90.8822 74.0603 91.0736C74.0603 91.4239 73.491 91.4961 73.3519 91.1635ZM36.0622 95.2971C35.8701 94.9678 35.9048 91.6114 36.1021 91.4306C36.1734 91.3653 36.8738 91.2406 37.6584 91.1536L39.0851 90.9953L39.0264 89.7188C38.9941 89.0167 38.9324 88.3884 38.8893 88.3226C38.8461 88.2569 38.1907 88.2493 37.4326 88.3057L36.0544 88.4084V87.7145C36.0544 86.5959 36.5834 86.4202 41.122 86.0315C43.4442 85.8327 49.6767 85.0293 54.484 84.3092C57.6599 83.8334 58.7122 83.7755 58.9713 84.0619C59.1508 84.2605 59.1688 85.2527 59.0697 89.4962C58.9885 92.975 58.8894 94.7211 58.7695 94.7892C58.5754 94.8993 56.3734 94.9946 45.7721 95.3518C36.5861 95.6613 36.2735 95.6596 36.0622 95.2971ZM38.4863 94.1706C38.5904 94.1116 38.6755 93.8304 38.6755 93.5458C38.6755 93.0364 38.6646 93.0284 37.9711 93.0284C37.5837 93.0284 37.1782 93.1096 37.0701 93.2088C36.8173 93.4409 36.8174 93.9693 37.0703 94.2015C37.2703 94.3851 38.1417 94.3661 38.4863 94.1706ZM47.4571 93.9789C47.6361 93.9159 47.6886 93.706 47.6527 93.1974L47.6036 92.5021L46.7845 92.5128C46.334 92.5188 45.1678 92.5763 44.193 92.6408C42.2397 92.77 42.0969 92.8565 42.2505 93.8175L42.3235 94.274L44.7679 94.1696C46.1124 94.1121 47.3225 94.0263 47.4571 93.9789ZM56.245 93.2259C56.3126 93.1902 56.3679 92.8589 56.3679 92.4897V91.8184L55.0164 91.9095C54.2731 91.9597 53.5728 92.0268 53.4601 92.0587C53.2421 92.1205 53.1709 93.2015 53.3727 93.3867C53.4885 93.493 56.0063 93.352 56.245 93.2259ZM45.1463 91.0063C50.7917 90.5778 50.4704 90.6247 50.4704 90.2296C50.4704 89.9283 50.4062 89.8889 50.0199 89.9531C49.7722 89.9943 47.7276 90.1595 45.4766 90.3201C41.5465 90.6006 40.7852 90.5758 41.2229 90.1817C41.3621 90.0563 44.6765 89.7328 48.2589 89.4948C50.5483 89.3427 50.6343 89.3178 50.6343 88.8084C50.6343 88.4221 50.5841 88.3718 50.2657 88.4384C49.7736 88.5414 42.0436 89.2692 41.4419 89.2692C40.8268 89.2692 40.8095 88.8722 41.4195 88.7567C42.3682 88.5769 45.7435 88.2211 48.2053 88.0414C50.687 87.8602 50.7752 87.8423 50.8454 87.5054C50.8853 87.3137 50.8533 87.1202 50.7742 87.0754C50.6952 87.0306 48.8068 87.1962 46.5779 87.4436C40.3753 88.1319 40.6413 88.1163 40.6413 87.7915C40.6413 87.5403 41.0724 87.4672 45.1873 87.0199C47.6876 86.7482 49.9844 86.4816 50.2914 86.4276C50.8104 86.3363 51.3052 85.9254 51.111 85.7471C50.9909 85.6369 47.0205 86.04 43.3444 86.5356C40.486 86.921 40.2354 86.9791 40.2759 87.2476C40.4955 88.7033 40.8161 90.6111 40.8874 90.8857C40.9947 91.2991 41.2097 91.3052 45.1463 91.0063ZM55.1147 89.7318C56.0356 89.6508 56.6554 89.5209 56.8135 89.3757C57.1421 89.0741 57.3269 86.5094 57.0321 86.3421C56.8615 86.2453 52.9608 86.6742 52.7799 86.8097C52.6714 86.8909 52.2979 89.7862 52.3801 89.9086C52.4219 89.9708 52.728 89.9852 53.0605 89.9405C53.3929 89.8958 54.3173 89.8019 55.1147 89.7318ZM61.4463 94.5496L60.2176 94.4569L60.1746 89.2516C60.1378 84.8051 60.1669 84.0195 60.3741 83.8616C60.5625 83.7181 60.9849 83.7136 62.2665 83.8417C64.3244 84.0471 66.5247 84.0561 66.5247 83.8589C66.5247 83.6405 66.0608 83.5863 63.0845 83.4567C57.6587 83.2205 57.6191 83.2235 48.8323 84.5381C46.9852 84.8144 44.6631 85.1184 43.672 85.2137C42.6809 85.309 40.7914 85.5171 39.4732 85.6762C38.1549 85.8353 36.9549 85.9227 36.8066 85.8704C36.6582 85.8181 36.4589 85.6417 36.3636 85.4784C36.0896 85.0083 35.9038 80.9063 36.0608 78.7905C36.2339 76.4574 36.4335 75.3969 37.6103 70.5548C38.6853 66.1314 38.9538 65.2267 39.2976 64.8679C39.5709 64.5827 45.6432 62.7312 52.9277 60.712C55.3154 60.0502 58.0234 59.2739 58.9456 58.987C59.8678 58.7001 60.6583 58.5189 60.7024 58.5844C60.777 58.6951 59.562 65.3441 58.8458 68.7441C58.298 71.3447 58.1507 73.4964 58.2024 78.1385L58.2518 82.5708L58.712 82.7192C59.0676 82.834 59.2097 82.8177 59.3375 82.6476C59.446 82.5031 59.4637 80.8774 59.3892 77.9165C59.2028 70.5216 59.2264 70.2275 60.5549 63.3485C61.5264 58.3178 61.4056 58.7447 61.8583 58.7447C62.2139 58.7447 65.7939 59.3639 76.4098 61.2617C79.2014 61.7608 80.5222 62.0595 80.6159 62.2131C80.9138 62.7018 81.0883 66.8462 81.1156 74.0821C81.1313 78.2586 81.1353 81.7708 81.1244 81.8871C81.1078 82.0641 80.6832 82.0811 78.5244 81.9915C75.5123 81.8664 74.4099 81.724 74.2099 81.434C74.1304 81.3188 74.0632 76.8602 74.0606 71.5259C74.0581 66.1916 74.0114 61.675 73.9571 61.4889C73.9028 61.3028 73.7932 61.1506 73.7136 61.1506C73.6313 61.1506 73.5689 65.5275 73.5689 71.3003C73.5689 79.3128 73.5258 81.4529 73.3641 81.4635C72.9057 81.4934 71.4612 81.4395 70.5285 81.3578L69.5359 81.2709L68.7612 81.962C67.8742 82.7533 67.914 82.8155 68.9507 82.2579C69.8633 81.7669 69.9349 81.7679 76.179 82.3501C79.419 82.6522 81.0438 82.8619 81.132 82.9895C81.3492 83.3035 81.2948 84.6053 81.0636 84.6272C80.0129 84.7268 79.1635 84.5519 78.4015 84.0792C74.9732 81.9524 70.7422 82.316 68.0375 84.9699C66.244 86.7298 65.7488 88.1324 65.6229 91.8096C65.575 93.2071 65.4637 94.3631 65.3686 94.4504C65.1707 94.6321 63.199 94.682 61.4463 94.5496ZM64.2072 94.2851C65.0263 94.2065 65.2141 94.1383 65.2141 93.9193C65.2141 93.553 64.9471 93.5038 62.6749 93.4515C60.713 93.4064 60.709 93.407 60.6538 93.7642C60.6234 93.9611 60.6971 94.1795 60.8176 94.2496C61.079 94.4017 62.8039 94.4197 64.2072 94.2851ZM64.986 88.7319C65.0442 88.5191 65.0227 88.2815 64.9382 88.204C64.8536 88.1264 63.8605 88.0199 62.7312 87.9674C60.7595 87.8757 60.6745 87.884 60.5907 88.178C60.5428 88.3463 60.5512 88.5549 60.6094 88.6414C60.6677 88.7279 61.4511 88.8614 62.3504 88.938C64.9638 89.1606 64.8667 89.1682 64.986 88.7319ZM45.0644 84.2346C48.8537 83.7323 50.5082 83.4814 51.1667 83.3092C51.4948 83.2234 51.5614 82.6531 51.2433 82.6531C51.1278 82.6531 48.62 82.9914 45.6703 83.4049C42.7207 83.8184 40.2719 84.1567 40.2286 84.1567C40.023 84.1567 40.1819 83.7265 40.4183 83.6433C40.75 83.5264 46.7389 82.6049 49.4056 82.2603C50.4868 82.1207 51.4256 81.9319 51.4918 81.841C51.558 81.7501 51.6133 81.5155 51.6147 81.3198C51.6165 81.0235 51.5555 80.9793 51.2486 81.0555C50.8291 81.1597 41.9501 82.5837 40.7642 82.737C40.1242 82.8197 39.9861 82.7963 39.9861 82.6051C39.9861 82.4772 40.1151 82.3367 40.2728 82.2928C40.6324 82.1928 47.3203 81.0938 49.7333 80.7382C51.5062 80.477 51.5361 80.4659 51.588 80.0504C51.6382 79.6483 51.6147 79.6322 51.0966 79.7151C48.7218 80.095 39.989 81.4501 39.9153 81.4501C39.8641 81.4501 39.8223 81.3174 39.8223 81.1552C39.8223 80.9407 39.9898 80.8203 40.4366 80.7136C40.958 80.5891 45.8663 79.8032 50.3191 79.1312C51.0018 79.0282 51.6468 78.8948 51.7525 78.8348C51.9254 78.7368 52.0379 77.9917 51.8799 77.9917C51.8441 77.9917 49.8722 78.3245 47.4977 78.7313C45.1233 79.1381 42.4802 79.5866 41.6243 79.7278C39.4686 80.0836 39.5102 80.0537 39.6002 81.1848C39.7109 82.5769 39.9942 84.6486 40.094 84.7969C40.1419 84.868 40.3768 84.8903 40.616 84.8464C40.8552 84.8025 42.857 84.5273 45.0644 84.2346ZM72.3952 78.375C72.4678 77.7892 72.0795 77.5406 71.0919 77.5406C70.1846 77.5406 69.7301 77.8475 69.8994 78.3459C70.0623 78.8253 70.2761 78.9004 71.3573 78.8576C72.3128 78.8198 72.3417 78.8063 72.3952 78.375ZM42.17 74.841C43.5064 74.5063 44.6306 74.2325 44.6683 74.2325C44.706 74.2325 44.7368 74.1358 44.7368 74.0175C44.7368 73.8447 44.3914 73.8877 42.9758 74.2366C40.1157 74.9417 39.2786 75.2033 39.2013 75.4163C39.1515 75.5532 39.2258 75.5906 39.4343 75.5334C39.6026 75.4872 40.8337 75.1756 42.17 74.841ZM40.4162 73.8494C42.7973 73.3768 51.4984 71.5329 54.1335 70.9424C55.3163 70.6774 56.1985 70.3949 56.3886 70.2205C56.6103 70.0169 56.8416 69.2608 57.1871 67.6098C57.4546 66.3315 57.9054 64.3506 58.1889 63.2078C58.4831 62.022 58.6424 61.0765 58.56 61.0055C58.4806 60.937 57.3467 61.1709 56.0403 61.5253C42.7502 65.13 40.257 65.8139 40.1936 65.8721C40.1137 65.9455 38.3012 72.7545 38.1183 73.6686C37.9805 74.3569 37.8933 74.35 40.4162 73.8494ZM51.0848 72.8493C52.908 72.4377 53.9106 72.143 53.9106 72.019C53.9106 71.9132 53.8795 71.8266 53.8414 71.8266C53.3616 71.8266 48.1957 73.0993 48.019 73.2611C47.65 73.599 47.9331 73.5609 51.0848 72.8493ZM71.8886 66.8645C71.9105 64.5075 71.8644 62.4871 71.786 62.3748C71.6711 62.2099 65.3802 60.8763 64.6173 60.8551C64.3771 60.8484 64.1989 61.2714 64.3084 61.5882C64.3752 61.7813 64.6151 61.8324 65.4448 61.8301C66.0233 61.8282 66.5581 61.8835 66.6335 61.9522C66.7088 62.0209 66.793 63.455 66.8206 65.139C66.8685 68.0609 66.8555 68.2149 66.5339 68.5101C66.3437 68.6847 65.9831 68.8193 65.7056 68.8193C65.0548 68.8193 65.0154 68.8259 64.6817 68.9898C64.3172 69.1688 64.3045 69.9153 64.6613 70.1918C64.9625 70.4253 70.1899 71.2116 71.1935 71.1743L71.8488 71.15L71.8886 66.8645ZM63.012 70.9597C63.5713 70.6033 64.0254 69.2704 63.5876 69.2704C63.504 69.2704 63.3197 69.1641 63.1781 69.0341C62.9599 68.8338 62.9215 68.3127 62.9264 65.6133C62.9307 63.2727 62.9893 62.3343 63.1475 62.0724C63.2741 61.8627 63.3209 61.5283 63.261 61.2597C63.1484 60.7543 62.6878 60.3887 62.4648 60.6277C62.2581 60.8492 60.9071 69.9777 61.02 70.3905C61.159 70.899 62.5042 71.2834 63.012 70.9597ZM141.062 86.5556C139.575 86.3829 129.834 85.4616 122.796 84.8281C119.553 84.5361 113.95 84.0263 110.346 83.6953C106.742 83.3642 101.84 82.9276 99.4521 82.7251C97.0645 82.5225 93.9683 82.2545 92.5718 82.1295C91.1752 82.0044 89.7377 81.9009 89.3773 81.8994C88.4897 81.8954 88.3035 81.7536 88.2103 81.0091C88.1138 80.2381 88.3427 79.9322 88.9411 80.032C89.181 80.0721 91.1465 80.27 93.3089 80.4719C98.7248 80.9776 105.892 81.6824 110.1 82.1231C112.037 82.326 114.839 82.5968 116.325 82.7249C118.946 82.9508 125.673 83.6067 136.311 84.6733C143.556 85.3998 143.219 85.3836 143.159 85.0018C143.112 84.7034 142.789 84.6493 137.048 83.9788C133.715 83.5894 128.296 82.9935 125.008 82.6546C121.719 82.3157 117.517 81.8743 115.67 81.6738C113.823 81.4732 110.395 81.1362 108.053 80.9249C105.71 80.7136 102.43 80.3757 100.763 80.174C95.9528 79.5921 94.4826 79.4735 91.366 79.416C89.7568 79.3863 88.4172 79.3408 88.3891 79.3151C88.3611 79.2894 88.3071 77.2888 88.2693 74.8695C88.2212 71.7994 88.2545 70.4311 88.3793 70.3395C88.5742 70.1965 91.4252 70.5864 99.1245 71.809C101.782 72.2311 107.164 73.0506 111.083 73.6302C115.003 74.2099 122.448 75.3663 127.629 76.2C137.119 77.7274 141.963 78.4844 143.396 78.6642C143.903 78.7279 144.229 78.8572 144.333 79.0357C144.428 79.1973 144.478 80.8123 144.457 82.9737L144.42 86.6378L143.274 86.6586C142.643 86.67 141.648 86.6237 141.062 86.5556ZM39.7502 63.6563C39.8961 63.2039 40.944 61.4367 41.2718 61.0903C41.4206 60.9331 41.9875 60.6175 42.5315 60.389C44.0011 59.7718 50.5931 57.6099 55.7126 56.0662C58.1904 55.3191 60.5494 54.5688 60.9548 54.3989C61.9936 53.9635 62.96 54.0023 66.3161 54.614C69.6309 55.2181 77.5586 56.9693 78.6107 57.3297C79.4266 57.6092 79.8187 58.1884 80.2018 59.6798C80.5337 60.9722 80.52 61.1506 80.0889 61.1506C79.8908 61.1506 76.555 60.5811 72.6761 59.8851C68.7973 59.1891 64.8127 58.5097 63.8216 58.3755C62.8305 58.2412 61.8115 58.0704 61.5572 57.9958C61.1923 57.8889 60.4318 58.0303 57.9532 58.6658C54.0009 59.6792 48.9319 61.1268 44.4911 62.5105C39.3501 64.1122 39.6246 64.0459 39.7502 63.6563ZM79.4686 59.0105C79.2834 58.556 78.9916 58.0677 78.8202 57.9253C78.4385 57.6082 76.9322 57.247 70.2925 55.8804C67.4543 55.2962 64.567 54.6867 63.8763 54.526C63.1855 54.3652 62.5786 54.2337 62.5275 54.2337C62.2196 54.2337 61.1168 56.9888 61.342 57.1954C61.3809 57.2311 61.608 56.8687 61.8467 56.3901C62.3697 55.3414 62.6977 54.9855 63.1413 54.9855C63.3249 54.9855 65.7646 55.4623 68.5629 56.045C77.4616 57.898 78.3819 58.1813 79.2726 59.3419C79.5143 59.6568 79.733 59.897 79.7587 59.8756C79.7844 59.8543 79.6539 59.465 79.4686 59.0105Z" fill="white"/>
    <path d="M123.165 0L122.897 0.575714C122.75 0.892324 122.375 1.70534 122.063 2.38242L121.498 3.6134L120.241 3.62455C119.55 3.6307 118.906 3.65123 118.81 3.67032L118.635 3.70511L117.732 1.91754C117.235 0.934461 116.806 0.118114 116.78 0.103351C116.67 0.0419585 114.972 0.365088 113.398 0.74714L113.133 0.81155L113.171 2.26973C113.193 3.07176 113.226 3.96418 113.245 4.25269L113.28 4.77714L112.713 4.98752C112.401 5.10325 111.804 5.35151 111.386 5.5391L110.627 5.88014L110.197 5.54426C109.96 5.3595 109.213 4.76723 108.537 4.22822L107.308 3.24823L106.781 3.56979C106.116 3.97572 104.941 4.77187 104.589 5.05461L104.321 5.27047L105.265 7.04839L106.21 8.8263L105.704 9.3058C105.426 9.56957 105.001 10.0015 104.76 10.2655C104.519 10.5295 104.302 10.7661 104.278 10.7911C104.254 10.8162 103.313 10.5756 102.186 10.2565C101.059 9.93747 100.103 9.67647 100.062 9.67647C99.948 9.67647 99.0456 11.0192 98.4984 12.0031C98.248 12.4535 98.2103 12.558 98.2805 12.6061C98.7769 12.9465 101.487 15.0726 101.487 15.1215C101.487 15.1572 101.388 15.433 101.267 15.7345C101.146 16.0361 100.945 16.602 100.819 16.992C100.65 17.5178 100.561 17.7105 100.477 17.7375C100.415 17.7575 99.4297 17.8693 98.2879 17.9858L96.212 18.1975L96.1482 18.5286C96.0567 19.0039 95.9142 20.1887 95.8668 20.868L95.826 21.4512L96.0301 21.5098C96.3501 21.6017 99.4848 22.4333 99.7655 22.5008L100.017 22.5614L100.058 23.0679C100.11 23.7131 100.253 24.8687 100.323 25.2013L100.377 25.4573L99.4291 25.9631C98.9078 26.2412 98.1534 26.6416 97.7526 26.8529C97.3518 27.0641 96.9231 27.2942 96.8 27.3642L96.5762 27.4913L96.719 27.9725C96.8834 28.5262 97.2038 29.4032 97.4807 30.0575C97.6413 30.4369 97.694 30.5097 97.8074 30.5097C97.9286 30.5097 101.254 30.1189 101.799 30.0405L102.02 30.0089L102.42 30.7013C102.64 31.0821 103.012 31.6594 103.247 31.9842C103.482 32.3091 103.674 32.5927 103.674 32.6145C103.674 32.6364 103.145 33.3252 102.499 34.1451C101.853 34.965 101.288 35.6891 101.243 35.7542C101.168 35.8638 101.195 35.9092 101.612 36.3574C101.86 36.624 102.392 37.1465 102.795 37.5188L103.526 38.1959L105.371 37.1688C106.894 36.3212 107.235 36.1522 107.322 36.2011C107.379 36.2338 107.682 36.4406 107.995 36.6608C108.308 36.8811 108.893 37.2554 109.297 37.4927L110.03 37.9241L109.615 39.7934C109.387 40.8215 109.2 41.7032 109.2 41.7526C109.2 41.872 110.552 42.4465 111.946 42.92L112.355 43.0585L113.398 41.6772C113.972 40.9175 114.533 40.1824 114.644 40.0437L114.845 39.7916L115.375 39.9194C115.944 40.0565 117.329 40.2951 117.9 40.3545C118.084 40.3737 118.236 40.3968 118.248 40.4069C118.248 40.4164 118.386 40.9758 118.554 41.6489C118.722 42.3219 118.928 43.1564 119.012 43.5032C119.097 43.8499 119.179 44.1677 119.194 44.2094C119.218 44.2721 119.509 44.2808 120.893 44.2603C121.811 44.2467 122.588 44.2128 122.619 44.1848C122.65 44.1567 122.842 43.3071 123.046 42.297C123.25 41.2869 123.431 40.4172 123.448 40.3645C123.466 40.3117 123.536 40.2686 123.605 40.2686C123.818 40.2686 125.202 40.0017 125.917 39.8225C126.292 39.7286 126.656 39.6403 126.726 39.6265C126.832 39.6053 127.06 39.8528 128.145 41.17C129.273 42.539 129.454 42.7345 129.567 42.7044C129.862 42.6259 131.488 41.949 132.013 41.6865C132.491 41.4473 132.574 41.3858 132.55 41.2884C132.534 41.225 132.316 40.4083 132.066 39.4735C131.815 38.5388 131.597 37.7223 131.581 37.6592C131.556 37.5647 131.65 37.4824 132.107 37.1971C132.593 36.8932 133.332 36.3725 134.047 35.8298L134.269 35.6615L136.164 36.6254C138.019 37.569 138.061 37.587 138.182 37.4897C138.36 37.3459 139.666 35.9716 140.017 35.5588C140.304 35.2206 140.312 35.2023 140.224 35.0654C140.174 34.9871 139.61 34.3129 138.97 33.5671C138.33 32.8213 137.774 32.1658 137.736 32.1102C137.677 32.0253 137.726 31.9179 138.043 31.4376C138.251 31.1233 138.599 30.533 138.817 30.1259C139.036 29.7189 139.218 29.3816 139.222 29.3766C139.232 29.3658 142.792 29.6684 143.246 29.7186L143.556 29.7529L143.716 29.3501C144.033 28.5533 144.597 26.6984 144.537 26.6485C144.524 26.638 143.667 26.2165 142.632 25.7119C141.596 25.2073 140.732 24.7792 140.712 24.7602C140.691 24.7413 140.709 24.4421 140.751 24.0953C140.793 23.7485 140.847 23.1021 140.871 22.6586L140.915 21.8524L142.593 21.3446C143.516 21.0653 144.435 20.7861 144.636 20.7242L145 20.6119L144.984 20.2566C144.961 19.7719 144.81 18.7141 144.657 17.9687L144.531 17.3518L144.34 17.3479C144.236 17.3455 143.249 17.2778 142.148 17.1971L140.146 17.0504L139.837 16.2281C139.667 15.7758 139.425 15.1912 139.299 14.9292L139.071 14.4526L139.515 14.0753C139.76 13.8678 140.472 13.2727 141.098 12.753C141.724 12.2332 142.237 11.784 142.237 11.7547C142.237 11.5416 140.526 9.05215 140.335 8.98843C140.296 8.97508 139.348 9.25942 138.229 9.62023L136.194 10.2763L135.806 9.88054C135.592 9.66283 135.135 9.23386 134.789 8.92734C134.443 8.62082 134.16 8.34733 134.16 8.3195C134.16 8.29167 134.542 7.47047 135.01 6.49466C135.478 5.51886 135.837 4.69974 135.809 4.67431C135.643 4.52431 134.29 3.66019 133.616 3.27322C133.089 2.97123 132.795 2.83314 132.739 2.86211C132.693 2.88613 132.112 3.37558 131.449 3.9498C129.511 5.6272 129.591 5.56523 129.452 5.49486C129.192 5.36257 128.028 4.91564 127.504 4.74688L126.951 4.56879L126.912 3.82447C126.89 3.41513 126.872 2.51972 126.872 1.83468V0.589214L126.25 0.448906C125.451 0.268963 123.968 0.0332348 123.515 0.0144998L123.165 0ZM119.923 7.77456C124.274 7.64499 128.325 9.05596 131.502 11.8076C133.702 13.7125 135.32 16.3233 135.975 19.0241C136.531 21.3165 136.444 23.9049 135.738 26.0689C134.445 30.0291 131.492 33.2138 127.449 35.0089C125.677 35.7955 123.844 36.2635 121.893 36.4268C121.246 36.4809 119.697 36.4929 119.129 36.4481C115.362 36.1514 111.917 34.7106 109.256 32.3196C108.318 31.4763 107.801 30.9134 107.155 30.0307C103.348 24.8292 103.71 17.9538 108.046 13.0973C108.618 12.4572 109.994 11.2446 110.701 10.7577C113.446 8.86921 116.516 7.87603 119.923 7.77456Z" fill="#66FF00"/>
    <path d="M122.184 20.4794L121.502 19.862L123.084 18.4372L124.665 17.0124L125.343 15.8309L126.02 14.6494L127.221 14.0879L128.422 13.5264L128.681 13.7383C128.824 13.8548 129.049 14.0347 129.181 14.1381C129.313 14.2415 129.552 14.4343 129.713 14.5667L130.004 14.8073L129.39 15.8825C129.053 16.4738 128.731 16.9978 128.676 17.047C128.621 17.0962 128.03 17.3892 127.362 17.6981L126.147 18.2598L124.568 19.6783C123.699 20.4585 122.961 21.0968 122.927 21.0968C122.894 21.0968 122.559 20.819 122.184 20.4794Z" fill="#CCFFAA"/>
    <path d="M125.584 30.7722C124.991 30.6559 124.369 30.3571 123.896 29.9605C123.113 29.3053 122.703 28.4527 122.706 27.4839C122.707 27.1518 122.743 26.8384 122.798 26.689L122.887 26.4423L119.275 23.1757L115.662 19.9091L115.348 19.9875C114.921 20.0942 114.03 20.0902 113.554 19.9795C112.559 19.7483 111.579 19.0361 111.154 18.2355C110.713 17.4056 110.644 16.5358 110.955 15.7294C111.041 15.5062 111.141 15.2972 111.176 15.265C111.222 15.2235 111.616 15.5436 112.53 16.3645C113.239 17.0014 113.913 17.5647 114.027 17.6162C114.497 17.8288 115.207 17.5999 115.405 17.1715C115.545 16.8694 115.514 16.4846 115.33 16.2389C115.242 16.1216 114.634 15.5382 113.979 14.9425C113.323 14.3467 112.78 13.8406 112.772 13.8177C112.752 13.7663 113.359 13.5509 113.728 13.4781C113.879 13.4484 114.207 13.4239 114.457 13.4236C116.345 13.4213 117.88 14.6688 118.116 16.3954C118.174 16.8243 118.168 16.9614 118.074 17.3844L117.964 17.8754L121.552 21.1109L125.14 24.3465L125.667 24.2466C127.221 23.9524 128.877 24.6706 129.667 25.981C130.005 26.5422 130.156 27.5305 130.002 28.1692C129.922 28.5012 129.683 29.0504 129.626 29.033C129.601 29.0253 129.013 28.5107 128.32 27.8895C127.626 27.2683 126.965 26.7165 126.851 26.6633C126.463 26.4833 125.887 26.5635 125.623 26.8341C125.327 27.1384 125.245 27.5862 125.425 27.9115C125.478 28.008 126.109 28.6197 126.827 29.2707L128.131 30.4544L127.816 30.5769C127.128 30.8439 126.314 30.9152 125.584 30.7722Z" fill="#CCFFAA"/>
    <path d="M112.008 30.7637C111.631 30.6463 111.155 30.2597 110.947 29.902C110.805 29.6587 110.784 29.5573 110.783 29.1286C110.783 28.6899 110.802 28.6044 110.953 28.3578C111.072 28.1649 112.056 27.2392 114.187 25.3153L117.251 22.55L118.602 23.7696L119.953 24.9893L116.89 27.7549C114.727 29.7072 113.737 30.5647 113.522 30.6704C113.132 30.8619 112.456 30.9036 112.008 30.7637Z" fill="#66FF00"/>
</svg>
