<svg width="51" height="39" viewBox="0 0 51 39" fill="none" xmlns="http://www.w3.org/2000/svg">
<path d="M0 36.7228L0.0238893 26.6042L0.0477252 16.4856L0.537614 16.4208C0.807047 16.3851 2.03631 16.2781 3.26929 16.1829C4.50228 16.0878 5.81584 15.9781 6.1883 15.9392L6.86551 15.8685V14.4544V13.0403L7.2625 12.9781C7.48084 12.9439 8.40861 12.8595 9.32422 12.7904C10.8407 12.676 11.03 12.6829 11.4493 12.8682L11.9096 13.0715V14.2539V15.4363H12.2546C12.4443 15.4363 13.1781 15.3805 13.8853 15.3122L15.1711 15.1881L16.4376 15.7713C17.2692 16.1542 17.8478 16.3545 18.1228 16.3545H18.5415L18.5485 15.0633C18.5634 12.2871 18.7818 2.1341 18.8277 2.07761C18.9074 1.97973 19.9451 2.3504 20.421 2.64669C20.8493 2.91337 20.8643 2.94024 20.9118 3.52671C20.9387 3.85942 21.0091 7.23039 21.0682 11.0178C21.1272 14.8051 21.1819 17.9118 21.1896 17.9215C21.2994 18.0594 25.3897 19.7975 25.6045 19.7975H25.9014L25.9557 18.1621C25.9856 17.2626 26.0533 14.0259 26.1061 10.9693C26.1588 7.91279 26.2157 5.39523 26.2323 5.37474C26.2845 5.3106 27.2515 5.68782 27.7975 5.98534L28.3199 6.26992L28.3809 9.44722C28.4145 11.1947 28.4698 14.458 28.5039 16.6988C28.538 18.9397 28.5929 20.8983 28.626 21.0514C28.6782 21.2936 28.9405 21.4463 30.6428 22.2258C32.5479 23.0981 33.2623 23.2984 33.3422 22.9824C33.3621 22.9035 33.4279 19.6885 33.4883 15.838C33.5488 11.9875 33.6154 8.81542 33.6364 8.78886C33.7076 8.6986 34.6386 9.01344 35.1748 9.3091L35.7089 9.60359L35.7675 11.8027C35.7997 13.0122 35.8678 16.3756 35.9188 19.277C35.9698 22.1784 36.0425 24.5891 36.0803 24.6342C36.1181 24.6793 36.687 24.9651 37.3445 25.2695L38.54 25.8229L38.5588 30.4136L38.5776 35.0044C38.7493 34.9245 18.9619 37.934 18.9619 37.934L14.5717 38.2766L2.81183 38.2737L0 36.7228ZM20.1276 34.8278C20.9763 34.7622 21.8493 34.6815 22.0677 34.6486L22.4647 34.5886V31.4417V28.2948L22.2545 28.2402C22.0398 28.1843 17.884 27.4871 17.766 27.4871C17.7302 27.4871 17.7009 29.1656 17.7009 31.2171V34.9471H18.1427C18.3857 34.9471 19.279 34.8933 20.1276 34.8278ZM27.2126 34.2568C28.0001 34.1946 28.7891 34.1436 28.9659 34.1436H29.2873L29.262 31.7622L29.2368 29.3807L27.0884 29.0169C25.9068 28.8168 24.8454 28.6489 24.7298 28.6439L24.5197 28.6347V31.5683V34.5018L25.1502 34.4359C25.497 34.3996 26.425 34.3191 27.2126 34.2568ZM33.9072 33.7413C34.986 33.6489 35.9213 33.5725 35.9855 33.5715C36.073 33.5705 36.1023 33.1869 36.1023 32.0424V30.515L33.8371 30.1466C32.5913 29.944 31.5089 29.7792 31.4319 29.7804C31.3128 29.7822 31.2908 30.0929 31.2855 31.8483L31.2793 33.9141L31.6125 33.9116C31.7957 33.9105 32.8283 33.8337 33.9072 33.7413ZM36.0826 29.0219L36.0556 28.0319L33.7233 26.9075C32.4406 26.289 31.3582 25.8079 31.3181 25.8384C31.2242 25.9097 31.2249 28.7624 31.3187 28.9438C31.3842 29.0704 35.2599 29.9743 35.849 30.0004L36.1095 30.0119L36.0826 29.0219ZM29.2624 26.7211L29.2368 24.8075L27.7423 24.1282C26.9203 23.7546 25.8581 23.2749 25.3819 23.062L24.5161 22.6751L24.5412 25.1611L24.5664 27.6471L26.8082 28.1292C28.0412 28.3944 29.1035 28.6166 29.169 28.623C29.262 28.6322 29.2824 28.2161 29.2624 26.7211ZM4.59854 28.2289C5.68926 28.1365 6.70858 28.0609 6.8637 28.0609H7.14573V26.8177V25.5745L6.65534 25.622C6.38562 25.648 5.07207 25.7556 3.73633 25.8609L1.30771 26.0525L1.2812 27.2914L1.25467 28.5303L1.93509 28.4637C2.30931 28.427 3.50783 28.3213 4.59854 28.2289ZM10.9288 27.7166C12.3672 27.5929 13.6388 27.4906 13.7544 27.4894C13.9588 27.4876 13.9645 27.4545 13.9645 26.282V25.0769H13.6315C13.1554 25.0769 8.95073 25.4113 8.4768 25.4868L8.07981 25.5501V26.7481C8.07981 27.6312 8.11049 27.9456 8.19657 27.9439C8.26079 27.9428 9.49028 27.8403 10.9288 27.7166ZM22.443 24.4278L22.418 21.7129L20.0828 20.6525L17.7476 19.5922L17.7227 22.8683C17.7091 24.6702 17.7095 26.1588 17.7238 26.1762C17.7683 26.2309 21.9377 27.1181 22.2096 27.1307L22.4681 27.1427L22.443 24.4278ZM4.71712 24.6361L7.09902 24.4457L7.12564 23.1982L7.15226 21.9507L6.65859 22.0178C6.38708 22.0547 5.06154 22.1729 3.71296 22.2805L1.26099 22.4761V23.6978V24.9194L1.79809 24.8729C2.0935 24.8473 3.40707 24.7407 4.71712 24.6361ZM11.2557 24.0979C12.6171 23.9972 13.7835 23.8939 13.8478 23.8683C13.9315 23.8348 13.9645 23.4766 13.9645 22.6029V21.3842L13.6142 21.4474C13.4216 21.4822 12.0975 21.5995 10.6719 21.708L8.07981 21.9052V23.1568V24.4085L8.43009 24.3448C8.62275 24.3097 9.89427 24.1986 11.2557 24.0979ZM4.4836 21.061C5.92208 20.936 7.10953 20.833 7.12238 20.8321C7.13523 20.8317 7.14572 20.2882 7.14572 19.6254C7.14572 18.4517 7.14024 18.4204 6.93555 18.4222C6.81996 18.4226 5.50641 18.5261 4.01654 18.6509C2.52668 18.7756 1.2972 18.8781 1.28435 18.8785C1.27151 18.8789 1.26099 19.4217 1.26099 20.0845V21.2896L1.56457 21.2892C1.73153 21.2889 3.04511 21.1861 4.4836 21.061ZM11.4892 20.4884C12.8249 20.37 13.9283 20.2695 13.9412 20.2649C13.954 20.2601 13.9645 19.7144 13.9645 19.0516C13.9645 18.1629 13.9339 17.8471 13.8478 17.8486C13.7835 17.8497 12.533 17.9526 11.0689 18.077C9.60469 18.2015 8.33317 18.3038 8.24326 18.3044C8.09802 18.3048 8.0798 18.4399 8.0798 19.5106V20.7157L8.57019 20.7098C8.8399 20.707 10.1535 20.6067 11.4892 20.4884ZM33.2399 8.14864C33.2484 7.96584 33.309 7.86178 33.4068 7.86173C33.5925 7.86162 33.6737 7.63075 33.6737 7.10238V6.70619L34.6778 6.73877L35.6819 6.77132L35.7104 7.31647C35.734 7.76799 35.7701 7.86162 35.9206 7.86162C36.0521 7.86162 36.1023 7.94082 36.1023 8.14854V8.43546H34.6643H33.2264L33.2399 8.14864ZM25.8274 4.81252C25.8274 4.60838 25.8873 4.49259 26.0142 4.45184C26.1652 4.40335 26.201 4.29529 26.201 3.88874V3.38566H27.2285H28.256V3.89414C28.256 4.33407 28.2843 4.40757 28.4662 4.4393C28.6201 4.46612 28.6763 4.55272 28.6763 4.76289V5.04981L27.2518 5.08153L25.8274 5.11324V4.81252ZM18.4481 1.43461C18.4481 1.17004 18.4902 1.0903 18.6298 1.0903C18.7803 1.0903 18.8164 0.996682 18.84 0.54515L18.8684 0H19.8492H20.83L20.8585 0.54515C20.8821 0.996682 20.9181 1.0903 21.0686 1.0903C21.2083 1.0903 21.2503 1.17004 21.2503 1.43461V1.77891H19.8492H18.4481L18.4481 1.43461Z" fill="black"/>
<path d="M17.6965 38.9228C17.583 38.8805 17.4145 38.7918 17.322 38.7256C16.9363 38.4495 16.4484 37.7986 16.3618 37.4446C16.3261 37.2987 16.333 37.2946 16.6801 37.2582C16.8753 37.2377 17.3249 37.2209 17.6793 37.2209C19.1737 37.2209 23.5418 36.9926 23.6238 36.9102C23.642 36.8918 23.6518 36.6122 23.6456 36.2888C23.621 35.0179 23.806 34.112 24.2163 33.4945C24.6664 32.8169 25.3459 32.4597 26.1844 32.4597C27.3739 32.4597 28.3661 33.2841 28.7731 34.6108C28.8518 34.8677 28.9114 35.2658 28.9384 35.7156C28.9821 36.4451 29.0391 36.6112 29.1997 36.4772C29.2653 36.4225 29.2873 36.2921 29.286 35.9662C29.2821 34.9956 29.0905 34.158 28.7377 33.5692C28.6322 33.393 28.5458 33.2262 28.5458 33.1985C28.5458 33.1707 28.7128 33.148 28.9168 33.148H29.2877V30.3729C29.2877 28.2208 29.3038 27.5844 29.3591 27.5382C29.3984 27.5054 29.7337 27.4192 30.1043 27.3466C30.6893 27.232 30.7849 27.2257 30.8309 27.2988C30.8893 27.3917 30.8933 30.6968 30.8357 31.3366C30.7955 31.7838 30.8537 31.7374 30.1162 31.9097C29.6914 32.009 29.422 32.1741 29.6892 32.1715C29.7666 32.1707 29.9326 32.145 30.0581 32.1142C30.3569 32.0411 31.5312 32.0398 32.1747 32.112C32.4544 32.1433 33.4408 32.2345 34.3667 32.3147C35.2926 32.3948 36.7949 32.5373 37.7052 32.6313C38.6154 32.7253 40.2589 32.881 41.3575 32.9773C42.456 33.0737 43.7914 33.2022 44.325 33.263C44.8586 33.3238 45.9115 33.4269 46.6648 33.4921C47.9842 33.6063 49.8001 33.8054 50.1373 33.8729C50.2267 33.8907 50.278 33.9259 50.2514 33.951C50.1907 34.0081 49.335 34.1233 48.9716 34.1233C48.5727 34.1233 48.5195 34.1579 48.5195 34.4175C48.5195 34.7163 48.5949 34.7442 49.5467 34.7973L50.3171 34.8403L50.3348 35.0555C50.3502 35.2427 50.3331 35.2782 50.2027 35.328C50.1203 35.3595 49.9069 35.3857 49.7285 35.3862C49.55 35.3867 49.3759 35.406 49.3414 35.4292C49.2455 35.4937 49.1907 36.1727 49.2768 36.2287C49.3154 36.2539 49.5781 36.2873 49.8606 36.3031L50.3742 36.3318V36.5237C50.3742 36.6292 50.3613 36.7357 50.3456 36.7603C50.2956 36.8386 48.8034 36.947 48.721 36.8783C48.6808 36.8447 48.6323 36.7196 48.6134 36.6003C48.5541 36.2279 48.2498 35.698 47.9226 35.3974C47.5469 35.0522 47.2734 34.9168 46.9521 34.9168C46.6586 34.9168 46.4427 35.0211 46.2004 35.28C45.9673 35.529 45.8565 35.7566 45.7525 36.1999C45.5302 37.1478 45.7585 38.134 46.3373 38.7267L46.6034 38.9992H45.9332C45.1642 38.9992 44.9815 38.9445 44.7093 38.6329C44.4925 38.3847 44.4909 38.3729 44.6369 38.0853C44.6986 37.9638 44.7925 37.6421 44.8456 37.3704C44.9339 36.9186 44.9347 36.8382 44.8548 36.432C44.6894 35.5901 44.3152 35.0599 43.68 34.7676C43.2674 34.5777 42.9056 34.576 42.5455 34.7623C42.0338 35.027 41.7475 35.5932 41.6795 36.4752C41.5951 37.571 41.8706 38.3468 42.4962 38.7752C42.6071 38.8511 42.698 38.9325 42.6982 38.9562C42.6984 38.9799 42.3763 38.9992 41.9824 38.9992C41.0375 38.9992 40.8558 38.8989 40.4912 38.1758L40.3446 37.885L40.214 38.1434C40.0446 38.4784 39.6309 38.8593 39.3519 38.9372C39.2309 38.971 38.8419 38.9987 38.4876 38.9989C37.7727 38.9994 37.5055 38.9142 37.2909 38.6181L37.178 38.4623L37.1086 38.5928C36.9727 38.848 36.5846 38.9569 35.7035 38.987C34.744 39.0197 34.5917 38.9808 34.1943 38.6018L33.9069 38.3278L34.0519 38.0468C34.144 37.8682 34.2383 37.5181 34.3107 37.0858C34.3733 36.7117 34.4397 36.3811 34.4581 36.3511C34.5373 36.2223 34.5777 35.6169 34.5282 35.3016C34.4236 34.6352 33.8435 33.7763 33.2317 33.3816C32.9647 33.2094 32.2641 33.0337 31.8436 33.0334C31.2661 33.0332 30.4694 33.6646 30.1303 34.3914C29.9712 34.7323 29.9448 34.8572 29.9258 35.3566C29.9009 36.0097 29.9723 36.0377 30.0809 35.4176C30.1789 34.8577 30.394 34.4357 30.7698 34.0659C31.2312 33.6119 31.5517 33.4652 32.084 33.4643C32.4457 33.4635 32.5652 33.4902 32.8545 33.635C33.503 33.9598 34.0783 34.6626 34.2403 35.3279C34.3373 35.726 34.3758 36.0861 34.3176 36.0499C34.2891 36.0322 34.1561 35.7565 34.0221 35.4373C33.7311 34.7441 33.4642 34.3893 33.0437 34.1367C32.3862 33.7418 31.7121 33.7561 31.1834 34.1762C30.5664 34.6664 30.1518 36.0171 30.3163 37.001C30.4466 37.78 30.8165 38.3949 31.359 38.7339C31.5567 38.8574 31.612 38.9171 31.549 38.9393C31.5002 38.9565 31.132 38.9696 30.7307 38.9685C30.1677 38.967 29.9615 38.9451 29.8276 38.8729C29.5357 38.7154 29.2123 38.3332 29.0005 37.8957C28.8487 37.5821 28.7667 37.4744 28.6688 37.4603C28.5447 37.4424 28.5408 37.4266 28.5835 37.1161C28.6579 36.5757 28.6273 35.7286 28.52 35.355C28.293 34.5646 27.781 33.9232 27.1336 33.6182C26.8456 33.4826 26.7352 33.4636 26.2346 33.4636C25.5532 33.4636 25.2712 33.578 24.8579 34.0221C24.0891 34.8483 23.9419 36.5055 24.529 37.7239C24.7106 38.1007 25.1204 38.529 25.5172 38.7568L25.8202 38.9308L25.3804 38.9722C24.6647 39.0396 24.1479 38.9842 23.8486 38.8079C23.5538 38.6342 23.2248 38.2731 23.056 37.938C22.8193 37.4681 22.7831 37.4504 22.0617 37.4504H21.4183L21.2438 37.8178C21.0346 38.2584 20.5899 38.6909 20.181 38.8513C19.814 38.9953 18.0286 39.0467 17.6965 38.9228ZM36.3926 36.9332V36.6759L37.0204 36.6592C37.8658 36.6368 37.9049 36.6491 37.9049 36.9391C37.9049 37.1473 37.9183 37.1696 38.0333 37.1532C38.1414 37.1377 38.1617 37.0994 38.1617 36.9112V36.6876L38.6457 36.7001C38.9119 36.707 39.1623 36.7398 39.2021 36.773C39.242 36.8062 39.2745 36.9061 39.2745 36.9951C39.2745 37.1774 39.3358 37.2376 39.4691 37.1862C39.5271 37.1639 39.5599 37.0818 39.5599 36.959V36.7668L40.0021 36.75C40.443 36.7333 40.4445 36.7327 40.4632 36.5674C40.488 36.3496 40.4048 36.305 39.9718 36.3039C39.7358 36.3031 39.6056 36.2785 39.5908 36.2313C39.5784 36.1919 39.5572 35.9564 39.5436 35.708L39.519 35.2564L39.9397 35.2836C40.4296 35.3152 40.5576 35.2577 40.5011 35.0314C40.4663 34.8919 40.4367 34.8806 40.012 34.8433L39.5599 34.8037V34.4749C39.5599 34.1515 39.4951 34.0085 39.3487 34.0085C39.296 34.0085 39.2745 34.1088 39.2745 34.3544C39.2745 34.6076 39.2518 34.7092 39.1897 34.7331C39.1431 34.7511 38.8927 34.7439 38.6333 34.717L38.1617 34.6681L38.1448 34.2809C38.13 33.9408 38.1144 33.8937 38.0164 33.8937C37.9169 33.8937 37.9049 33.9349 37.9049 34.2753V34.657L37.2191 34.6223C36.8419 34.6033 36.5081 34.572 36.4772 34.5528C36.4464 34.5336 36.4211 34.3628 36.4211 34.1732C36.4211 33.8484 36.4137 33.8294 36.2927 33.8467C36.1816 33.8626 36.1605 33.9074 36.1358 34.1805L36.1073 34.496H35.5937H35.0801L35.0615 34.6908C35.0382 34.9363 35.1087 34.9816 35.5152 34.9828C35.6917 34.9833 35.91 34.9985 36.0003 35.0166L36.1643 35.0496L36.1442 35.5472C36.1331 35.8209 36.1116 36.0578 36.0964 36.0736C36.0812 36.0893 35.8463 36.1022 35.5744 36.1022H35.08L35.0615 36.297C35.0378 36.5467 35.1074 36.5879 35.5546 36.589C36.0321 36.5902 36.1358 36.6503 36.1358 36.9265C36.1358 37.1694 36.1738 37.2329 36.3042 37.2076C36.3683 37.1952 36.3926 37.1199 36.3926 36.9332ZM38.6325 36.2604L38.1902 36.2409V35.8776C38.1902 35.6778 38.1734 35.4298 38.1529 35.3264L38.1155 35.1386L38.6237 35.1796C38.9032 35.2021 39.1504 35.2388 39.1731 35.2611C39.257 35.3438 39.2942 36.1241 39.2185 36.2157C39.1789 36.2638 39.1303 36.2979 39.1106 36.2915C39.0909 36.2852 38.8758 36.2712 38.6325 36.2604ZM36.8694 36.2002C36.424 36.1804 36.4231 36.1791 36.4219 35.484L36.4209 35.0378L37.12 35.0754C37.5045 35.096 37.8409 35.1328 37.8675 35.1572C37.9387 35.2223 37.8475 36.1871 37.7695 36.1944C37.5743 36.2126 37.2039 36.215 36.8694 36.2002ZM41.3423 36.1554C41.6411 34.3173 42.9922 33.7191 44.2198 34.8813C44.4834 35.1308 44.5323 35.1591 44.4962 35.0411C44.4028 34.7358 44.064 34.4293 43.5546 34.1892C43.301 34.0697 43.153 34.0408 42.7842 34.0392C42.3695 34.0374 42.3041 34.0531 42.0708 34.2102C41.5474 34.5628 41.1277 35.4257 41.0598 36.2887C41.0294 36.676 41.0349 36.7046 41.1401 36.7046C41.2385 36.7046 41.2645 36.6342 41.3423 36.1554ZM45.3793 36.26C45.4761 35.7588 45.5979 35.467 45.8382 35.1615C46.0818 34.8517 46.5482 34.5821 46.8406 34.5821C47.3369 34.5821 48.0376 35.0127 48.2764 35.4644C48.4264 35.748 48.4398 35.493 48.2912 35.1844C48.0352 34.653 47.3902 34.238 46.8202 34.238C46.4715 34.238 46.2279 34.3697 45.8909 34.7403C45.4492 35.2261 45.2095 35.807 45.2095 36.3919C45.2095 36.7015 45.309 36.6243 45.3793 36.26ZM42.7842 38.6921C42.449 38.5349 42.1062 38.1738 41.9386 37.8016C41.761 37.4068 41.7361 36.4611 41.8904 35.9695C42.1146 35.2551 42.4314 34.9696 43.0347 34.9382C43.379 34.9203 43.4389 34.9351 43.7215 35.1089C44.3254 35.4802 44.6069 36.1094 44.5723 37.0103C44.5486 37.6245 44.3748 38.0777 44.0224 38.4442C43.637 38.845 43.2677 38.9189 42.7842 38.6921ZM43.4653 37.8211C43.7578 37.6816 43.9238 37.3299 43.9248 36.848C43.9258 36.3666 43.7917 36.0523 43.5033 35.8593C43.1316 35.6104 42.7874 35.7136 42.5544 36.144C42.4145 36.4023 42.4018 36.4733 42.4252 36.8687C42.4552 37.3769 42.5684 37.6367 42.8297 37.7969C43.0501 37.9319 43.2194 37.9384 43.4653 37.8211ZM42.8489 37.1594C42.523 36.9016 42.7382 36.3031 43.1569 36.3031C43.3676 36.3031 43.6687 36.5721 43.6687 36.7604C43.6687 36.9267 43.5222 37.1991 43.4094 37.2426C43.2306 37.3116 42.9977 37.277 42.8489 37.1594ZM46.6974 38.7309C45.6747 38.2076 45.4186 36.3312 46.2551 35.4904C47.1576 34.5832 48.4503 35.6732 48.3314 37.2412C48.3144 37.4667 48.2716 37.7473 48.2364 37.8648C48.1629 38.1103 47.8773 38.5053 47.6516 38.6734C47.4375 38.8329 46.9537 38.862 46.6974 38.7309ZM47.4059 37.8423C47.6269 37.6675 47.7206 37.4017 47.7202 36.9503C47.72 36.6459 47.6913 36.5137 47.5885 36.343C47.4394 36.0955 47.1808 35.9025 46.9973 35.9019C46.7876 35.9011 46.532 36.1696 46.4374 36.4899C46.3288 36.8576 46.3293 36.9548 46.4415 37.3347C46.6114 37.9097 47.0372 38.1338 47.4059 37.8423ZM46.7212 37.2202C46.4803 36.9526 46.6794 36.5134 47.0414 36.5134C47.3869 36.5134 47.5683 36.9724 47.321 37.2209C47.1698 37.3729 46.8583 37.3725 46.7212 37.2202ZM31.8656 38.6846C31.5032 38.5709 31.1821 38.3252 30.9085 37.9522C30.5752 37.4979 30.4587 37.1302 30.4587 36.5325C30.4585 35.5488 30.7875 34.7566 31.3319 34.4296C32.4705 33.7457 33.7649 34.6807 33.9388 36.3126C34.0501 37.3575 33.4582 38.4385 32.6411 38.6824C32.293 38.7864 32.1909 38.7868 31.8656 38.6846ZM32.7618 37.5359C32.8837 37.4252 33.0409 37.2003 33.1112 37.0361C33.3719 36.4269 33.1623 35.6301 32.652 35.2906C32.4651 35.1662 32.3804 35.1456 32.1488 35.168C31.5677 35.2241 31.2563 35.6624 31.2607 36.4178C31.2636 36.8929 31.3729 37.1785 31.6645 37.4724C31.8685 37.6778 31.9924 37.729 32.2979 37.7335C32.4975 37.7365 32.5793 37.7017 32.7618 37.5359ZM32.5406 37.2919C32.5406 37.1659 32.7485 36.9519 32.8105 37.0142C32.8615 37.0655 32.7084 37.3467 32.6119 37.3788C32.5713 37.3923 32.5406 37.3548 32.5406 37.2919ZM31.9997 36.8624C31.7433 36.6385 31.7337 36.135 31.9814 35.9031C32.3898 35.5206 32.9385 36.1272 32.6798 36.6751C32.5268 36.9993 32.2452 37.0768 31.9997 36.8624ZM31.4848 35.9015C31.437 35.8238 31.5015 35.7294 31.6023 35.7294C31.6475 35.7294 31.6846 35.7811 31.6846 35.8442C31.6846 35.9629 31.5469 36.0025 31.4848 35.9015ZM31.9741 35.56C31.884 35.504 31.9416 35.3852 32.0589 35.3852C32.1456 35.3852 32.1732 35.5306 32.0956 35.5788C32.0705 35.5944 32.0159 35.5859 31.9741 35.56ZM25.8217 38.6089C25.2463 38.3773 24.7726 37.8489 24.4868 37.1197C24.3772 36.8401 24.3579 36.6828 24.3579 36.0736C24.3579 35.4638 24.3772 35.3072 24.4872 35.0266C24.7742 34.2942 25.3389 33.8517 26.0608 33.7935C26.5224 33.7562 26.8989 33.8795 27.339 34.2121C27.9444 34.6695 28.2013 35.1984 28.2467 36.0809C28.3137 37.3835 27.7901 38.3526 26.8712 38.6269C26.5012 38.7373 26.1249 38.7308 25.8217 38.6089ZM26.9404 37.4641C27.3643 37.1217 27.5359 36.5664 27.4085 35.9494C27.1915 34.8988 26.2668 34.4904 25.5843 35.1438C25.0405 35.6642 25.1088 36.8488 25.7126 37.3683C26.1271 37.7249 26.5743 37.7599 26.9404 37.4641ZM26.054 37.2457C26.0128 37.1378 26.1138 37.0202 26.2011 37.0744C26.2952 37.1328 26.2755 37.3356 26.1757 37.3356C26.1277 37.3356 26.0729 37.2952 26.054 37.2457ZM26.6801 37.1839C26.6302 37.0532 26.8236 36.9115 26.9304 37.0006C26.995 37.0545 26.992 37.0829 26.912 37.1718C26.7937 37.3032 26.7269 37.3067 26.6801 37.1839ZM25.5467 36.8143C25.5256 36.78 25.5347 36.7255 25.5669 36.6931C25.6389 36.6208 25.7495 36.6819 25.7495 36.7941C25.7495 36.8906 25.6027 36.9053 25.5467 36.8143ZM26.1205 36.7501C25.7625 36.5437 25.7279 36.0306 26.0486 35.6864C26.2111 35.512 26.4944 35.5161 26.7022 35.6958C26.8446 35.8189 26.8623 35.8724 26.8623 36.1787C26.8623 36.4644 26.8387 36.5486 26.724 36.6713C26.5737 36.8321 26.3202 36.8652 26.1205 36.7501ZM27.1013 36.5528C27.0174 36.4685 27.0615 36.2945 27.162 36.314C27.2169 36.3246 27.2618 36.3824 27.2618 36.4425C27.2618 36.5566 27.1687 36.6206 27.1013 36.5528ZM25.4502 35.7151C25.4077 35.5989 25.466 35.5 25.577 35.5C25.6879 35.5 25.7481 35.5989 25.7078 35.7151C25.6941 35.7545 25.6365 35.7868 25.5797 35.7868C25.5229 35.7868 25.4646 35.7545 25.4502 35.7151ZM26.0164 35.2474C25.9779 35.1466 26.0239 35.0984 26.1585 35.0984C26.2251 35.0984 26.2631 35.1401 26.2631 35.2132C26.2631 35.3468 26.0648 35.3743 26.0164 35.2474ZM13.0262 36.8244C12.9593 36.6988 12.9714 35.4183 13.0401 35.3493C13.0649 35.3244 13.3089 35.2769 13.5822 35.2437L14.0792 35.1833L14.0588 34.6963C14.0475 34.4284 14.026 34.1888 14.011 34.1637C13.996 34.1386 13.7677 34.1357 13.5036 34.1572L13.0235 34.1964V33.9317C13.0235 33.5049 13.2078 33.4379 14.7888 33.2896C15.5978 33.2138 17.7689 32.9073 19.4436 32.6326C20.5499 32.4511 20.9165 32.4289 21.0068 32.5382C21.0693 32.614 21.0755 32.9925 21.041 34.6114C21.0127 35.9385 20.9783 36.6047 20.9365 36.6306C20.8689 36.6726 20.1018 36.709 16.4087 36.8453C13.2087 36.9633 13.0998 36.9627 13.0262 36.8244ZM13.8706 36.3946C13.9069 36.3721 13.9366 36.2648 13.9366 36.1563C13.9366 35.9619 13.9328 35.9589 13.6912 35.9589C13.5562 35.9589 13.415 35.9899 13.3773 36.0277C13.2892 36.1162 13.2893 36.3179 13.3774 36.4064C13.4471 36.4764 13.7506 36.4692 13.8706 36.3946ZM16.9957 36.3215C17.058 36.2974 17.0763 36.2174 17.0638 36.0234L17.0467 35.7581L16.7614 35.7622C16.6045 35.7645 16.1982 35.7864 15.8586 35.811C15.1782 35.8603 15.1284 35.8933 15.1819 36.2599L15.2074 36.4341L16.0589 36.3942C16.5272 36.3723 16.9488 36.3396 16.9957 36.3215ZM20.057 36.0342C20.0806 36.0206 20.0998 35.8942 20.0998 35.7534V35.4973L19.629 35.532C19.3701 35.5512 19.1261 35.5768 19.0869 35.589C19.0109 35.6125 18.9862 36.0249 19.0565 36.0956C19.0968 36.1361 19.9739 36.0823 20.057 36.0342ZM16.1907 35.1875C18.1573 35.024 18.0454 35.0419 18.0454 34.8912C18.0454 34.7762 18.023 34.7612 17.8885 34.7857C17.8022 34.8014 17.0899 34.8644 16.3058 34.9257C14.9367 35.0327 14.6715 35.0232 14.824 34.8729C14.8724 34.8251 16.027 34.7016 17.275 34.6108C18.0725 34.5528 18.1025 34.5433 18.1025 34.349C18.1025 34.2016 18.085 34.1824 17.9741 34.2078C17.8027 34.2471 15.1098 34.5248 14.9002 34.5248C14.686 34.5248 14.6799 34.3733 14.8924 34.3292C15.2229 34.2607 16.3988 34.1249 17.2563 34.0564C18.1209 33.9873 18.1516 33.9804 18.176 33.8519C18.1899 33.7788 18.1788 33.7049 18.1512 33.6878C18.1237 33.6708 17.4659 33.7339 16.6894 33.8283C14.5287 34.0909 14.6214 34.0849 14.6214 33.961C14.6214 33.8652 14.7715 33.8373 16.205 33.6667C17.076 33.563 17.8761 33.4613 17.9831 33.4407C18.1639 33.4059 18.3362 33.2492 18.2686 33.1811C18.2267 33.1391 16.8436 33.2929 15.563 33.4819C14.5672 33.6289 14.48 33.6511 14.4941 33.7536C14.5706 34.3089 14.6823 35.0367 14.7071 35.1414C14.7445 35.2992 14.8194 35.3015 16.1907 35.1875ZM19.6633 34.7012C19.9841 34.6704 20.2 34.6208 20.2551 34.5654C20.3696 34.4504 20.4339 33.4719 20.3312 33.4081C20.2718 33.3712 18.913 33.5348 18.8499 33.5865C18.8121 33.6175 18.682 34.722 18.7107 34.7687C18.7252 34.7924 18.8319 34.7979 18.9477 34.7809C19.0635 34.7638 19.3855 34.728 19.6633 34.7012ZM21.8689 36.5392L21.4409 36.5038L21.4259 34.5181C21.4131 32.8218 21.4233 32.522 21.4954 32.4618C21.5611 32.4071 21.7082 32.4054 22.1547 32.4542C22.8716 32.5326 23.638 32.536 23.638 32.4608C23.638 32.3775 23.4765 32.3568 22.4396 32.3073C20.5495 32.2172 20.5357 32.2184 17.4748 32.7199C16.8313 32.8253 16.0224 32.9413 15.6771 32.9776C15.3319 33.014 14.6737 33.0934 14.2144 33.1541C13.7552 33.2147 13.3372 33.2481 13.2855 33.2282C13.2338 33.2082 13.1644 33.1409 13.1312 33.0786C13.0357 32.8993 12.971 31.3344 13.0257 30.5272C13.086 29.6372 13.1555 29.2326 13.5655 27.3854C13.94 25.6979 14.0335 25.3527 14.1533 25.2158C14.2485 25.107 16.3638 24.4007 18.9014 23.6304C19.7332 23.3779 20.6766 23.0818 20.9978 22.9723C21.3191 22.8629 21.5945 22.7937 21.6098 22.8187C21.6358 22.861 21.2125 25.3975 20.963 26.6946C20.7722 27.6867 20.7209 28.5076 20.7389 30.2785L20.7561 31.9694L20.9164 32.026C21.0403 32.0698 21.0898 32.0636 21.1343 31.9987C21.1721 31.9436 21.1783 31.3233 21.1523 30.1938C21.0874 27.3727 21.0956 27.2605 21.5584 24.6362C21.8969 22.717 21.8548 22.8799 22.0125 22.8799C22.1364 22.8799 23.3835 23.1161 27.0816 23.8401C28.0541 24.0305 28.5142 24.1445 28.5468 24.2031C28.6506 24.3895 28.7114 25.9706 28.7209 28.731C28.7264 30.3243 28.7278 31.6642 28.724 31.7086C28.7182 31.7761 28.5703 31.7826 27.8182 31.7484C26.769 31.7007 26.3849 31.6463 26.3152 31.5357C26.2876 31.4918 26.2642 29.7908 26.2633 27.7558C26.2624 25.7208 26.2461 23.9978 26.2272 23.9268C26.2083 23.8558 26.1701 23.7977 26.1424 23.7977C26.1137 23.7977 26.092 25.4675 26.092 27.6698C26.092 30.7265 26.0769 31.5429 26.0206 31.5469C25.8609 31.5583 25.3577 31.5378 25.0328 31.5066L24.687 31.4735L24.4172 31.7371C24.1082 32.039 24.122 32.0627 24.4832 31.85C24.8011 31.6627 24.826 31.6631 27.0012 31.8852C28.1299 32.0004 28.6959 32.0804 28.7266 32.1291C28.8023 32.2489 28.7833 32.7455 28.7028 32.7539C28.3368 32.7919 28.0409 32.7252 27.7754 32.5448C26.5812 31.7335 25.1073 31.8722 24.1651 32.8846C23.5403 33.556 23.3678 34.0911 23.3239 35.4939C23.3072 36.0271 23.2684 36.4681 23.2353 36.5014C23.1664 36.5707 22.4795 36.5897 21.8689 36.5392ZM22.8307 36.4383C23.1161 36.4083 23.1815 36.3823 23.1815 36.2988C23.1815 36.159 23.0885 36.1403 22.2969 36.1203C21.6135 36.1031 21.6121 36.1033 21.5929 36.2396C21.5823 36.3147 21.608 36.398 21.6499 36.4248C21.741 36.4828 22.3419 36.4897 22.8307 36.4383ZM23.102 34.3198C23.1223 34.2386 23.1148 34.148 23.0854 34.1184C23.0559 34.0888 22.71 34.0482 22.3166 34.0281C21.6297 33.9931 21.6001 33.9963 21.5709 34.1085C21.5542 34.1727 21.5571 34.2523 21.5774 34.2853C21.5977 34.3183 21.8706 34.3692 22.1839 34.3984C23.0943 34.4834 23.0605 34.4863 23.102 34.3198ZM16.1622 32.6041C17.4822 32.4125 18.0586 32.3168 18.288 32.2511C18.4022 32.2184 18.4255 32.0008 18.3147 32.0008C18.2744 32.0008 17.4008 32.1298 16.3733 32.2876C15.3457 32.4453 14.4927 32.5744 14.4776 32.5744C14.406 32.5744 14.4613 32.4103 14.5437 32.3785C14.6592 32.3339 16.7455 31.9824 17.6745 31.8509C18.0511 31.7977 18.3782 31.7257 18.4012 31.691C18.4243 31.6563 18.4435 31.5668 18.444 31.4921C18.4447 31.3791 18.4234 31.3622 18.3165 31.3913C18.1704 31.431 15.0773 31.9743 14.6642 32.0328C14.4412 32.0643 14.3931 32.0554 14.3931 31.9825C14.3931 31.9337 14.438 31.8801 14.493 31.8633C14.6183 31.8252 16.948 31.4059 17.7886 31.2703C18.4063 31.1706 18.4167 31.1664 18.4347 31.0079C18.4522 30.8545 18.444 30.8483 18.2635 30.88C17.4363 31.0249 14.3941 31.5419 14.3684 31.5419C14.3506 31.5419 14.336 31.4912 14.336 31.4293C14.336 31.3475 14.3944 31.3016 14.55 31.2609C14.7317 31.2134 16.4415 30.9136 17.9927 30.6572C18.2305 30.6179 18.4552 30.567 18.4921 30.5441C18.5523 30.5067 18.5915 30.2225 18.5364 30.2225C18.524 30.2225 17.837 30.3495 17.0098 30.5046C16.1827 30.6598 15.262 30.8309 14.9638 30.8848C14.2128 31.0205 14.2273 31.0091 14.2587 31.4406C14.2973 31.9717 14.3959 32.762 14.4307 32.8186C14.4474 32.8457 14.5292 32.8543 14.6125 32.8375C14.6959 32.8208 15.3932 32.7158 16.1622 32.6041ZM25.6831 30.3687C25.7084 30.1452 25.5731 30.0504 25.2291 30.0504C24.913 30.0504 24.7547 30.1675 24.8137 30.3576C24.8704 30.5405 24.9449 30.5691 25.3215 30.5528C25.6544 30.5384 25.6645 30.5333 25.6831 30.3687ZM15.1539 29.0205C15.6194 28.8928 16.011 28.7884 16.0242 28.7884C16.0373 28.7884 16.0481 28.7515 16.0481 28.7064C16.0481 28.6404 15.9277 28.6568 15.4346 28.79C14.4382 29.0589 14.1466 29.1587 14.1197 29.24C14.1024 29.2922 14.1283 29.3065 14.2009 29.2846C14.2595 29.267 14.6884 29.1482 15.1539 29.0205ZM14.5429 28.6422C15.3724 28.4619 18.4035 27.7585 19.3215 27.5332C19.7335 27.4321 20.0409 27.3244 20.1071 27.2578C20.1843 27.1802 20.2649 26.8917 20.3852 26.2619C20.4784 25.7742 20.6354 25.0185 20.7342 24.5825C20.8367 24.1301 20.8922 23.7694 20.8635 23.7423C20.8358 23.7162 20.4408 23.8055 19.9857 23.9406C15.356 25.3158 14.4875 25.5767 14.4654 25.5989C14.4375 25.6269 13.8062 28.2245 13.7424 28.5733C13.6944 28.8358 13.6641 28.8332 14.5429 28.6422ZM18.2594 28.2607C18.8946 28.1036 19.2438 27.9913 19.2438 27.9439C19.2438 27.9036 19.233 27.8706 19.2197 27.8706C19.0526 27.8706 17.253 28.3561 17.1914 28.4178C17.0629 28.5467 17.1615 28.5322 18.2594 28.2607ZM25.5066 25.9775C25.5143 25.0784 25.4982 24.3076 25.4709 24.2647C25.4308 24.2018 23.2394 23.6931 22.9736 23.685C22.8899 23.6824 22.8278 23.8438 22.866 23.9646C22.8893 24.0383 22.9728 24.0578 23.2619 24.0569C23.4634 24.0562 23.6497 24.0773 23.6759 24.1035C23.7022 24.1297 23.7315 24.6768 23.7411 25.3193C23.7578 26.4339 23.7533 26.4927 23.6413 26.6053C23.575 26.6719 23.4494 26.7233 23.3527 26.7233C23.126 26.7233 23.1123 26.7258 22.996 26.7883C22.8691 26.8566 22.8646 27.1414 22.9889 27.2469C23.0939 27.336 24.9149 27.6359 25.2645 27.6217L25.4927 27.6124L25.5066 25.9775ZM22.4144 27.5398C22.6092 27.4038 22.7674 26.8954 22.6149 26.8954C22.5858 26.8954 22.5215 26.8548 22.4722 26.8052C22.3962 26.7288 22.3829 26.53 22.3846 25.5002C22.3861 24.6073 22.4065 24.2493 22.4616 24.1494C22.5057 24.0694 22.522 23.9418 22.5011 23.8393C22.4619 23.6465 22.3015 23.5071 22.2238 23.5982C22.1517 23.6827 21.6811 27.1652 21.7204 27.3227C21.7689 27.5167 22.2375 27.6633 22.4144 27.5398ZM49.6037 33.4896C49.0858 33.4237 45.6923 33.0722 43.2407 32.8305C42.1108 32.7191 40.1591 32.5247 38.9036 32.3984C37.6481 32.2721 35.9404 32.1055 35.1086 32.0282C34.2768 31.951 33.1983 31.8487 32.7118 31.801C32.2253 31.7533 31.7245 31.7138 31.5989 31.7132C31.2898 31.7117 31.2249 31.6576 31.1924 31.3736C31.1588 31.0795 31.2385 30.9628 31.447 31.0009C31.5306 31.0161 32.2153 31.0917 32.9686 31.1687C34.8552 31.3616 37.352 31.6305 38.818 31.7986C39.4928 31.876 40.4687 31.9793 40.9866 32.0282C41.8994 32.1144 44.243 32.3646 47.9488 32.7715C50.4727 33.0486 50.3551 33.0424 50.3343 32.8968C50.318 32.7829 50.2054 32.7623 48.2056 32.5065C47.0443 32.358 45.1568 32.1306 44.0111 32.0014C42.8655 31.8721 41.4017 31.7037 40.7583 31.6272C40.1148 31.5507 38.9207 31.4221 38.1046 31.3415C37.2886 31.2609 36.1458 31.132 35.5651 31.055C33.8896 30.833 33.3774 30.7878 32.2917 30.7658C31.7311 30.7545 31.2645 30.7372 31.2547 30.7274C31.2449 30.7175 31.2261 29.9543 31.213 29.0314C31.1962 27.8602 31.2078 27.3382 31.2513 27.3032C31.3192 27.2486 32.3123 27.3974 34.9945 27.8638C35.9204 28.0248 37.7951 28.3375 39.1604 28.5586C40.5257 28.7797 43.1194 29.2209 44.9242 29.539C48.2302 30.1216 49.9176 30.4104 50.4168 30.479C50.5934 30.5033 50.7071 30.5527 50.7434 30.6208C50.7762 30.6824 50.7938 31.2985 50.7863 32.1231L50.7736 33.5209L50.3742 33.5288C50.1544 33.5332 49.8078 33.5155 49.6037 33.4896ZM14.3109 24.7536C14.3618 24.581 14.7268 23.9069 14.841 23.7747C14.8928 23.7147 15.0903 23.5943 15.2798 23.5072C15.7918 23.2717 18.0882 22.447 19.8716 21.8581C20.7347 21.573 21.5565 21.2868 21.6977 21.222C22.0596 21.0559 22.3963 21.0707 23.5654 21.304C24.7201 21.5345 27.4818 22.2026 27.8483 22.3401C28.1325 22.4467 28.2691 22.6676 28.4026 23.2366C28.5182 23.7297 28.5135 23.7977 28.3633 23.7977C28.2942 23.7977 27.1322 23.5805 25.781 23.3149C24.4297 23.0494 23.0417 22.7902 22.6964 22.739C22.3512 22.6878 21.9962 22.6226 21.9076 22.5942C21.7805 22.5534 21.5156 22.6073 20.6521 22.8498C19.2753 23.2364 17.5095 23.7886 15.9625 24.3165C14.1716 24.9276 14.2672 24.9023 14.3109 24.7536ZM28.1472 22.9813C28.0826 22.8079 27.981 22.6216 27.9213 22.5673C27.7883 22.4463 27.2636 22.3085 24.9506 21.7872C23.9619 21.5643 22.9561 21.3318 22.7154 21.2705C22.4748 21.2091 22.2634 21.159 22.2456 21.159C22.1383 21.159 21.7542 22.21 21.8326 22.2888C21.8462 22.3025 21.9253 22.1642 22.0084 21.9816C22.1906 21.5815 22.3049 21.4458 22.4594 21.4458C22.5234 21.4458 23.3733 21.6277 24.3481 21.8499C27.448 22.5568 27.7686 22.6649 28.0789 23.1077C28.1631 23.2278 28.2393 23.3195 28.2482 23.3113C28.2572 23.3032 28.2117 23.1547 28.1472 22.9813Z" fill="white"/>
<path d="M42.9094 0.00222953C41.4299 0.0371694 40.0248 0.48213 38.771 1.32052C36.9755 2.52118 35.7472 4.39423 35.3708 6.50552C35.2801 7.0144 35.2373 7.49905 35.2363 7.96374C35.2362 8.04178 35.2401 8.11924 35.2393 8.1962C35.1801 13.9109 40.8281 21.2703 43.0387 25.3332C45.2712 21.2499 50.9739 13.9109 50.9973 8.1962C50.9978 8.07968 51.0012 7.96318 50.9995 7.84667C50.9954 7.58625 50.9789 7.32597 50.9499 7.06685C50.8457 6.13743 50.5803 5.22301 50.1538 4.37185C49.0188 2.10676 46.8409 0.488519 44.4109 0.104623C43.904 0.0245448 43.4026 -0.00941715 42.9094 0.00222953ZM48.0187 8.68712C44.957 12.2977 42.8034 16.0497 39.5124 13.1266C39.1257 12.7832 38.2219 11.8786 37.6725 10.6248C36.944 9.32033 38.887 8.38925 39.3962 9.02019C39.7951 9.51436 40.1372 10.0234 40.6723 10.7078C41.1385 11.3042 41.5597 11.8543 42.2262 11.1648C43.3812 9.96979 45.4704 7.44731 46.3156 6.44803C47.2149 5.38472 49.5424 6.89021 48.0187 8.68712Z" fill="#FFD600"/>
</svg>
